<svg width="1333.333" height="1333.333" xmlns="http://www.w3.org/2000/svg">
  <g stroke="#000" stroke-linejoin="round" stroke-miterlimit="10">
    <path
      d="M833.959 927.526h146.725a28.92 28.92 0 0128.982 28.982v134.725a28.92 28.92 0 01-28.982 28.982H833.959a28.92 28.92 0 01-28.983-28.982V956.508a28.92 28.92 0 0128.983-28.982z"
      fill="#006df0" stroke-width="30.239" stroke-linecap="round" />
    <path
      d="M540.732 43.374h253.543a8.005 8.005 0 018.023 8.023v54.463a8.005 8.005 0 01-8.023 8.023H540.732a8.005 8.005 0 01-8.023-8.023V51.397a8.005 8.005 0 018.023-8.023z"
      fill="#006df0" stroke-width="29.86" />
    <path
      d="M254.637 43.615a28.607 28.607 0 00-28.67 28.67v1193.781a28.607 28.607 0 0028.67 28.67h822.386a28.607 28.607 0 0028.67-28.67V72.286a28.607 28.607 0 00-28.67-28.67H802.16l.138 62.243a7.998 7.998 0 01-8.022 8.024H540.732c-4.444 0-8.045-3.579-8.023-8.024l.302-62.244zm41.566 123.364h733.678a7.365 7.365 0 017.38 7.38v655.604a7.365 7.365 0 01-7.38 7.38H296.203a7.365 7.365 0 01-7.38-7.38V174.359a7.365 7.365 0 017.38-7.38zm538.545 758.994h146.725a28.92 28.92 0 0128.982 28.982v134.725a28.92 28.92 0 01-28.982 28.982H834.748a28.92 28.92 0 01-28.982-28.982V954.955a28.92 28.92 0 0128.982-28.982z"
      fill="#bd408b" stroke-width="30.239" stroke-linecap="round" />
    <g stroke-width="30">
      <path d="M437.474 567.127l-42.66-86.157 55.716-53.207M560.837 567.175l42.66-86.157-55.717-53.207" fill="none"
        stroke-linecap="round" />
      <circle cx="496.863" cy="394.814" r="55.207" fill="#ffda44" />
      <path d="M500.21 341.28v-99.911" fill="none" />
      <rect width="192.987" height="74.605" x="404.556" y="167.641" ry="9.185" fill="#006df0" />
    </g>
    <path
      d="M296.266 165.752h733.678a7.365 7.365 0 017.38 7.381v655.604a7.365 7.365 0 01-7.38 7.38H296.266a7.365 7.365 0 01-7.38-7.38V173.133a7.365 7.365 0 017.38-7.38z"
      fill="#0ff" fill-opacity=".308" stroke-width="30.239" stroke-linecap="round" />
    <rect width="278.197" height="71.149" x="715.085" y="765.611" ry="17.325" fill="#006df0" stroke-width="29.612" />
    <rect width="72.865" height="66.096" x="888.112" y="699.315" ry="9.568" fill="#e0e0e2" stroke-width="29.761" />
    <path d="M788.791 718.528v47.357" fill="none" stroke-width="30" />
    <circle cx="791.301" cy="665.83" r="44.062" fill="#d80027" stroke-width="25.488" />
    <path d="M287.456 1222.639h468.447m-468.447-136h468.447m-468.447-126h468.447" fill="#bd408b" stroke-width="30"
      stroke-linecap="round" />
  </g>
</svg>
