<svg width="1000" height="1000" xmlns="http://www.w3.org/2000/svg">
  <path
    d="M34.17 11.799a22.324 22.324 0 00-22.371 22.374v931.654a22.324 22.324 0 0022.37 22.374H965.83a22.324 22.324 0 0022.371-22.374V34.173a22.324 22.324 0 00-22.37-22.374zm32.433 96.275h862.443c3.19 0 5.759 2.57 5.759 5.76v511.648a5.747 5.747 0 01-5.76 5.76H66.604c-3.19 0-5.759-2.569-5.759-5.76V113.834a5.747 5.747 0 015.76-5.76z"
    fill="#bd408b" stroke="#000" stroke-width="23.597" stroke-linecap="round" stroke-linejoin="round"
    stroke-miterlimit="10" />
  <path
    d="M257.438 11.651H745.3a6.247 6.247 0 016.261 6.262v42.502a6.247 6.247 0 01-6.26 6.261H257.437a6.247 6.247 0 01-6.261-6.261V17.913a6.247 6.247 0 016.261-6.262z"
    fill="#006df0" stroke="#000" stroke-width="23.303" stroke-linejoin="round" stroke-miterlimit="10" />
  <path
    d="M776.27 701.634h114.502a22.568 22.568 0 0122.617 22.617V829.39a22.568 22.568 0 01-22.617 22.617H776.269a22.568 22.568 0 01-22.617-22.617V724.25a22.568 22.568 0 0122.617-22.617z"
    fill="#006df0" stroke="#000" stroke-width="23.598" stroke-linecap="round" stroke-linejoin="round"
    stroke-miterlimit="10" />
  <g stroke="#000" stroke-width="23.412" stroke-linejoin="round" stroke-miterlimit="10">
    <path d="M176.857 420.382l-33.291-67.235 43.48-41.522M273.128 420.42l33.291-67.236-43.48-41.522" fill="none"
      stroke-linecap="round" />
    <path
      d="M266.287 285.911a43.083 43.083 0 01-43.083 43.083 43.083 43.083 0 01-43.083-43.083 43.083 43.083 0 0143.083-43.082 43.083 43.083 0 0143.083 43.082z"
      fill="#ffda44" />
    <path d="M225.815 244.134v-77.97" fill="none" />
    <path
      d="M158.336 108.628h136.27a7.152 7.152 0 017.167 7.168v43.886a7.152 7.152 0 01-7.167 7.168h-136.27a7.152 7.152 0 01-7.168-7.168v-43.886a7.152 7.152 0 017.168-7.168z"
      fill="#006df0" />
  </g>
  <path
    d="M66.66 107.154h862.554c3.19 0 5.76 2.57 5.76 5.76V624.54a5.747 5.747 0 01-5.76 5.76H66.66a5.747 5.747 0 01-5.76-5.76V112.914a5.747 5.747 0 015.76-5.76z"
    fill="#0ff" fill-opacity=".308" stroke="#000" stroke-width="23.598" stroke-linecap="round" stroke-linejoin="round"
    stroke-miterlimit="10" />
  <g stroke="#000" stroke-linejoin="round" stroke-miterlimit="10">
    <path
      d="M697.022 575.278h190.062c7.49 0 13.52 6.03 13.52 13.52v28.484c0 7.49-6.03 13.52-13.52 13.52H697.022a13.49 13.49 0 01-13.52-13.52v-28.484c0-7.49 6.03-13.52 13.52-13.52z"
      fill="#006df0" stroke-width="23.109" />
    <path
      d="M825.997 523.54h41.93a7.45 7.45 0 017.466 7.467v36.648a7.45 7.45 0 01-7.467 7.466h-41.93a7.45 7.45 0 01-7.466-7.466v-36.648a7.45 7.45 0 017.467-7.466z"
      fill="#e0e0e2" stroke-width="23.225" />
    <path d="M741.021 538.534v36.957" fill="none" stroke-width="23.412" />
    <path
      d="M777.365 497.41a34.385 34.385 0 01-34.386 34.385 34.385 34.385 0 01-34.385-34.385 34.385 34.385 0 0134.385-34.386 34.385 34.385 0 0134.386 34.386z"
      fill="#d80027" stroke-width="19.891" />
  </g>
  <path d="M64.814 744.818h620.372m-620.372 90h620.372M64.814 924.822h620.372" fill="#0ff" fill-opacity=".308"
    stroke="#000" stroke-width="29.636" stroke-linecap="round" stroke-linejoin="round" stroke-miterlimit="10" />
</svg>
