<svg viewBox="0 0 480 480" xmlns="http://www.w3.org/2000/svg">
  <path
    d="M10 0A10.001 10.001 0 000 10v400a10.001 10.001 0 0010 10h180v40h-30a10 10 0 00-10 10 10 10 0 0010 10h160a10 10 0 0010-10 10 10 0 00-10-10h-30v-40h180a10.001 10.001 0 0010-10V10a10.001 10.001 0 00-10-10zm10 20h440v320H20zm0 340h440v40H20zm190 60h60v40h-60z" />
  <path
    d="M240 340c-21.973 0-40 18.027-40 40s18.027 40 40 40 40-18.027 40-40-18.027-40-40-40zm0 20c11.164 0 20 8.836 20 20s-8.836 20-20 20-20-8.836-20-20 8.836-20 20-20zM340 0a10 10 0 00-10 10v93.23l-43.715 17.485a10.001 10.001 0 00-5.57 13l20 50a10.001 10.001 0 003.473 4.422l61.671 44.05L342 264a10 10 0 002 14 10 10 0 0014-2l30-40a10.001 10.001 0 00-2.188-14.137l-67.615-48.297L303 135.57l40.715-16.285A10.001 10.001 0 00350 110V10a10 10 0 00-10-10zM10.666.021a10 10 0 00-7.252 2.454 10 10 0 00-.94 14.11l70 80A10.001 10.001 0 0080 100h88.826l-8.765 78.896a10.001 10.001 0 006.777 10.59l60 20a10 10 0 0012.648-6.324 10 10 0 00-6.324-12.648l-52.33-17.444 9.107-81.966A10.001 10.001 0 00180 80H84.537L17.525 3.414A10 10 0 0010.666.021zM87.574 250.3l-80 20A10 10 0 00.3 282.426a10 10 0 0012.127 7.275l73.773-18.443 35.992 44.988a10.001 10.001 0 0014.055 1.563l46.766-37.413 85.884 9.543a10 10 0 0011.043-8.835 10 10 0 00-8.835-11.043l-90-10a10.001 10.001 0 00-7.35 2.13l-42.191 33.754-33.754-42.191a10.001 10.001 0 00-10.235-3.455zM70 370a10 10 0 00-10 10 10 10 0 0010 10h20a10 10 0 0010-10 10 10 0 00-10-10zm60 0a10 10 0 00-10 10 10 10 0 0010 10h20a10 10 0 0010-10 10 10 0 00-10-10z" />
</svg>
