<svg viewBox="0 0 200 200" xmlns="http://www.w3.org/2000/svg">
  <path
    d="M52.568 0c-18.241 0-30.6 2.446-38.581 5-7.982 2.554-12.028 5.608-12.028 5.608A5.19 5.19 0 000 14.662v180.135A5.19 5.19 0 005.203 200a5.19 5.19 0 005.135-5.203V131.69c.748-.522 1.466-1.326 6.824-3.04 6.834-2.187 18.087-4.527 35.406-4.527 16.856 0 31.062 4.515 45.878 9.256 14.816 4.742 30.284 9.73 48.986 9.73 18.241 0 30.6-2.446 38.582-5 7.981-2.554 12.027-5.608 12.027-5.608a5.19 5.19 0 001.959-4.054V14.662a5.19 5.19 0 00-8.446-4.054s-1.882 1.664-8.716 3.851c-6.834 2.187-18.087 4.46-35.406 4.46-16.856 0-31.062-4.448-45.878-9.19C86.738 4.99 71.27 0 52.568 0zm0 10.338c16.856 0 31.062 4.515 45.878 9.257 14.816 4.74 30.284 9.73 48.986 9.73 18.241 0 30.6-2.446 38.581-5 2.419-.775 1.956-.92 3.65-1.69v102.568c-.75.522-1.467 1.326-6.825 3.04-6.834 2.187-18.087 4.527-35.406 4.527-16.857 0-31.062-4.515-45.878-9.256-14.816-4.742-30.284-9.73-48.986-9.73-18.241 0-30.6 2.446-38.581 5-2.419.774-1.956.92-3.65 1.689V17.905c.75-.521 1.467-1.326 6.825-3.04 6.834-2.187 18.087-4.527 35.406-4.527z" />
</svg>
