<svg viewBox="0 0 64 64" xmlns="http://www.w3.org/2000/svg">
  <path
    d="M60.333 22.5H46.5v-6.834h2.167a1.5 1.5 0 100-3h-7.334a1.5 1.5 0 100 3H43.5V22.5H3.667a1.5 1.5 0 00-1.5 1.5v16a1.5 1.5 0 001.5 1.5H43.5v6.834h-2.167a1.5 1.5 0 000 3h7.334a1.5 1.5 0 000-3H46.5V41.5h13.833a1.5 1.5 0 001.5-1.5V24a1.5 1.5 0 00-1.5-1.5zm-55.166 16v-13H43.5v13H5.167zm53.666 0H46.5v-13h12.333v13z" />
  <path
    d="M12.417 27.584A4.421 4.421 0 008 32c0 2.435 1.981 4.416 4.417 4.416s4.417-1.981 4.417-4.416a4.422 4.422 0 00-4.417-4.416zm0 5.832C11.635 33.416 11 32.781 11 32a1.418 1.418 0 012.834 0c0 .781-.636 1.416-1.417 1.416zM36.082 27.584A4.421 4.421 0 0031.666 32a4.421 4.421 0 004.416 4.416A4.421 4.421 0 0040.499 32a4.421 4.421 0 00-4.417-4.416zm0 5.832c-.781 0-1.416-.635-1.416-1.416a1.417 1.417 0 012.833 0c0 .781-.636 1.416-1.417 1.416zM24.249 27.584A4.421 4.421 0 0019.833 32a4.421 4.421 0 004.416 4.416A4.421 4.421 0 0028.666 32a4.421 4.421 0 00-4.417-4.416zm0 5.832c-.781 0-1.416-.635-1.416-1.416a1.417 1.417 0 012.833 0c0 .781-.636 1.416-1.417 1.416z" />
</svg>
