<svg viewBox="0 0 256 256" xmlns="http://www.w3.org/2000/svg">
  <path
    d="M245.1 75.9c-5-4.9-11.5-7.5-18.6-7.3-6.9.1-13.3 3-18.1 8.2-4.8 5.1-7.3 11.8-7.1 18.6.2 5.9 2.5 11.4 6.3 15.8-10 12.4-19.1 18.2-27.8 17.5-11.2-.9-23.1-12.5-35.6-34.8 4.2-3.3 7.3-7.7 8.9-12.9 2.2-7.1 1.1-14.8-2.9-21.8-4.3-7.5-12.6-11.7-22.2-11.4h-.2c-9.6-.3-17.9 3.9-22.2 11.4-4 7-5 14.8-2.9 21.8 1.6 5.1 4.7 9.6 8.9 12.9-12.5 22.2-24.4 33.9-35.6 34.8-8.7.7-17.8-5.1-27.8-17.5 3.8-4.4 6-9.9 6.3-15.8.3-6.8-2.3-13.6-7.1-18.6-4.8-5.1-11.2-8-18.1-8.2-7-.1-13.6 2.5-18.6 7.3C5.7 80.8 3 87.3 3 94.3c0 13.5 10.5 24.6 23.7 25.7l7.5 73.1c.9 8.7 8.1 15.2 16.8 15.2h153.5c8.7 0 16-6.5 16.8-15.2l7.5-73.1c13.3-1 23.7-12.1 23.7-25.7.3-7-2.4-13.5-7.4-18.4zm-18 34.3c-.6 0-1.3-.1-1.9-.1-1.3-.2-2.6.2-3.7 1-1 .8-1.7 2-1.8 3.4l-7.9 77.6c-.4 3.6-3.4 6.3-7 6.3H51.2c-3.6 0-6.6-2.7-7-6.3l-7.9-77.6c-.1-1.3-.8-2.5-1.8-3.4-.9-.7-2-1.1-3.1-1.1h-.6c-.6.1-1.2.1-1.9.1-8.7 0-15.8-7.1-15.8-15.9 0-4.3 1.7-8.3 4.8-11.3 3.1-3 7.2-4.6 11.4-4.5 4.2.1 8.1 1.9 11.1 5.1 3 3.1 4.5 7.3 4.4 11.4-.2 4.6-2.4 8.9-6.1 11.8-2.1 1.7-2.5 4.7-.9 6.9 13.3 17.7 26.1 25.8 39.1 24.9 15.6-1.2 30.6-15.6 45.7-44 .6-1.2.8-2.6.3-3.8-.4-1.3-1.3-2.3-2.5-2.9-3.9-1.9-6.9-5.5-8.2-9.6-1.4-4.5-.7-9.4 2-14 2.4-4.2 7.3-6.6 13.1-6.5.4.1.8.1 1.2 0 5.8-.1 10.7 2.2 13.1 6.5 2.7 4.7 3.4 9.5 2 14-1.3 4.2-4.3 7.7-8.2 9.6-1.2.6-2.1 1.6-2.5 2.9-.4 1.3-.3 2.7.3 3.8 15.1 28.4 30.1 42.8 45.7 44 13.1 1 25.9-7.1 39.1-24.9 1.6-2.2 1.2-5.2-.9-6.9-3.7-2.9-5.9-7.2-6.1-11.8-.2-4.1 1.4-8.3 4.4-11.4 3-3.2 6.9-5 11.1-5.1 4.3-.1 8.4 1.5 11.4 4.5 3.1 3 4.8 7 4.8 11.3.2 8.9-6.9 16-15.6 16z" />
</svg>
