<svg viewBox="0 0 24 24" xmlns="http://www.w3.org/2000/svg">
  <path
    d="M16.972.043c-2.407-.257-4.687.665-6.276 2.255C8.669 4.324 7.788 7.47 8.99 10.575L.963 18.602c-.704.704-1.005 1.564-.958 2.365.047.8.415 1.527.958 2.07.543.543 1.27.911 2.07.958.8.047 1.661-.254 2.365-.958l8.027-8.027c3.104 1.202 6.25.32 8.277-1.706 2.12-2.12 3.053-5.463 1.586-8.704l-.357-.788-5.118 5.118a.589.589 0 01-.836 0L15.07 7.023a.589.589 0 010-.837l.01-.01 5.108-5.107L19.4.71a7.907 7.907 0 00-2.428-.668zm-.14 1.182c.387.042.786.21 1.18.327l-3.779 3.779-.016.014v.002a1.806 1.806 0 000 2.515v.002l1.919 1.919h.002c.693.679 1.821.679 2.514 0h.003l3.792-3.795c.741 2.476.02 4.86-1.591 6.47-1.805 1.805-4.574 2.605-7.366 1.342l-.376-.171-8.562 8.562c-.492.493-.978.638-1.449.61-.47-.028-.94-.255-1.294-.61-.355-.354-.582-.824-.61-1.294-.028-.471.117-.957.61-1.45l8.562-8.561-.17-.377c-1.264-2.79-.464-5.56 1.34-7.365 1.354-1.354 3.25-2.142 5.291-1.919z" />
</svg>
