<svg xmlns="http://www.w3.org/2000/svg" viewBox="0 0 296.473 296.473">
  <path
    d="M148.237 0C66.368 0 .001 66.367.001 148.236s66.367 148.236 148.236 148.236c81.867 0 148.234-66.367 148.234-148.236S230.104 0 148.237 0zm73.838 38.495l-9.446 13.962a114.742 114.742 0 00-42.319-17.506l3.314-16.525a130.679 130.679 0 0148.451 20.069zm-66.172 175.53v17.211h-14v-17.124c-10-1.099-19.384-4.93-26.44-11.495-7.058-6.564-10.286-16.215-10.054-28.941l.358-.439h24.726c0 8 1.779 13.311 5.336 16.664 3.558 3.355 8.082 5.035 13.578 5.035 5.263 0 9.297-1.4 12.102-4.207 2.805-2.805 4.208-6.577 4.208-11.32 0-4.686-1.345-8.502-4.034-11.451-2.689-2.95-7.303-5.696-13.838-8.242-12.841-4.686-22.371-9.904-28.588-15.66-6.218-5.755-9.326-13.867-9.326-24.336 0-9.718 2.873-17.684 9.089-23.902 6.217-6.217 14.881-9.876 24.881-10.976V66.236h14v18.778c10 1.505 18.31 5.756 24.123 12.754 5.813 6.999 8.728 15.976 8.613 27.138l-.193.33h-24.727c0-7-1.403-11.984-4.208-15.686-2.806-3.701-6.637-5.501-11.495-5.501-4.976 0-8.676 1.457-11.105 4.32-2.43 2.863-3.643 6.681-3.643 11.423 0 4.511 1.286 8.176 3.86 10.981 2.573 2.806 7.302 5.571 14.186 8.289 12.782 5.032 22.254 10.412 28.413 16.139 6.16 5.726 9.24 13.738 9.24 24.033 0 10.064-3.361 18.105-9.549 24.12-6.189 6.017-14.513 9.573-25.513 10.671zM122.85 18.426l3.192 16.549a114.758 114.758 0 00-42.3 17.55l-9.343-14.03a130.672 130.672 0 0148.451-20.069zM38.496 74.397l13.962 9.446a114.735 114.735 0 00-17.505 42.318l-16.526-3.314a130.715 130.715 0 0120.069-48.45zm-.001 147.676a130.677 130.677 0 01-20.068-48.451l16.549-3.192a114.762 114.762 0 0017.55 42.301l-14.031 9.342zm35.902 35.903l9.446-13.962a114.724 114.724 0 0042.32 17.507l-3.314 16.526a130.69 130.69 0 01-48.452-20.071zm99.226 20.071l-3.192-16.549a114.752 114.752 0 0042.302-17.551l9.343 14.03a130.68 130.68 0 01-48.453 20.07zm84.355-55.973l-13.962-9.446a114.747 114.747 0 0017.505-42.319l16.525 3.314a130.71 130.71 0 01-20.068 48.451zm3.519-96.033a114.759 114.759 0 00-17.551-42.302l14.03-9.343a130.683 130.683 0 0120.069 48.452l-16.548 3.193z" />
</svg>
