<svg viewBox="0 0 3013.004 2930.36" xmlns="http://www.w3.org/2000/svg">
  <path
    d="M649.389 2388.66c0 9.346 6.226 13.783 13.613 13.783 10.338 0 16.89-6.566 19.192-13.292.493-1.469.81-3.106.81-4.598v-13.764c-15.746-.332-33.615 2.456-33.615 17.869M495.934 2340.434c-14.602 0-21.004 13.461-22.144 23.46h42.15c.16-9.187-3.78-23.46-20.006-23.46M584.869 2341.577c-9.844 0-19.03 6.733-21.984 17.73-.32 1.64-.818 3.6-.818 5.9v14.262c0 1.817.334 3.621.658 5.246 2.794 10.023 11.149 16.9 21.645 16.9 15.096 0 24.128-12.305 24.128-30.509 0-15.9-8.205-29.53-23.63-29.53M348.901 2388.66c0 9.346 6.218 13.783 13.61 13.783 10.337 0 16.894-6.566 19.19-13.292.49-1.469.814-3.106.814-4.598v-13.764c-15.743-.332-33.614 2.456-33.614 17.869M139.631 2314.033c-12.624 0-21.813 15.416-21.813 44.44 0 27.73 8.536 43.477 21.648 43.477 14.762 0 21.816-17.236 21.816-44.453 0-26.238-6.726-43.465-21.65-43.465M757.359 2341.577c-9.839 0-19.035 6.733-21.985 17.73-.318 1.64-.818 3.6-.818 5.9v14.262c0 1.817.339 3.621.659 5.246 2.79 10.023 11.15 16.9 21.645 16.9 15.096 0 24.127-12.305 24.127-30.509 0-15.9-8.205-29.53-23.628-29.53"
    fill="#fff" />
  <path
    d="M877.479 2374.215h-55.77c.332 19.535 12.794 27.576 27.231 27.576 10.337 0 16.555-1.805 21.98-4.105l2.456 10.327c-5.087 2.296-13.781 5.085-26.405 5.085-24.435 0-39.032-16.24-39.032-40.183 0-23.948 14.104-42.806 37.229-42.806 25.912 0 32.805 22.796 32.805 37.397 0 2.95-.33 5.245-.493 6.71m-117.666 38.882c-11.467 0-20.664-4.421-26.562-14.919h-.497l-.653 13.118h-12.47c.328-5.412.662-13.454.662-20.499v-95.965h14.264v49.87h.338c5.07-8.85 14.263-14.594 27.056-14.594 19.688 0 33.632 16.405 33.459 40.506 0 28.382-17.87 42.483-35.596 42.483m-74.667-1.801l-1.15-10.004h-.504c-4.424 6.237-12.954 11.805-24.276 11.805-16.067 0-24.267-11.307-24.267-22.801 0-19.19 17.053-29.684 47.736-29.526v-1.63c0-6.57-1.808-18.378-18.044-18.378-7.388 0-15.096 2.298-20.674 5.904l-3.272-9.51c6.56-4.254 16.065-7.048 26.073-7.048 24.277 0 30.181 16.558 30.181 32.465v29.692c0 6.893.337 13.619 1.307 19.03zm-97.822 1.801c-11.468 0-20.664-4.421-26.564-14.919h-.493l-.658 13.118h-12.468c.328-5.412.667-13.454.667-20.499v-95.965h14.257v49.87h.334c5.082-8.85 14.269-14.594 27.066-14.594 19.679 0 33.623 16.404 33.454 40.506 0 28.382-17.87 42.483-35.595 42.483m-57.933-38.883h-55.777c.333 19.535 12.798 27.576 27.23 27.576 10.338 0 16.57-1.805 21.98-4.105l2.456 10.327c-5.081 2.296-13.778 5.085-26.4 5.085-24.44 0-39.03-16.24-39.03-40.183 0-23.948 14.098-42.806 37.226-42.806 25.919 0 32.803 22.796 32.803 37.397 0 2.95-.33 5.245-.488 6.71m-74.663-31.314h-19.18v68.395h-14.277v-68.395h-11.15v-10.996h11.15v-3.772c0-11.153 2.456-21.317 9.19-27.718 5.414-5.252 12.62-7.383 19.355-7.383 5.086 0 9.504 1.147 12.3 2.297l-1.962 11.154c-2.143-.98-5.087-1.808-9.198-1.808-12.294 0-15.408 10.834-15.408 22.974v4.256h19.18zm-70.08 68.395l-1.146-10.004h-.493c-4.423 6.237-12.956 11.805-24.28 11.805-16.071 0-24.271-11.307-24.271-22.801 0-19.19 17.057-29.684 47.73-29.526v-1.63c0-6.57-1.8-18.378-18.034-18.378-7.392 0-15.095 2.298-20.675 5.904l-3.277-9.51c6.56-4.254 16.07-7.048 26.07-7.048 24.28 0 30.183 16.558 30.183 32.465v29.692c0 6.893.333 13.619 1.312 19.03zm-81.062-9.843c8.2 0 13.605-2.136 17.705-3.941l2.47 10.83c-3.78 1.966-12.135 4.755-22.811 4.755-23.943 0-39.521-16.4-39.521-40.681 0-24.446 16.725-42.15 42.649-42.15 8.519 0 16.067 2.136 19.997 4.094l-3.268 11.156c-3.441-1.959-8.866-3.763-16.729-3.763-18.203 0-28.05 13.452-28.05 30.007 0 18.377 11.81 29.693 27.558 29.693m-64.34 9.843l-11.644-17.886c-3.122-4.588-5.742-9.012-8.533-13.77h-.324c-2.63 4.912-5.427 9.017-8.373 13.77l-11.475 17.886h-15.916l28.221-40.508-26.916-38.883h16.08l11.315 17.061c2.964 4.43 5.427 8.53 8.04 12.954h.493c2.632-4.75 5.252-8.855 7.878-13.112l11.154-16.903h15.572l-27.056 38.385 27.888 41.006zm-100.597 1.801c-20.835 0-34.933-19.507-35.272-54.788 0-35.745 15.43-55.437 37.08-55.437 22.463 0 35.256 20.012 35.256 53.977 0 36.241-13.453 56.248-37.064 56.248m810.3-246.81l-916.557.007c-17.888 0-32.396 14.386-32.396 32.14v309.256c0 17.75 14.507 32.153 32.397 32.153h916.557c17.889 0 32.4-14.402 32.4-32.153v-309.255c0-17.755-14.511-32.148-32.4-32.148"
    fill="#fff" />
  <path
    d="M844.025 2340.434c-14.6 0-21 13.461-22.142 23.46h42.152c.158-9.187-3.783-23.46-20.008-23.46M776.087 2730.885c-13.69 0-19.693 12.628-20.77 22.015h39.536c.15-8.624-3.542-22.015-18.766-22.015M691.426 2731.81c-14.003 0-22.312 12.315-22.312 28.78 0 15.071 7.377 27.534 22 27.534 9.086 0 17.39-5.998 19.84-16.15.465-1.854.613-3.692.613-5.848v-12.928c0-1.693-.148-4-.613-5.686-1.987-8.622-9.38-15.702-19.527-15.702M367.99 2731.965c-9.237 0-17.857 6.312-20.63 16.619-.3 1.545-.76 3.39-.76 5.541v13.38c0 1.705.31 3.393.61 4.924 2.62 9.396 10.462 15.845 20.31 15.845 14.16 0 22.622-11.533 22.622-28.609 0-14.925-7.693-27.699-22.153-27.699M266.708 2776.125c0 8.768 5.84 12.927 12.77 12.927 9.694 0 15.846-6.148 18.003-12.464.459-1.375.758-2.92.758-4.31v-12.916c-14.767-.314-31.53 2.306-31.53 16.763"
    fill="#fff" />
  <path
    d="M865.973 2797.362l-1.072-9.386h-.462c-4.164 5.85-12.156 11.07-22.776 11.07-15.076 0-22.768-10.606-22.768-21.382 0-17.999 16.001-27.848 44.776-27.7v-1.53c0-6.162-1.694-17.237-16.927-17.237-6.925 0-14.153 2.16-19.39 5.536l-3.074-8.919c6.153-3.994 15.075-6.613 24.46-6.613 22.773 0 28.313 15.533 28.313 30.459v27.845c0 6.463.314 12.779 1.227 17.857zm-58.5-34.785h-52.32c.314 18.32 12.002 25.863 25.542 25.863 9.698 0 15.538-1.694 20.63-3.852l2.302 9.689c-4.774 2.152-12.928 4.77-24.765 4.77-22.932 0-36.622-15.23-36.622-37.694 0-22.463 13.227-40.152 34.928-40.152 24.307 0 30.767 21.387 30.767 35.075 0 2.773-.314 4.93-.463 6.301m-93.897 34.788l-.613-12.933h-.314c-4.145 8.317-13.226 14.616-25.377 14.616-18.01 0-31.85-15.23-31.85-37.84-.163-24.772 15.235-40.005 33.385-40.005 11.393 0 19.084 5.388 22.462 11.39h.299v-44.477h13.547v90.009c0 6.617.148 14.16.61 19.237zm-93.598 0h-13.078v-87.398h-.298l-17.387 9.386-2.62-10.302 21.85-11.698h11.534zm-72.196 0l-.612-12.933h-.315c-4.145 8.317-13.232 14.616-25.377 14.616-18.008 0-31.85-15.23-31.85-37.84-.157-24.772 15.237-40.005 33.39-40.005 11.382 0 19.08 5.388 22.462 11.39h.294v-44.477h13.55v90.009c0 6.617.15 14.16.614 19.237zm-85.743 0l-1.074-9.39h-.459c-4.15 5.85-12.156 11.073-22.777 11.073-15.07 0-22.767-10.607-22.767-21.383 0-17.999 16.001-27.848 44.776-27.7v-1.53c0-6.162-1.693-17.237-16.928-17.237-6.924 0-14.152 2.158-19.39 5.536l-3.073-8.918c6.154-3.995 15.076-6.613 24.462-6.613 22.773 0 28.31 15.533 28.31 30.458v27.845c0 6.463.315 12.779 1.227 17.858zm-91.754 1.683c-10.753 0-19.373-4.146-24.913-13.99h-.463l-.613 12.307h-11.703c.31-5.08.628-12.621.628-19.239v-90.01h13.381v46.778h.31c4.76-8.303 13.38-13.691 25.38-13.691 18.463 0 31.551 15.382 31.38 38 0 26.617-16.757 39.845-33.386 39.845m-70.04-1.684l-1.08-9.387h-.464c-4.154 5.848-12.15 11.07-22.77 11.07-15.072 0-22.763-10.606-22.763-21.382 0-17.999 15.996-27.848 44.773-27.7v-1.53c0-6.162-1.69-17.237-16.925-17.237-6.93 0-14.159 2.158-19.395 5.536l-3.066-8.918c6.15-3.995 15.068-6.613 24.448-6.613 22.777 0 28.317 15.533 28.317 30.458v27.845c0 6.463.308 12.779 1.227 17.858zm-69.729 0l-10.92-16.782c-2.933-4.306-5.39-8.452-8.008-12.912h-.302c-2.466 4.61-5.087 8.455-7.852 12.912l-10.764 16.782h-14.936l26.48-38-25.248-36.47h15.084l10.613 15.998c2.779 4.16 5.085 8.004 7.54 12.152h.459c2.472-4.462 4.926-8.307 7.393-12.303l10.463-15.846h14.605l-25.383 36.003 26.16 38.467zm-94.36 1.684c-19.545 0-32.771-18.3-33.085-51.384 0-33.541 14.467-52.005 34.777-52.005 21.07 0 33.07 18.765 33.07 50.623 0 34.003-12.614 52.766-34.763 52.766m812.795-242.246H32.394c-17.89 0-32.396 14.396-32.396 32.157v309.252c0 17.758 14.507 32.151 32.396 32.151h916.558c17.888 0 32.4-14.393 32.4-32.152V2588.96c0-17.759-14.512-32.157-32.4-32.157"
    fill="#fff" />
  <path
    d="M525.633 2731.81c-14.004 0-22.313 12.315-22.313 28.78 0 15.071 7.382 27.534 21.998 27.534 9.083 0 17.392-5.998 19.848-16.15.464-1.854.607-3.692.607-5.848v-12.928c0-1.693-.143-4-.607-5.686-1.993-8.622-9.385-15.702-19.533-15.702M137.072 2706.116c-11.836 0-20.46 14.472-20.46 41.696 0 26.005 8.007 40.777 20.311 40.777 13.84 0 20.453-16.161 20.453-41.693 0-24.619-6.3-40.78-20.304-40.78M428.506 2776.125c0 8.768 5.835 12.927 12.766 12.927 9.7 0 15.846-6.148 18.004-12.464.461-1.375.766-2.92.766-4.308v-12.918c-14.77-.314-31.534 2.306-31.534 16.763M832.441 2776.125c0 8.768 5.834 12.927 12.764 12.927 9.7 0 15.846-6.148 18.004-12.464.462-1.375.767-2.92.767-4.308v-12.918c-14.77-.314-31.535 2.306-31.535 16.763M630.166 1951.282c-9.653 0-18.681 6.606-21.57 17.397-.32 1.613-.809 3.537-.809 5.79v13.998c0 1.784.33 3.555.648 5.15 2.742 9.834 10.95 16.59 21.254 16.59 14.806 0 23.673-12.076 23.673-29.941 0-15.623-8.05-28.984-23.196-28.984M285.785 1951.123c-14.657 0-23.346 12.88-23.346 30.11 0 15.773 7.722 28.814 23.016 28.814 9.506 0 18.205-6.276 20.765-16.897.488-1.944.648-3.867.648-6.12v-13.528c0-1.775-.16-4.187-.648-5.95-2.083-9.026-9.813-16.429-20.435-16.429M433.346 1997.494c0 9.176 6.107 13.528 13.351 13.528 10.153 0 16.59-6.446 18.84-13.052.49-1.435.797-3.048.797-4.503v-13.52c-15.453-.33-32.988 2.41-32.988 17.547M715.235 1950.146c-14.328 0-20.605 13.222-21.732 23.034h41.37c.162-9.016-3.706-23.034-19.638-23.034M534.974 1951.123c-14.648 0-23.333 12.88-23.333 30.11 0 15.773 7.71 28.814 23.013 28.814 9.507 0 18.193-6.276 20.764-16.897.49-1.944.64-3.867.64-6.12v-13.528c0-1.775-.15-4.187-.64-5.95-2.08-9.026-9.824-16.429-20.444-16.429M374.381 1950.146c-14.326 0-20.614 13.222-21.741 23.034h41.38c.158-9.016-3.718-23.034-19.64-23.034"
    fill="#fff" />
  <path
    d="M886.459 1916.827c-2.102-.956-4.991-1.772-9.016-1.772-12.076 0-15.134 10.63-15.134 22.557v4.175h18.83v10.79h-18.831v67.134h-14.01v-67.135h-10.95v-10.789h10.95v-3.716c0-10.94 2.413-20.916 9.018-27.202 5.31-5.15 12.393-7.242 19.001-7.242 4.99 0 9.326 1.124 12.064 2.262zm-57.679 66.488h-54.75c.329 19.17 12.565 27.061 26.734 27.061 10.14 0 16.25-1.764 21.58-4.025l2.41 10.133c-5 2.25-13.531 4.99-25.925 4.99-23.98 0-38.31-15.93-38.31-39.444 0-23.506 13.84-42.008 36.548-42.008 25.426 0 32.192 22.38 32.192 36.697 0 2.899-.318 5.161-.479 6.596m-80.706 0h-54.739c.32 19.17 12.555 27.061 26.723 27.061 10.152 0 16.26-1.764 21.58-4.025l2.412 10.133c-4.992 2.25-13.531 4.99-25.915 4.99-23.993 0-38.32-15.93-38.32-39.444 0-23.506 13.84-42.008 36.547-42.008 25.436 0 32.2 22.38 32.2 36.697 0 2.899-.327 5.161-.488 6.596m-115.497 38.16c-11.26 0-20.276-4.335-26.064-14.636h-.488l-.648 12.872H593.13c.328-5.31.658-13.2.658-20.127V1905.4h14v48.941h.328c4.98-8.688 14.008-14.318 26.562-14.318 19.32 0 33.01 16.092 32.84 39.757 0 27.856-17.533 41.696-34.942 41.696m-74.419-1.764l-.637-13.53h-.328c-4.344 8.698-13.85 15.294-26.563 15.294-18.84 0-33.328-15.93-33.328-39.595-.16-25.925 15.942-41.858 34.933-41.858 11.926 0 19.976 5.63 23.512 11.908h.31v-46.53h14.178v94.184c0 6.927.15 14.816.638 20.127zm-89.72 0l-1.126-9.821h-.49c-4.353 6.126-12.713 11.585-23.832 11.585-15.762 0-23.813-11.099-23.813-22.367 0-18.842 16.737-29.144 46.85-28.996v-1.593c0-6.445-1.765-18.035-17.717-18.035-7.244 0-14.806 2.252-20.285 5.788l-3.21-9.336c6.437-4.173 15.763-6.914 25.589-6.914 23.832 0 29.62 16.25 29.62 31.864v29.144c0 6.766.329 13.37 1.285 18.68zm-61.217-36.396h-54.75c.329 19.17 12.564 27.061 26.733 27.061 10.142 0 16.258-1.764 21.57-4.025l2.411 10.133c-4.981 2.25-13.52 4.99-25.905 4.99-23.992 0-38.32-15.93-38.32-39.444 0-23.506 13.84-42.008 36.547-42.008 25.44 0 32.191 22.38 32.191 36.697 0 2.899-.328 5.161-.477 6.596m-98.261 36.396l-.639-13.53h-.328c-4.333 8.698-13.838 15.294-26.562 15.294-18.832 0-33.319-15.93-33.319-39.595-.17-25.925 15.943-41.858 34.933-41.858 11.916 0 19.967 5.63 23.503 11.908h.32v-46.53h14.168v94.184c0 6.927.148 14.816.637 20.127zm-82.626 0l-11.43-17.556c-3.07-4.51-5.64-8.848-8.38-13.51h-.318c-2.571 4.822-5.311 8.849-8.211 13.51l-11.259 17.556h-15.632l27.698-39.764-26.414-38.16h15.786l11.108 16.737c2.9 4.355 5.31 8.382 7.89 12.718h.48c2.58-4.666 5.15-8.692 7.742-12.876l10.94-16.579h15.284l-26.554 37.68 27.37 40.244zm-98.74 1.764c-20.447 0-34.296-19.15-34.625-53.775 0-35.09 15.146-54.42 36.397-54.42 22.05 0 34.604 19.638 34.604 52.975 0 35.583-13.2 55.22-36.376 55.22m821.358-245.702H32.395c-17.89 0-32.397 14.385-32.397 32.14v309.258c0 17.749 14.507 32.152 32.397 32.152h916.558c17.888 0 32.4-14.403 32.4-32.152v-309.258c0-17.755-14.512-32.147-32.4-32.147"
    fill="#fff" />
  <path
    d="M128.55 1924.231c-12.387 0-21.401 15.145-21.401 43.63 0 27.211 8.369 42.675 21.24 42.675 14.489 0 21.413-16.92 21.413-43.63 0-25.758-6.595-42.675-21.254-42.675M795.94 1950.146c-14.338 0-20.605 13.222-21.73 23.034h41.367c.152-9.016-3.716-23.034-19.636-23.034"
    fill="#fff" />
  <path
    d="M728.006 1546.021c0-4.973-.84-9.317-2.332-13.17l.413 19.088a16.101 16.101 0 01-.528 5.522c1.57-3.413 2.447-7.192 2.447-11.44M735.622 1419.764c-.308-.045-.702-.05-1.3.423-3.938 3.133-7.107 17.085-8.875 38.333 6.913.606 13.488 1.88 19.72 3.823-2.987-31.68-7.028-42.11-9.547-42.579"
    fill="#222221" />
  <path
    d="M319.267 1664.492c-13.652 14.372-30.074 21.574-49.262 21.574H180.48v-57.253l83.273.692c3.938 0 7.171-1.466 9.711-4.39 2.544-2.934 3.828-6.38 3.828-10.378 0-8.653-5.436-12.99-16.307-12.99-22.447 0-40.942-7.183-55.527-21.572-14.572-14.37-21.858-32.344-21.858-53.905 0-19.243 7.23-35.424 21.686-48.527 14.458-13.1 31.513-19.653 51.182-19.653H396.99l-59.326 58.988h-83.272c-3.713 0-6.778.764-9.206 2.286-2.427 1.527-3.866 4.154-4.334 7.907 0 6.792 2.428 11.48 7.286 14.05 4.855 2.584 10.76 3.867 17.702 3.867 21.504 0 39.21 6.55 53.087 19.653 13.881 13.103 20.813 29.511 20.813 49.222 0 19.24-6.819 36.058-20.475 50.429m472.023 49.524c1.773-1.147-59.906 5.481-59.906 5.481l-21.474-32.599 32.534 24.239 65.817-8.89 29.589 32.362 112.253-47.345c-58.28-73.19-177.802-221.85-178.889-211.46 1.712 1.291 3.404 2.623 5.036 4.072 16.42 14.586 24.624 36.342 24.624 65.27 0 22.675-8.272 42.115-24.806 58.325-16.534 16.194-36.034 24.298-58.467 24.298h-46.14v-55.512l28.095-.356c9.25 0 16.309-2.44 21.164-7.342.033-.034.053-.072.085-.104a8.861 8.861 0 01-4.084 1.464c-2.377.224-4.755-.583-6.73-2.246-2.706-2.28-4.44-5.929-4.76-10.016l-.726-36.706s-3.405-.31-5.288-.31h-43.723v169.425H593.03V1520.68l1.644-1.65-.576-40.658c-2.806-40.176-11.276-88.735-35.467-93.111h-63.002c-3.531 20.862-8.418 51.449-6.97 52.897.632.633 4.443 8.684 9.558 19.848h59.093l-40.725 40.726c2.6 5.819 5.062 11.35 7.222 16.207l56.74-56.933v223.79c19.833 11.278 38.973 22.03 46.29 25.721 2.23.865 3.354 1.353 3.063 1.353-.262 0-1.341-.485-3.064-1.353-8.497-3.304-33.285-12.201-59.298-21.45h-49.45v-17.511c-7.934-2.8-14.569-5.138-19.074-6.723v24.233H355.015V1520.68l62.46-62.674h30.755l-3.709-5.862v-66.883H149.374c23.073 33.474 44.285 64.105 50.794 73.083 1.32 1.599 2.051 2.535 2.051 2.647 0 .124-.727-.823-2.05-2.647-7.458-9.038-34.422-40.042-63.294-73.083H32.397c-17.89 0-32.398 14.386-32.398 32.142v120.732c20.924 9.153 46.444 20.048 47.738 19.325 2.206-1.235 23.54 63.501 25.746 63.501 2.207 0 25.748 7.355 25.748 7.355l23.539 15.45v30.895l-8.09-25.012-17.657-11.433-38.986-4.015s-33.174-51.138-33.204-54.284c-1.71.819-15.419 4.85-24.834 7.58v139.164a31.9 31.9 0 001.603 9.988c20.543-2.176 46.135-4.919 46.135-5.37 0-.762 28.689-17.627 28.689-17.627l-23.54 25.748-39.747 13.113a32.42 32.42 0 0019.258 6.301h674.34l-35.92-32.656 59.323 32.656h120.19l-37.649-15.509s-23.165-28.144-21.392-29.29"
    fill="#fff" />
  <path
    d="M417.476 1544.835h81.536v51.702l5.094-50.24-18.545-29.303h-68.085zM417.476 1628.813h78.264l2.849-28.11h-81.113z"
    fill="#fff" />
  <path
    d="M1902.772 352.543l-14.985 322.697L1518.3 584.1l-17.059 244.946-276.336 52.883 129.767 265.727-379.644.781 76.108 270.626-198.133 69.174 174.744-84.068-81.039-280.183 380.66 1.862-131.517-263.706 281.58-58.953 6.466-259.393 345.36 80.91z"
    fill="#383836" />
  <path
    d="M1740.503 1229.945s-39.106-66.723-107.296-71.448c-68.185-4.725 58.074 77.047 58.074 77.047s46.509 23.053 33.303 34.8c-13.205 11.746-74.762-15.028-74.622 14.525.137 29.554 20.835 35.913 68.856 37.13 48.021 1.218 19.146 18.21 19.146 18.21s-21.273 12.49-6.674 22.7c14.6 10.208 36.266-10.098 50.122-9.138 13.855.96 44.814 6.52 51.432 16.174z"
    fill="#9c9b9b" />
  <path
    d="M1740.503 1229.945s-39.106-66.723-107.296-71.448c-68.185-4.725 58.074 77.047 58.074 77.047s46.509 23.053 33.303 34.8c-13.205 11.746-74.762-15.028-74.622 14.525.137 29.554 20.835 35.913 68.856 37.13 48.021 1.218 19.146 18.21 19.146 18.21s-21.273 12.49-6.674 22.7c14.6 10.208 36.266-10.098 50.122-9.138 13.855.96 44.814 6.52 51.432 16.174z"
    fill="none" stroke="#fff" stroke-width="7.999979999999999" stroke-linecap="round" stroke-linejoin="round"
    stroke-miterlimit="10" />
  <path
    d="M2241.515 530.559s44.097 66.083 84.512 70.266c40.413 4.179 177.416-23.504 296.971-175.026 119.557-151.524 143.524-241.833 199.266-239.595 55.744 2.236 25.534 401.525-48.774 471.498 0 0-11.75 6.348-5.281 12.06 6.466 5.712 26.253-14.933 26.253-14.933s147.927-201.538 197.58-184.298c49.654 17.24-11.578 321.54-160.159 392.907 0 0-10.632.413-8.79 16.74 1.84 16.326 90.669-38.023 90.669-38.023s56.62-50.118 74.703-39.674c18.08 10.442-11.458 125.387-92.029 187.653-80.569 62.263-326.203 213.856-553.341 225.659 0 0-10.347-.733-7.41 6.63 2.937 7.363 19.774 26.586 139.968 24.9 120.192-1.686 147.525-25.417 162.447-.677 14.922 24.741-44.962 70.655-135.068 99.995 0 0-8.26 1.836-6.516 7.733 1.744 5.893 61.636 4.188 98.026 2.155 36.394-2.035 155.137-25.051 148.715 14.29-6.424 39.343-195.253 116.293-270.21 122.66 0 0-14.21 10.633 74.911 36.325 89.12 25.693 120.567 54.832 114.813 73.063-5.936 18.816-147.835 18.662-259.116 2.444-111.28-16.219-416.287-57.63-542.939-198.259-126.65-140.63-226.54-297.541-55.564-524.598l20.652-25.11s.296-9.367-8.02-10.226c-8.314-.861-21.626-.557-20.689-7.184.939-6.627 26.872-20.08 63.438-9.573 0 0 106.039-85.854 121.408-133.684 15.37-47.83 24.019-85.932 24.019-85.932s52.346-51.064 52.452-52.062c.102-.998 183.105-28.124 183.105-28.124"
    fill="#fff" />
  <path
    d="M2241.515 530.559s44.097 66.083 84.512 70.266c40.413 4.179 177.416-23.504 296.971-175.026 119.557-151.524 143.524-241.833 199.266-239.595 55.744 2.236 25.534 401.525-48.774 471.498 0 0-11.75 6.348-5.281 12.06 6.466 5.712 26.253-14.933 26.253-14.933s147.927-201.538 197.58-184.298c49.654 17.24-11.578 321.54-160.159 392.907 0 0-10.632.413-8.79 16.74 1.84 16.326 90.669-38.023 90.669-38.023s56.62-50.118 74.703-39.674c18.08 10.442-11.458 125.387-92.029 187.653-80.569 62.263-326.203 213.856-553.341 225.659 0 0-10.347-.733-7.41 6.63 2.937 7.363 19.774 26.586 139.968 24.9 120.192-1.686 147.525-25.417 162.447-.677 14.922 24.741-44.962 70.655-135.068 99.995 0 0-8.26 1.836-6.516 7.733 1.744 5.893 61.636 4.188 98.026 2.155 36.394-2.035 155.137-25.051 148.715 14.29-6.424 39.343-195.253 116.293-270.21 122.66 0 0-14.21 10.633 74.911 36.325 89.12 25.693 120.567 54.832 114.813 73.063-5.936 18.816-147.835 18.662-259.116 2.444-111.28-16.219-416.287-57.63-542.939-198.259-126.65-140.63-226.54-297.541-55.564-524.598l20.652-25.11s.296-9.367-8.02-10.226c-8.314-.861-21.626-.557-20.689-7.184.939-6.627 26.872-20.08 63.438-9.573 0 0 106.039-85.854 121.408-133.684 15.37-47.83 24.019-85.932 24.019-85.932s52.346-51.064 52.452-52.062c.102-.998 183.105-28.124 183.105-28.124z"
    fill="none" stroke="#fff" stroke-width="7.999979999999999" stroke-linecap="round" stroke-linejoin="round"
    stroke-miterlimit="10" />
  <path d="M2178.915 1450.95s-17.08 64.342-16.77 61.368M2198.358 1501.78s-66.848-23.273-63.72-22.726" fill="none"
    stroke="#9c9b9b" stroke-width="7.999979999999999" stroke-linecap="round" stroke-linejoin="round"
    stroke-miterlimit="10" />
  <path
    d="M2567.186 706.96s-26.616-69.319-79.003-89.362c-52.39-20.044-19.236-67.546 43.32-43.426 62.558 24.122 99.497 81.398 108.426 112.074 8.93 30.676 7.364 50.685 1.395 74.273-5.971 23.587-37.007 58.198-2.451 42.107 34.554-16.093 77.91-25.728 55.457 74.318 0 0-12.352 51.167-48.328 91.822 0 0 17.05-8.827 26.857 13.369 9.807 22.193-24.346 84.217-24.346 84.217s-20.97 46.747-69.833 75.477c-48.86 28.733 40.26-82.066 40.26-82.066s14.538-33.29 6.486-43.202c-8.053-9.909-38.573-2.477-38.573-2.477s-20.51-1.617-8.517-20.044 58.273-51.46 64.656-64.414c6.384-12.956 22.626-43.242 4.784-60.874-17.842-17.631-72.71.898-72.71.898s-33.514 21.746-33.342.585c0 0 10.082-43.84 21.61-72.4 11.527-28.56 17.607-63.44 3.852-90.874"
    fill="#9c9b9b" />
  <path
    d="M2619.844 464.056c-2.026 2.97.2 7.036 3.625 6.583 18.907-2.508 63.11-5.574 92.73 14.621 29.947 20.413 42.758 56.857 48.439 93.467 1.464 9.445 13.724 11.008 17.57 2.277 20.6-46.72 55.715-146.42 49.982-273.295-8.004-177.112-108.325 2.593-111.701 8.692a3.641 3.641 0 01-.2.324zM2820.083 650.856c-2.864.642-4.921-2.726-3.117-5.042 24.212-31.048 109.953-137.869 160.402-160.16 56.48-24.958-17.49 240.324-101.804 329.644-2.85 3.02-7.834-.045-6.486-3.975 11.293-32.936 33.344-109.122 7.194-138.113-22.461-24.902-44.165-25.05-56.189-22.354M2876.2 887.915c-3.728-1.699-3.694-7.55 0-9.484 15.992-8.363 44.216-23.893 57.007-35.65 18.384-16.903 38.452-33.15 44.021-27.752 5.572 5.398-.463 49.133-18.133 79.129-14.882 25.261-22.912 44.252-62.36 82.166-4.773 4.587-11.73-1.266-8.84-7.45 7.713-16.507 14.705-36.27 12.528-50.41-2.668-17.324-14.8-26.253-24.227-30.549M2499.15 1262.794c-1.887.433-2.03 2.827-.214 3.477 7.433 2.66 21.752 9.392 23.725 29.647 1.475 15.172-3.235 24.93-8.004 30.759-1.21 1.478.523 3.457 2.343 2.673 31.29-13.488 118.646-53.255 110.093-73.366-7.707-18.126-100.16.422-127.944 6.81M2584.112 1367.98c25.524-.914 73.449-3.207 96.54-8.1a5.29 5.29 0 01.462-.08c2.765-.367 28.588-3.514 38.855 5.818 10.853 9.864-8.532 25.773-27.808 36.133-25.547 13.73-64.659 31.71-102.688 44.733-6.104 2.088-11.936-3.866-9.292-9.466 4.537-9.616 9.384-21.798 9.423-30.04.048-10.35-4.502-19.821-11.138-27.776-3.728-4.467-.337-11.008 5.646-11.223M2536.978 1538.104c24.264 9.456 32.67 11.877 51.03 18.11.14.047 28.626 11.394 28.766 11.44 2.29.777 22.472 9.51 27.107 20.462 4.903 11.577-15.987 16.188-34.784 16.653-24.913.618-61.95-.73-96.348-5.406-5.52-.751-7.917-7.467-3.828-10.683 7.024-5.523 15.216-12.864 18.23-19.067 3.783-7.788 3.66-16.666 1.358-25.197-1.293-4.79 3.632-8.196 8.47-6.312"
    fill="#1d1d1b" />
  <path
    d="M2085.097 1083.92s-53.939 1.437-68.07 47.041l-52.462 6.676 24.797 7.272-14.933 7.87s8.166 5.551 10.827 5.826c2.661.275-51.57 115.02 58.382 189.597 109.95 74.577 190.33-19.98 190.33-19.98"
    fill="none" stroke="#1d1d1b" stroke-width="7.999979999999999" stroke-linecap="round" stroke-linejoin="round"
    stroke-miterlimit="10" />
  <path
    d="M2015.056 1423.018s-37.607-.45-80.879-37.13c-43.272-36.677-75.853-92.197-47.76-110.283 28.094-18.083 38.6 23.825 58.67 50.301 18.922 24.95 32.964 42.103 46.314 30.036 15.533-14.037-6.879-60.25 5.899-99.27 12.778-39.02 29.64-46.016 46.062-42.3 16.427 3.717 27.575 32.437 14.614 66.731-12.96 34.296-24.763 57.379-11.234 63.1 13.527 5.72 61.335-20.936 75.464-47.042 14.133-26.107 27.62-39.503 45.767-32.918 18.146 6.583 34.241 39.467 4.94 69.238-29.303 29.77-96.608 88.927-157.857 89.538M1986.894 578.337s-26.431-94.689-126.855-116.164c-100.423-21.474-130.292-141.3-70.916-196.46 59.376-55.16 118.842-33.358 118.842-33.358s4.339.614 3.894-2.369c-.447-2.981-8.851-21.459-.074-24.83 8.776-3.373 13.451 6.16 9.634 22.395 0 0-1.423 5.232 15.736-7.42 17.157-12.654 24.349-6.774 18.88-.126-5.466 6.65-23.495 15.546-23.495 15.546s183.546 27.79 315.373 305.061c0 0-7.076 6.768-2.832 16.01 4.242 9.243-5.716 12.29-13.464 7.74-7.747-4.553-14.087-4.883-12.854 2.663 1.23 7.547-7.832 10.847-16.673 2.27-8.839-8.578-8.804-13.791-10.01-5.356-1.21 8.434-1.385 54.72-8.34 57.097-6.955 2.378-34.083-36.947-35.666-35.4-1.587 1.548-6.123 22.681-8.365 27.34-2.243 4.66-2.646-2.8-4.506-1.852-1.858.95-4.652 2.826-5.165 4.544-.512 1.717-10.52 15.762-17.941 5.62-7.42-10.143-13.893-21.328-17.119.92-3.222 22.246-9.652 33.321-20.504 19.073-10.853-14.248-8.709-22.83-15.572-22.153-6.862.676-10.392-8.168-10.082-13.598.31-5.429-21.11-14.003-27.742 5.527-6.633 19.53-14.172 29.187-23.489 26.021 0 0 2.443-32.518-1.565-33.504-4.007-.985-16.827 15.95-20.021 12.766-3.192-3.184-7.924-15.004-3.49-20.579 4.434-5.573 13.54-12.538 13.267-12.322-.275.216-24.363 1.23-23.405-6.414.96-7.646 6.93-1.322 24.52 1.312"
    fill="#9c9b9b" />
  <path
    d="M1986.894 578.337s-26.431-94.689-126.855-116.164c-100.423-21.474-130.292-141.3-70.916-196.46 59.376-55.16 118.842-33.358 118.842-33.358s4.339.614 3.894-2.369c-.447-2.981-8.851-21.459-.074-24.83 8.776-3.373 13.451 6.16 9.634 22.395 0 0-1.423 5.232 15.736-7.42 17.157-12.654 24.349-6.774 18.88-.126-5.466 6.65-23.495 15.546-23.495 15.546s183.546 27.79 315.373 305.061c0 0-7.076 6.768-2.832 16.01 4.242 9.243-5.716 12.29-13.464 7.74-7.747-4.553-14.087-4.883-12.854 2.663 1.23 7.547-7.832 10.847-16.673 2.27-8.839-8.578-8.804-13.791-10.01-5.356-1.21 8.434-1.385 54.72-8.34 57.097-6.955 2.378-34.083-36.947-35.666-35.4-1.587 1.548-6.123 22.681-8.365 27.34-2.243 4.66-2.646-2.8-4.506-1.852-1.858.95-4.652 2.826-5.165 4.544-.512 1.717-10.52 15.762-17.941 5.62-7.42-10.143-13.893-21.328-17.119.92-3.222 22.246-9.652 33.321-20.504 19.073-10.853-14.248-8.709-22.83-15.572-22.153-6.862.676-10.392-8.168-10.082-13.598.31-5.429-21.11-14.003-27.742 5.527-6.633 19.53-14.172 29.187-23.489 26.021 0 0 2.443-32.518-1.565-33.504-4.007-.985-16.827 15.95-20.021 12.766-3.192-3.184-7.924-15.004-3.49-20.579 4.434-5.573 13.54-12.538 13.267-12.322-.275.216-24.363 1.23-23.405-6.414.96-7.646 6.93-1.322 24.52 1.312z"
    fill="none" stroke="#fff" stroke-width="7.999979999999999" stroke-linecap="round" stroke-linejoin="round"
    stroke-miterlimit="10" />
  <path
    d="M1874.933 466.919l-.608 27.8 18.944-25.904s.378-8.534-16.78-8.418c0 0-15.462-30.887-57.226-6.191 0 0-14.181 23.767 13.544 49.454z"
    fill="#fff" />
  <path
    d="M1874.933 466.919l-.608 27.8 18.944-25.904s.378-8.534-16.78-8.418c0 0-15.462-30.887-57.226-6.191 0 0-14.181 23.767 13.544 49.454z"
    fill="none" stroke="#fff" stroke-width="2.66666" stroke-miterlimit="10" />
  <path
    d="M1815.8 437.672s-18.784 4.887 3.584 18.922c0 0 5.003-5.566 10.44-3.266 5.438 2.3 19.16-2.133 20.715-10.392 1.554-8.257-13.743-12.412-17.419-9.15-3.677 3.265-17.32 3.886-17.32 3.886"
    fill="#fff" />
  <path
    d="M1815.8 437.672s-18.784 4.887 3.584 18.922c0 0 5.003-5.566 10.44-3.266 5.438 2.3 19.16-2.133 20.715-10.392 1.554-8.257-13.743-12.412-17.419-9.15-3.677 3.265-17.32 3.886-17.32 3.886z"
    fill="none" stroke="#fff" stroke-width="3.9999899999999995" stroke-linecap="round" stroke-linejoin="round"
    stroke-miterlimit="10" />
  <path
    d="M1932.676 318.531c-1.797 17.37-17.333 29.996-34.704 28.199-17.37-1.798-29.995-17.335-28.199-34.704 1.798-17.37 17.335-29.995 34.707-28.197 17.368 1.796 29.993 17.333 28.196 34.704"
    fill="#222221" />
  <path d="M1907.428 315.92a6.236 6.236 0 11-12.407-1.283 6.237 6.237 0 0112.407 1.284" fill="#fff" />
  <path
    d="M1901.224 315.278l-280.82 277.1 9.687-44.889-38.453 64.604 3.768-36.422c-.155 1.496-51.821 91.46-51.821 91.46l-288.869 286.805 8.758-138.274-50.014 176.366-8.914-50.341-22.675 92.458-374.944 368.167s38.057-94.902 37.696-91.409c-.36 3.494-78.679 78.094-78.679 78.094l-3.372-123.394-27.58 95.987-63.158-154.793-8.93 144.813s-93.577-104.485-86.66-273.711c0 0-165.848 329.283 61.37 518.192 227.22 188.909 528.372 27.09 528.372 27.09l-122.52 1.446s127.475-29.844 151.86-57.578c0 0-126.147 29.982-206.137-9.222l154.224-34.91-273.58-13.746 84.533-43.7-118.415-12.25 93.8-48.793-104.192 12.755 395.985-396.078 140.277-56.089-95.955 17.642 61.66-30.603-42.14 4.383 271.47-277.848s132.202-49.528 131.995-47.532c-.206 1.996-87.952 11.747-87.952 11.747l49.459-23.124-31.084 1.49z"
    fill="#fff" />
  <path
    d="M1901.224 315.278l-280.82 277.1 9.687-44.889-38.453 64.604 3.768-36.422c-.155 1.496-51.821 91.46-51.821 91.46l-288.869 286.805 8.758-138.274-50.014 176.366-8.914-50.341-22.675 92.458-374.944 368.167s38.057-94.902 37.696-91.409c-.36 3.494-78.679 78.094-78.679 78.094l-3.372-123.394-27.58 95.987-63.158-154.793-8.93 144.813s-93.577-104.485-86.66-273.711c0 0-165.848 329.283 61.37 518.192 227.22 188.909 528.372 27.09 528.372 27.09l-122.52 1.446s127.475-29.844 151.86-57.578c0 0-126.147 29.982-206.137-9.222l154.224-34.91-273.58-13.746 84.533-43.7-118.415-12.25 93.8-48.793-104.192 12.755 395.985-396.078 140.277-56.089-95.955 17.642 61.66-30.603-42.14 4.383 271.47-277.848s132.202-49.528 131.995-47.532c-.206 1.996-87.952 11.747-87.952 11.747l49.459-23.124-31.084 1.49z"
    fill="none" stroke="#fff" stroke-linecap="round" stroke-linejoin="round" stroke-miterlimit="10"
    stroke-width="1.33333" />
  <path
    d="M545.937 1270.913s-83.184 239.285 67.72 349.53c150.905 110.247 363.421 62.906 363.421 62.906l-110.485-26.61 135.613-30.57-207.083-28.377 118.286-41.136-160.203 17.917 64.823-79.047-91.733 24.022 63.78-50.79-71.921 9.26 31.079-64.559-51.963 65.52s-11.69-131.04-13.88-125.878c-2.188 5.162-26.975 135.571-26.975 135.571l-20.975-113.743-11.74 74.853s-87.739-80.839-77.764-178.87"
    fill="#222221" />
  <path
    d="M555.75 1448.082s-27.68 96.962 28.236 156.026c55.917 59.058 241.613 53.032 241.613 53.032l-123.787-46.453s56.392-13.796 54.398-14.003c-1.996-.205-69.214-6.599-70.33-8.957-1.117-2.359 37.382-52.776 37.611-54.995.23-2.22-69.635 10.181-69.635 10.181l22.284-44.803-48.618 26.377-3.827-65.376s-19.685 48.924-17.69 49.13c1.997.206-39.782-10.285-50.255-60.16M1841.175 329.214l-274.565 39.922 61.887 300.222-208.65 35.042-56.47 234.823-220.14-85.573-16.567 316.506-226.546-40.434-67.025 171.027 78.689-152.797 234.453 43.729 14.366-317.126 218.35 87.203 61.843-239.71 220.47-27.44-54.213-280.985zM1891.2 295.046c.25.027 7.604-2.827 7.604-2.827l-.801 13.448zM1905.632 322.494l6.4 10.353c-.2 0-5.641 3.94-5.641 3.94M1910.255 311.895l7.516-4.805c0 .157 2.62 4.625 2.62 4.625M1891.81 317.598l-7.427 4.937c0-.16-2.703-4.578-2.703-4.578M2483.816 4.95c-13.787 15.489-70.893 64.611-75.54 119.264-4.647 54.655 31.187 192.5 16.987 219.27l-24.799-7.272 21.736 27.127-24.212 6.573 28.893 6.686s-38.482 63.257-60.195 68.408c0 0 15.806 9.702 24.27 5.872 8.467-3.831 41.395-58.92 49.035-54.77 7.64 4.152 15.576 8.672 15.576 8.672l-.264-20.198 12.973 1.341-6.63-17.159 20.175-13.04-17.297-1.79s54.356-63.968 64.254-146.653c9.9-82.688-19.475-230.96-44.962-202.33"
    fill="#fff" />
  <path
    d="M2483.816 4.95c-13.787 15.489-70.893 64.611-75.54 119.264-4.647 54.655 31.187 192.5 16.987 219.27l-24.799-7.272 21.736 27.127-24.212 6.573 28.893 6.686s-38.482 63.257-60.195 68.408c0 0 15.806 9.702 24.27 5.872 8.467-3.831 41.395-58.92 49.035-54.77 7.64 4.152 15.576 8.672 15.576 8.672l-.264-20.198 12.973 1.341-6.63-17.159 20.175-13.04-17.297-1.79s54.356-63.968 64.254-146.653c9.9-82.688-19.475-230.96-44.962-202.33z"
    fill="none" stroke="#fff" stroke-width="2.66666" stroke-linecap="round" stroke-linejoin="round"
    stroke-miterlimit="10" />
  <path
    d="M1676.58 1024.304s-26.874 6.297-31.073-6.745c-4.198-13.04 6.279-33.893 6.279-33.893l-10.812 9.472.344-20.387-10.083 21.9s-13.325-51.553-28.826-79.632c-15.502-28.079-1.91-69.284-14.082-78.36-12.173-9.076-38.367-11.785-41.394 34.548-3.03 46.333 2.76 97.613 69.172 140.537 0 0 3.005 7.493-.364 13.26-3.37 5.77-14.932 7.85-14.932 7.85s22.238 6.84 32.053-2.735c0 0 20.972 11.752 34.745 5.36z"
    fill="#fff" />
  <path
    d="M1676.58 1024.304s-26.874 6.297-31.073-6.745c-4.198-13.04 6.279-33.893 6.279-33.893l-10.812 9.472.344-20.387-10.083 21.9s-13.325-51.553-28.826-79.632c-15.502-28.079-1.91-69.284-14.082-78.36-12.173-9.076-38.367-11.785-41.394 34.548-3.03 46.333 2.76 97.613 69.172 140.537 0 0 3.005 7.493-.364 13.26-3.37 5.77-14.932 7.85-14.932 7.85s22.238 6.84 32.053-2.735c0 0 20.972 11.752 34.745 5.36z"
    fill="none" stroke="#fff" stroke-width="2.66666" stroke-linecap="round" stroke-linejoin="round"
    stroke-miterlimit="10" />
  <path d="M1561.83 863.671c-.085.835-6.41 71.073 40.217 115.775" fill="none" stroke="#1d1d1b"
    stroke-width="7.999979999999999" stroke-linecap="round" stroke-miterlimit="10" />
  <path d="M2447.987 329.527s23.633-59.366 17.013-92.354c-6.62-32.987-18.333-58.264-12.61-82.507" fill="none"
    stroke="#1d1d1b" stroke-width="7.999979999999999" stroke-linecap="round" stroke-linejoin="round"
    stroke-miterlimit="10" />
</svg>
