<?xml version="1.0" encoding="UTF-8" standalone="no"?>
<svg
   width="1000"
   height="1000"
   version="1.1"
   id="svg21843"
   sodipodi:docname="pigeon.svg"
   inkscape:version="1.2.2 (732a01da63, 2022-12-09)"
   inkscape:export-filename="piiiiiiigeon"
   inkscape:export-xdpi="96"
   inkscape:export-ydpi="96"
   xmlns:inkscape="http://www.inkscape.org/namespaces/inkscape"
   xmlns:sodipodi="http://sodipodi.sourceforge.net/DTD/sodipodi-0.dtd"
   xmlns:xlink="http://www.w3.org/1999/xlink"
   xmlns="http://www.w3.org/2000/svg"
   xmlns:svg="http://www.w3.org/2000/svg">
  <defs
     id="defs21847">
    <clipPath
       clipPathUnits="userSpaceOnUse"
       id="clipPath19111">
      <g
         id="g19117">
        <g
           id="g19115">
          <path
             d="M 0,3664.715 H 2953.701 V 0 H 0 Z"
             id="path19113" />
        </g>
      </g>
    </clipPath>
  </defs>
  <sodipodi:namedview
     id="namedview21845"
     pagecolor="#505050"
     bordercolor="#ffffff"
     borderopacity="1"
     inkscape:showpageshadow="0"
     inkscape:pageopacity="0"
     inkscape:pagecheckerboard="1"
     inkscape:deskcolor="#505050"
     showgrid="false"
     inkscape:zoom="0.65964073"
     inkscape:cx="166.75744"
     inkscape:cy="617.00253"
     inkscape:window-width="2880"
     inkscape:window-height="1796"
     inkscape:window-x="-12"
     inkscape:window-y="-12"
     inkscape:window-maximized="1"
     inkscape:current-layer="svg21843" />
  <path
     id="path24876"
     style="display:inline;fill:#552200;stroke-width:4.80416"
     d="m 894.18899,591.85863 c 4.69847,-12.95199 7.89967,-27.1859 9.33131,-43.08283 0.30747,-3.37252 -0.78895,-5.76934 -2.52805,-7.43638 -1.90726,-9.83889 -15.39779,-13.86201 -23.74741,-9.54308 -13.73987,7.10054 -26.29346,14.87885 -38.61131,23.26209 -1.92647,-39.98976 -7.97855,-76.44315 -29.03514,-113.47354 -6.63935,-11.66928 -21.67118,-7.39291 -25.99971,3.39721 -4.10756,7.65302 -8.83946,14.80159 -14.08079,21.53701 -4.83299,-18.35185 -13.20218,-33.49144 -26.93726,-48.86471 6.33187,-23.40582 12.37021,-55.26566 -3.93988,-74.08352 -18.70736,-21.58025 -51.91868,-16.95794 -78.47121,-11.73583 -5.13085,-10.67001 -10.6223,-20.97202 -13.91314,-32.62207 -1.98412,-6.99905 -9.67712,-13.23538 -17.25299,-12.41968 -1.08227,0.11653 -2.16021,0.37581 -3.22073,0.79857 -28.57509,11.38584 -65.06877,48.11079 -77.24248,75.6674 -35.11212,-25.19227 -76.52937,-43.11576 -111.82126,-43.33873 -47.09989,0.50924 -84.87976,18.01012 -119.70985,45.64839 -0.10086,-10.30009 -0.15819,-20.57233 0.94196,-31.14626 1.10495,-10.66522 -11.79938,-15.41032 -19.80311,-11.36522 -36.9295,18.65453 -54.33569,51.39417 -79.95142,82.23682 -28.31566,34.09026 -96.8796,17.31402 -136.095891,35.53617 -7.994103,3.71361 -9.526953,16.78635 -2.88763,22.42161 11.582813,9.8293 22.849391,18.71108 34.768481,27.00785 -50.352305,19.24063 -94.767152,54.90281 -110.3277986,108.21447 -3.36289725,11.51074 7.9743136,22.85758 19.4898566,19.48986 10.886205,-3.18516 21.623028,-5.62051 32.432362,-7.70551 l 33.826538,21.40025 c 21.074632,-2.50317 70.978332,-17.1346 62.208702,-1.00594 -12.52339,23.03239 33.9986,42.37032 33.9986,42.37032 0,0 0.37226,-0.091 0.37943,-0.0926 0.59869,0.22566 1.16648,0.48093 1.88391,0.58901 35.34414,5.30378 66.76419,13.23556 99.73027,27.12918 5.71693,2.41167 14.30579,-1.45177 16.90003,-6.88047 2.47415,-5.18369 4.30436,-9.08409 5.8657,-12.57189 8.85886,9.79087 18.04443,19.23139 27.29242,29.3153 6.0148,6.55766 16.03586,5.50556 22.18998,0 25.32748,-22.66119 51.36776,-41.52763 79.96688,-57.87617 -2.13785,7.63862 -4.075,15.6231 -5.98705,24.56363 -1.1626,5.41428 1.58508,11.32324 5.89439,14.64772 0.0577,1.06172 0.0335,2.09646 0.11035,3.16779 0.80709,11.95272 15.49343,19.97898 24.69817,10.23134 22.7909,-24.12643 47.35989,-34.59463 76.38656,-42.93944 0.64376,6.65375 1.74865,12.46775 4.18916,23.57975 1.93608,8.85885 14.73443,15.04226 22.4547,9.12835 33.13414,-25.37277 66.01981,-47.58875 104.88786,-56.13123 0.67453,5.76857 1.76103,11.45239 3.91341,21.25244 1.93608,8.85885 14.73443,15.04227 22.4547,9.12835 45.34637,-34.7244 90.1736,-63.65677 150.60022,-59.51079 2.22921,0.15281 4.23088,-0.21511 5.99806,-0.9596 l -4e-5,-4e-5 c 14.86044,-3.37803 28.55929,-7.15726 38.77014,-16.93533 z"
     sodipodi:nodetypes="ccccccccccccsccccccccccccccsccccccccccccccccccccccc"
     inkscape:label="back" />
  <path
     id="path27281"
     style="color:#000000;display:inline;fill:#ffb882;fill-opacity:1;stroke-width:1.06089;stroke-linecap:round;stroke-linejoin:round;-inkscape-stroke:none"
     d="m 500.00106,65.442234 c -37.02233,0 -71.3081,12.0014 -102.56185,32.1021 L 523.18509,291.26132 c 5.31971,9.57783 4.20334,21.44081 -2.80974,29.85809 l -75.29787,90.35747 76.50377,107.10576 c 8.51435,11.91952 5.75349,28.4845 -6.16628,36.99833 -11.91915,8.51294 -28.48263,5.7522 -36.99633,-6.16638 L 390.01089,425.64548 c -7.01011,-9.81658 -6.51372,-23.12704 1.20803,-32.39426 L 467.9859,301.12837 355.88648,130.5374 C 325.97473,158.84437 299.56487,194.11763 277.13033,232.04867 223.54051,322.65509 190.575,431.0299 190.575,516.3179 c 0,170.57665 138.84995,309.4238 309.42606,309.4238 170.57654,0 309.42394,-138.84724 309.42394,-309.4238 0,-85.28796 -32.96359,-193.66279 -86.55332,-284.26923 C 669.28216,141.44224 593.29313,65.442234 500.00106,65.442234 Z"
     inkscape:label="broken-egg"
     inkscape:export-filename=".\path27281.svg"
     inkscape:export-xdpi="1"
     inkscape:export-ydpi="1" />
  <g
     id="g6095"
     style="display:inline">
    <path
       id="path1001"
       style="display:inline;fill:#a74700;fill-opacity:1;stroke:#210e00;stroke-width:5.73445;stroke-dasharray:none;stroke-opacity:1"
       d="m 420.95899,12.06538 c -5.79832,0.122156 -12.02171,0.865972 -18.69834,2.234529 -67.5752,26.835294 -41.1495,67.19896 -34.08814,104.096801 L 494.58722,103.18084 C 485.7333,50.209987 459.3523,11.256529 420.95899,12.06538 Z M 760.2552,75.632666 c -4.66998,0.03872 -9.39621,0.336192 -14.14694,0.909521 C 530.66678,95.973531 317.67773,125.4091 103.8129,154.12231 53.384351,161.56715 18.830771,195.3513 27.155263,232.57887 l 9.89413,44.24202 87.117347,-6.78834 -85.291934,14.95337 31.711703,141.81921 46.043121,2.86912 -43.404534,8.92984 14.205211,63.52595 c 8.3253,37.23127 56.121963,62.43356 106.796373,56.31799 214.18944,-25.31284 428.23311,-51.49529 642.29292,-77.58632 50.67439,-6.11558 84.98296,-41.22536 76.65764,-78.45657 l -9.9888,-44.66784 -95.0914,-7.48288 92.17366,-5.57289 -35.4839,-158.6805 -156.54615,19.85445 151.66705,-41.67883 -7.00307,-31.32061 C 845.3605,99.118562 805.39851,75.258296 760.2552,75.632666 Z m -185.88524,437.767714 -112.3517,13.31941 41.61107,229.32385 c 6.79605,37.45389 28.77467,73.01317 79.45158,66.89738 50.67947,-6.11619 31.8398,-42.974 26.12239,-80.55825 z"
       sodipodi:nodetypes="scccssccccccccccccccccccccsccsssc"
       inkscape:label="sign" />
    <path
       style="fill:#000000;fill-opacity:1;stroke:#210e00;stroke-width:5.73445;stroke-dasharray:none;stroke-opacity:1"
       d="M 327.64987,486.63171 669.61548,444.91633"
       id="path2655"
       inkscape:label="sign-clock" />
    <path
       id="path5168"
       style="fill:#9c9b9b;fill-opacity:1;stroke:#210e00;stroke-width:5;stroke-dasharray:none;stroke-opacity:1"
       d="m 756.47266,172.0625 -623.82422,78.83203 z m 59.88086,103.8457 -711.75196,87.16797 z"
       inkscape:label="sign-line" />
  </g>
  <path
     d="M 787.55397,56.136349 C 756.19884,54.877859 742.71768,105.67745 675.46706,190.90867 608.21712,276.14065 531.15278,291.71135 508.42038,289.36011 489.07945,287.35914 469.19856,261.39944 463.4101,253.32498 389.339,99.430709 287.08601,83.894519 287.08601,83.894519 c 0,0 10.13992,-5.00399 13.21643,-8.74424 3.07497,-3.74024 -0.97124,-7.04696 -10.6222,0.0706 -9.6517,7.11747 -8.84998,4.17373 -8.84998,4.17373 2.14725,-9.13271 -0.48298,-14.4937 -5.41946,-12.59696 -4.93722,1.8975 -0.21009,12.29022 0.0419,13.96721 0.25034,1.67701 -2.19073,1.33275 -2.19073,1.33275 0,0 -33.44985,-12.26472 -66.84865,18.763431 -27.04789,25.12718 -21.16189,74.10428 12.05468,98.23995 -1.75125,1.51949 -2.46527,4.28698 4.41822,8.77198 -1.45875,3.29699 -5.034,14.66544 8.09996,26.83266 l 23.69536,-20.66619 -0.3413,15.63671 9.37196,-12.81447 c 42.19328,17.86269 53.94721,59.84981 53.94721,59.84981 -9.89394,-1.48199 -13.2524,-5.03847 -13.79243,-0.73798 -0.53773,4.30047 13.01168,3.72972 13.16543,3.60748 0.15457,-0.12083 -4.96871,3.79649 -7.46246,6.93147 -2.49447,3.13575 0.16783,9.78522 1.9635,11.57621 1.79624,1.79099 9.00743,-7.73472 11.26119,-7.18047 2.25451,0.55425 0.88124,18.84594 0.88124,18.84594 a 6.4109667,6.4109798 0 0 0 0.92698,0.23847 c -2.29045,8.64898 -5.54322,20.2582 -9.7297,33.28491 -8.64516,26.90466 -68.29161,75.19703 -68.29161,75.19703 -20.56867,-5.90998 -35.15533,1.65749 -35.68332,5.385 -0.52727,3.72747 6.95995,3.55722 11.63693,4.04098 4.67771,0.48376 4.51197,5.75248 4.51197,5.75248 l -11.61742,14.12395 c -96.17277,127.71937 -39.98529,215.98357 31.25531,295.08732 71.24141,79.10375 242.80825,102.39714 305.40143,111.52013 62.59546,9.12298 142.41373,9.20999 145.75277,-1.37476 3.23619,-10.25469 -14.45097,-26.64512 -64.58215,-41.09757 C 583.12726,797.46112 591.12,791.47915 591.12,791.47915 c 42.16252,-3.58129 148.37852,-46.86592 151.99195,-68.9961 3.61273,-22.1294 -63.18045,-9.1837 -83.65084,-8.03917 -20.47037,1.14372 -54.15941,2.10297 -55.13969,-1.21275 -0.98176,-3.31652 3.66449,-4.3485 3.66449,-4.3485 50.68476,-16.5037 84.36932,-42.3299 75.97534,-56.24758 -8.39243,-13.9162 -23.76813,-0.56698 -91.37573,0.38157 -67.60917,0.94801 -77.07938,-9.86468 -78.73088,-14.00697 -1.65221,-4.14218 4.16698,-3.72971 4.16698,-3.72971 127.76482,-6.63898 265.93434,-91.90996 311.25438,-126.93332 45.32082,-35.02414 61.93695,-99.67995 51.76624,-105.55469 -10.17219,-5.87399 -42.02151,22.31693 -42.02151,22.31693 0,0 -49.9655,30.57214 -51.0005,21.38843 -1.03577,-9.18444 4.94396,-9.4162 4.94396,-9.4162 83.57659,-40.14365 118.01942,-211.31411 90.08954,-221.01085 -27.92986,-9.69747 -111.13816,103.66768 -111.13816,103.66768 0,0 -11.12997,11.61371 -14.76738,8.39997 -3.63977,-3.21223 2.96992,-6.78373 2.96992,-6.78373 41.79811,-39.35987 58.79226,-263.960171 27.4364,-265.217911 z M 269.48208,110.95443 c 0.60152,0 1.20752,0.0325 1.81877,0.096 9.77017,1.01025 16.8719,9.75147 15.86092,19.5217 -1.01101,9.77022 -9.74998,16.8712 -19.52092,15.86019 -9.77096,-1.01099 -16.87189,-9.75071 -15.86242,-19.52093 0.94876,-9.16047 8.68871,-15.97421 17.70365,-15.95695 z"
     id="path21841"
     style="display:inline;fill:#9c9b9b;fill-opacity:1;stroke-width:0.749998"
     inkscape:label="pigeon" />
  <g
     id="g6081"
     transform="matrix(0.88916459,0,0,0.88916405,1293.9442,105.7919)"
     inkscape:label="flower">
    <line
       fill="none"
       stroke="#2c3e50"
       stroke-linecap="round"
       stroke-linejoin="round"
       stroke-miterlimit="10"
       stroke-width="40.2036"
       x1="-886.11987"
       x2="-886.11987"
       y1="515.66974"
       y2="676.3736"
       id="line5286" />
    <path
       d="m -985.71063,499.82654 c 0,0 49.79528,18.1074 99.59062,18.1074 49.79528,0 99.59062,-13.58058 99.59062,-13.58058"
       fill="none"
       stroke="#2c3e50"
       stroke-linecap="round"
       stroke-linejoin="round"
       stroke-miterlimit="10"
       stroke-width="40.2036"
       id="path5288" />
    <path
       d="m -422.11808,382.12851 c -52.05875,38.47822 -174.2836,27.16111 -242.18629,83.74668 -31.6881,24.89764 -47.53187,58.84882 -49.79528,124.48809 0,11.31712 -2.26341,15.84394 9.0537,15.84394 90.53692,2.26341 144.85908,-4.52682 185.60066,-29.42452 61.11245,-38.47816 86.01009,-133.54174 97.32721,-194.65419 z"
       fill="none"
       stroke="#2c3e50"
       stroke-linecap="round"
       stroke-linejoin="round"
       stroke-miterlimit="10"
       stroke-width="40.2036"
       id="path5294"
       style="fill:#7abe90;fill-opacity:1" />
    <path
       d="m -1363.7025,382.12851 c 52.0587,38.47822 174.2836,27.16111 242.1863,83.74668 31.6881,24.89764 47.5318,58.84882 49.7955,124.48809 0,11.31712 2.2632,15.84394 -9.0537,15.84394 -90.5372,2.26341 -144.8593,-4.52682 -185.6009,-29.42452 -61.1125,-38.47816 -86.0101,-133.54174 -97.3272,-194.65419 z"
       fill="none"
       stroke="#2c3e50"
       stroke-linecap="round"
       stroke-linejoin="round"
       stroke-miterlimit="10"
       stroke-width="40.2036"
       id="path5296"
       style="fill:#7abe90;fill-opacity:1" />
    <path
       d="m -685.48969,-84.822965 c -10.20044,-7.917172 -21.63874,-14.09454 -33.85328,-18.282335 l -4.46101,-1.66115 -4.63639,-0.78645 c -54.34965,-8.54933 -109.26263,-13.02303 -164.27952,-13.38371 -55.06389,-0.53747 -110.05911,4.03031 -164.27961,13.64611 h -1.6631 l -1.924,0.52568 c -14.5983,3.89252 -28.1387,11.006586 -39.6266,20.819247 -13.2007,11.614011 -22.387,27.108092 -26.2425,44.262704 -9.2724,41.1135967 -11.197,96.835692 -11.4594,151.245539 -0.9811,49.57643 2.7385,99.13417 11.1094,148.00886 2.2763,13.66878 7.7292,26.61254 15.9207,37.78923 23.0802,30.35981 48.7482,58.66222 76.7162,84.58906 29.5746,27.27203 62.08083,51.1822 96.92314,71.29265 13.68062,8.14023 29.22345,12.62835 45.13763,13.0338 15.30288,-0.52961 30.27453,-4.60267 43.73792,-11.89671 39.10152,-19.76934 72.69235,-51.69801 102.34678,-77.85314 23.84723,-20.74418 45.8834,-43.48254 65.86919,-67.96872 l -81.17746,-61.93279 c -16.22981,19.32416 -33.9546,37.34147 -53.01053,53.88501 -27.5549,25.28065 -59.83342,52.48547 -77.50345,61.23302 -26.54157,-16.09977 -51.41918,-34.79457 -74.26705,-55.80939 -21.92885,-20.40611 -42.17247,-42.55123 -60.53327,-66.21905 -6.8555,-42.26875 -9.7837,-85.0812 -8.7475,-127.88943 -0.5859,-39.47467 1.6652,-78.940134 6.7355,-118.0922087 45.05281,-7.0521233 90.59909,-10.4745063 136.19979,-10.2345553 34.31511,0.200848 68.59528,2.208824 102.69669,6.035709 13.7338,1.4866121 25.01821,2.9742342 32.89106,4.1113259 h 2.36193 c 2.73266,20.8354611 4.36794,41.8003511 4.89856,62.8074871 l 102.08439,-3.411556 c -0.59789,-31.074223 -3.87586,-62.0389344 -9.79763,-92.549381 -4.00905,-17.848772 -13.93565,-33.817707 -28.1672,-45.312387"
       id="path5420"
       style="fill:#2c3e50;fill-opacity:1;stroke-width:8.74755"
       sodipodi:nodetypes="cccccccccccccccccccccccccccccccccc" />
    <path
       d="m -774.89008,59.249497 v -7.435474 -6.64807 -1.049235 L -892.80741,161.94631 V 149.26236 L -776.4646,32.919775 v -0.786449 l -0.52568,-1.663167 -0.52569,-1.486613 -0.8747,-1.837703 -0.61191,-1.225791 a 21.081672,21.081634 0 0 0 -1.22579,-1.749453 l -0.78645,-0.874699 -111.7941,110.74403 V 121.44344 L -790.28715,18.921956 c -3.93646,-0.874755 -8.74755,-1.574918 -8.74755,-1.574918 l -4.72369,-0.525683 -89.05053,89.400215 V 93.62509 l 78.02851,-77.940827 -5.59855,-0.611913 -8.74755,-0.700163 -64.03227,64.032267 V 65.720283 l 52.48547,-52.485468 -14.43363,-0.786393 -37.78945,37.789617 V 37.904005 l 25.63057,-25.630344 h -14.87095 l -10.75939,10.759565 V 12.274335 h -9.97233 c -24.75565,0 -46.09968,1.663111 -62.2827,3.149162 -7.08556,0.700164 -14.43357,1.400327 -21.69412,2.27424 a 111.70662,111.70642 0 0 0 -11.89671,2.449393 13.471276,13.471252 0 0 0 -3.06168,1.312076 l -0.7002,0.611913 a 11.196905,11.196885 0 0 0 -1.7494,1.486613 l -0.7001,0.874698 a 17.495164,17.495133 0 0 0 -1.2239,1.749454 l -1.0492,0.962949 -0.8748,1.837703 c 0,0.525684 0,0.963005 -0.5256,1.486613 l -0.5257,1.661148 c 0,0.611913 0,1.223826 -0.5257,1.837703 v 3.498908 a 5.0735977,5.0735887 0 0 0 0,0.611857 v 11.896713 a 11.284381,11.284361 0 0 0 0,1.400382 v 151.24549 a 73.304738,73.304603 0 0 0 11.022,29.82913 459.77291,459.77209 0 0 0 64.0321,68.49334 l 5.07372,4.02392 1.13754,0.8747 c 2.53685,1.8377 4.98608,3.58654 7.52294,5.161 l 3.41161,2.09932 3.14916,1.74945 q 2.79925,1.48661 5.51087,2.6241 l 1.74945,0.70022 a 44.962573,44.962492 0 0 0 5.68602,1.83764 h 1.74945 a 33.503241,33.503181 0 0 0 6.29833,0.70022 v -5.07377 l 118.44212,-117.13004 v -15.2208 L -892.81027,300.9446 V 288.52311 L -774.89299,170.606 V 155.38497 L -892.81027,273.30225 V 260.70576 L -774.89299,142.78849 V 127.56707 L -892.81027,245.48434 V 232.80039 L -774.89299,114.97058 V 99.749946 L -892.81027,217.57953 V 204.72066 L -774.89299,87.065999 V 71.844746 L -892.81027,189.76202 V 177.16554 Z M -777.252,213.46899 -883.97239,320.18933 a 42.775675,42.775599 0 0 0 5.33599,-1.66317 l 1.7494,-0.70016 q 2.71184,-1.13755 5.51092,-2.62416 l 3.14916,-1.7494 3.41162,-2.09931 c 2.44939,-1.57491 4.98625,-3.32414 7.52293,-5.16123 l 1.13754,-0.8747 5.16118,-4.02392 6.47309,-5.4234 34.99037,-34.99014 c 14.17117,-15.83317 23.96841,-28.77951 23.96841,-28.77951 a 58.783749,58.783642 0 0 0 8.74749,-18.98233"
       id="path5422"
       style="fill:#e64c3c;fill-opacity:1;stroke-width:8.74755" />
  </g>
  <path
     id="path24874"
     style="display:inline;fill:#a05a2c;stroke-width:4.80416"
     d="m 797.26032,571.4577 -17.79786,1.70302 c -22.62274,8.2103 -44.7357,24.65584 -64.21175,40.87465 0.78789,-3.90578 1.2679,-7.84642 2.38247,-11.71376 2.28678,-8.34962 -4.45703,-19.5528 -14.06536,-18.45746 -14.4893,1.64783 -27.66651,4.82463 -40.37829,8.68716 l -23.94595,8.76658 c -1.4088,0.61613 -2.45203,1.61298 -3.19425,2.86115 -18.33904,8.93847 -36.08811,22.31057 -52.05457,35.60677 0.78789,-3.90579 1.26789,-7.84644 2.38245,-11.71377 2.28678,-8.34962 -4.45703,-19.5528 -14.06534,-18.45746 -14.48932,1.64783 -27.66872,4.82463 -40.38051,8.68717 l -23.94374,8.76658 c -13.22581,5.78419 -25.99895,12.47172 -38.46572,20.64357 4.68406,-11.38103 10.70919,-22.30176 18.15083,-32.74119 7.10054,-8.99337 3.22277,-23.04369 -9.63795,-23.25988 -56.38152,-0.94161 -98.97612,23.31792 -130.96698,65.89711 -8.81561,-14.11939 -18.41862,-27.74431 -23.86651,-43.79979 -3.8193,-11.25612 -22.32051,-16.915 -28.15276,-3.67958 -4.00186,9.07504 -7.64322,16.3598 -10.83798,23.3018 l -17.97215,11.06301 c -9.54571,-1.28267 -17.79781,-2.64095 -24.96951,-4.05901 -5.23478,-1.32971 -10.35541,-2.59423 -15.39997,-3.56267 -57.72642,-15.86359 -8.15963,-37.26531 -43.41815,-48.57573 -18.80165,-6.03129 -39.9969,-5.19265 -57.77909,-2.86998 -13.48603,2.66373 -65.249664,12.2207 -69.09578,24.83273 C 31.137177,655.57629 10.652117,700.96509 0.28956434,752.67696 -2.0644738,764.40869 10.363765,777.14092 21.989813,769.36302 42.974345,755.32528 62.090124,744.71334 83.924983,735.71517 64.88132,798.29403 68.355628,869.65036 118.17947,916.8175 c 9.0174,8.5418 20.95162,3.67025 25.28497,-6.67309 10.71326,-25.59171 19.45619,-47.33048 34.6229,-68.07001 12.93278,29.10355 20.75852,58.26449 27.91671,90.23132 2.19069,9.78605 14.82526,14.70548 23.18929,9.43057 30.17006,-19.00042 52.23654,-41.50354 69.81493,-69.84803 29.98271,46.37928 97.41862,59.09559 150.89363,52.99433 4.84258,-0.54768 8.34008,-2.66159 10.64606,-5.45761 7.16299,-4.53512 8.75836,-15.80472 2.58983,-22.65545 -1.88322,-12.95679 -3.76811,-25.92326 -5.65613,-38.88485 19.78829,19.59133 34.64787,42.44438 46.17782,68.55974 3.17555,7.19663 13.17352,8.43627 19.34206,5.07817 22.89659,-12.50521 38.65939,-33.58652 46.09621,-57.63129 54.96429,30.70814 131.87837,23.96245 189.08139,5.81718 12.97121,-4.11237 16.69381,-19.10449 9.19453,-28.77043 10.16557,12.01037 19.00515,25.69649 29.8337,37.70687 2.67111,2.95934 5.96695,3.89188 9.18573,3.64207 5.34701,2.51257 12.83161,-0.1674 13.59546,-8.14229 4.47747,-46.71075 5.63646,-90.51675 -4.12078,-134.71494 14.78239,7.93647 29.37646,16.19488 44.19245,24.61657 9.27683,5.27976 18.48196,-0.0915 22.18117,-9.02249 0.65817,-1.59017 1.24928,-3.00174 1.83538,-4.41417 4.39099,-1.58056 7.90412,-5.564 7.74078,-10.71886 -0.0817,-2.47413 -0.46625,-4.6632 -0.67282,-7.01723 3.50223,-10.60756 1.60905,-14.53291 -2.02289,-38.17895 0.27863,1.77274 -28.4659,-44.12257 -23.65695,-49.16693 15.99302,-16.79531 23.89593,-39.9798 28.72409,-63.66907 4.69847,-12.95199 7.89967,-27.1859 9.33131,-43.08283 0.30747,-3.37252 -0.78895,-5.76934 -2.52805,-7.43638 -1.90726,-9.83889 -15.39779,-13.86201 -23.74741,-9.54308 -13.73987,7.10054 -26.29346,14.87885 -38.61131,23.26209 z"
     sodipodi:nodetypes="cccccccccccccccccscccccsccccccccccccccccccccccccccccccccccccc"
     inkscape:label="front" />
  <text
     xml:space="preserve"
     id="text24674"
     style="font-size:13.5536px;white-space:pre;display:inline;fill:#ff0000;stroke-width:4.716"
     inkscape:label="description"><textPath
       xlink:href="#path25503"
       id="textPath25506"><tspan
         id="tspan24678"
         style="font-style:normal;font-variant:normal;font-weight:normal;font-stretch:normal;font-size:42.6667px;font-family:sans-serif;-inkscape-font-specification:'sans-serif, Normal';font-variant-ligatures:normal;font-variant-caps:normal;font-variant-numeric:normal;font-variant-east-asian:normal;fill:#ffff00">Challenge description very very long</tspan></textPath></text>
  <path
     d="m 2524.9365,2591.3157 c -10.341,-11.616 -53.171,-48.458 -56.655,-89.448 -3.485,-40.991 23.39,-144.375 12.74,-164.453 l -18.599,5.454 16.302,-20.345 -18.159,-4.929 21.669,-5.015 c 0,0 -28.861,-47.443 -45.146,-51.306 0,0 11.855,-7.277 18.203,-4.404 6.349,2.873 31.046,44.191 36.776,41.077 5.729,-3.114 11.682,-6.504 11.682,-6.504 l -0.198,15.149 9.73,-1.006 -4.973,12.869 15.132,9.781 -12.973,1.342 c 0,0 40.767,47.976 48.191,109.991 7.424,62.015 -14.607,173.219 -33.722,151.747 z"
     style="display:inline;fill:#000000;stroke:none;stroke-width:2;stroke-linecap:round;stroke-linejoin:round;stroke-miterlimit:10;stroke-dasharray:none;stroke-opacity:1"
     id="path15860"
     clip-path="url(#clipPath19111)"
     transform="matrix(0.79886959,0.92060841,0.92060841,-0.79886959,-3410.8797,410.23276)"
     inkscape:label="feather" />
  <text
     xml:space="preserve"
     id="text24674-6"
     style="font-size:13.5536px;white-space:pre;display:inline;fill:#ff0000;stroke-width:4.716"
     inkscape:label="score"><textPath
       xlink:href="#path25460"
       id="textPath25462"><tspan
         id="tspan24958"
         style="font-style:normal;font-variant:normal;font-weight:normal;font-stretch:normal;font-size:48.1905px;font-family:sans-serif;-inkscape-font-specification:'sans-serif, Normal';font-variant-ligatures:normal;font-variant-caps:normal;font-variant-numeric:normal;font-variant-east-asian:normal">2500000</tspan></textPath></text>
  <path
     style="display:inline;fill:none;stroke:#ffffff;stroke-width:4.716;stroke-opacity:1"
     d="m 792.98051,828.35511 c 67.11962,-8.44009 93.43345,-37.64174 190.2724,-150.34202"
     id="path25460"
     sodipodi:nodetypes="cc"
     inkscape:label="feather line" />
  <path
     id="path25503"
     style="display:inline;fill:none;stroke:#ffffff;stroke-width:4.716;stroke-opacity:1"
     d="m 125.82607,680.67355 c 0,0 277.42374,182.6752 625.3404,-24.25563 M 111.42429,764.81026 c 0,0 264.53794,190.25508 644.29011,-22.73965"
     inkscape:label="description line" />
</svg>
