<svg viewBox="0 0 3938.267 4886.28" xmlns="http://www.w3.org/2000/svg">
  <path
    d="M2057.535 591.314s-61.972 7.91-88.303 30.32c-9.428 8.025-51.328 52.639-36.845 84.163-1.08 3.39-3.251 7.895-5.258 12.443-10.88.046-11.115.188-22.572.268-.507 25.626-1.976 59.281-1.987 108.285l39.537 2.613 18.286 27.43-2.952 160.797c-1.116 31.853-2.266 56.991-3.353 69.906a298.693 298.693 0 00-17.4 7.541c-.75-.013-1.507-.018-2.28-.018-18.196 0-65.771 3.455-114.455 35.453-42.345 27.832-73.448 68.98-92.705 122.547l-354.371-538.394-63.287-92.305c-39.473-40.055-79.082-26.293-79.082-26.293a103.17 103.17 0 00-47.799 16.101c-13.603 8.743-25.085 20.689-33.238 34.569l-1.31 1.908c-16.885 21.201-26.823 57.27-27.284 99.096-.427 38.864 7.586 75.394 20.914 95.34 6.141 9.189 33.984 52.165 46.902 72.12l-22.697 8.344c-.227.083-.453.175-.676.27-1.105.476-27.304 11.924-46.861 37.818a8.53 8.53 0 00-.13.176l-1.765 2.414c-38.186 52.936-55.634 149.208-20.824 208.256a12.987 12.987 0 00.33.531l235.114 359.932a13.617 13.617 0 0014.814 5.734c48.617-12.593 97.143-28.206 144.416-46.46 33.407 54.114 93.377 151.765 149.762 246.179-13.488 24.57-35.374 47.467-58.438 71.592-29.442 30.802-59.889 62.652-80.166 104.058-23.434 47.852-28.275 99.635-14.799 158.311 25.736 112.048 85.253 154.356 124.637 182.353 29.11 20.695 33.215 25.8 29.285 36.419-4.312 11.65-11.546 17.81-20.918 17.81-6.18 0-12.622-2.849-16.814-7.432-2.247-2.456-4.814-6.472-4.473-11.787.06-.52.09-1.048.09-1.584 0-7.306-5.744-13.268-12.967-13.601a13.483 13.483 0 00-3.107.205 13.553 13.553 0 00-6.123 2.816 13.567 13.567 0 00-3.217 3.762v.012h-.01a13.501 13.501 0 00-1.39 3.416c-3.433 12.52.152 26.662 10.115 39.87 14.25 18.89 45.192 39.075 89.302 39.075 35.315 0 90.386-13.302 152.207-76.675 4.768-4.888 11.773-14.602 22.81-30.047 9.382-13.132 26.937-37.703 37.56-48.891 12.689 18.381 25.975 36.066 39.713 52.873a13.616 13.616 0 00-6.45 5.342l-37.601 59.125a217.373 217.373 0 00-22.66 15.933c-9.514-7.308-18.465-10.878-27.192-10.878-2.184 0-4.35.233-6.437.697-8.938 1.985-15.978 7.06-20.36 14.676-4.009 6.968-5.158 14.997-5.052 22.248h-.415c-17.85 0-26.018 9.594-29.298 15.314-11.063 19.287.045 46.467 7.1 60.113-7.685 19.455-12.158 42.22-13.038 66.409l-97.21 152.85-14.079 7.06-13.924-57.512a6.808 6.808 0 00-13.234 3.205l15.94 65.834a6.81 6.81 0 009.667 4.482l1.405-.703-37.563 59.06-163.654-2.337 17.314-43.418-98.422-28.855 34.739 65.28-1.34 6.311-789.197-11.273h-.194a13.61 13.61 0 00-9.836 4.2l-70.457 73.59a13.616 13.616 0 00-3.781 9.419v280.654c0 7.156 5.54 13.092 12.678 13.584l35.338 2.438c-9.28 41.154-13.979 83.823-13.979 127.076v2.54c.495 114.378 33.954 217.267 92.66 287.776v189.825c0 20.262 16.561 36.703 36.983 36.703h110.158l145.668-117.139-39.936-87.219-7.378 10.473 31.242 45.94h-18.38l-13.046-20.042c-3.503-5.149-6.437-10.099-9.565-15.422h-.363c-2.933 5.506-6.064 10.102-9.373 15.422l-12.851 20.041h-17.846l31.619-45.39-30.15-43.56h18.015l12.682 19.107c3.31 4.969 6.06 9.564 9.006 14.513h.547c2.946-5.324 5.88-9.92 8.838-14.695l.455-.691-78.707-171.897-29.745 19.842-41.703-55.678H691.92c-20.421 0-36.983 16.422-36.983 36.69v134.988c-47.123-65.975-75.644-158.793-75.644-262.111 0-46.446 5.61-92.16 16.61-135.955l330.431 22.8L947.6 3152.7l9.65-19.299-2.04-3.668 409.255 28.24c-4.364 19.555-7.924 39.69-10.647 60.296l150.514 64.056a111.146 111.146 0 01-4.37-32.789c.698-38.286 31.225-70.33 70.682-60.379 39.2 9.887 45.2 56.08 42.579 89.438-1.614 20.542-3.283 36.829-5.1 47.902l30.393 12.936 81.51 25.086 34.763-20.356c.457-55.22 6.299-108.42 16.635-158.11l40.877 2.823c-10.942 52.433-16.998 108.758-16.998 167.29 0 26.9 1.28 53.015 3.713 78.212l27.029-14.498 26.277 39.017 23.4-7.668c.395-25.531 3.944-50.983 11.122-75.476 11.857-40.457 30.594-63.105 51.427-59.625 34.42 5.748 52.83 51.313 64.81 77.99 1.987 4.427 3.878 8.944 5.724 13.5l53.865-17.65c-1.285-24.326-2.045-48.713-2.508-73.15 27.656 1.462 41.492 1.892 67.633 1.892.347 16.552.884 32.987 1.555 49.404l39.828-13.05 58.586-40.1c2.849-33.245 7.356-65.52 13.375-96.496l49.615 3.422c-11.107 58.058-16.775 118.652-16.775 180.197 0 218.663 72.4 395.814 177.107 446.68l-40.97-6.135c-31.545-12.59-60.74-36.772-86.2-70.549l-90.496-13.55c18.087 24.234 31.383 35.76 55.244 50.997 13.437 9.24 30.387 16.627 47.979 21.35 16.356 1.955 29.372 3.427 48.414 5.525-5.7.358-11.645.286-17.713-.176l-22.38-3.351a180.564 180.564 0 01-8.321-1.998 7093.249 7093.249 0 01-24.137-2.934c-.141.01-.288 0-.428.01l-52.031-7.789c-15.879-4.988-30.996-12.1-43.193-20.68a3125.755 3125.755 0 01-36.928-5.7c11.778 8.429 26.327 15.503 41.654 20.62l-59.64-8.93c-1.542-3.247-1.886-7.897-1.145-18.27-11.86 3.313-23.199 5.385-34.186 6.413 7.623 3.93 15.78 7.337 24.131 10.18l-31.076-4.652a183.416 183.416 0 01-13.117-4.842 166.34 166.34 0 0020.064-.68c-7.245-3.734-14.024-7.896-20.046-12.394-14.362-2.644-21.458-4-35.256-6.76 10.041 7.681 22.223 14.452 35.21 19.828-36.065-.999-68.782-13.95-103.412-34.955.384-10.152 1.96-18.179 6.553-34.315l-24.57-3.68c-1.387 6.945-2.172 13.011-2.692 20.046a264.671 264.671 0 01-20.972-23.588l-66.233-9.918c27.455 34.718 59.267 59.385 93.764 71.69l-514.049-76.962-8.185-1.714c-22.623-5.072-48.578-15.483-74.32-28.58l-31.384 63.642h68.198l55.004 21.772h243.898l765.733 114.644.23.033a145.453 145.453 0 0019.023 1.252c12.191 0 24.584-1.552 36.834-4.617 54.635-13.668 106.055-57.283 148.702-126.131 36.86-59.505 65.458-134.728 83.306-218.795 60.832 58.867 142.53 70.55 215.44 80.975a3004.153 3004.153 0 0123.89 3.48c30.81 4.656 58.536 6.92 84.76 6.92 41.436 0 79.022-5.947 111.715-17.674 38.443-13.789 71.584-36.016 98.504-66.066 29.9-33.379 52.925-77.336 68.441-130.65 16.81-57.755 25.332-128.335 25.332-209.78 0-138.032-31.684-243.06-94.172-312.17-56.322-62.292-138.909-96.9-245.468-102.86v.01a570.044 570.044 0 00-31.645-.901c-26.556 0-51.956 2.025-75.74 6.029v-262.611c0-7.52-6.095-13.616-13.615-13.616h-23.776l-4.17-18.677c12.318-14.408 17.854-24.786 25.801-39.682 1.753-3.287 3.644-6.833 5.781-10.742 34.16-18.718 63.024-46.259 85.842-81.92 18.812-29.4 28.536-56.879 32.69-68.613.716-2.026 1.336-3.773 1.695-4.663 5.032-12.48 9.84-18.92 13.816-22.242l.375 3.266a13.619 13.619 0 0013.53 12.062h33.275a13.614 13.614 0 0012.79-8.945 460.9 460.9 0 011.232-3.324c.76-2.034 1.565-4.184 2.378-6.488h4.325a13.613 13.613 0 0013.504-11.86c.106-.817 2.606-20.266 2.84-41.924.023-2.286.01-4.472-.024-6.623h30.852a5.107 5.107 0 100-10.21h-31.217c-.213-3.673-.52-7.127-.918-10.374h8.81c.998 0 1.975-.292 2.81-.842l11.745-7.734 10.985 7.658a5.12 5.12 0 002.922.918h10.455l11.474 9.084a5.095 5.095 0 003.168 1.102 5.097 5.097 0 003.27-1.186l10.799-9h12.625a5.107 5.107 0 000-10.213H3244.6a5.103 5.103 0 00-3.268 1.184l-9.037 7.531-9.615-7.613a5.115 5.115 0 00-3.168-1.102h-10.625l-12.506-8.72a5.107 5.107 0 00-5.73-.076l-13.36 8.797h-8.974c-2.565-11.656-6.787-19.811-12.832-24.825-13.621-11.292-26.897-12.767-35.68-13.742-1.467-.164-2.789-.31-3.94-.48-2.429-2.026-7.27-8.362-10.88-13.084-4.1-5.367-8.93-11.693-14.498-17.957 13.822-35.964 3.709-72.022-8.295-97.366 1.795-.845 3.578-1.693 5.504-2.47a3.405 3.405 0 00-2.553-6.315 110.557 110.557 0 00-6.537 2.914 13.808 13.808 0 00-4.44-3.177c1.6-9.924 3.844-22.082 6.075-28.45a5.107 5.107 0 00-3.131-6.506 5.1 5.1 0 00-6.51 3.133c-2.359 6.735-4.623 18.62-6.309 28.897-6.737-11.13-12.55-18.231-13.285-19.106a3.396 3.396 0 00-4.793-.42 3.405 3.405 0 00-.42 4.795c.186.222 6.444 7.827 13.563 20.035-32.177 21.548-41.593 51.956-44.258 69.834-15.7.304-29.136 3.64-39.148 7.204-6.436-44.27-27.614-68.915-45.434-82.137-15.667-11.623-31.23-16.374-39.47-18.213l5.365-22.717a5.076 5.076 0 00-.774-4.055 53.715 53.715 0 005.387.301c53.929 0 151.472-66.433 204.652-139.377 16.144-22.144 27.673-43.892 34.676-64.865l69.35-72.723a5.107 5.107 0 10-7.393-7.045l-56.562 59.313c4.093-21.121 3.315-41.274-2.686-59.955-.8-2.49-1.688-4.967-2.576-7.445l39.697-43.457a5.107 5.107 0 00-7.537-6.89l-36.23 39.661c-44.1-110.08-159.98-207.513-182.24-225.512l-.176-.617c-.928-4.464-1.848-8.408-2.668-11.433-.683-2.518-.904-5.31-1.14-8.264-.426-5.401-.91-11.524-4.737-16.87-2.022-2.822-4.292-4.877-6.61-6.374 2.024-2.806 3.47-6.47 3.47-11.268 0-10.473-8.507-21.746-27.189-21.746-8.156 0-16.872 2.364-24.544 6.66-7.848 4.394-13.778 11.305-17.737 20.643a1071.263 1071.263 0 00-12.222-7.227c.214-16.424 1.305-33.647 2.453-51.787 3.074-48.594 6.254-98.841-6.569-145.748-1.498-5.483-3.238-10.778-5.129-15.957 8.038-12.517 12.134-23.431 7.58-27.674-4.785-4.458-11.782-3.183-19.517 1.508-17.655-31.656-44.533-56.584-81.352-75.424-.776-8.126-1.786-16.424-3.1-24.586l48.12-48.119c-5.49-.402-11.105-.789-16.885-1.15l-34.096 34.093a207.718 207.718 0 00-2.97-11.962l22.959-22.96c-5.606-.306-11.353-.588-17.182-.855l-10.266 10.264c-1.42-3.65-2.967-7.091-4.648-10.283l.592-.592c-.308-.013-.62-.023-.928-.035-7.357-13.674-17.27-22.537-30.61-22.537-11.66 0-26.488 6.164-38.527 20.853-4.009-.045-8.031-.085-12.091-.111l-52.131 52.129c-6.538.724-12.522 1.785-18.035 3.11l55.294-55.294c-1.004 0-1.997-.014-3.003-.014-5.062 0-10.085.017-15.079.043l-55.595 55.596c5.138.136 10.352.255 15.605.361-23.82 6.278-38.574 17.493-51.226 27.127-10.014 7.624-17.923 13.648-28.592 16.14-.234.054-.77.144-1.75.144-3.044 0-7.495-.853-12.207-1.754-7.176-1.375-15.31-2.932-24.453-2.932-16.084 0-30.219 4.965-42.979 15.139.2-3.524.605-7.61.945-11.049 1.42-14.392 3.35-34.113-2.003-52.899 2.768.352 5.613.697 8.539 1.036l41.246-41.248a1270.184 1270.184 0 00-19.713 1.662l-32.194 32.193a67.39 67.39 0 00-4.845-10.074l20.445-20.442a725.01 725.01 0 00-20.586 2.53l-7.517 7.517c-4.638-5.133-10.367-9.868-17.493-13.988-7.81-4.515-16.04-6.805-24.46-6.805-6.486 0-12.924 1.332-19.268 3.973-8.437-60.016-28.215-98.84-58.985-115.979l-77.205-78.048s11.137-99.567-38.699-139.13c-54.44-43.218-114.98-40.001-114.98-40.001zm6.281 12.54c59.488 0 120.997 33.98 125.649 98.984l-7.06-.17h-.056l-121.199-2.906c-5.844-13.004-7.844-52.184-8.123-66.828a3.413 3.413 0 00-1.935-3.008 3.419 3.419 0 00-3.557.38c-17.53 13.597-21.84 57.024-22.725 69.405H1991.2c.463-7.104 2.421-23.864 10.756-35.092a3.405 3.405 0 00-5.465-4.058c-9.645 12.996-11.691 31.574-12.127 39.15h-42.143c2.062-59.317 57.93-92.56 113.28-95.604a5.079 5.079 0 003.556 1.45c1.448 0 2.74-.667 3.686-1.684.357 0 .717-.02 1.074-.02zm-825.242 8.933c28.459 0 56.377 13.981 72.924 39.6l415.488 631.246c-22.033 14.214-170.557 106.758-369.49 152.12l-208.545-319.495c-30.32-43.37-40.92-82.174-31.504-115.328 12.127-42.71 54.17-61.28 54.422-61.395l37.012-13.607a3.392 3.392 0 002.672-.444c.361-.234.646-.537.886-.865l51.85-19.064a3.41 3.41 0 002.055-2.12 3.395 3.395 0 00-.375-2.925L1165.957 746.28c-12.517-19.474-16.706-42.669-11.793-65.314 4.912-22.635 18.316-41.978 37.748-54.467a86.016 86.016 0 0146.662-13.713zm1.451 27.215a59.027 59.027 0 00-33.392 9.393c-27.538 17.7-35.542 54.502-17.838 82.052l124.588 192.225c-14.654-2.997-30.435-.54-43.98 8.164-19.954 12.825-29.584 35.678-26.68 57.77-8.371-9.818-19.614-16.649-32.438-19.438-15.5-3.368-31.375-.503-44.713 8.07-13.34 8.574-22.545 21.83-25.916 37.326-3.37 15.495-.503 31.375 8.07 44.715l91.614 142.535c1.96 3.051 4.196 5.856 6.617 8.454l122.537 191.505a3.408 3.408 0 003.69 1.467c144.14-35.878 258.143-95.096 313.27-127.2a3.403 3.403 0 001.13-4.813l-397.908-604.989c-11.063-17.21-29.59-26.791-48.65-27.236zm806.461 1.494c.67 16.43 2.87 51.908 9.631 63.352a3.407 3.407 0 002.85 1.67l121.125 2.906a125.277 125.277 0 016.996 22.816h-68.668v-10.015c0-.914-.366-1.786-1.018-2.426-.65-.643-1.55-1.03-2.443-.979l-88.967 1.487a3.404 3.404 0 00-3.346 3.404v20.465h-24.39V724.23a3.4 3.4 0 00-1.018-2.427 3.443 3.443 0 00-2.443-.977l-51.615.863a124.629 124.629 0 015.603-15.17h79.229a3.404 3.404 0 003.4-3.248c.595-13.009 4.444-45.962 15.074-61.775zm-806.605 5.31c16.877.397 33.28 8.885 43.086 24.141l214.918 326.768c-17.794-13.892-38.681-16.848-59.162-7.442l-47.245 21.69-40.033-62.283c-6.949-10.811-16.86-18.56-27.982-22.977l-128.945-198.945c-15.67-24.381-8.584-56.966 15.794-72.637a52.262 52.262 0 0129.569-8.314zm-94.201 45.182c-1.652 20.334 3.342 40.539 14.556 57.987l97.703 150.662-47.181 17.35c-8.816-13.626-47.617-73.574-54.817-84.348-19.192-28.719-23.955-95.324-10.261-141.65zm965.931 33.698v94.552l-66.058-2.62 51.775-52.17a3.405 3.405 0 00-.02-4.815 3.408 3.408 0 00-4.814.017l-56.174 56.602-6.865-.273v-14.887l72.34-76.242zm-19.355.322l-62.8 66.19v-65.14zm-100.809 1.685v20.157c-.246.18-.502.35-.7.603l-50.401 64.951-25.848-.992V728.98l59.209-.99-34.479 46.595a3.4 3.4 0 00.711 4.76 3.4 3.4 0 004.76-.711l37.582-50.787zm126.973 22.84h71.031c.128 2.33.21 4.667.21 7.016 0 69.392-56.454 125.846-125.845 125.846v.006c-20.429 0-40.039-4.9-57.484-13.842a3.05 3.05 0 00-.36-.174 125.305 125.305 0 01-27.997-19.744 3.375 3.375 0 00-.293-.293c-8.774-8.247-16.394-17.848-22.627-28.567l39.668 1.524h.129a3.407 3.407 0 003.404-3.404v-55.856h24.39v57.201a3.404 3.404 0 003.268 3.4l88.965 3.532h.137c.877 0 1.722-.339 2.359-.95a3.418 3.418 0 001.045-2.454zm-126.973 8.123v56.711l-42.73-1.64zm202.944 22.13c29.082 22.963 85.084 74.542 78.244 126.652-4.364 33.23-33.738 61.844-87.201 85.148 21.727-70.641 46.732-151.095 47.093-152.254a3.408 3.408 0 00-2.242-4.262 3.404 3.404 0 00-4.26 2.24c-.28.898-15.33 49.321-32.197 103.926-29.465-29.714-58.067-32.816-69.17-32.746a3170.6 3170.6 0 004.656-36.658c33.626-19.18 58.078-52.623 65.077-92.047zm-195.403 49.347a3.404 3.404 0 00-3.172 3.394v9.168a3.403 3.403 0 003.405 3.405h34.29a3.403 3.403 0 003.405-3.405 3.403 3.403 0 00-3.404-3.404h-30.889v-5.764a3.404 3.404 0 00-3.635-3.394zm271.598 29.027c34.908 12.272 55.933 55.914 62.353 128.363 0 .024.01.047.01.07 1.54 17.406 2.24 36.473 2.084 57.165-58.902-8.972-88.87 3.535-99.097 9.402-6.044-21.483-10.509-41.025-11.397-48.398a3.405 3.405 0 00-6.761.814c.153 1.268.454 3.071.861 5.233-13.359 5.588-31.899 6.652-41.19 6.8 1.744-5.689 3.536-11.532 5.362-17.472 59.22-24.708 91.733-55.92 96.576-92.805 2.208-16.823-1.602-33.47-8.797-49.172zm-291.912.121c7.402 6.204 15.42 11.612 23.97 16.05 3.03 3.571 7.612 11.37 13.366 21.189 4.17 7.113 8.973 15.3 14.35 23.86-21.545-4.047-45.617-2.741-53.014-2.194.638-26.163 1.101-47.934 1.328-58.905zm143.3 17.461a3518.8 3518.8 0 01-4.449 34.535c-.44.667-.68 1.473-.562 2.327.027.186.126.339.18.513-2.847 21.152-6.573 47.42-10.694 72.873-36.44-11.821-66.543-63.164-84.564-93.912-2.778-4.737-5.205-8.87-7.37-12.394 4.434 1.769 8.947 3.358 13.575 4.646-.236 5.419-.144 15.447 3.62 17.193 5.202 2.411 21.872-10.935 21.872-10.935s20.263 17.206 26.053 15.76c4.306-1.078 4.938-12.832 4.98-18.79a131.578 131.578 0 0037.36-11.816zm1.768 39.61c9.16-.15 38.395 2.13 67.791 33.328a34705.84 34705.84 0 00-20.596 66.92l-3.38 11.043a9463.55 9463.55 0 00-12.436 40.927c-14.248 2.095-27.796 5.233-40.478 9.037-3.118-1.36-10.045-2.58-19.848-3.205 10.456-28.989 22.143-107.476 28.947-158.05zm-123.271 8.084c10.95.215 23.867 1.208 35.101 4.062.642.976 1.286 1.954 1.942 2.934-.759 12.14-7.958 125.199-14.176 147.615-16.74 2.877-34.6 7.155-52.62 13.342 2.545-25.59 4.94-106.35 6.458-167.354 3.362-.253 12.345-.815 23.295-.6zm-697.825 4.808c16.876.393 33.28 8.878 43.073 24.115l39.511 61.473-96.49 44.299-31.453-48.932c-15.67-24.382-8.583-56.965 15.797-72.635a52.244 52.244 0 0129.562-8.32zm741.116 11.219c9.03 12.628 19.187 24.909 30.33 34.72-1.696 7.49-5.842 19.54-10.25 32.307-8.698 25.212-18.432 53.485-17.518 68.364a357.483 357.483 0 00-15.713 2.017c5.542-25.647 11.284-108.683 13.15-137.408zm665.318 18.09c8.021 0 15.748 10.077 21.752 28.373 5.08 15.474 8.748 36.015 10.797 59.355-.035.036-.06.085-.092.121.132 1.551.271 3.092.389 4.664.039.033.06.077.1.108 4.453 57.936-.862 131.69-19.145 188.566-75.825-167.169-59.843-235.217-43.334-261.015 9.523-14.89 21.864-20.172 29.533-20.172zm-1510.553 17.054c3.432.064 6.883.466 10.313 1.213 13.718 2.983 25.454 11.13 33.045 22.94l40.22 62.576c-13.093 6.807-23.096 18.015-28.261 31.951-5.514 14.868-4.905 30.994 1.71 45.404 6.618 14.412 18.45 25.386 33.319 30.897 14.868 5.512 30.994 4.903 45.408-1.713l7.307-3.353c1.964 19.58-7.1 38.616-23.887 49.406-11.81 7.589-25.87 10.128-39.588 7.146-13.72-2.984-25.455-11.132-33.047-22.941l-91.61-142.533c-7.592-11.811-10.131-25.872-7.147-39.59 2.985-13.719 11.131-25.453 22.943-33.043 8.857-5.696 18.98-8.55 29.275-8.36zm1168.422 1.914c5.311.06 10.54 1.566 15.662 4.528 31.538 18.23 28.167 52.373 25.707 77.303-1.496 15.131-2.577 26.066 3.703 31.158 1.626 1.32 3.626 2.058 5.985 2.283-8.787 10.685-17.52 25.533-25.903 46.06-22.1-52.949-31.91-55.961-51.59-52.859.682-12.717 1.096-24.952 1.239-36.69v-.013-.01c.012-.072-.014-.137-.01-.21.256-21.625-.404-41.573-1.965-59.812 9.227-7.91 18.31-11.834 27.162-11.736zm293.54.766c-3.206 6.596-5.917 14.183-7.923 22.854l-12.548 12.549a238.933 238.933 0 00-13.018-.385c-.524 0-1.028.014-1.547.018zm-580.577 1.703c7.912 6.139 16.274 10.939 25.041 13.684.13.04.26.033.39.058-2.526 15.246-5.18 29.998-7.853 42.95-20.709 1.966-29.299-10.861-31.392-14.776 1.405-4.15 2.82-8.256 4.181-12.203 4.031-11.681 7.597-22.047 9.633-29.713zm-619.406 11.754c18.856-.802 37.057 9.985 51.013 31.014.834 1.26 2.352 1.742 3.731 1.36l163.666 248.839c-55.605 32.116-166.458 89.02-306.008 124.086l-111.197-173.785c4.67 2.441 9.668 4.317 14.955 5.467a59.813 59.813 0 0012.736 1.379c11.252 0 22.289-3.218 31.98-9.448 19.498-12.533 29.75-34.915 26.74-57.687.058.08.08.178.146.256 11.56 13.356 28.17 20.384 44.953 20.382 11.056 0 22.187-3.05 31.994-9.351 16.301-10.477 26.225-28.355 27.156-47.233l69.584 116.217a3.405 3.405 0 005.842-3.498l-76.961-128.533c-.013-.02-.031-.031-.043-.051-.14-.223-.327-.392-.512-.574-.125-.124-.232-.263-.373-.365-.17-.123-.362-.198-.553-.288-.198-.095-.39-.191-.601-.246-.176-.045-.355-.048-.537-.064a3.27 3.27 0 00-.756 0c-.075.013-.144-.014-.219 0-.115.024-.202.098-.312.133-.144.045-.295.044-.436.11l-115.055 52.822c-12.753 5.861-27.032 6.401-40.2 1.517-13.165-4.88-23.638-14.593-29.497-27.353-5.857-12.757-6.396-27.035-1.516-40.197 4.88-13.167 14.597-23.642 27.354-29.5l153.984-70.696c6.299-2.892 12.656-4.447 18.942-4.715zm759.515 26.863c2.282 10.556 6.053 25.775 10.664 41.815l.016.053a692.745 692.745 0 002.59 8.775c-24.754-4.221-48.544-4.312-70.758-1.681a10757.013 10757.013 0 0112.817-42.12c8.536-.012 29.081-.732 44.672-6.841zm-1112.505.413c-1.903 30.374 10.087 64.276 35.794 101.046l209.067 320.295-11.795 75.86L1110.4 1163.85c-22.825-38.722-19.782-97.543-2.884-144.83zm955.89 10.945c4.77 5.943 14.062 13.793 29.871 13.793.884 0 1.809-.05 2.733-.1-2.83 12.936-5.658 23.584-8.362 30.416-9.724-.284-21.476-.014-34.584 1.125-.58-9.576 4.446-27.279 10.342-45.235zm572.088.527c7.28.292 15.167.952 23.746 2.04-.692 27.107 4.166 63.828 19.74 113.263.228 13.721-12.085 51.034-12.21 51.41a3.405 3.405 0 003.23 4.479 3.41 3.41 0 003.23-2.334c.388-1.172 7.224-21.883 10.645-38.6 8.896 26.057 20.61 55.38 35.814 88.38-9.9 27.525-23.1 50.337-40.007 64.308-27.546-77.676-66.839-127.73-116.965-148.878-56.216-23.718-114.038-6.313-153.43 13.096a451.372 451.372 0 00-6.387-7.205c-.16-3.337-1.118-7.344-2.96-12.082a998.104 998.104 0 00-4.108-10.39c10.788-28.235 21.978-46.122 33.066-57.198.04-.032.066-.07.104-.103 21.485-21.381 42.568-17.345 59.539-14.092 8.055 1.54 15.012 2.871 21.025 1.465 14.215-3.319 24.328-11.019 35.032-19.172 18.873-14.376 39.943-30.427 90.896-28.387zm-340.445 17.989c11.404-.088 24.65.786 39.896 3.154-.288 17.793-1.167 36.71-2.681 56.799a3.401 3.401 0 003.138 3.648c.085.013.171.014.258.014a3.403 3.403 0 003.39-3.148c.409-5.42.76-10.74 1.079-15.997 17.974-3.025 25.513-4.025 53.469 67.883 1.422 3.66 2.15 6.46 2.433 8.59a3.316 3.316 0 000 3.348c-.193.933-.557 1.548-1.053 1.808-8.337 4.347-44.542-19.535-58.31-32.312 11.197-.7 19.818-1.624 22.318-1.908a3.4 3.4 0 002.998-3.764 3.392 3.392 0 00-3.761-3c-21.023 2.375-78.494 6.164-91.825-4.697-7.533-6.139-16.925-30.382-24.92-56.006-.016-.085-.052-.16-.074-.242a675.892 675.892 0 01-3.525-11.692c5.32-3.28 22.954-12.211 57.166-12.476zm453.902 6.302c37.883 19.136 61.841 43.93 76.764 71.912-22.515 21.976-44.34 60.725-34.246 68.528 6.681 5.166 29.635-14.687 47.334-36.26 13.445 45.425 10.288 96.087 7.287 143.508-1.334 21.066-2.582 41.3-2.492 60.498v.086c.043 8.586.324 16.986 1.035 25.125 6.418 73.596 42.23 138.009 67.601 142.267a15.547 15.547 0 002.567.22c5.65 0 10.226-3.365 13.045-9.686a3.4 3.4 0 00-1.723-4.495 3.399 3.399 0 00-4.494 1.723c-2.576 5.764-5.946 5.917-8.268 5.523-9.277-1.558-24.281-17.923-37.32-44.62a10.275 10.275 0 004.492-2.268c7.632-6.632 6.348-24.282 4.723-46.623-2.048-28.175-4.596-63.239 13.642-73.45 9.618-5.385 19.67-5.435 24.25-2.751 2.151 1.261 2.15 2.56 2.15 2.988 0 1.607-.708 2.225-4.45 3.89-3.803 1.69-9.547 4.244-9.547 12.03 0 .27.034.54.098.803 1.761 7.268 7.625 7.39 11.508 7.472 3.969.083 6.515.291 8.712 3.358 1.074 1.497 1.332 4.803 1.612 8.304.27 3.434.578 7.325 1.676 11.373 7.898 29.108 24.53 132.688-9.04 182.784-16.083 13.825-32.462 17.746-48.716 11.605-54.607-20.63-92.562-140.66-97.157-175.965-4.946-38.045 2.344-75.429 8.206-105.469 6.182-31.71 10.652-54.623-4.805-59.293-8.477-2.572-16.843.083-24.152 7.665-6.506 6.743-12.138 17.495-16.561 30.804l-.055.047a155.354 155.354 0 00-1.48 4.719c.01.016.011.035.02.053a179.053 179.053 0 00-2.016 7.375l-.055.23c-9.555 38.255-10.168 91.106 4.422 133.745 8.845 25.85 6.133 35.6 3.138 37.285-2.125 1.192-7.145.354-15.441-5.856a3.363 3.363 0 00-2.236-1.73c-5.808-4.699-13.041-11.835-21.815-22.365-.464-.558-1.083-.868-1.734-1.045-2.145-41.543-8.353-81.338-19.791-117.61a538.941 538.941 0 00-3.606-10.982c18.846-14.679 33.385-39.735 44.086-70.113.183-.332.31-.695.373-1.07 20.02-57.563 26.418-133.764 22.46-194.268zm-557.627 17.81c14.287-.068 29.074 1.125 44.213 3.94 8.204 25.99 17.987 50.652 26.565 57.64 8.603 7.01 29.35 8.933 49.517 8.933 5.51 0 10.974-.144 16.137-.366 8.741 9.739 46.807 38.992 65.127 38.99 2.008 0 3.78-.352 5.25-1.119 1.104-.576 1.96-1.37 2.685-2.273 16.932 19.105 33.419 40.935 49.059 65.049a3.397 3.397 0 004.707 1.004 3.4 3.4 0 001.004-4.707c-13.376-20.624-27.372-39.605-41.744-56.686 38.06-18.463 93.092-34.582 146.228-12.17 51.93 21.908 91.99 76.557 119.072 162.432 48.711 154.463 2.106 373.748-54.22 519.802-.139.103-.297.158-.422.284-.819.825-1.066 1.957-.867 3.02-.624 1.602-1.249 3.215-1.875 4.8-4.494-7.095-12.281-14.046-23.041-11.188-12.666 3.364-13.939 19.544-13.453 29.582-6.462-4.011-14.569-6.439-19.997-.64-9.64 10.283-5.122 30.978-2.326 40.514-4.564.606-9.184 3.426-12.138 7.775-3.226 4.747-8.748 17.995 9.523 38.441 3.884 4.346 7.68 7.534 11.371 9.614-19.73 31.56-40.185 57.436-59.69 75.562.823-9.5-1.373-18.93-8.835-27.113-6.808-7.463-14.865-11.244-23.957-11.244h-.184c-17.178.095-33.032 13.744-39.287 19.865-8.767-12.477-17.82-24.307-27.201-35.363a438.05 438.05 0 00-16.836-18.735c13.384-11.801 24.674-40.166 20.943-64.943-2.126-14.115-8.931-25.1-19.54-31.961 43.742-123.973 66.754-221.228 75.818-297.523 28.752-35.927 31.349-65.447 31.445-66.69a3.405 3.405 0 00-6.79-.531c-.02.26-2.233 23.887-23.189 53.857 12.624-125.4-13.814-191.332-46.107-225.92-41.327-44.26-101.695-47.229-140.844-36.318-5.79 1.613-24.818 7.509-26.523 15.608-.388 1.84.786 3.666 2.623 4.054a3.393 3.393 0 004.03-2.61c.757-2.167 11.197-8.988 32.556-13.011 18.536-3.488 82.436-10.834 126.871 41.05 48.202 56.28 80.928 193.029-35.95 524.745a50.013 50.013 0 00-6.179-2.287c-22.997-6.841-41.261 4.19-53.559 16.496 1.124-5.868 1.325-12.128-.287-18.209-2.702-10.208-9.976-18.089-21.611-23.422-38.016-17.41-62.48 20.997-68.41 31.727a309.547 309.547 0 00-91.631-11.174c2.73-60.253 6.477-100.73 17.61-155.854.285-.573.44-1.191.372-1.84 3.342-16.402 7.334-34.127 12.147-54.06 59.276-34.35 87.353-82.217 87.701-82.828a3.401 3.401 0 00-1.256-4.645 3.4 3.4 0 00-4.648 1.256c-.43.75-43.957 74.819-137.46 103-21.95-8.645-46.722-11.15-64.98-11.617-15.921-19.193-31.132-47.41-42.92-70.709 11.831-12.856 26.176-32.22 20.055-59.412-8.63-38.339-56.377-37.919-67.393-37.299-9.288-18.012-19.006-35.354-29.335-50.959 5.66-14.775 9.001-26.963 9.001-26.963s-8.476 3.155-21.189 9.832c-12.6-16.38-26.133-29.828-40.936-38.516-13.7-160.292 61.595-218.414 62.362-218.984a3.405 3.405 0 00-4.055-5.467c-3.22 2.382-77.76 59.663-65.402 220.71-18.69-8.791-39.355-10.032-62.59-.428-14.645-116.644 15.944-202.391 91.02-254.862 10.591-7.404 21.625-13.786 32.833-19.3.442.04.92.04 1.356.084 1.672.185 3.072-.89 3.535-2.41a288 288 0 0122.46-9.346c.122-.037.237-.078.353-.13 19.809-7.26 39.494-12.131 57.705-15.251.109.013.22.057.33.057.512 0 .995-.15 1.447-.365a346.367 346.367 0 0121.82-2.918c.255.06.506.132.776.132.252 0 .51-.03.765-.088.207-.048.366-.17.553-.251 22.01-2.09 40.08-1.628 50.9-.178-55.214 19.125-91.169 48.843-91.769 49.347a3.404 3.404 0 104.38 5.21c.865-.727 76.396-63.046 176.401-63.528zm-265.078 39.345c-7.712 4.229-15.303 8.87-22.668 14.017-77.777 54.359-109.247 142.993-93.61 263.434-52.526 25.888-60.242 82.906-60.937 108.388a735.703 735.703 0 00-18.71-23.556c-25.609-162.296 20.301-251.12 63.56-297.098 41.174-43.77 94.17-63.524 132.365-65.186zm-480.96 5.974c2.394 19.793-6.802 39.72-23.753 50.615-21.5 13.82-50.156 9.95-67.244-8.838zm1370.321 102.596a10.511 10.511 0 000 21.021 10.511 10.511 0 000-21.021zm-38.658 43.24c1.47-.013 2.961.21 4.479.668 7.19 2.173 6.61 14.833 3.63 32.516-3.82-4.806-8.426-7.866-13.802-9.043-7.015-1.531-13.945.428-19.319 2.912 3.514-8.704 7.626-15.764 12.206-20.512 4.18-4.335 8.398-6.5 12.806-6.541zm-1051.664 29.025l-25.894 74.956c-3.991 2.747-21.299 14.441-49.684 30.623-7.616-4.778-15.18-8.696-22.623-11.563 28.396-16.868 42.295-28.713 42.916-29.246a3.407 3.407 0 00.555-4.555 3.41 3.41 0 00-4.483-.97c-15.908 9.229-35.717 19.394-58.883 30.212-.105.051-.172.142-.271.202a3.3 3.3 0 00-1.543 2.084c-.028.113-.098.206-.115.324-.015.101.023.193.017.293-.013.228-.001.447.039.677.033.23.08.446.158.66.035.096.028.194.07.288.051.108.145.177.205.277.119.2.249.378.406.549a3.28 3.28 0 001.682.99c.11.028.2.097.314.113a68.197 68.197 0 017.538 1.534 3.39 3.39 0 002.56 1.195c.337 0 .671-.066 1.002-.17 33.779 10.512 71.43 46.227 104.672 86.203.077.479.137.94.215 1.42a3.4 3.4 0 003.299 2.846 775.811 775.811 0 0121.755 27.928c.033.493.062.827.066.873.151 1.541 1.31 2.675 2.768 2.953a917.794 917.794 0 019.889 13.718c-.98.751-1.508 1.178-1.508 1.178s1.033.281 2.855.738c28.419 40.406 48.663 76 52.022 84.813 4.252 11.159 22.14 12.659 49.222 14.934 48.407 4.065 121.559 10.21 165.301 78.328a3.408 3.408 0 005.733-3.682c-45.563-70.942-120.727-77.254-170.467-81.43-11.921-1-22.932-1.933-30.94-3.732-18.778-34.868-33.321-74.185-36.353-82.588 9.67 1.28 19.906 2.05 28.988 1.541v-26.55a5.107 5.107 0 0110.213 0v25.282c5.017-1.06 9.285-2.77 12.36-5.332 6.382-5.318 6.47-18.947 5.265-30.115l21.973-14.224c9.001 6.689 20.734 13.488 28.535 10.697 12.388-4.432 23.378-24.652 31.172-43.37 17.53 27.477 33.568 60.528 49.334 93.608l.023.051 3.254 6.832 3.654 7.67c-.295 4.888-2.407 11.062-5.627 20.414-1.721 5.004-3.671 10.672-5.746 17.39-7.879 25.505 14.963 44.77 24.178 48.905 1.24.556 2.26.78 3.097.78 1.632 0 2.573-.848 3.108-1.735 1.87-3.09-1.505-5.742-3.317-7.166-12.578-9.883-9.72-25.258-4.963-32.627 1.39-2.152 4.169-5.025 7.387-8.357l.297-.31c10.908 21.447 24.57 46.593 39.106 65.376-9.96.072-16.686.673-17.723.773a3.405 3.405 0 00-3.063 3.715c.18 1.874 1.863 3.233 3.715 3.065.3-.031 9.443-.844 22.79-.596.662.685 1.535 1.068 2.427 1.068a3.41 3.41 0 002.23-.832c.035-.03.047-.075.08-.105 31.611 1.144 81.41 8.605 99.74 42.576-11.22 55.583-14.974 96.372-17.722 157.277-50.587 2.532-85.61 16.624-90.635 20.252a3.404 3.404 0 003.983 5.522c6.524-4.715 87.759-35.433 185.197-7.758.055.03.088.081.144.107.431.202.883.302 1.33.315 4.46 1.292 8.94 2.662 13.46 4.207 94.329 32.248 172.745 112.218 230.851 234.01-.71.398-1.424.831-2.135 1.224-.633.352-1.264.693-1.896 1.041a586.679 586.679 0 01-15.184 8.077c-.585.3-1.17.59-1.756.888a554.505 554.505 0 01-15.295 7.49c-.514.242-1.028.473-1.542.713a520.123 520.123 0 01-15.483 6.93c-.401.172-.802.333-1.203.504a495.05 495.05 0 01-15.791 6.394c-.237.092-.474.175-.71.266a466.182 466.182 0 01-16.247 5.883 190.87 190.87 0 01-8.557 2.664c-.91.263-1.84.506-2.763.76a232.814 232.814 0 01-9.405 2.373 272.167 272.167 0 01-6.654 1.435c-.907.186-1.805.383-2.719.559a315.671 315.671 0 01-9.47 1.69c-.468.075-.945.136-1.415.21a358.344 358.344 0 01-8.351 1.217c-1.08.145-2.166.276-3.25.412a404.879 404.879 0 01-6.83.8c-1.13.122-2.261.243-3.395.356a460.346 460.346 0 01-7.453.684c-.846.072-1.69.154-2.539.22-3.33.262-6.662.493-9.99.69-.656.04-1.308.068-1.963.104a558.235 558.235 0 01-8.096.396c-1.048.044-2.09.081-3.134.12-2.388.086-4.77.16-7.137.218-.972.025-1.946.05-2.914.07a663.321 663.321 0 01-8.39.121c-.433 0-.873.012-1.304.014-3.32.021-6.6.02-9.837 0-.44 0-.868-.012-1.305-.014-2.76-.025-5.487-.066-8.172-.119-.695-.013-1.383-.029-2.072-.045a765.046 765.046 0 01-7.565-.203c-.496-.016-.997-.027-1.488-.045a855.738 855.738 0 01-17.451-.764 24.921 24.921 0 00-2.096-1.67s-49.357-5.84-64.432-6.115c-14.282-.259-21.196 9.328-21.916 29.604-27.84 9.064-51.22 29.53-63.47 57.2-.186.417-.297.843-.418 1.268l-87.522 4.791c-3.285-4.694-10.505-12.627-21.265-11.459-10.72 1.163-15.53 9.06-17.434 13.578l-5.006.274c-89.313-102.195-147.67-228.032-164.117-301.85a3.55 3.55 0 00-.215-.642c-39.557-89.041-264.029-452.24-305.578-519.248.013-.04.036-.076.047-.117a3.408 3.408 0 00-.836-3.198l-3.613-3.779-2.227-3.584a3.403 3.403 0 00-4.69-1.092c-.906.564-1.405 1.49-1.529 2.473-42.569 16.124-73.922 26.912-74.24 27.021a3.403 3.403 0 001.828 6.545c27.183-5.918 53.837-12.956 79.354-20.875 3.519 5.674 8.369 13.505 14.334 23.157-47.152 18.509-95.617 34.364-144.227 47.166l12.203-78.498c187.89-42.84 331.156-127.555 366.334-149.608zm1039.291 1.461v40.043c-9.46-.413-18.397-2.155-22.84-3.152 1.595-11.096 3.878-21.428 6.727-30.53 3.185-2.183 9.464-5.85 16.113-6.36zm6.809.774c4.762 1.597 8.753 5.555 11.89 11.783a1930.07 1930.07 0 01-1.76 9.1c-1.107 5.685-2.266 11.631-3.384 17.793a59.139 59.139 0 01-6.746.623zM1719.57 1330.17c-4.912 37.784-4.969 82.145 2.362 134.129-20.991-24.288-43.536-46.462-65.83-61.766 30.842-17.724 47.93-29.736 48.107-29.861a3.423 3.423 0 001.254-1.668zm1021.291 7.746c5.576 1.237 16.444 3.28 27.541 3.28 2.859 0 5.7-.208 8.498-.528-4.306 25.25-7.443 53.738-3.654 82.873 4.717 36.28 44.222 159.815 101.498 181.455 5.848 2.21 11.68 3.311 17.498 3.309 4.643 0 9.271-.735 13.88-2.139a57.117 57.117 0 01-13.548 5.842c-30.761 8.77-61.232 4.342-88.117-12.809-35.083-22.377-61.345-65.246-71.318-115.746 6.317 3.613 12.189 4.925 16.851 2.305 8.513-4.786 8.5-20.492-.029-45.424-2.21-6.455-4.032-13.197-5.537-20.1l17.861-33.15a3.387 3.387 0 00.282-2.543c-.18-.632-4.51-15.021-23.348-23.453.216-7.912.777-15.677 1.643-23.172zm-1.736 30.658c11.016 5.772 15.2 13.635 16.447 16.623l-13.183 24.469c-2.235-13.495-3.261-27.425-3.264-41.092zm111.346.551c8.932 5.136 23.516 13.995 27.246 16.266-1.495 14.05-.353 30.16.75 45.324 1.306 17.99 2.66 36.591-2.403 40.99-.518.455-1.392.965-3.05.902-10.175-22.694-18.7-51.788-21.598-85.02-.524-6.006-.81-12.174-.945-18.462zm-998.994 17.447c25.025 1.248 46.582 16.965 66.058 40.842-20.32-20.328-37.462-28.161-50.99-23.26-18.12 6.563-23.499 33.776-24.975 45.135-23.97-11.173-41.484-12.312-52.092-3.373-20.223 17.035-6.395 63.823-5.796 65.809.079.264.218.49.351.718a254.506 254.506 0 00-16.47 10.62 883.43 883.43 0 00-11.702-16.19c-.624-15.185-.118-84.905 59.211-112.44 12.938-6.005 25.03-8.428 36.405-7.86zm24.261 23.016c10.634.515 24.29 9.286 40.045 25.785a279.022 279.022 0 00-4.705 2.84l2.543 45.53a5.105 5.105 0 01-4.812 5.378c-.096 0-.196.012-.29.012a5.11 5.11 0 01-5.097-4.822l-2.219-39.729c-12.11 8.163-25.189 18.372-37.54 30.891l.41.39-12.28 8.165c-24.605 6.182-45.945 16.097-61.809 24.988-1.622-5.815-11.742-44.739 3.885-57.89 8.976-7.554 25.48-5.411 49.066 6.39a3.388 3.388 0 003.22-.096 3.396 3.396 0 001.7-2.733c.024-.373 2.62-37.477 21.016-44.13 2.12-.767 4.413-1.088 6.867-.97zm769.115 9.654l-38.644.496 9.367 48.364 58.22-24.182zm301.536 8.244c27.58 22.864 139.2 120.033 177.216 223.881l-15.285 16.735a5.107 5.107 0 007.54 6.888l11.495-12.588c7.732 25.812 3.495 53.572-8.142 80.852l-3.594 3.77c-1.535 1.612-1.76 3.943-.803 5.82-18.48 37.676-50.156 73.858-82.886 101.986-54.05 46.45-114.256 74.698-141.088 66.955 16.062-21.513 25.586-48.18 25.586-77.031a128.194 128.194 0 00-11.65-53.47c3.802-8.55 22.221-53.496 8.165-92.717-6.484-18.09-19.037-32.14-37.216-41.938-.148-.073-.282-.18-.438-.229-1.464-.78-2.896-1.583-4.434-2.308v-.01c-.02-.013-.043-.02-.064-.03-.028-.012-.053-.031-.082-.044-.03-.015-.06-.024-.092-.04a50.11 50.11 0 00-6.726-2.886c-68.073-26.922-105.906 34.047-113.19 47.362-11.286-2.732-22.773-4.297-32.234-3.245-6.572.734-10.624 3.302-12.037 7.631-3.093 9.464 9.494 23.687 16.217 30.416-38.377 22.382-64.24 63.968-64.24 111.506 0 41.567 19.807 78.543 50.427 102.152-13.266 11.596-25.396 23.595-36.422 35.932 0 0 0 .01-.01.01-22.826 22.915-45.646 43.965-68.423 63.139-.187.157-.373.317-.561.474a914.672 914.672 0 01-16.328 13.399l-1.033.832a852.363 852.363 0 01-15.95 12.433c-.458.35-.916.701-1.375 1.05a799.966 799.966 0 01-15.662 11.57c-.541.389-1.08.78-1.62 1.167a752.465 752.465 0 01-15.436 10.77c-.604.41-1.208.822-1.813 1.229-.753.509-1.504.978-2.258 1.482-6.837-14.123-14.284-28.703-20.804-39.643 21.828-18.862 44.937-47.455 67.047-82.994 1.124.228 2.24.385 3.34.385a15.65 15.65 0 004.18-.566c13.21-3.64 18.916-23.51 20.495-30.278 6.83-2.441 27.62-12.227 23.615-39.795 3.66-3.224 12.133-11.952 13.028-24.314.684-9.444-3.235-18.763-11.535-27.74 42.48-110.185 79.397-261.808 74.58-396.602 6.082 6.975 12.775 13.86 19.343 19.107 9.227 55.232 37.367 102.614 75.57 126.983 19.029 12.137 39.743 18.28 61.108 18.28 10.727 0 21.62-1.549 32.543-4.665 71.796-20.478 60.68-138.642 51.945-191.064zm-1473.84 16.58l.183.194.22.35a883.438 883.438 0 01-9.259 2.798c2.892-1.085 5.845-2.199 8.856-3.342zm466.556 47.092a3.395 3.395 0 00-3.119 1.766l-10.353 18.867c-4.368-1.47-13.234-3.99-23.416-4.285-4.976-.206-7.693 2.09-9.192 3.99-4.944 6.247-2.9 17.923-1.959 22.088a5.608 5.608 0 00-1.86.422 5.6 5.6 0 00-1.534 1.023c-.227-.198-.426-.419-.67-.601-1.825-1.715-12.373-11.214-21.201-9.719-2.39.403-5.703 1.795-7.924 6.135-4.64 9.07-6.696 18.052-7.508 22.59h-21.525a3.406 3.406 0 00-3.227 2.318 3.41 3.41 0 001.17 3.799c.964.73 22.602 16.996 38.977 16.996.917 0 1.82-.05 2.699-.158 7.313-.896 15.09-9.044 19.558-17.81 4.82 11.07 13.136 18.118 18.612 15.751 5.494-2.376 6.05-13.328 1.236-24.463a44.635 44.635 0 00-1.564-3.224c2.266.4 4.639.67 7.111.67 9.45 0 19.53-2.914 23.633-8.614 9.76-13.557 5.476-43.373 5.29-44.637a3.403 3.403 0 00-2.765-2.851 3.395 3.395 0 00-.469-.053zm32.9 12.676c13.517-.321 50.487 1.654 57.348 32.129 6.27 27.85-11.694 46.441-23.582 58.744-3.464 3.587-6.459 6.684-8.207 9.396-4.544 7.04-6.481 16.529-4.228 25.434v.01a40.677 40.677 0 01-2.88-4.406c-4.296-7.624-5.23-15.526-2.774-23.485 2.045-6.613 3.976-12.226 5.681-17.18 3.378-9.81 5.902-17.158 6-23.536v-.014c.095-6.091-2.055-11.303-7.77-16.928-6.37-13.365-12.873-26.895-19.587-40.16zm-35.46 2.225c.356 9.768-.398 22.242-5.022 28.662-3.4 4.725-16.738 7.241-25.953 4.886-3.188-.813-7.074-2.501-7.502-5.93a4.407 4.407 0 00-.086-.454c-1.309-4.931-2.36-14.043.385-17.504.525-.662 1.387-1.412 3.404-1.412h.247c12.89.376 23.791 4.785 23.902 4.828a3.404 3.404 0 004.277-1.512zm-68.766 25.289c4.42-.033 11.22 4.858 14.682 8.158a3.747 3.747 0 00.355.293c1.028.744 1.618 1.787 1.922 2.963a26.204 26.204 0 00.115 4.187 20.29 20.29 0 01-.45 2.287c-2.37 9.204-10.99 19.687-16.768 20.395-7.819.961-19.142-4.377-27.535-9.389h13.187a3.406 3.406 0 003.385-3.023c.013-.118 1.365-11.739 7.27-23.274 1-1.956 2.121-2.378 2.988-2.523.271-.048.555-.072.85-.074zm-94.355.117a327.32 327.32 0 0017.23 3.244c-.085.536-.085 1.087.106 1.635.152.432 14.317 40.683 33.814 78.465-1.428-.952-2.444-2.04-2.928-3.311-3.364-8.832-21.824-41.747-48.222-80.033zm149.463 37.695a3.403 3.403 0 00-3.405 3.404c0 7.678-3.969 10.912-7.297 12.278-4.722 1.932-10.962 1.072-13.91-1.918a3.4 3.4 0 00-4.814-.04 3.403 3.403 0 00-.04 4.813c3.178 3.23 8.185 4.985 13.307 4.985 2.732 0 5.499-.5 8.038-1.541 7.326-3 11.525-9.771 11.525-18.577a3.405 3.405 0 00-3.404-3.404zm-243.832 78.645c-11.268-.028-18.63.75-18.916.78a3.404 3.404 0 00-2.998 3.768 3.403 3.403 0 003.765 2.999c1.092-.131 109.972-11.602 133.096 58.705 30.758 93.527 73.701 149.662 127.629 166.847a116.817 116.817 0 0035.619 5.522c43.381 0 75.751-23.445 77.443-24.696a3.404 3.404 0 00-4.043-5.478c-.494.365-50.217 36.29-107.027 18.142-51.695-16.514-93.132-71.176-123.152-162.466-18.642-56.677-87.612-64.038-121.416-64.123zm1147.754 3.32a72.023 72.023 0 018.232.086c-28.413 10.124-48.295 46.476-53.701 57.346a215.169 215.169 0 00-23.905-8.34c6.484-11.724 29.352-47.194 69.374-49.092zm22.89 4.297c3.949.01 7.885.692 11.795 2.035a113.918 113.918 0 016.313 2.715c1.58.742 3.052 1.563 4.548 2.367 13.528 12.895-5.462 54.655-15.884 73.32a128.12 128.12 0 00-59.946-19.765c-1.862-1.258-4.953-2.928-8.931-4.784 5.346-10.557 24.494-45.081 50.242-53.882 3.954-1.35 7.915-2.015 11.863-2.006zm-678.27 8.474c-3.478 14.591-6.509 28.003-9.163 40.6-7.404-10.512-17.598-18.335-29.092-24.107a251.338 251.338 0 0038.256-16.493zm711.798 5.91c35.584 27.23 13.897 80.12 6.189 96.09a130.12 130.12 0 00-27.28-26.216c6.185-10.982 25.259-47.268 21.09-69.873zm-156.801 31.891c17.665.466 40.523 8.143 54.613 14.2a128.046 128.046 0 00-52.16 13.939c-7.935-7.695-17.63-19.873-15.988-24.893.636-1.95 3.792-2.696 6.324-2.978 2.27-.254 4.687-.334 7.21-.268zm-1191.649 7.426a3.404 3.404 0 00-3.404 3.404v17.985h-17.984a3.404 3.404 0 000 6.808h17.984v17.985a3.404 3.404 0 006.809 0v-17.985h17.982a3.404 3.404 0 000-6.808h-17.982v-17.985a3.404 3.404 0 00-3.405-3.404zm1375.02 4.117c5.039 27.915-4.174 57.128-9.06 69.899a129.18 129.18 0 00-6.797-11.067c3.598-6.968 15.742-32.48 15.857-58.832zm-122.385 9.303c67.385 0 122.207 54.822 122.207 122.209 0 67.386-54.822 122.21-122.207 122.21-67.385 0-122.209-54.824-122.209-122.21 0-67.387 54.824-122.209 122.21-122.209zM1655.96 1745c29.676 49.816 58.056 98.265 80.832 138.672-1.568 11.512-21.455 33.694-54.992 61.23-119.642 98.232-25.009 232.92-24.04 234.27a3.4 3.4 0 002.768 1.416 3.405 3.405 0 002.762-5.393c-.933-1.296-91.935-130.803 22.83-225.029 21.85-17.941 47.345-41.366 55.166-58.494 18.517 33.065 32.876 60.138 40.483 77.2 12.277 54.807 47.276 137.743 100.584 218.694-9.787 4.958-24.755 24.193-50.004 59.532-9.146 12.8-17.044 23.853-21.145 28.058-78.265 80.23-151.559 82.47-194.05 57.824-5.702-3.308-10.758-7.115-15.006-11.173a41.16 41.16 0 009.101 3.205c15.645 3.522 35.788-1.968 45.41-27.961 9.096-24.576-9.563-37.84-35.385-56.197-37.283-26.504-93.625-66.558-117.912-172.295-28.134-122.5 34.989-188.535 90.682-246.795 24.347-25.472 47.428-49.62 61.916-76.764zm288.672 11.803a3.404 3.404 0 00-3.172 3.394v17.985h-17.984a3.404 3.404 0 100 6.808h17.984v17.985a3.404 3.404 0 106.809 0v-17.985h17.982a3.404 3.404 0 100-6.808h-17.982v-17.985a3.404 3.404 0 00-3.637-3.394zm774.203 2.564a9.408 9.408 0 000 18.817 9.408 9.408 0 100-18.817zm-.531 20.272c-13.356.678-26.367 13.93-30.625 32.373-4.863 21.076 3.526 41.072 18.705 44.576a20.773 20.773 0 004.672.527c2.916 0 5.888-.594 8.783-1.767a3.404 3.404 0 10-2.559-6.309c-3.205 1.301-6.355 1.611-9.367.914-11.323-2.613-17.552-19.287-13.6-36.41 3.954-17.123 16.84-29.39 28.182-26.768 8.061 1.86 13.836 10.783 14.707 22.73.136 1.875 1.797 3.25 3.64 3.15a3.405 3.405 0 003.147-3.643c-1.09-14.992-8.927-26.325-19.965-28.873a20.692 20.692 0 00-5.72-.5zm91.85 8.193a9.408 9.408 0 000 18.816 9.408 9.408 0 100-18.816zm-97.173 11.793c-4.969-.209-10.393 6.34-12.472 15.346-2.217 9.606.214 18.37 5.43 19.574 5.217 1.204 11.243-5.608 13.46-15.215 2.216-9.607-.214-18.368-5.431-19.572a5.403 5.403 0 00-.986-.133zm-423.109 53.357c5.168-.038 10.745 1.095 16.705 3.828 9.693 4.442 15.701 10.82 17.865 18.956 3.064 11.529-1.941 24.465-6.093 32.5a100.408 100.408 0 00-3.36 5.443c-18.237-10.628-37.164-19.363-56.761-26.063a309.35 309.35 0 00-10.54-3.384c5.062-8.988 19.789-31.117 42.184-31.28zm313.86 3.168c9.988.172 14.94 13.891 15.165 14.535a3.41 3.41 0 004.336 2.09 3.4 3.4 0 002.094-4.326l-.059-.156c.747-.356 1.382-.95 1.713-1.78.512-1.282 1.019-2.619 1.53-3.913 5.435 6.689 8.002 13.415 7.536 20.047-.863 12.338-11.834 20.665-11.94 20.744a3.403 3.403 0 00-1.323 3.35c5.127 27.984-19.272 34.353-20.303 34.607a3.413 3.413 0 00-2.543 2.66c-1.296 6.64-6.705 24.435-16.059 27.006-5.14 1.416-11.344-1.92-18.472-9.897-15.079-16.87-11.297-26.656-8.973-30.08 2.713-3.992 7.444-5.61 10.147-4.613a3.421 3.421 0 003.586-.797 3.411 3.411 0 00.779-3.59c-2.905-7.808-8.697-29.936-.71-38.455 3.99-4.244 13.79 3.053 16.91 5.951a3.4 3.4 0 003.944.496 3.403 3.403 0 001.725-3.584c-.047-.265-4.385-26.685 7.652-29.882 1.142-.302 2.23-.43 3.264-.413zm-231.192 24.373c3.333.134 6.8.69 10.393 1.758a42.108 42.108 0 017.634 3.106c.343.337.747.617 1.23.789.115.04.23.033.347.06 12.023 7.051 16.362 18.696 17.777 28.071 3.387 22.504-7.092 48.997-18.969 59.074-21.868-22.229-45.2-40.984-69.88-56.086a84.09 84.09 0 003.448-6.076c7.858-11.741 24.686-31.628 48.02-30.695zm-153.039 60.29l-32.852 19.96-10.293 107.996 43.145-53.997zm666.662 2.052l-5.416 22.928a13.541 13.541 0 00-9.31 7.19l-21.706-3.165a5.17 5.17 0 00-.959-.043c13.76-6.756 26.391-15.813 37.391-26.91zm-159.758 15.533l.062.037c-3.68 16.08-9.752 62.553-14.324 99.801-9.73-37.477-15.49-65.713-13.295-73.789a394.907 394.907 0 0126.627-25.017c.361-.311.63-.681.93-1.032zm118.79 13.061a5.107 5.107 0 003.06 8.465l20.037 2.92c-13.456 47.449-10.618 86.01 8.62 114.629 11.488 17.094 26.319 26.659 36.872 31.896-14.09 34.93-22.876 51.577-28.265 59.342-37.015-53.37-93.258-86.049-160.68-93.389 5.104-43.552 11.377-93.253 15.672-119.42 14.957 5.37 30.668 8.082 46.9 8.082 20.285 0 39.906-4.374 57.783-12.525zm40.76 11.41c2.6.487 6.846 1.494 11.981 3.35.295.106.586.209.887.322.544.204 1.092.418 1.656.64a97.773 97.773 0 013.756 1.596c.716.323 1.44.663 2.174 1.018.401.195.793.382 1.2.586a86.861 86.861 0 013.185 1.69c.343.189.684.384 1.03.581a88.946 88.946 0 013.523 2.118c.126.08.256.17.384.253a85.5 85.5 0 013.495 2.38c.23.165.461.324.693.493a87.346 87.346 0 013.748 2.891c.204.167.407.34.611.51a87.48 87.48 0 017.75 7.28c.17.178.338.355.506.536a88.19 88.19 0 013.701 4.25c.136.167.27.34.407.508a93.184 93.184 0 017.084 10.135c.089.148.185.276.273.424.019.03.024.069.043.1 8.98 15.038 15.628 35.377 16.693 62.933a3.4 3.4 0 001.83 2.887 3.396 3.396 0 003.413-.156c.302-.192 30.337-19.107 70.23-11.735 25.395 4.687 42.653 27.276 55.256 43.768 8.024 10.505 13.825 18.095 19.988 19.27 2.055.39 4.201.627 6.479.88 7.965.886 16.997 1.89 26.693 9.932.665.55 1.28 1.228 1.863 1.984v-.014c.02.025.038.055.057.082 2.118 2.775 3.716 6.822 4.889 11.719-.015.02-.023.047-.037.068a83.445 83.445 0 011.38 7.28c.016.012.028.025.044.034.107.743.175 1.542.27 2.305.09.719.177 1.446.257 2.191.097.922.194 1.838.275 2.784a167.8 167.8 0 01.315 4.3c.02.348.055.68.074 1.03 0 0 0 .01-.01.012.13 2.388.224 4.883.273 7.484v.328c.033 1.86.054 3.756.045 5.72h-.012a340.032 340.032 0 01-.722 20.52 3.361 3.361 0 00-.535-1.064l-19.217-24.524-2.416-25.126c5.445-1.068 9.463-4.554 9.463-8.73 0-5.026-5.78-9.1-12.909-9.1-7.129 0-12.91 4.074-12.91 9.1 0 4.192 4.048 7.69 9.524 8.743v.012l2.379 24.744-29.887 20.442-8.785 6.012-6.153 4.205a3.404 3.404 0 003.844 5.619l7.549-5.162 1.475 12.843c-15.528.63-27.91 12.525-37.53 36.373-.477 1.195-1.12 3.005-1.949 5.35-47.082 133.032-139.86 165.379-212.973 167.879 24.912-21.925 36.007-41.024 36.65-42.15a3.404 3.404 0 00-1.273-4.641 3.396 3.396 0 00-4.642 1.268c-.216.377-22.203 38.13-73.592 67.921a3.407 3.407 0 00-1.66 3.42l5.898 41.83h-48.187v-205.074c8.157 2.265 14.236 3.483 18.586 3.483.193 0 .383 0 .572-.01a10.212 10.212 0 009.477-13.274l-5.122-16.29c-2.644-8.416-5.459-17.4-8.392-26.79 7.368-6.016 18.067-11.393 33.685-13.66a3.4 3.4 0 002.88-3.858 3.403 3.403 0 00-3.856-2.88c-15.596 2.264-26.787 7.451-34.873 13.468-13.259-42.517-28.612-92.556-41.588-137.85 64.365 8.194 118.715 42.207 151.94 97.344.175.292.395.541.636.758.051.047.113.08.166.123a3.403 3.403 0 001.035.567c.343.114.697.194 1.06.197H2881.984c.132 0 .27-.01.406-.025 13.619-1.677 27.258-24.792 52.12-88.336.076-.199.068-.404.107-.605.04-.214.11-.42.11-.633 0-.23-.066-.442-.112-.666-.041-.207-.058-.415-.137-.61-.083-.204-.22-.37-.342-.556-.118-.183-.214-.373-.367-.531-.155-.16-.359-.267-.547-.395-.163-.112-.29-.258-.474-.344-.044-.02-.12-.047-.168-.068a53.71 53.71 0 00-1.909-.763c-25.46-9.799-41.984-27.249-49.256-51.137-.048-.14-.119-.25-.162-.395a91.628 91.628 0 01-1.705-6.726l-.119-.54a101.006 101.006 0 01-1.355-8.038l-.07-.545a113.657 113.657 0 01-.723-8.55l-.016-.4a128.737 128.737 0 01-.076-9.185v-.062c.415-15.045 3.31-31.654 8.775-49.687zm-205.997 22.475l.01.062a236.746 236.746 0 00.602 3.95 283.466 283.466 0 00.707 4.204l.01.043c.252 1.44.523 2.923.812 4.451l.018.092c.287 1.523.592 3.089.916 4.7v.03a517.033 517.033 0 002.19 10.34l.023.108a757.393 757.393 0 002.658 11.548c.473 1.987.964 4.02 1.474 6.102l.021.084a1084.944 1084.944 0 001.592 6.412l.06.229c.545 2.165 1.107 4.374 1.69 6.638v.018c.598 2.315 1.214 4.68 1.85 7.1l.061.23c.622 2.364 1.263 4.775 1.924 7.24l.07.26c.661 2.466 1.342 4.978 2.043 7.547l.061.227a1936.928 1936.928 0 002.176 7.912l.07.252c.741 2.677 1.5 5.403 2.281 8.187l.166.586.045.162a272.285 272.285 0 00-46.883 2.75 265.565 265.565 0 00-42.422 9.768c15.184-38.044 36.16-75.938 65.77-111.232zm384.977 1.468a3.4 3.4 0 001.685.452c.536 0 1.025-.164 1.483-.391 10.436 23.256 18.007 54.37 5.195 84.066-9.833-9.025-21.557-16.539-35.852-19.177a111.068 111.068 0 00-6.31-.975c.361-9.642 3.912-41.525 33.799-63.974zm-163.329.575a3.408 3.408 0 00-3.062 2.22 3.408 3.408 0 002.014 4.371c36.576 13.503 37.706 60.698 38.19 80.85.035 1.608.07 3.025.118 4.223a3.404 3.404 0 003.397 3.267h.14a3.4 3.4 0 003.264-3.537 254.062 254.062 0 01-.115-4.111c-.472-19.683-1.723-71.97-42.635-87.072a3.408 3.408 0 00-1.31-.207zm-422.515 11.89c7.32.095 13.479 2.918 19.05 9.026 20.373 22.334-8.364 58.804-18.269 70.093-11.372-21.614-23.435-41.757-36.168-60.386 4.93-4.93 20.024-18.658 35.387-18.733zm138.242 42.086c-11.615 21.48-21.026 43.286-28.746 65.002-13.157 5.93-25.085 12.806-35.318 20.393a1473.599 1473.599 0 00-12.518-27.74 829.285 829.285 0 008.559-5.756 844.643 844.643 0 0014.859-10.403l.203-.146c13.108-9.423 26.23-19.47 39.361-30.113l.496-.4a945.715 945.715 0 0013.104-10.837zm-109.767 6.781c5.967 10.426 12.55 23.425 18.632 36.014-2.426 1.592-4.857 3.235-7.281 4.781a660.449 660.449 0 01-17.094 10.553c-.642.384-1.285.763-1.93 1.145-2.315 1.37-4.626 2.648-6.94 3.98a738.03 738.03 0 00-9.74-19.724c4.597-4.971 17.4-19.737 24.352-36.749zm496.326 25.176c-24.65 0-44.702 20.055-44.702 44.701 0 24.65 20.052 44.702 44.702 44.702 24.649 0 44.703-20.052 44.703-44.702 0-24.646-20.054-44.7-44.703-44.7zm0 6.809c20.896 0 37.894 17 37.894 37.892 0 20.895-16.998 37.895-37.894 37.895-20.894 0-37.895-17-37.895-37.895 0-20.893 17.001-37.892 37.895-37.892zm-298.465 10.771c.116.406.224.794.34 1.203l.25.874a3345.285 3345.285 0 002.382 8.332l.202.693c.833 2.899 1.682 5.838 2.554 8.84l.229.785c.868 2.987 1.75 6.012 2.656 9.101l.34 1.15a4517.829 4517.829 0 002.652 9.01l.735 2.473c.804 2.71 1.608 5.426 2.437 8.211l.662 2.213c.872 2.923 1.752 5.862 2.655 8.867l.64 2.131a7996.807 7996.807 0 002.774 9.205l.953 3.14c.88 2.909 1.761 5.82 2.668 8.8l.697 2.285a6510.397 6510.397 0 002.977 9.767c.488 1.598.996 3.248 1.492 4.866.802 2.624 1.6 5.23 2.424 7.908l.91 2.953c1.025 3.33 2.05 6.67 3.105 10.084l1.412 4.557c.907 2.932 1.807 5.848 2.735 8.841l1.664 5.35c1.46 4.7 2.945 9.477 4.457 14.326l.525 1.682c-1.601 2.977-2.693 5.66-3.377 7.717l-43.207-3.28c-58.308-19.02-94.878-27.798-107.066-9.804-.35.516-.607 1.061-.848 1.61l-20.568-1.563c5.869-42.886 15.072-90.664 33.13-138.495 14.545-4.972 30.222-8.809 46.573-11.189 16.337-2.379 32.32-3.21 47.836-2.643zM2535 2122.8c7.341 15.865 12.593 27.975 12.709 28.244 0 0 0 .01.01.012 0 0 0 .01.01.01-13.17 10.757-23.024 22.728-28.478 35.23a860.349 860.349 0 00-17.735-43.044c.199-.115.397-.225.596-.338 2.91-1.666 5.816-3.328 8.728-5.055 1.282-.761 2.565-1.562 3.846-2.334a699.79 699.79 0 0020.314-12.725zm466.215 1.535a3.404 3.404 0 00-3.172 3.394v6.89h-6.889a3.404 3.404 0 100 6.808h6.889v6.888a3.404 3.404 0 106.809 0v-6.888h6.886a3.404 3.404 0 100-6.809h-6.886v-6.889a3.404 3.404 0 00-3.637-3.394zm-415.627 10.81c-14.73 43.934-22.765 87.246-28.096 126.534l-13.181-1c-6.652-22.424-13.796-43.913-21.387-64.518 6.45-23.237 29.956-45.184 62.664-61.016zm-90.162 11.553c15.45 34.71 29.365 72.528 41.603 113.428l-94.968-7.21c-.624-.758-1.534-1.27-2.592-1.27a3.37 3.37 0 00-2.264.9l-77.668-5.897H2359.373c-.093 0-.188-.01-.281 0l-21.186 1.159c-3.121-4.618-10.381-12.834-23.035-13.754-13.778-1.003-21.167 10.961-23.771 16.316l-20.744 1.135a10.033 10.033 0 00-1.436-4c-9.495-15.243-22.388-27.443-37.37-35.92 2.612-2.888 5.17-5.813 7.642-8.553.256-.285.425-.563.652-.847h.02a807.523 807.523 0 009.745.421c2.537.096 5.12.18 7.754.254l1.498.043c6.216.164 12.662.264 19.3.274h1.317c2.75 0 5.526-.018 8.33-.053l2.772-.043c2.418-.04 4.851-.092 7.3-.158.997-.027 1.988-.052 2.989-.084 2.681-.085 5.377-.193 8.084-.315.693-.03 1.38-.053 2.076-.088 3.397-.164 6.808-.357 10.227-.584.665-.044 1.33-.1 1.996-.146 2.712-.19 5.424-.4 8.138-.633 1.127-.097 2.248-.205 3.373-.309 2.306-.214 4.606-.443 6.905-.691 1.188-.13 2.371-.257 3.556-.395 2.408-.28 4.804-.585 7.196-.904.984-.132 1.969-.252 2.949-.39a373.77 373.77 0 009.924-1.528c.477-.08.944-.175 1.42-.258 2.794-.482 5.57-.997 8.318-1.547 1.067-.213 2.115-.444 3.174-.668a280.446 280.446 0 009.828-2.25c2.16-.538 4.29-1.106 6.404-1.693.964-.268 1.936-.525 2.889-.803a211.973 211.973 0 008.89-2.783 489.683 489.683 0 0015.25-5.512c1.623-.614 3.249-1.26 4.872-1.894a506.125 506.125 0 0010.588-4.266c1.848-.768 3.693-1.539 5.543-2.334a531.241 531.241 0 0010.707-4.754c1.622-.738 3.243-1.446 4.867-2.205a573.347 573.347 0 0014.369-6.968c2.248-1.128 4.5-2.321 6.75-3.487a607.804 607.804 0 008.207-4.314 635.402 635.402 0 007.955-4.358zm438.37 4.125a3.421 3.421 0 00-3.208 2.62c-7.353 31.273-3.605 57.598 10.557 74.122 12.505 14.592 32.809 21.954 60.474 21.954 4.355 0 8.892-.182 13.61-.547a3.403 3.403 0 003.13-3.659 3.377 3.377 0 00-3.656-3.13c-32.394 2.52-55.407-3.902-68.388-19.047-17.154-20.014-13.063-51.277-9.098-68.133a3.405 3.405 0 00-2.537-4.094 3.421 3.421 0 00-.883-.086zm144.999 1.77a5.23 5.23 0 10-.24 10.453 5.23 5.23 0 005.23-5.233 5.23 5.23 0 00-4.99-5.22zm18.436 6.947a5.23 5.23 0 000 10.461 5.23 5.23 0 100-10.46zm-13.803 14.564a5.23 5.23 0 00-4.873 5.217 5.23 5.23 0 0010.459 0 5.23 5.23 0 00-5.586-5.217zm-1795.24 10.471l-41.463 116.11h121.578l83.947-76.229zm1837.873 18.49c-2.467 16.504-7.12 44.014-11.059 53.905h-10.992l-4.135-35.992zm6.707 1.182l10.32 13.17c-1.5 5.907-6.961 27.091-11.242 39.553h-9.639c4.287-12.938 8.571-39.43 10.56-52.723zm20.644 18.373a352.323 352.323 0 01-1.445 15.592h-7.348a895.238 895.238 0 003.828-14.277c1.194.833 2.81.875 4.02-.07.433-.342.726-.777.945-1.245zm-999.465.02c12.784 11.703 40.908 7.777 49.81 8.135 3.914.157 7.95-1.564 12-4.348 12.529 5.873 23.523 14.84 31.981 26.313l-140.677 7.699a84.45 84.45 0 0146.886-37.799zm207.405 30.975l74.714 5.673V2390.9c-39.01 63.196-62.017 156.587-62.017 258.656 0 40.456 3.655 79.514 10.447 115.906l-150.887-2.154-113.918-1.629 33.776-71.01 41.328 19.82a6.803 6.803 0 005.992-.052 6.797 6.797 0 003.629-4.768l13.652-69.209c.655-3.317-1.047-6.814-4.228-7.957-4.08-1.467-8.282 1.019-9.076 5.063l-12.004 60.847-33.444-16.039zm-7.61.14l-200.566 421.674-33.71-16.166a286.967 286.967 0 0023.286-28.514c53.447-74.677 65.667-165.58 31.133-231.584-2.086-3.984-4.523-7.873-7.123-11.71l144.808-129.477c.646-.576 1.107-1.268 1.479-1.994zm-61.648 3.375l-133.522 119.387c-27.585-33.081-73.78-58.785-124.9-68.17-28.295-5.195-55.98-5.054-82.207.064l22.2-32.803c.234-.348.429-.711.589-1.082zm150.779 2.674l188.01 14.275c12.284 1.57 29.818 6.214 46.808 11.315v129.062c-30.58-61.031-73.109-99.965-120.814-103.298-29.017-2.027-58.068 9.633-83.91 33.732-10.787 10.059-20.834 22.022-30.094 35.568zm-485.547 15.65l-23.996 35.458c-.46.68-.73 1.416-.914 2.166-11.493 3.418-22.653 7.814-33.377 13.226l31.404-49.377zm798.711 2.973c1.217 3.895 2.453 7.839 3.707 11.84a320.398 320.398 0 01-4.004-1.18v-9.199c0-.116-.05-.214-.062-.326.1-.337.23-.739.36-1.135zm-22.902 3.416l15.799 1.201v3.936a1186.53 1186.53 0 01-15.8-5.137zm-48.635 5.625c12.844 3.97 24.87 7.98 33.365 10.817 12.396 4.138 22.634 7.526 31.069 10.078v210.459a3.404 3.404 0 003.402 3.404H2945.993v273.03c-32.43 7.215-61.816 18.505-87.996 33.808v-32.086a3.404 3.404 0 00-3.188-3.397l-101.54-6.437 50.185-12.684 42.361-104.843-98.363 14.427-2.23 9.725-2.866 92.684-30.006-1.903c9.287-41.328 14.455-86.92 14.455-134.926 0-84.497-15.897-161.642-42.373-220.902l.07.035zm-699 23.93c15.344-.472 31.048.729 46.943 3.646 48.887 8.975 94.36 34.348 120.983 66.075l-55.817 49.906a6.807 6.807 0 109.077 10.148l54.943-49.127c2.27 3.382 4.403 6.794 6.225 10.274 33.351 63.752 21.329 151.859-30.635 224.467a279.126 279.126 0 01-24.21 29.38l-109.696-52.609a6.81 6.81 0 00-5.891 12.275l105.398 50.547c-51.358 48.657-117.14 71.065-183.478 60.793-47.467-7.346-88.031-40.987-114.233-94.724-32.271-66.19-35.077-147.692-6.828-198.2a3.405 3.405 0 00-1.308-4.632 3.4 3.4 0 00-4.635 1.308c-.812 1.45-1.505 3.013-2.268 4.512-9.877-19.035-12.537-37.06-6.293-45.049 5.875-7.524 19.172-5.566 29.288-2.594a3.403 3.403 0 004.2-4.297c-1.634-5.14-4.773-20.395.257-29.142 1.992-3.457 5.033-5.598 9.298-6.547 17.023-3.8 42.167 29.657 50.409 42.863a3.41 3.41 0 004.689 1.086 3.401 3.401 0 001.088-4.687c-1.67-2.686-10.15-15.92-21.332-27.569 34.999-30.235 77.794-46.689 123.826-48.103zm564.648 6.332c2.08 0 4.164.073 6.256.219 43.827 3.064 84.902 38.974 115.647 101.119 30.918 62.486 47.945 144.365 47.945 230.556 0 46.931-5.095 92.544-14.685 134.479l-54.594-3.459c14.294-28.541 21.308-75.206 21.308-132.455 0-84.57-16.313-158.772-58.584-160.217-41.537-1.421-61.572 70.5-61.572 162.106.143 50.653 6.151 95.902 18.82 125.492l-57.869-3.668v-281.967l-32.42-1.074-44.962 38.435 6.585 56.985 32.413-28.778.52.01V2769.5l-55.839-3.541c-.024 0-.045.01-.07.01-.032 0-.062-.012-.094-.014l-27.531-.393c-6.861-36.342-10.566-75.446-10.566-116.005 0-129.201 37.074-244.035 96.752-299.688 22.893-21.347 47.266-32.139 72.54-32.139zm-516.916 9.15a5.23 5.23 0 000 10.46 5.23 5.23 0 000-10.46zm-45.28 23.215a5.23 5.23 0 000 10.461 5.23 5.23 0 100-10.46zm-54.216 8.596a5.23 5.23 0 000 10.46 5.23 5.23 0 000-10.46zm125.395 0a5.23 5.23 0 000 10.459 5.23 5.23 0 000-10.46zM917.688 2382.7v119.912l39.56-46.309 21.229-55.564zm2291.027 0l-9.479 68.412 39.069-31.623zm-1220.764 12.808a5.23 5.23 0 000 10.461 5.23 5.23 0 100-10.46zm946.969 38.295c-.932 1.736-1.831 3.42-2.686 5.024-8.593 16.106-13.78 25.827-28.107 41.607a3.4 3.4 0 00-.8 3.03l7.132 31.95h-36.725l-15.74-36.283v-25.498c24.77-2.213 51.131-8.035 76.926-19.83zm-83.734 20.354v25.681c0 .466.097.926.283 1.354l14.85 34.222h-55.516l-5.715-40.521a249.486 249.486 0 0029.16-20.15 283.985 283.985 0 0016.938-.586zm-1078.955 71.527c.665 25.428 5.297 51.853 13.67 77.225a6.69 6.69 0 00-3.032.699l-88.394 44.334zm840.72 17.596c14.908.336 22.45 36.896 22.45 105.845 0 70.866-7.783 106.47-22.202 106.79-14.506.322-23.404-33.803-23.156-105.836-.248-72.998 9.14-107.11 22.908-106.8zm-822.742 71.691c2.663 6.932 5.53 13.79 8.781 20.46 27.206 55.799 69.578 90.77 119.309 98.468a214.023 214.023 0 0032.787 2.531c57.855 0 113.566-23.669 158.3-66.902l37.94 18.195-35.125 73.848-485.582-6.938 53.631-84.324 108.725-54.531c.45-.226.858-.502 1.234-.807zm1325.873 11.25l-59.045 9.613 12.086 48.207 41.234-14.43zm-2008.307 43.39l-50.175 14.141 21.228 14.717 28.947-7.36zm-494.029 77.364h.002l784.36 11.203-12.434 58.62 49.21-38.481 7.778-19.502 177.809 2.539 665.406 9.506 128.047 1.828-34.887 88.363-1829.402-47.115zm1807.412 25.936l399.002 25.293 31.026 1.966v263.479L2384.732 3220v-354.838l22.774-57.672zm648.285 20.384c217.73 12.179 323.569 142.376 323.569 398.034 0 169.006-37.148 286.653-110.41 349.677-59.779 51.43-144.427 68.016-258.776 50.746-7.93-1.2-15.95-2.346-24.03-3.5-80.872-11.564-164.469-23.547-222.251-94.048 9.515-53.242 14.682-109.727 14.682-167.67 0-79.879-10.245-157.93-29.602-226.02l93.045-31.187a3.403 3.403 0 002.324-3.229v-229.103c26.481-16.027 56.437-27.77 89.701-35.15.064.036.137.058.203.093 1.348-.299 2.707-.587 4.067-.87.05-.065.112-.118.16-.185 35.52-7.405 74.693-9.97 117.318-7.587zM545.26 2820.633l1832.664 47.2v353.251l-1426.65-98.447-51.915-93.443h-21.226v41.969l42.027 49.328-374.9-25.871zm2693.937 72.158a67.18 67.18 0 00-7.605.017c-81.653 4.852-148.084 156.88-148.084 338.895 0 128.744 34.181 239.62 87.08 282.469 15.21 12.318 31.186 18.52 47.662 18.52 4.713 0 9.467-.51 14.254-1.524 77.43-16.437 138.084-164.706 138.084-337.541 0-121.879-31.784-230.58-80.973-276.93-15.847-14.932-32.774-22.94-50.418-23.906zm-3.642 6.707c17.176 0 33.777 7.44 49.39 22.153 47.89 45.126 78.834 151.883 78.834 271.976 0 166.916-59.525 315.35-132.691 330.881-19.403 4.126-38.326-1.133-56.217-15.627-24.528-19.869-44.898-55.085-59.502-100.238a45.955 45.955 0 0010.963 1.352c2.732 0 5.477-.243 8.227-.735 52.514-9.373 93.656-105.93 93.656-219.81 0-79.346-21.233-150.178-54.086-180.46-12.01-11.065-24.911-16.3-38.447-15.788 26.606-58.312 60.66-91.478 96.316-93.598a61.382 61.382 0 013.557-.105zm-102.803 100.303a3.423 3.423 0 001.486.237c12.24-1.011 24.131 3.688 35.278 13.96 31.522 29.051 51.89 97.918 51.89 175.452 0 108.842-39.498 204.444-88.045 213.109-6.812 1.213-13.609.664-20.197-1.643-.076-.027-.15-.01-.224-.03-14.467-47.998-22.624-106.377-22.624-169.182 0-86.353 15.072-168.683 42.436-231.903zm-376.592 102.881c19.135 67.419 29.26 144.714 29.26 223.852 0 125.393-24.673 248.802-69.477 347.484-44.902 98.91-105.323 162.307-170.132 178.523-16.575 4.146-33.225 5.156-49.43 3.008l-4.19-.627c-122.506-20.27-211.4-210.642-211.4-452.832 0-16.373.434-32.67 1.236-48.877l8.278-87.185a907.184 907.184 0 017.289-43.662l26.566 1.832c-11.657 55.502-17.605 113.7-17.605 173.082 0 170.147 49.227 314.72 128.476 377.299 26.076 20.589 54.53 31.107 83.58 31.103 9.56 0 19.19-1.14 28.815-3.434 122.314-29.15 218.125-236.377 218.125-471.771 0-79.103-11.17-155.114-32.283-220.123zm-29.347 9.836c20.88 64.33 31.931 139.586 31.931 217.959 0 111.461-21.985 220.968-61.902 308.344-39.94 87.43-93.567 143.12-150.992 156.804-36.792 8.763-73.637-.365-106.6-26.39-7.604-6.004-14.915-12.813-21.937-20.322 3.532.229 7.065.37 10.601.37 65.907 0 131.934-39.953 192.078-116.58a276.69 276.69 0 004.98-6.583 6.69 6.69 0 003.282-.477c13.732-5.74 27.608-7.796 29.951-5.432 4.644 36.928-91.668 118.858-153.81 130.842a6.808 6.808 0 001.7 13.479l92.66-5.637a6.805 6.805 0 006.384-7.207 6.823 6.823 0 00-7.21-6.383l-46.853 2.85c58.444-29.447 125.708-89.33 120.639-129.639-.565-4.497-2.985-8.197-6.818-10.41-7.051-4.081-18.31-2.483-27.657.062 31.563-50.12 48.435-109.46 54.123-165.492.204-.21.456-.351.637-.59 66.455-87.903 11.43-264.33 8.563-273.315v-.012l-.04-.123c-.01-.024-.021-.044-.03-.068-.036-.108-.084-.207-.125-.312a6.984 6.984 0 00-.24-.55c-.036-.07-.054-.144-.09-.214-.01-.017-.025-.03-.034-.049l-.082-.144c-.039-.065-.09-.122-.13-.186a6.43 6.43 0 00-.376-.54c-.063-.084-.115-.178-.181-.257-.081-.096-.177-.173-.264-.265a7.121 7.121 0 00-.445-.43c-.085-.075-.159-.164-.248-.234-.108-.085-.23-.148-.344-.227-.093-.067-.172-.15-.27-.21-.072-.046-.149-.069-.222-.11-.088-.052-.168-.118-.26-.164-.137-.072-.287-.115-.43-.178a7.179 7.179 0 00-.54-.219c-.08-.027-.153-.067-.233-.09-.157-.048-.323-.064-.483-.1-.189-.04-.377-.085-.566-.11-.08-.01-.154-.034-.234-.042-.052-.01-.105 0-.159-.01-.06-.01-.124.01-.187 0h-.152a4.832 4.832 0 00-.565 0c-.093.01-.184 0-.277.01-.044 0-.087.014-.131.019h-.068l-.158.02c-.15-.016-.292-.06-.444-.067-4.982-.27-49.021-1.985-59.703 18.44a6.81 6.81 0 002.881 9.187 6.773 6.773 0 001.713.603c-4.085 5.455-7.061 11.91-8.16 19.565a6.807 6.807 0 006.748 7.775 6.805 6.805 0 006.728-5.84c1.72-12.001 10.623-20.219 20.6-25.748-7.61 9.265-14.37 21.243-16.467 35.863a6.805 6.805 0 006.748 7.776 6.805 6.805 0 006.729-5.84c1.817-12.677 8.246-23.09 15.232-31.039-3.385 9.535-6.623 21.142-8.506 34.27a6.805 6.805 0 006.748 7.775 6.805 6.805 0 006.729-5.84c2.437-16.995 7.415-31.37 11.697-41.389 11.006 41.907 34.947 153.287 1.072 224.096.908-26.537-.67-51.779-4.392-74.248-6.868-41.473-20.533-70.746-38.48-82.432-10.109-6.58-17.528-5.999-24.706-5.447-6.322.492-12.308.958-21.004-3.334-7.286-3.6-10.62-10.402-14.482-18.281-5.648-11.521-12.05-24.585-32.248-31.502-15.021-5.15-28.346-1.34-40.107 2.023-14.695 4.199-26.495 7.577-39.49-4.576zm-255.573 85.664c16.739 17.77 32.906 13.182 48.551 8.713 11.323-3.237 23.035-6.578 36.03-2.127 17.531 6.004 23.03 17.217 28.341 28.06 4.039 8.238 8.214 16.757 17.584 21.385 10.379 5.126 17.909 4.543 24.545 4.018 6.608-.505 12.291-.95 20.459 4.365 16.092 10.479 29.024 38.848 35.479 77.84 13.3 80.32-2.178 204.728-67.588 288.066-64.09 81.648-134.589 120.702-203.96 113-25.978-30.312-47.521-70.916-63.69-118.892 1.43-.91 2.547-2.313 2.974-4.094 37.244-155.444 25.243-171.347 21.3-176.576-12.674-16.787-36-9.959-51.433-5.445a279.413 279.413 0 01-5.508 1.558 858.385 858.385 0 01-.963-40.773c0-59.24 5.959-117.288 17.647-172.61l50.088 3.457c.076 0 .156.01.232.01.363 0 .728-.059 1.08-.177zm-920.515 15.35c-14.476-.13-33.901 8.136-35.627 37.54-2.046 34.827 19.74 49.103 32.884 51.546-.16-37.026 1.058-54.873 5.565-88.952a36.147 36.147 0 00-2.822-.134zm17.49 3.347c-3.137 30.94-4.701 60.243-4.97 90.522l31.968 13.605c2.05-10.168 3.61-22.31 4.453-40.623 1.384-30.058-4.257-56.306-31.451-63.504zm-215.287 8.41a729.292 729.292 0 00-5.395 88.319c0 10.342.239 20.552.664 30.644l55.131 84.37-48.812-15.862c5.38 37.263 13.726 72.184 24.64 104.147l406.606 48.916c-11.806-37.122-20.555-78.055-25.715-121.95l-135.732-103.085-17.48-7.438v.017l-.138-.078-43.478-18.504c-.013 6.76.014 13.556.125 20.463-2.019 0-5.336.214-9.403-.662-22.969-4.944-38.376-22.472-46.666-43.61zm1126.234 62.713a3.403 3.403 0 00-3.209 3.584c.093 1.752 2.617 42.995 25.143 52.127 2.898 1.174 5.962 1.76 9.193 1.76 10.99 0 23.892-6.787 38.496-20.273a3.403 3.403 0 10-4.62-4.998c-16.785 15.5-30.404 21.285-40.503 17.205-18.542-7.506-20.89-45.81-20.914-46.196-.103-1.874-1.618-3.311-3.586-3.209zM813.637 3331.33l92.049 201.036 7.613-11.537h17.445l-18.39 26.1 40.869 89.257 31.601-25.414c-2.713.62-5.57 1.021-8.63 1.021-21.497 0-38.034-18.186-38.034-45.199-.193-29.593 18.2-47.78 39.877-47.78 13.603 0 22.79 6.427 26.828 13.593h.366v-53.116h16.171v102.063l20.534-16.512c.744-25.901 16.355-46.027 41.646-46.027 4.937 0 9.21.784 12.983 2.09l114.095-91.76c-.397-2.016-.822-4.067-1.191-6.047l-263.586-91.766zm689.941 11.473a902.814 902.814 0 0015.988 3.492c.774 10.366 1.251 15.596 2.405 26.159 39.834 7.757 61.185 10.833 92.486 13.761 1.416 12.646 2.277 19.023 4.326 31.877-31.246-2.052-52.54-4.61-92.318-11.457 2.853 18.585 4.574 28.019 8.65 47.143a795.235 795.235 0 01-15.918-2.324c-4.093-19.362-5.819-28.905-8.685-47.696-2.46-.464-3.689-.699-6.137-1.178-17.485-3.417-31.698.565-25.488 32.297 2.069 10.579 4.877 18.5 7.457 24.35-5.63.89-8.39 1.325-13.737 2.172-3.189-7.721-7.209-19.738-9.726-32.969-3.333-17.515-3.432-35.258 1.676-46.95 6.345-14.519 19.906-16.914 35.97-13.433 2.183.474 3.277.706 5.47 1.168-1.16-10.668-1.643-15.95-2.419-26.412zm308.278 8.688l35.378 12.627v20.216l-35.378 3.204zm338.888 16.78l-21.117 6.92a2169.373 2169.373 0 003.572 61.891c5.28 49.99 11.59 99.348 23.506 148.266 6.6 31.059 17.554 67.943 8.961 99.375-5.923 21.665-21.405 28.479-46.158 24.496-25.357-4.08-53.013-17.69-80.287-45.025-30.556-30.625-49.624-70.885-58.446-112.819-3.4-16.17-7.627-31.12-12.646-43.994-5.017-12.869-11.397-20.308-19.307-21.752-4.21.423-6.739 3.622-7.597 9.494-.856 5.872-.557 13.431 1.007 22.526.135.664.274 1.324.409 1.988l4.424 5.84h-3.23c11.328 54.861 25.32 107.42 51.24 157.666-2.922 10.15-5.156 18.125-6.897 24.906l25.35 3.795.76-2.555a3393.789 3393.789 0 0061.327 11.852l237.469 35.559c-42.527-63.792-73.074-155.848-84.23-265.452l-.461-.128-24.09-43.387 18.111-66.106zm468.053 8.22a3.404 3.404 0 00-3.258 2.8c-.725 4.035-6.65 39.71 9.033 50.327 2.812 1.901 6.067 2.853 9.76 2.853 6.203 0 13.627-2.686 22.193-8.045a3.404 3.404 0 00-3.609-5.77c-7.685 4.803-18.185 9.62-24.523 5.325-10.212-6.908-7.905-33.731-6.153-43.485a3.404 3.404 0 00-3.443-4.005zm-555.74 20.517l-51.723 16.95c16.71 43.162 27.667 91.242 37.088 137.251 5.404 26.384 14.457 38.936 25.353 40.504 5.035.726 8.593-1.53 10.774-6.873 2.179-5.334 2.15-12.661.047-22.193-12.216-54.736-18.354-110.014-21.54-165.639zm479.572.783c-7.385-.33-10.508 7.762-16.197 7.983-4.035.157-14.895-7.87-14.895-7.87 7.997 31.942 42.946 23.163 41.707 10.294-.698-7.25-3.23-10.076-10.615-10.407zm13.186 34.086c-14.985.771-33.818 21.362-43.004 45.743-11.307 30.006-15.326 57.456.64 66.181 15.252 8.333 28.372-19.843 39.68-49.851 11.307-30.007 27.613-47.907 12.275-59.243-2.882-2.13-6.134-3.008-9.591-2.83zm38.574 5.059c-1.367.016-2.908.268-4.672.723-12.52 3.224-8.855 39.069 23.898 35.693 0 0-11.247-7.47-12.476-11.318-1.732-5.423 4.811-11.118 1.982-17.948-2.123-5.122-4.634-7.198-8.732-7.15zm-1381.399 3.441l-106.795 85.89c10.71 8.803 14.135 23.617 14.135 34.437 0 3.309-.375 5.891-.545 7.529h-62.498c.375 21.884 14.34 30.89 30.514 30.89 11.578 0 18.562-2.014 24.625-4.595l2.752 11.568c-5.687 2.568-15.433 5.695-29.57 5.695-23.642 0-39.034-13.566-42.811-34.537l-21.334 17.157c.088 5.637.284 11.2.668 15.369h-14.512l-.191-4.08-189.05 152.039h524.315l43.66-88.545c-33.22-17.468-65.625-39.114-89.537-59.414h-4.736l-.201-4.282a272.035 272.035 0 01-5.264-4.78c-5.814 6.587-14.783 11.073-25.959 11.073-21.506 0-38.045-18.184-38.045-45.197-.112-18.096 6.736-31.895 17.016-39.91-12.259-29.34-20.727-59.105-26.637-86.307zm1132.713 4.475c6.342-.332 11.458 1.003 14.694 5.293 5.317 7.045 2.933 50.881-20.247 150.633-12.994-44.76-21.583-95.063-25.048-148.899 2.682-.642 5.527-1.43 8.552-2.316 8.14-2.38 15.707-4.379 22.05-4.711zm-470.002 13.55l-19.426 6.366 11.086 16.463h9.3c-.617-7.593-.9-15.212-.96-22.828zm-1073.086 29.886c25.17 0 39.502 22.418 39.502 60.472 0 40.615-15.07 63.031-41.525 63.031-23.339 0-39.146-21.86-39.524-61.382 0-40.058 17.289-62.121 41.547-62.121zm-.937 12.5c-14.138 0-24.43 17.29-24.43 49.804 0 31.061 9.555 48.713 24.248 48.713 16.537 0 24.443-19.315 24.443-49.807 0-29.4-7.53-48.71-24.261-48.71zm367.4 18.027c27.204 0 33.81 18.55 33.81 36.371v33.27c0 7.722.377 15.261 1.468 21.324h-14.694l-1.285-11.213h-.557c-4.969 6.994-14.511 13.224-27.205 13.224-17.993 0-27.183-12.666-27.183-25.529 0-21.51 19.106-33.269 53.478-33.1v-1.82c0-7.358-2.013-20.586-20.222-20.586-8.27 0-16.902 2.57-23.157 6.608l-3.662-10.657c7.347-4.764 17.993-7.892 29.21-7.892zm644.61 6.662c7.396 32.048 16.863 61.87 28.103 89.066l15.867 17.176 23.158 34.858 7.82 26.566 61.448 9.201c-35.727-52.268-53.26-114.738-66.516-176.867zm-731.391 4.893c-16.355 0-23.531 15.095-24.816 26.296h47.234c.181-10.292-4.243-26.296-22.418-26.296zm-101.133 1.115c-16.73 0-26.648 14.706-26.648 34.37 0 18.005 8.814 32.893 26.271 32.893 10.85 0 20.78-7.165 23.703-19.29.558-2.218.739-4.414.739-6.985v-15.441c0-2.027-.181-4.781-.739-6.793-2.377-10.304-11.202-18.754-23.326-18.754zm264.912 9.752c-4.598 6.138-7.1 14.752-7.1 24.619 0 18.004 8.805 32.892 26.274 32.892 5.244 0 10.25-1.706 14.375-4.804-7.215-7.342-12.893-14.265-16.582-20.45-6.265-10.502-11.877-21.315-16.967-32.257zm-58.814 23.15c-17.64-.376-37.656 2.754-37.656 20.031 0 10.475 6.972 15.444 15.24 15.444 11.589 0 18.935-7.358 21.506-14.9.557-1.638.91-3.48.91-5.14zm550.91 212.711l-1046.252.01c-20.421 0-36.98 16.422-36.98 36.69v353.017c0 20.261 16.559 36.701 36.98 36.701h1046.252c20.421 0 36.986-16.44 36.986-36.7v-353.018c0-20.268-16.565-36.698-36.986-36.698zM1168.41 3921.78c5.806 0 10.85 1.307 14.041 2.62l-2.24 12.733c-2.447-1.12-5.806-2.066-10.498-2.066-14.035 0-17.59 12.37-17.59 26.226v4.858h21.893v12.553h-21.893v78.072h-16.299v-78.072h-12.726v-12.553h12.726v-4.303c0-12.732 2.805-24.335 10.494-31.64 6.18-5.997 14.404-8.428 22.092-8.428zm111.858 2.052h16.275v56.928h.38c5.802-10.104 16.29-16.66 30.897-16.66 22.463 0 38.38 18.726 38.186 46.238 0 32.398-20.4 48.496-40.631 48.496-13.092 0-23.589-5.049-30.322-17.033h-.563l-.75 14.975h-14.234c.375-6.176.762-15.356.762-23.399zm196.892 0h16.281v56.928h.387c5.79-10.104 16.28-16.66 30.883-16.66 22.475 0 38.392 18.726 38.193 46.238 0 32.398-20.397 48.496-40.63 48.496-13.091 0-23.591-5.049-30.325-17.033h-.566l-.746 14.975h-14.233c.375-6.176.756-15.356.756-23.399zm-661.885 9.178c25.64 0 40.246 22.844 40.246 61.615 0 41.371-15.355 64.21-42.31 64.21-23.783 0-39.876-22.268-40.264-62.542 0-40.804 17.614-63.283 42.328-63.283zm-.947 12.736c-14.41 0-24.902 17.601-24.902 50.733 0 31.655 9.747 49.629 24.715 49.629 16.85 0 24.902-19.675 24.902-50.744 0-29.95-7.678-49.617-24.715-49.617zm258.715 18.354c27.717 0 34.457 18.901 34.457 37.059v33.894c0 7.868.38 15.547 1.494 21.723h-14.972l-1.31-11.42h-.562c-5.05 7.12-14.791 13.478-27.716 13.478-18.346 0-27.707-12.908-27.707-26.029 0-21.904 19.471-33.884 54.486-33.703v-1.861c0-7.499-2.055-20.977-20.588-20.977-8.439 0-17.23 2.621-23.598 6.738l-3.742-10.857c7.49-4.856 18.345-8.045 29.758-8.045zm149.316 0c29.584 0 37.442 26.022 37.442 42.69 0 3.366-.375 5.986-.557 7.658h-63.67c.382 22.3 14.61 31.478 31.084 31.478 11.8 0 18.915-2.06 25.092-4.687l2.803 11.789c-5.8 2.623-15.731 5.806-30.135 5.806-27.899 0-44.555-18.538-44.555-45.869 0-27.336 16.094-48.865 42.496-48.865zm193.702 0c27.712 0 34.45 18.901 34.45 37.059v33.894c0 7.868.388 15.547 1.497 21.723h-14.969l-1.312-11.42h-.577c-5.048 7.12-14.783 13.478-27.709 13.478-18.34 0-27.7-12.908-27.7-26.029 0-21.904 19.466-33.884 54.49-33.703v-1.861c0-7.499-2.065-20.977-20.598-20.977-8.433 0-17.23 2.621-23.6 6.738l-3.736-10.857c7.49-4.856 18.34-8.045 29.764-8.045zm203.642 0c29.577 0 37.447 26.022 37.447 42.69 0 3.366-.375 5.986-.562 7.658h-63.664c.381 22.3 14.604 31.478 31.084 31.478 11.8 0 18.897-2.06 25.092-4.687l2.802 11.789c-5.805 2.623-15.73 5.806-30.142 5.806-27.892 0-44.555-18.538-44.555-45.869 0-27.336 16.1-48.865 42.498-48.865zm-617.652.182c9.724 0 18.338 2.437 22.826 4.673l-3.73 12.733c-3.93-2.236-10.122-4.293-19.096-4.293-20.779 0-32.022 15.355-32.022 34.252 0 20.977 13.481 33.893 31.457 33.893 9.362 0 15.531-2.436 20.211-4.5l2.82 12.365c-4.315 2.245-13.852 5.43-26.038 5.43-27.331 0-45.114-18.723-45.114-46.44 0-27.904 19.093-48.113 48.686-48.113zm-136.742 1.869h18.355l12.914 19.478c3.383 5.056 6.194 9.733 9.18 14.785h.562c3.003-5.424 5.995-10.108 8.99-14.966l12.733-19.297h17.777l-30.884 43.818 31.834 46.807h-18.727l-13.291-20.414c-3.564-5.238-6.556-10.29-9.74-15.719h-.371c-3.002 5.605-6.192 10.292-9.557 15.719l-13.098 20.414h-18.17l32.215-46.24zm355.742 9.736c-16.668 0-23.976 15.365-25.278 26.777h48.114c.181-10.486-4.315-26.777-22.836-26.777zm397.35 0c-16.669 0-23.975 15.365-25.278 26.777h48.115c.182-10.486-4.315-26.777-22.838-26.777zm-295.83 1.301c-11.238 0-21.723 7.688-25.096 20.24-.364 1.872-.932 4.111-.932 6.733v16.283c0 2.074.38 4.131.75 5.986 3.19 11.443 12.726 19.295 24.707 19.295 17.232 0 27.541-14.048 27.541-34.826 0-18.15-9.364-33.711-26.97-33.711zm196.898 0c-11.232 0-21.73 7.686-25.096 20.238-.363 1.872-.933 4.111-.933 6.733v16.283c0 2.075.386 4.133.751 5.988 3.184 11.443 12.726 19.293 24.707 19.293 17.232 0 27.542-14.047 27.542-34.826 0-18.15-9.366-33.709-26.971-33.709zm-427.889 33.346c-17.97-.38-38.367 2.803-38.367 20.398 0 10.67 7.096 15.736 15.535 15.736 11.8 0 19.283-7.496 21.904-15.173.559-1.678.928-3.547.928-5.248zm343.014 0c-17.976-.38-38.373 2.803-38.373 20.398 0 10.67 7.106 15.736 15.54 15.736 11.8 0 19.277-7.496 21.905-15.173.563-1.678.928-3.547.928-5.248zM691.92 4222.868c-20.421 0-36.98 16.434-36.98 36.709v353.01c0 20.271 16.559 36.703 36.98 36.703h1046.252c20.42 0 36.988-16.432 36.988-36.704v-353.01c0-20.271-16.568-36.708-36.988-36.708zm343.395 149.898h15.273v53.397h.353c5.436-9.48 15.273-15.631 28.973-15.631 21.075 0 36.016 17.56 35.822 43.377 0 30.385-19.13 45.482-38.113 45.482-12.276 0-22.117-4.729-28.44-15.969h-.527l-.7 14.05h-13.358c.352-5.797.717-14.407.717-21.96zm242.628 0h15.47v102.746c0 7.554.169 16.163.698 21.96h-13.877l-.699-14.764h-.357c-4.73 9.497-15.103 16.683-28.967 16.683-20.557 0-36.357-17.383-36.357-43.195-.182-28.275 17.39-45.664 38.113-45.664 12.993 0 21.781 6.15 25.642 13.004h.334zm189.254 0h15.463v102.746c0 7.554.171 16.163.7 21.96h-13.87l-.7-14.764h-.358c-4.732 9.497-15.096 16.683-28.967 16.683-20.557 0-36.358-17.383-36.358-43.195-.186-28.275 17.393-45.664 38.11-45.664 13.005 0 21.784 6.15 25.64 13.004h.34zm-654.9 8.61c24.05 0 37.748 21.419 37.748 57.787 0 38.813-14.398 60.228-39.682 60.228-22.309 0-37.406-20.887-37.763-58.652 0-38.288 16.513-59.363 39.697-59.363zm537.185 1.933h13.165v114.162h-14.926v-99.763h-.342l-19.848 10.714-2.99-11.761zm-538.076 10.004c-13.51 0-23.355 16.517-23.355 47.596 0 29.685 9.14 46.547 23.185 46.547 15.799 0 23.352-18.448 23.352-47.592 0-28.104-7.196-46.551-23.182-46.551zm166.584 17.219c26 0 32.325 17.73 32.325 34.77v31.786c0 7.376.352 14.587 1.4 20.383h-14.041l-1.235-10.718h-.529c-4.742 6.678-13.868 12.638-25.992 12.638-17.204 0-25.984-12.105-25.984-24.406 0-20.544 18.26-31.789 51.107-31.62v-1.745c0-7.036-1.928-19.678-19.318-19.678-7.911 0-16.162 2.463-22.139 6.32l-3.502-10.18c7.023-4.56 17.202-7.55 27.908-7.55zm184.701 0c25.994 0 32.319 17.73 32.319 34.77v31.786c0 7.376.357 14.587 1.398 20.383h-14.047l-1.228-10.718h-.524c-4.737 6.678-13.876 12.638-26 12.638-17.202 0-25.986-12.105-25.986-24.406 0-20.544 18.264-31.789 51.11-31.62v-1.745c0-7.036-1.932-19.678-19.32-19.678-7.906 0-16.157 2.463-22.136 6.32l-3.507-10.18c7.022-4.56 17.208-7.55 27.921-7.55zm379.391 0c27.745 0 35.121 24.412 35.121 40.039 0 3.164-.36 5.625-.53 7.193h-59.722c.358 20.91 13.7 29.522 29.156 29.522 11.072 0 17.737-1.934 23.55-4.397l2.626 11.06c-5.448 2.458-14.757 5.442-28.27 5.442-26.175 0-41.8-17.384-41.8-43.025 0-25.643 15.097-45.834 39.869-45.834zm81.7 0c25.995 0 32.318 17.73 32.318 34.77v31.786c0 7.376.36 14.587 1.4 20.383h-14.047l-1.224-10.718h-.528c-4.753 6.68-13.875 12.638-25.998 12.638-17.208 0-25.99-12.105-25.99-24.406 0-20.544 18.265-31.789 51.111-31.62v-1.745c0-7.036-1.931-19.678-19.322-19.678-7.904 0-16.155 2.464-22.133 6.32l-3.51-10.18c7.024-4.56 17.209-7.55 27.922-7.55zm-764.552 1.933h17.22l12.113 18.258c3.173 4.748 5.804 9.14 8.607 13.873h.525c2.822-5.09 5.623-9.48 8.438-14.043l11.943-18.088h16.674l-28.975 41.098 29.862 43.908h-17.56l-12.466-19.154c-3.349-4.917-6.153-9.651-9.138-14.74h-.348c-2.815 5.26-5.807 9.652-8.963 14.74l-12.287 19.154h-17.05l30.224-43.379zm681.618 9.121c-15.627 0-22.481 14.416-23.71 25.13h45.132c.17-9.845-4.044-25.13-21.422-25.13zm-285.897 1.057c-15.986 0-25.47 14.057-25.47 32.852 0 17.202 8.428 31.43 25.113 31.43 10.366 0 19.852-6.844 22.656-18.434.528-2.116.693-4.213.693-6.676v-14.756c0-1.936-.165-4.57-.693-6.492-2.276-9.844-10.715-17.924-22.299-17.924zm189.256 0c-15.987 0-25.47 14.057-25.47 32.852 0 17.202 8.42 31.43 25.113 31.43 10.37 0 19.85-6.844 22.648-18.434.53-2.116.7-4.213.7-6.676v-14.756c0-1.936-.17-4.57-.7-6.492-2.27-9.844-10.707-17.924-22.291-17.924zm-369.207.18c-10.543 0-20.384 7.206-23.549 18.97-.343 1.764-.865 3.868-.865 6.324v15.276c0 1.944.353 3.871.695 5.617 2.99 10.726 11.941 18.09 23.184 18.09 16.161 0 25.822-13.165 25.822-32.657 0-17.04-8.779-31.62-25.287-31.62zm-79.621 31.27c-16.856-.357-35.99 2.633-35.99 19.137 0 10.01 6.665 14.756 14.576 14.756 11.066 0 18.086-7.018 20.549-14.228.524-1.57.865-3.332.865-4.918zm184.701 0c-16.861-.357-35.998 2.633-35.998 19.137 0 10.01 6.66 14.756 14.568 14.756 11.074 0 18.09-7.018 20.553-14.228.528-1.57.877-3.333.877-4.918zm461.092 0c-16.86-.357-35.996 2.633-35.996 19.137 0 10.01 6.66 14.756 14.57 14.756 11.072 0 18.088-7.018 20.55-14.228.529-1.57.876-3.333.876-4.918z" />
</svg>
