<svg viewBox="0 0 256 256" xmlns="http://www.w3.org/2000/svg">
  <path
    d="M170.086 85.606c-.92-.92-2.045-1.534-3.375-1.84l-22.5-3.273-10.024-20.251c-.92-1.534-2.352-2.66-3.989-3.273-1.84-.614-3.784-.41-5.523.511a7.916 7.916 0 00-2.863 2.66l-10.024 20.353-21.989 3.17-.41.102c-2.352.512-3.579 2.046-3.988 2.455l-.409.511a7.212 7.212 0 00-1.125 5.216c.204 1.33.818 2.557 1.943 3.887l15.955 15.546-3.784 22.296a7.426 7.426 0 001.227 4.807l.41.512c1.534 1.738 3.375 2.352 4.295 2.454.41.103.818.103 1.125.103 1.023 0 2.046-.205 3.17-.819l19.638-10.33 19.944 10.535c1.636.716 3.477.818 5.114.205 1.84-.614 3.375-1.944 4.295-3.785.512-1.125.716-2.454.614-4.09l-3.784-21.888 16.16-15.75c1.227-1.33 1.84-3.069 1.84-4.808v-.51c0-2.149-.818-3.683-1.943-4.706zM143.392 107.8l3.682 21.172-19.024-10.023-19.023 10.023 3.58-21.172-15.342-15.034 21.274-3.069 9.511-19.228 9.512 19.228 21.274 3.069z" />
  <path
    d="M243.52 34.366h-29.762V15.649c0-5.011-4.09-9.102-9.102-9.102H51.446c-5.012 0-9.103 4.09-9.103 9.102v18.717H12.58C5.625 34.366 0 39.99 0 46.946v25.978c0 27.103 19.433 50.013 45.615 54.82 3.376 13.296 9.512 25.365 18.103 35.081 10.637 12.069 24.342 20.762 39.786 25.365l-15.75 33.956h-.103c-5.114 0-9.205 4.09-9.205 9.307v18h99.106v-18a9.167 9.167 0 00-9.205-9.205l-15.852-33.956c15.443-4.602 29.148-13.296 39.785-25.365 8.591-9.716 14.728-21.784 18.103-35.08C236.668 123.04 256 100.13 256 73.027V46.945c.102-6.955-5.523-12.58-12.478-12.58zM10.126 72.924V46.946a2.532 2.532 0 012.557-2.557h29.763V99.72c0 5.727.409 11.454 1.227 17.182-19.637-5.42-33.547-23.217-33.547-43.979zm191.667 47.252c-2.557 13.807-8.387 26.183-16.978 35.899-9.819 11.148-22.808 19.126-37.331 23.012l-9.205 2.353 23.626 50.831h5.625v7.057H88.572v-7.057h5.625l23.626-50.831-9.103-2.353c-14.523-3.886-27.512-11.864-37.33-23.012-8.592-9.716-14.422-22.194-16.979-35.9-1.227-6.647-1.943-13.602-1.943-20.454V16.57h151.165v83.15c0 6.955-.614 13.808-1.841 20.456zm44.184-47.252c0 20.762-14.012 38.558-33.445 43.979a119.223 119.223 0 001.227-17.182V44.389h29.763a2.532 2.532 0 012.557 2.557v25.978z" />
</svg>
