<svg viewBox="0 0 16 16" xmlns="http://www.w3.org/2000/svg">
  <path
    d="M8.55 6.197a.516.516 0 01.516.516v.801a11.875 11.875 0 01-.57 3.634l-1.374 4.275a.516.516 0 01-.984-.315l1.374-4.276a10.842 10.842 0 00.52-3.318v-.801a.516.516 0 01.517-.516z" />
  <path
    d="M6.484 6.713a2.065 2.065 0 114.13 0 .516.516 0 11-1.032 0 1.033 1.033 0 10-2.065 0v.343c0 .422-.023.842-.068 1.26a.516.516 0 01-1.027-.109c.042-.382.062-.766.062-1.151zm3.624 1.033a.516.516 0 01.503.53 11.875 11.875 0 01-.606 3.447l-1.308 3.924a.517.517 0 01-.98-.327l1.309-3.924a10.842 10.842 0 00.552-3.148.516.516 0 01.53-.502zM6.642 9.929a.516.516 0 01.341.647L5.638 14.91a.516.516 0 11-.986-.306l1.345-4.336a.516.516 0 01.645-.34z" />
  <path
    d="M5.141 5.508a3.615 3.615 0 017.022 1.205.516.516 0 01-1.033 0 2.581 2.582 0 00-5.015-.86.517.517 0 11-.974-.345zm.31 1.724a.516.516 0 01.463.564 11.07 11.07 0 01-.413 2.097L4.24 14.098a.516.516 0 11-.99-.296l1.262-4.205a10.037 10.037 0 00.375-1.902.516.516 0 01.564-.464zm6.195.668a.516.516 0 01.517.517c0 1.321-.22 2.635-.653 3.884l-1.125 3.248a.516.516 0 01-.975-.338l1.124-3.247c.395-1.141.597-2.34.597-3.547a.516.516 0 01.516-.517z" />
  <path
    d="M4.256 3.844a5.159 5.159 0 015.372-2.182.517.517 0 01-.215 1.011 4.126 4.126 0 00-4.299 1.745.516.516 0 01-.858-.574zm6.94-.986a.516.516 0 01.727-.054 5.153 5.153 0 011.789 3.909v1.549a.516.516 0 11-1.033 0v-1.55a4.12 4.12 0 00-1.431-3.126.516.516 0 01-.053-.728zm-7.17 2.66a.516.516 0 01.437.586c-.03.198-.046.402-.046.609 0 .733-.103 1.463-.308 2.168l-1.177 4.051a.516.516 0 11-.991-.288l1.177-4.05a6.744 6.744 0 00.267-1.881c0-.258.02-.512.055-.76a.516.516 0 01.587-.436zm9.172 3.778a.516.516 0 01.471.558 11.847 11.847 0 01-.66 3.03l-.769 2.135a.516.516 0 01-.972-.349l.77-2.137a10.853 10.853 0 00.603-2.766.516.516 0 01.557-.47z" />
  <path
    d="M5.194.9A6.712 6.712 0 0115.26 6.712a.516.516 0 11-1.032 0 5.68 5.68 0 00-8.52-4.92.516.516 0 01-.515-.894zm-.92 1.297a.516.516 0 01.042.73A5.657 5.657 0 002.87 6.712a.516.516 0 01-1.032 0c0-1.718.646-3.288 1.709-4.474a.516.516 0 01.729-.042zm-2.07 5.57a.516.516 0 01.358.635l-.805 2.858a.516.516 0 11-.993-.28l.803-2.857a.516.516 0 01.637-.357zm12.546.496a.516.516 0 01.506.526c-.03 1.548-.166 3.124-.75 4.681l-.073.193a.516.516 0 01-.966-.362l.072-.193c.523-1.394.655-2.83.685-4.34a.516.516 0 01.526-.505z" />
</svg>
