<svg xmlns="http://www.w3.org/2000/svg" viewBox="0 0 334.49 115.94">
  <path
    d="M305 48.6a34.26 34.26 0 0029.29-33.89H323a23 23 0 01-23 23h-20.45a23 23 0 0122.25-17.36V9.08a34.26 34.26 0 00-34.25 34.26v34.71h11.27V49h10.58l29.17 29.16h15.93zM256.38 3.9a13.4 13.4 0 00-3.87-2.09l-.51-.19-.53-.09A126.18 126.18 0 00232.69 0a101.85 101.85 0 00-18.78 1.56h-.19l-.22.06A11.56 11.56 0 00209 4a9.52 9.52 0 00-3 5.06c-1.05 4.7-1.28 11.08-1.3 17.3a89.71 89.71 0 001.26 16.92 10.12 10.12 0 001.82 4.32 75.45 75.45 0 008.77 9.67 62.24 62.24 0 0011.07 8.15 10.62 10.62 0 005.16 1.49 11.32 11.32 0 005-1.36c4.47-2.26 8.31-5.91 11.7-8.9a63.6 63.6 0 007.52-7.79l-9.28-7.08a55 55 0 01-6.06 6.16c-3.15 2.89-6.84 6-8.86 7a53.62 53.62 0 01-8.49-6.38 63.48 63.48 0 01-6.93-7.6 79.31 79.31 0 01-1-14.62 94.25 94.25 0 01.77-13.5 97.25 97.25 0 0115.57-1.17 110.62 110.62 0 0111.74.69c1.57.17 2.86.34 3.76.47h.27a68.52 68.52 0 01.56 7.18l11.67-.39a61.76 61.76 0 00-1.07-10.59 9.27 9.27 0 00-3.23-5.18M205.68 74.76l-1.07 1.07a2.94 2.94 0 001.17.58l2.22-2.18a17.82 17.82 0 00-2.28.53M209.66 74l-2.75 2.75c.44.1.92.19 1.46.28l3.27-3.27-2 .24M213.25 73.56l-3.63 3.63 1.55.2 4-4-1.9.16M216.71 73.28l-4.23 4.23 1.6.15 4.49-4.49-1.86.11M220.08 73.1l-4.68 4.68 1.63.11L221.9 73l-1.82.08M223.39 73l-5 5 1.66.08 5.14-5.14h-1.79M226.66 72.89l-5.23 5.23 1.68.06 5.32-5.31h-1.77M231.33 72.84h-1.46l-5.37 5.37h1.7l5.41-5.41h-.29M233.06 72.85l-5.43 5.43h1.72l5.43-5.43h-1.72M236.2 72.89l-5.41 5.41h1.74l5.38-5.38h-1.7M239.31 73L234 78.29h1.77L241 73h-1.69M242.37 73.09l-5.15 5.15h1.79l5-5-1.66-.08M245.4 73.25l-4.89 4.89 1.82-.08 4.67-4.7-1.63-.11M248.36 73.46L243.84 78l1.85-.11 4.31-4.28-1.6-.15M251.27 73.75l-4 4 1.9-.16 3.68-3.68-1.55-.19M254.07 74.12l-3.34 3.34 2-.23 2.84-2.84c-.44-.09-.93-.18-1.47-.27M254.41 77a22 22 0 002.22-.48l1.3-1.3a4.22 4.22 0 00-1.23-.51zM157.44 43.57V78.2h11.27v-29H186v29h11.27V15l.09-5.73h-5.66a34.26 34.26 0 00-34.26 34.26m28.61-5.64h-16.62a23 23 0 0116.63-16.65zM139.37 37.68h-32.68a23 23 0 0122.24-17.34V9.08a34.24 34.24 0 00-34.24 34.23v34.6H106v-29h33.42v29h11.27v-59h-11.32zM81.71 9.13a34.25 34.25 0 00-34.25 34.19h11.27a23 23 0 016.89-16.37v51h11.26V20.87a23.09 23.09 0 014.82-.52v-.06.05h6.13V9.08h-6.1zM34.48 21.39h6.13V9.08h-6.13A34.48 34.48 0 000 43.56v6.16h27.45a22.21 22.21 0 01-21.29 16H0V78h6.16a34.48 34.48 0 0034.47-34.45V37.4H13.19a22.2 22.2 0 0121.29-16" />
  <path
    d="M246.16 20.37v-.85-.76-.12l-13.48 13.47v-1.45L246 17.36v-.09l-.06-.19-.06-.17-.1-.21-.07-.14a2.41 2.41 0 00-.14-.2l-.09-.1-12.8 12.66v-1.44l11.72-11.72c-.45-.1-1-.18-1-.18l-.54-.06-10.18 10.22V24.3l8.91-8.91-.64-.07-1-.08-7.32 7.32v-1.45l6-6-1.63-.06-4.32 4.32v-1.44l2.93-2.93h-1.7l-1.23 1.23V15h-1.15c-2.83 0-5.27.19-7.12.36-.81.08-1.65.16-2.48.26a12.77 12.77 0 00-1.36.28 1.54 1.54 0 00-.35.15l-.08.07a1.28 1.28 0 00-.2.17l-.08.1a2 2 0 00-.14.2l-.07.14-.1.21c0 .06 0 .11-.06.17l-.06.19c0 .07 0 .14-.06.21v.4a.58.58 0 000 .07V19.34a1.29 1.29 0 000 .15v17.27a8.38 8.38 0 001.26 3.41A52.56 52.56 0 00227.9 48l.58.46.13.1c.29.21.57.41.86.59l.39.24.36.2q.32.17.63.3l.2.08a5.14 5.14 0 00.65.21h.2a3.83 3.83 0 00.72.08v-.58L246.1 36.2v-1.65L232.68 48v-1.42l13.48-13.48v-1.74l-13.48 13.48V43.4l13.48-13.48v-1.74l-13.48 13.48v-1.45l13.48-13.48V25l-13.48 13.47V37l13.48-13.48v-1.71l-13.48 13.48v-1.44zM245.9 38l-12.21 12.2a4.89 4.89 0 00.61-.19l.2-.08q.31-.13.63-.3l.36-.2.39-.24c.28-.18.57-.38.86-.59l.13-.1.59-.46.74-.61 4-4c1.62-1.81 2.74-3.29 2.74-3.29a6.72 6.72 0 001-2.17M0 88.95h9.56v1.13H1.13v7.03h5.62v1.12H1.13v9.28h8.43v1.12H0V88.95zM14.1 105.95A3 3 0 0015 107a3.4 3.4 0 001.27.59 2.78 2.78 0 001.18 0v1.13a4.47 4.47 0 01-1.57-.11 4.59 4.59 0 01-1.62-.82 4.19 4.19 0 01-1.15-1.4 4.29 4.29 0 01-.44-2V95.7h-1.14v-1.13h1.12V89h1.12v5.62h2.53v1.08h-2.52v8.72a3.34 3.34 0 00.32 1.53M27 98.79a3.26 3.26 0 00-.83-2.39 3 3 0 00-2.26-.84 3.06 3.06 0 00-2.22.84 3.17 3.17 0 00-.87 2.39v9.84h-1.14V89h1.13v7a6.11 6.11 0 011.38-1.11 3.27 3.27 0 011.72-.49 4.46 4.46 0 011.67.31 3.84 3.84 0 011.33.89 4.2 4.2 0 01.89 1.4 4.78 4.78 0 01.32 1.79v9.84H27zM31.35 91.34a.67.67 0 11.2.5.69.69 0 01-.2-.5m.14 3.23h1.13v14.06h-1.13zM36.83 104.42a3.28 3.28 0 00.83 2.38 3 3 0 002.26.86 3.67 3.67 0 001.43-.3 2.27 2.27 0 001.1-.94l.9.59a4.25 4.25 0 01-1.48 1.28 4.05 4.05 0 01-2 .49 4.28 4.28 0 01-1.67-.33 3.94 3.94 0 01-1.34-.9 4.15 4.15 0 01-.89-1.38 4.66 4.66 0 01-.32-1.76v-5.62A4.76 4.76 0 0136 97a4.18 4.18 0 01.89-1.38 3.82 3.82 0 011.34-.89 4.46 4.46 0 011.67-.31 4.27 4.27 0 011.94.46 3.86 3.86 0 011.52 1.36l-.9.53a1.91 1.91 0 00-.45-.55 2.54 2.54 0 00-.63-.39 3.27 3.27 0 00-.74-.23 4.17 4.17 0 00-.73-.07 3 3 0 00-2.26.84 3.27 3.27 0 00-.83 2.39zM51.65 102.19a3.14 3.14 0 00-.9-.44 3.67 3.67 0 00-1.07-.15 3.22 3.22 0 00-2.22.77 2.59 2.59 0 00-.87 2 3.18 3.18 0 00.87 2.38 3 3 0 002.22.86 3 3 0 002.26-.86 3.27 3.27 0 00.83-2.38v-5.58a3.26 3.26 0 00-.83-2.39 3 3 0 00-2.26-.84 3.15 3.15 0 00-2.58 1.24l-.9-.53a3.54 3.54 0 011.48-1.33 4.39 4.39 0 012-.49 4.47 4.47 0 011.67.31 3.87 3.87 0 011.33.89 4.2 4.2 0 01.9 1.35 4.74 4.74 0 01.32 1.79v6.88a4.69 4.69 0 00.11 1 1.25 1.25 0 00.34.63.92.92 0 00.66.22v1.13a2 2 0 01-1.35-.41 2.31 2.31 0 01-.65-1.08 4.19 4.19 0 01-1.43 1.18 4.27 4.27 0 01-3.54.13 4.2 4.2 0 01-1.34-.9 4.26 4.26 0 01-.91-1.38 4.48 4.48 0 01-.34-1.76 3.55 3.55 0 01.34-1.53 4 4 0 01.91-1.25 4.39 4.39 0 011.34-.84 4.27 4.27 0 011.63-.31 4.14 4.14 0 012 .48zM57.28 89h1.12v16.93a4.33 4.33 0 00.11.93 1.29 1.29 0 00.32.62.91.91 0 00.67.22v1.13a2.09 2.09 0 01-1.24-.32 2 2 0 01-.67-.87 4.2 4.2 0 01-.28-1.29c0-.5-.06-1.07-.06-1.73zM67.49 88.95h1.12v8.16h9.28v-8.16h1.13v19.68h-1.13v-10.4h-9.28v10.4h-1.12V88.95zM88.35 102.19a3.14 3.14 0 00-.9-.44 3.68 3.68 0 00-1.07-.15 3.22 3.22 0 00-2.22.77 2.59 2.59 0 00-.87 2 3.18 3.18 0 00.87 2.38 3 3 0 002.22.86 3 3 0 002.26-.86 3.27 3.27 0 00.83-2.38v-5.58a3.26 3.26 0 00-.83-2.39 3 3 0 00-2.26-.84 3.15 3.15 0 00-2.58 1.24l-.9-.53a3.54 3.54 0 011.48-1.33 4.39 4.39 0 012-.49 4.47 4.47 0 011.67.31 3.85 3.85 0 011.33.89 4.18 4.18 0 01.9 1.35 4.74 4.74 0 01.32 1.79v6.88a4.69 4.69 0 00.11 1 1.24 1.24 0 00.34.63.92.92 0 00.66.22v1.13a2 2 0 01-1.35-.41 2.29 2.29 0 01-.65-1.08 4.19 4.19 0 01-1.43 1.18 4.27 4.27 0 01-3.54.13 4.2 4.2 0 01-1.34-.9 4.26 4.26 0 01-.91-1.38 4.48 4.48 0 01-.34-1.76 3.55 3.55 0 01.34-1.53 4 4 0 01.91-1.25 4.39 4.39 0 011.34-.84 4.27 4.27 0 011.63-.31 4.14 4.14 0 012 .48zM94.68 104.42a3.27 3.27 0 00.83 2.38 3 3 0 002.26.86 3.67 3.67 0 001.44-.3 2.28 2.28 0 001.1-.94l.9.59a4.26 4.26 0 01-1.48 1.28 4 4 0 01-2 .49 4.28 4.28 0 01-1.67-.33 4 4 0 01-1.34-.9 4.15 4.15 0 01-.89-1.38 4.64 4.64 0 01-.32-1.76v-5.62a4.74 4.74 0 01.37-1.79 4.18 4.18 0 01.89-1.38 3.84 3.84 0 011.34-.89 4.46 4.46 0 011.67-.31 4.28 4.28 0 011.94.46 3.86 3.86 0 011.52 1.36l-.9.53a1.9 1.9 0 00-.45-.55 2.53 2.53 0 00-.63-.39 3.27 3.27 0 00-.74-.23 4.16 4.16 0 00-.73-.07 3 3 0 00-2.26.84 3.26 3.26 0 00-.83 2.39zM105.22 108.63h-1.12V89h1.13zm7-14.06l-4.89 6.13 5.71 7.93h-1.38l-5.34-7.42v-1.12l4.41-5.51zM115.32 91.34a.67.67 0 11.2.5.69.69 0 01-.2-.5m.14 3.23h1.13v14.06h-1.12zM120.1 94.57h1.13v1.49a6.44 6.44 0 011.38-1.12 3.21 3.21 0 011.72-.51 4.29 4.29 0 011.67.32 4 4 0 011.34.9 4.18 4.18 0 01.89 1.38 4.67 4.67 0 01.32 1.76v9.84h-1.12v-9.84a3.27 3.27 0 00-.83-2.38 3 3 0 00-2.26-.86 3 3 0 00-2.22.86 3.18 3.18 0 00-.87 2.38v9.84h-1.15zM135.7 106.38a4.29 4.29 0 01-1.67-.32 4 4 0 01-1.33-.9 4.19 4.19 0 01-.89-1.38 4.67 4.67 0 01-.32-1.76v-3.23a4.75 4.75 0 01.32-1.79 4.19 4.19 0 01.89-1.38 3.83 3.83 0 011.33-.89 4.49 4.49 0 011.67-.31 4.09 4.09 0 011.86.44A4.37 4.37 0 01139 96a2 2 0 01.66-1.1 2.18 2.18 0 011.36-.36v1.16a.91.91 0 00-.68.23 1.3 1.3 0 00-.32.62 4.49 4.49 0 00-.11 1V102a4.49 4.49 0 01-.34 1.76 4.29 4.29 0 01-.91 1.38 4.19 4.19 0 01-1.33.9 4.11 4.11 0 01-1.63.32m-3.09 5.34A3.18 3.18 0 00138 114a3.27 3.27 0 00.83-2.37 2.89 2.89 0 00-.83-2.11 3 3 0 00-2.26-.84v-1.12a4.14 4.14 0 011.67.34 4.3 4.3 0 011.34.9 4.25 4.25 0 01.89 1.29 3.81 3.81 0 01.32 1.55 4.7 4.7 0 01-.32 1.76 4.24 4.24 0 01-.89 1.38 4 4 0 01-1.34.9 4.31 4.31 0 01-1.67.32 4 4 0 01-1.63-.34 4.38 4.38 0 01-2.25-2.25 4 4 0 01-.34-1.63zm0-9.7a3.27 3.27 0 00.83 2.38 3 3 0 002.26.86 3 3 0 002.22-.86 3.19 3.19 0 00.87-2.38v-3.21a3.17 3.17 0 00-.87-2.39 3.06 3.06 0 00-2.22-.84 3 3 0 00-2.26.84 3.26 3.26 0 00-.83 2.39zM148.59 86.7h1.13v24.18h-1.13zM159.87 104.81a4.7 4.7 0 002.47 2.47 4.61 4.61 0 003.6 0 4 4 0 001.28-.81q.43-.45.66-.73l1 .59a8.81 8.81 0 01-.84 1 4.92 4.92 0 01-1.62 1 5.77 5.77 0 01-4.47 0 5.76 5.76 0 01-3.08-3.08 6 6 0 01-.45-2.37v-8.17a6 6 0 01.45-2.38 5.77 5.77 0 013.08-3.08 5.77 5.77 0 014.47 0 5 5 0 011.62 1 8.9 8.9 0 01.84 1l-1 .59q-.23-.28-.66-.73a4 4 0 00-1.28-.82 4.61 4.61 0 00-3.6 0 4.71 4.71 0 00-2.47 2.47 4.85 4.85 0 00-.37 1.94v8.16a4.85 4.85 0 00.37 1.94M169.4 88.95h11.53v1.13h-5.2v18.55h-1.13V90.08h-5.2v-1.13zM183.46 88.95h9.56v1.13h-8.44v7.03h5.63v1.12h-5.63v10.4h-1.12V88.95zM207.79 97.7a44.28 44.28 0 003.43 5.83 37.63 37.63 0 004.27 5.1h-1.55a37.83 37.83 0 01-3.71-4.53 5.3 5.3 0 01-.55 1.83 5.16 5.16 0 01-1.14 1.48 5.47 5.47 0 01-1.59 1 4.93 4.93 0 01-1.9.37 5.13 5.13 0 01-2-.41 5.14 5.14 0 01-2.77-2.77 5.1 5.1 0 01-.41-2 5 5 0 01.31-1.81 5.87 5.87 0 01.84-1.49 8.89 8.89 0 011.23-1.3l1.49-1.25c.21-.15.41-.31.62-.48s.42-.35.65-.56a3.6 3.6 0 01-1.52-.32 4.17 4.17 0 01-1.22-.84 3.9 3.9 0 01-.83-1.24 3.94 3.94 0 010-3.07 4 4 0 012.1-2.09 4 4 0 013.06 0 4 4 0 012.1 2.09 3.84 3.84 0 01.31 1.53 3.72 3.72 0 01-.25 1.38 4.14 4.14 0 01-.68 1.15 20.65 20.65 0 01-1.88 1.87q-.93.8-1.77 1.48t-1.35 1.12a9.23 9.23 0 00-1.08 1.1 4.63 4.63 0 00-.73 1.22 4.21 4.21 0 00.06 3.09 4.11 4.11 0 00.87 1.29 4.16 4.16 0 001.29.87 4.06 4.06 0 003.18 0 4.08 4.08 0 002.16-2.16 3.93 3.93 0 00.32-1.59 5.4 5.4 0 00-.07-.87 2.58 2.58 0 00-.27-.79q-.48-.87-1-1.72t-.94-1.74zm-5.54-5a2.79 2.79 0 10.82-2 2.72 2.72 0 00-.82 2M224 104.81a4.7 4.7 0 002.47 2.47 4.61 4.61 0 003.6 0 4 4 0 001.28-.81c.29-.3.51-.54.66-.73l1 .59a9 9 0 01-.84 1 4.93 4.93 0 01-1.62 1 5.77 5.77 0 01-4.47 0 5.75 5.75 0 01-3.08-3.08 6 6 0 01-.45-2.37v-8.17a6 6 0 01.45-2.38 5.75 5.75 0 013-3.07 5.77 5.77 0 014.47 0 5 5 0 011.62 1 9.1 9.1 0 01.84 1l-1 .59c-.15-.19-.37-.43-.66-.73a4 4 0 00-1.27-.82 4.61 4.61 0 00-3.6 0 4.71 4.71 0 00-2.4 2.47 4.85 4.85 0 00-.37 1.94v8.16a4.85 4.85 0 00.37 1.94M239.26 108.78a4.29 4.29 0 01-1.67-.33 4 4 0 01-1.34-.9 4.18 4.18 0 01-.89-1.38 4.66 4.66 0 01-.32-1.76v-5.62a4.76 4.76 0 01.32-1.79 4.21 4.21 0 01.89-1.38 3.85 3.85 0 011.34-.89 4.47 4.47 0 011.67-.31 4.29 4.29 0 011.63.31 4 4 0 011.34.89 4.28 4.28 0 01.91 1.38 4.57 4.57 0 01.34 1.79v5.62a4.48 4.48 0 01-.34 1.76 4.24 4.24 0 01-.91 1.38 4.17 4.17 0 01-1.34.9 4.11 4.11 0 01-1.63.33m-3.09-4.36a3.28 3.28 0 00.83 2.38 3 3 0 002.26.86 3 3 0 002.22-.86 3.18 3.18 0 00.87-2.38v-5.63a3.17 3.17 0 00-.87-2.39 3.06 3.06 0 00-2.22-.84 3 3 0 00-2.26.84 3.27 3.27 0 00-.83 2.39zM246.43 94.57h1.13v1.49a6.42 6.42 0 011.38-1.12 3.21 3.21 0 011.71-.51 4.29 4.29 0 011.67.32 4 4 0 011.34.9 4.2 4.2 0 01.89 1.38 4.67 4.67 0 01.32 1.76v9.84h-1.12v-9.84a3.27 3.27 0 00-.83-2.38 3 3 0 00-2.26-.86 3 3 0 00-2.22.86 3.18 3.18 0 00-.87 2.38v9.84h-1.12zM259.5 93.17v1.41h2.5v1.12h-2.5v12.93h-1.12V95.7h-1.12v-1.12h1.12v-1.41a4.3 4.3 0 01.44-2 4.2 4.2 0 011.15-1.4 4.28 4.28 0 011.56-.79 4.46 4.46 0 011.63-.14V90a3 3 0 00-1.25 0 3.31 3.31 0 00-1.2.58 3 3 0 00-.88 1.06 3.33 3.33 0 00-.32 1.53M266.39 101.6h2a3.07 3.07 0 002.22-.84 2.82 2.82 0 00.87-2.11 3 3 0 00-.87-2.31 3.19 3.19 0 00-2.22-.79 3.15 3.15 0 00-2.26.79 3 3 0 00-.83 2.31v5.76a3.27 3.27 0 00.83 2.39 3 3 0 002.26.84 3.12 3.12 0 002.56-1.24l.9.59a4 4 0 01-1.49 1.29 4.24 4.24 0 01-2 .48 4.44 4.44 0 01-1.67-.31 3.93 3.93 0 01-1.34-.87 4 4 0 01-.88-1.38 4.82 4.82 0 01-.32-1.8v-5.61a4.63 4.63 0 01.32-1.76 4.16 4.16 0 01.88-1.38 4 4 0 011.34-.9 4.3 4.3 0 011.67-.32 4.13 4.13 0 011.63.32 4.21 4.21 0 011.34.9 4.27 4.27 0 01.91 1.38 4.48 4.48 0 01.34 1.76 3.55 3.55 0 01-.34 1.53 4 4 0 01-.91 1.25 4.34 4.34 0 01-1.34.84 4.29 4.29 0 01-1.63.31h-2zM275.45 94.57h1.12V96a5 5 0 012.43-1.45 3.63 3.63 0 012.64.34v1.32a3.33 3.33 0 00-1.65-.7 3 3 0 00-1.64.23 3 3 0 00-1.27 1.1 3.31 3.31 0 00-.51 1.88v9.92h-1.12zM285.43 101.6h2a3.07 3.07 0 002.22-.84 2.82 2.82 0 00.87-2.11 3 3 0 00-.87-2.31 3.19 3.19 0 00-2.22-.79 3.15 3.15 0 00-2.26.79 3 3 0 00-.83 2.31v5.76a3.26 3.26 0 00.83 2.39 3 3 0 002.26.84 3.11 3.11 0 002.56-1.24l.9.59a4 4 0 01-1.49 1.29 4.24 4.24 0 01-2 .48 4.45 4.45 0 01-1.67-.31 3.94 3.94 0 01-1.34-.87 4 4 0 01-.88-1.38 4.82 4.82 0 01-.32-1.8v-5.61a4.63 4.63 0 01.31-1.79 4.18 4.18 0 01.88-1.38 4 4 0 011.34-.9 4.3 4.3 0 011.67-.32 4.12 4.12 0 011.63.32 4.19 4.19 0 011.34.9 4.27 4.27 0 01.91 1.38 4.5 4.5 0 01.34 1.76 3.56 3.56 0 01-.34 1.53 4 4 0 01-.91 1.25 4.33 4.33 0 01-1.34.84 4.28 4.28 0 01-1.63.31h-2zM294.48 94.57h1.13v1.49a6.46 6.46 0 011.39-1.12 3.21 3.21 0 011.72-.51 4.29 4.29 0 011.67.32 4 4 0 011.33.9 4.2 4.2 0 01.89 1.38 4.67 4.67 0 01.32 1.76v9.84h-1.12v-9.84a3.27 3.27 0 00-.83-2.38 3 3 0 00-2.26-.86 3 3 0 00-2.22.86 3.18 3.18 0 00-.87 2.38v9.84h-1.12zM306.85 104.42a3.27 3.27 0 00.83 2.38 3 3 0 002.26.86 3.67 3.67 0 001.43-.3 2.28 2.28 0 001.1-.94l.9.59a4.24 4.24 0 01-1.47 1.28 4.06 4.06 0 01-2 .49 4.29 4.29 0 01-1.67-.33 4 4 0 01-1.34-.9 4.17 4.17 0 01-.88-1.38 4.64 4.64 0 01-.32-1.76v-5.62a4.74 4.74 0 01.32-1.79 4.21 4.21 0 01.88-1.38 3.86 3.86 0 011.34-.89 4.47 4.47 0 011.67-.31 4.28 4.28 0 011.94.46 3.87 3.87 0 011.52 1.36l-.9.53a1.91 1.91 0 00-.45-.55 2.58 2.58 0 00-.63-.39 3.28 3.28 0 00-.74-.23 4.17 4.17 0 00-.73-.07 3 3 0 00-2.26.84 3.26 3.26 0 00-.83 2.39zM317.68 101.6h2a3.07 3.07 0 002.22-.84 2.82 2.82 0 00.87-2.11 3 3 0 00-.87-2.31 3.19 3.19 0 00-2.22-.79 3.15 3.15 0 00-2.26.79 3 3 0 00-.83 2.31v5.76a3.27 3.27 0 00.83 2.39 3 3 0 002.26.84 3.12 3.12 0 002.56-1.24l.9.59a4 4 0 01-1.49 1.29 4.23 4.23 0 01-2 .48 4.45 4.45 0 01-1.67-.31 3.93 3.93 0 01-1.33-.87 4 4 0 01-.89-1.38 4.84 4.84 0 01-.32-1.8v-5.61a4.65 4.65 0 01.32-1.76 4.2 4.2 0 01.89-1.38 4 4 0 011.33-.9 4.3 4.3 0 011.67-.32 4.13 4.13 0 011.63.32 4.19 4.19 0 011.34.9 4.28 4.28 0 01.91 1.38 4.48 4.48 0 01.34 1.76 3.55 3.55 0 01-.34 1.53 4.06 4.06 0 01-.91 1.25 4.33 4.33 0 01-1.34.84 4.29 4.29 0 01-1.63.31h-2zM330.42 100.51a5.67 5.67 0 011.58.49 4.79 4.79 0 011.29.84 3.73 3.73 0 01.86 1.17 3.38 3.38 0 01.31 1.45 4.48 4.48 0 01-.34 1.76 4.2 4.2 0 01-2.25 2.28 4.29 4.29 0 01-3.3 0 4.2 4.2 0 01-1.34-.91 4.33 4.33 0 01-.89-1.34 4.11 4.11 0 01-.32-1.63h1.13a3.09 3.09 0 00.83 2.22 3 3 0 002.26.87 3 3 0 002.22-.86 3.18 3.18 0 00.87-2.38 2.29 2.29 0 00-.87-1.9 4.8 4.8 0 00-2.22-.91 5.44 5.44 0 01-1.42-.41 4.45 4.45 0 01-1.15-.73 3.47 3.47 0 01-.79-1 2.61 2.61 0 01-.29-1.24 4.12 4.12 0 01.28-1.55 3.4 3.4 0 01.79-1.2 3.79 3.79 0 011.17-.77 3.6 3.6 0 011.42-.28 4.08 4.08 0 012.14.58 4.17 4.17 0 011.49 1.51l-.9.59a2.8 2.8 0 00-1.07-1.16 3.16 3.16 0 00-1.66-.42 2.44 2.44 0 00-1.8.73 2.62 2.62 0 00-.73 1.94 1.6 1.6 0 00.23.83 2.4 2.4 0 00.6.67 3.56 3.56 0 00.87.49 4.8 4.8 0 001 .28" />
</svg>
