<?xml version="1.0" encoding="UTF-8" standalone="no"?>
<svg
   width="1000"
   height="1000"
   version="1.1"
   id="svg1"
   sodipodi:docname="box-2025.svg"
   inkscape:version="1.3.2 (091e20e, 2023-11-25, custom)"
   xmlns:inkscape="http://www.inkscape.org/namespaces/inkscape"
   xmlns:sodipodi="http://sodipodi.sourceforge.net/DTD/sodipodi-0.dtd"
   xmlns:xlink="http://www.w3.org/1999/xlink"
   xmlns="http://www.w3.org/2000/svg"
   xmlns:svg="http://www.w3.org/2000/svg">
  <defs
     id="defs1">
    <rect
       x="173.3871"
       y="354.83871"
       width="456.3172"
       height="129.03226"
       id="rect3" />
  </defs>
  <sodipodi:namedview
     id="namedview1"
     pagecolor="#ffffff"
     bordercolor="#000000"
     borderopacity="0.25"
     inkscape:showpageshadow="2"
     inkscape:pageopacity="0.0"
     inkscape:pagecheckerboard="true"
     inkscape:deskcolor="#d1d1d1"
     inkscape:zoom="1.488"
     inkscape:cx="457.99731"
     inkscape:cy="535.9543"
     inkscape:window-width="2880"
     inkscape:window-height="1796"
     inkscape:window-x="-12"
     inkscape:window-y="-12"
     inkscape:window-maximized="1"
     inkscape:current-layer="svg1" />
  <path
     d="M746.733 5.094L4.483 68.038 3.335 246.384l735.355-5.83zm-43.171 21.98a17.061 18.133 0 0117.06 18.133 17.061 18.133 0 01-17.06 18.135A17.061 18.133 0 01686.5 45.207a17.061 18.133 0 0117.062-18.132zM33.668 84.659a10.562 13.187 0 0110.563 13.188 10.562 13.187 0 01-10.563 13.19 10.562 13.187 0 01-10.562-13.19 10.562 13.187 0 0110.562-13.188zm660.11 77.19a17.061 23.903 0 0117.06 23.905 17.061 23.903 0 01-17.06 23.903 17.061 23.903 0 01-17.062-23.903 17.061 23.903 0 0117.062-23.905zM34.34 191.498a14.624 16.485 0 0114.625 16.484 14.624 16.485 0 01-14.625 16.485 14.624 16.485 0 01-14.624-16.485 14.624 16.485 0 0114.624-16.484z"
     id="prefix__path1"
     fill="#fff"
     fill-opacity="1"
     stroke="#1d1d1b"
     stroke-width="6.627"
     stroke-dasharray="none"
     stroke-opacity="1" />
  <path
     d="M750.176 4.939L996.35 111.266l-16.25 163.2-241.3-34.618z"
     id="prefix__path2"
     fill="#fff"
     fill-opacity="1"
     stroke="#1d1d1b"
     stroke-width="6.627"
     stroke-dasharray="none"
     stroke-opacity="1" />
  <path
     d="M41.712 250.562l25.187 513.502 622.343 23.078 44.685-542.348z"
     id="prefix__path3"
     fill="#fff"
     fill-opacity="1"
     stroke="#1d1d1b"
     stroke-width="6.627"
     stroke-dasharray="none"
     stroke-opacity="1" />
  <path
     d="M690.867 783.022l181.99-10.716 59.31-501.136-195.803-29.674z"
     id="prefix__path4"
     fill="#fff"
     fill-opacity="1"
     stroke="#1d1d1b"
     stroke-width="6.627"
     stroke-dasharray="none"
     stroke-opacity="1" />
  <path
     d="M22.212 760.638l20.31 206.884 652.014 28.566 8.516-208.249zm37.684 23.427a11.375 15.66 0 0111.377 15.66 11.375 15.66 0 01-11.377 15.66 11.375 15.66 0 01-11.372-15.659 11.375 15.66 0 0111.372-15.66zm583.847 31.422a14.936 20.982 0 0114.937 20.98 14.936 20.982 0 01-14.937 20.982 14.936 20.982 0 01-14.938-20.982 14.936 20.982 0 0114.938-20.98zM73.398 916.245a11.49 17.485 0 0111.488 17.485 11.49 17.485 0 01-11.488 17.482 11.49 17.485 0 01-11.49-17.482 11.49 17.485 0 0111.49-17.486zm583.345 11.196a13.788 18.65 0 0113.786 18.65 13.788 18.65 0 01-13.786 18.652 13.788 18.65 0 01-13.79-18.65 13.788 18.65 0 0113.79-18.652z"
     id="prefix__path5"
     fill="#fff"
     fill-opacity="1"
     stroke="#1d1d1b"
     stroke-width="6.627"
     stroke-dasharray="none"
     stroke-opacity="1" />
  <path
     d="M693.326 997.185l227.467-51.092V782.069l-56.06-9.067-163.305 16.484z"
     id="prefix__path6"
     fill="#fff"
     fill-opacity="1"
     stroke="#1d1d1b"
     stroke-width="6.627"
     stroke-dasharray="none"
     stroke-opacity="1" />
  <path
     id="path3"
     style="fill:none;stroke:#1d1d1b;stroke-width:5"
     d="M 144.48925,892.47312 571.9086,911.96237 M 94.758065,218.41398 629.03226,209.00538 M 85.349462,128.36022 649.86559,93.413978" />
  <text
     xml:space="preserve"
     style="font-size:18.6667px;fill:none;stroke:#1d1d1b;stroke-width:1;stroke-dasharray:none"
     id="text3"><textPath
       xlink:href="#path3"
       id="textPath4"><tspan
         id="tspan3"
         style="font-size:18.6667px">Chaallenge description very very long and you don't see all</tspan></textPath></text>
  <path
     id="rect4"
     style="fill:none;stroke:#1d1d1b"
     d="M 80.645166,276.88173 695.56452,274.8656 653.22582,757.39248 106.1828,737.23119 Z"
     sodipodi:nodetypes="ccccc" />
  <path
     style="fill:none;stroke:#1d1d1b"
     d="M 807.12366,374.32796 772.17742,707.6613"
     id="path1"
     sodipodi:nodetypes="cc" />
  <path
     style="fill:none;stroke:#1d1d1b"
     d="M 839.38172,741.93548 888.44086,311.82796"
     id="path2" />
</svg>
