<svg viewBox="0 0 64 64" xmlns="http://www.w3.org/2000/svg">
  <path
    d="M32 4a1 1 0 00-1 1v4h-4a1 1 0 00-1 1 1 1 0 001 1h4v5.158c-6.343.407-11.7 4.414-13.895 10.094a1 1 0 00-.013.025c-.03.08-.092.14-.121.22a1 1 0 00.047.1 1 1 0 00-.094.407l3.914 23.57-1.56 1.04-5.446-8.169a1 1 0 00-1.17-.386 1 1 0 00-.656 1.04l.846 8.465-3.036-1.01a1 1 0 00-1.248 1.31L10.543 58H9a1 1 0 00-1 1 1 1 0 001 1h46a1 1 0 001-1 1 1 0 00-1-1h-1.752l2.395-10.77a1 1 0 00-.973-1.216 1 1 0 00-.781.369l-4.223 5.209-.676-4.72a1 1 0 00-1.857-.356l-4.008 7.002-.48-.46 4.431-26.05a1 1 0 00-.002-.063 1 1 0 00-.006-.199 1 1 0 00-.029-.185 1 1 0 00-.01-.065c-.023-.064-.073-.114-.097-.178a1 1 0 00-.037-.068C44.7 20.57 39.343 16.565 33 16.158V11h4a1 1 0 001-1 1 1 0 00-1-1h-4V5a1 1 0 00-1-1zm0 14c5.972 0 11.036 3.75 13.049 8.998L40.9 51.387l-2.334-2.235a1 1 0 00-1.648 1.012L39.279 58H24.994l1-8.889a1 1 0 00-1.549-.943l-1.783 1.19L18.952 27c2.011-5.249 7.076-9 13.048-9zm-7.756 10.377a.448.448 0 00-.336.137.45.45 0 00-.13.322v6.203c0 .15.075.265.224.346.15.08.327.123.535.123.208 0 .387-.041.537-.123.15-.081.225-.196.225-.346v-2.352h.644l1.336 2.596c.097.19.259.283.487.283.228 0 .443-.085.648-.254.204-.168.309-.349.309-.537a.291.291 0 00-.05-.175l-1.19-2.157c.785-.306 1.18-.964 1.18-1.978 0-1.391-.8-2.088-2.4-2.088h-2.019zm7.932 0c-.208 0-.388.037-.537.115-.15.078-.225.194-.225.344v6.203c0 .15.075.265.225.346.15.08.329.123.537.123.208 0 .387-.041.537-.123.149-.081.224-.196.224-.346v-6.203c0-.15-.075-.266-.224-.344a1.15 1.15 0 00-.537-.115zm4.32 0a.6.6 0 00-.408.137.416.416 0 00-.156.322v6.203c0 .15.073.265.224.346.15.08.33.123.537.123.208 0 .387-.041.537-.123.15-.081.223-.196.223-.346v-2.107h.967c.72 0 1.301-.183 1.74-.551.44-.367.658-.937.658-1.711v-.05c0-.774-.21-1.341-.629-1.702-.42-.361-.975-.541-1.671-.541h-2.022zm.955 1.326h.967c.586 0 .879.327.879.977v.105c0 .651-.294.977-.879.977h-.967v-2.059zm-12.152.002h.965c.286 0 .505.07.654.21.15.14.225.371.225.696 0 .326-.075.558-.225.698-.149.139-.368.209-.654.209h-.965v-1.813zm4.633 4.358a.735.735 0 00-.543.22.73.73 0 00-.217.531.722.722 0 00.22.528.73.73 0 00.54.224.719.719 0 00.529-.224.725.725 0 00.223-.528.725.725 0 00-.223-.527.72.72 0 00-.53-.224zm4.515 0a.735.735 0 00-.543.22.73.73 0 00-.217.531.722.722 0 00.221.528.73.73 0 00.54.224.719.719 0 00.529-.224.725.725 0 00.222-.528.725.725 0 00-.222-.527.72.72 0 00-.53-.224zm6.79 0a.735.735 0 00-.544.22.73.73 0 00-.216.531.722.722 0 00.22.528.73.73 0 00.54.224.719.719 0 00.529-.224.725.725 0 00.222-.528.725.725 0 00-.222-.527.72.72 0 00-.53-.224zm-26.844 13.83l3.775 5.662a1 1 0 001.387.277l2.918-1.945a1 1 0 00.05-.033l1.243-.829L22.98 58H12.687l-1.494-3.879 2.49.828a1 1 0 001.311-1.049l-.601-6.007zm33.029 2.142l.588 4.108a1 1 0 001.767.486l2.99-3.686L51.198 58h-9.83l-1.437-4.773 2.736 2.62a1 1 0 001.559-.226l3.197-5.586z" />
</svg>
