<svg viewBox="0 0 200 200" xmlns="http://www.w3.org/2000/svg">
  <path
    d="M147.467 0c-8.829.157-13.38 8.776-19.455 13.873L10.936 130.541c-4.07 11.775-4.403 24.776-6.989 37.041.52 10.519-10.066 27.007 1.44 32.418l34.925-5.813.618-.015-.076-.074 25.388-4.227c7.94-5.058 13.707-13.091 20.746-19.385 36.344-36.253 72.795-72.396 109.108-108.681 4.17-2.228 6.306-14.753-.4-19.19C182.01 29.197 168.782 15.26 154.8 2.175A13.353 13.33 0 00147.467 0zm0 9.95c4.59 1.808 7.344 6.684 11.14 9.808L189 50.1c1.322 7.869-9.018 13.207-15.383 19.377-.01-.01-.017-.022-.027-.032L130.057 25.99l15.1-15.047c-.412-1.519 2.406-.14 2.31-.994zm-25.895 24.493l43.541 43.463c.11.11.224.21.34.309-31.352 31.258-62.764 62.456-94.098 93.734a5.571 5.571 0 00-.507-.594l-43.297-43.22 94.021-93.692zM19.412 136.938l42.957 42.88c.169.169.348.32.531.461l-30.76 5.12-18.013-17.98c1.603-10.242 3.24-20.47 5.285-30.482z" />
</svg>
