<svg viewBox="0 0 200 200" xmlns="http://www.w3.org/2000/svg">
  <path
    d="M165.853 70c-5.738.102-8.697 5.704-12.645 9.017l-76.1 75.835c-2.645 7.653-2.862 16.104-4.543 24.076.338 6.838-6.543 17.555.936 21.072l22.702-3.778.401-.01-.05-.048 16.503-2.747c5.161-3.288 8.91-8.51 13.485-12.6 23.624-23.565 47.317-47.058 70.92-70.643 2.71-1.448 4.1-9.59-.26-12.473-8.895-8.722-17.494-17.781-26.582-26.286A8.68 8.664 0 00165.854 70zm0 6.468c2.984 1.175 4.774 4.344 7.241 6.375l19.756 19.722c.86 5.115-5.862 8.585-9.999 12.595l-.018-.02-28.297-28.246 9.815-9.781c-.268-.987 1.564-.091 1.502-.646zm-16.831 15.92l28.301 28.25c.072.072.146.137.221.202-20.379 20.317-40.796 40.596-61.164 60.927a3.621 3.621 0 00-.33-.386l-28.142-28.093zM82.618 159.01l27.922 27.872c.11.11.226.208.345.3l-19.994 3.327-11.709-11.687c1.042-6.657 2.106-13.305 3.436-19.813z" />
  <path
    d="M52.568 0c-18.24 0-30.6 2.446-38.582 5C6.004 7.554 1.96 10.607 1.96 10.607A5.19 5.19 0 000 14.662V194.796A5.19 5.19 0 005.203 200a5.19 5.19 0 005.135-5.203v-63.108c.748-.521 1.466-1.326 6.824-3.04 6.834-2.188 18.088-4.528 35.406-4.528 15.221 0 28.29 3.715 41.588 7.92l8.281-8.252c-.295-.094-.586-.18-.882-.275-14.817-4.742-30.285-9.73-48.987-9.73-18.24 0-30.6 2.445-38.582 5-2.418.773-1.955.919-3.648 1.689V17.906c.748-.522 1.466-1.326 6.824-3.04 6.834-2.188 18.088-4.528 35.406-4.528 16.857 0 31.061 4.515 45.877 9.256 14.816 4.74 30.285 9.73 48.987 9.73 18.24 0 30.6-2.446 38.582-5 2.418-.774 1.955-.92 3.648-1.69v52.221c3.45 3.454 6.891 6.917 10.338 10.374V14.662c.011-4.366-5.045-6.793-8.445-4.055 0 0-1.883 1.665-8.717 3.852-6.834 2.187-18.088 4.459-35.406 4.459-16.857 0-31.061-4.446-45.877-9.188C86.738 4.99 71.27 0 52.568 0zM200 113.4c-3.443 3.436-6.893 6.864-10.338 10.297v1.506c-.532.371-1.124.902-3.303 1.783-4.801 4.784-9.602 9.569-14.406 14.35 5.703-.903 10.374-2.049 14.06-3.229 7.983-2.554 12.028-5.607 12.028-5.607a5.19 5.19 0 001.959-4.055z" />
</svg>
