<svg viewBox="0 0 64 64" xmlns="http://www.w3.org/2000/svg">
  <path
    d="M44.861000000000004 40.435H19.815c-1.128 0-2.482 1.24-2.482 2.368v4.964c0 1.129 1.354 1.693 2.482 1.693h1.354L23.2 60.629c.226 1.128 1.241 2.369 2.37 2.369h13.538c1.128 0 2.143-1.241 2.369-2.37l2.03-11.168h1.354c1.129 0 1.806-.564 1.806-1.693v-4.964c0-1.128-.79-2.369-1.806-2.369z"
    fill="#8c623b" />
  <path
    d="M44.861000000000004 40.435H19.815c-1.128 0-2.482 1.24-2.482 2.368v4.964c0 1.129 1.354 1.693 2.482 1.693h1.354L23.2 60.629c.226 1.128 1.241 2.369 2.37 2.369h13.538c1.128 0 2.143-1.241 2.369-2.37l2.03-11.168h1.354c1.129 0 1.806-.564 1.806-1.693v-4.964c0-1.128-.79-2.369-1.806-2.369zM39.897 48.331H24.103M32.338 31.634v8.01M27.374 30.844s2.482.903 4.964.903c2.483 0 4.965-.677 4.965-.677"
    fill="none" stroke="#2c3e50" stroke-linecap="round" stroke-linejoin="round" stroke-miterlimit="10"
    stroke-width="2.004" />
  <path
    d="M55.467 24.978c-2.595 1.918-8.688 1.354-12.072 4.174-1.58 1.241-2.37 2.933-2.482 6.205 0 .564-.113.79.451.79 4.513.113 7.22-.226 9.251-1.467 3.046-1.918 4.287-6.656 4.852-9.702zM8.533 24.978c2.595 1.918 8.688 1.354 12.072 4.174 1.58 1.241 2.37 2.933 2.482 6.205 0 .564.113.79-.451.79-4.513.113-7.22-.226-9.251-1.467-3.046-1.918-4.287-6.656-4.852-9.702z"
    fill="#7abe90" stroke="#2c3e50" stroke-linecap="round" stroke-linejoin="round" stroke-miterlimit="10"
    stroke-width="2.004" />
  <path
    d="M42.339 1.703A5.843 5.843 0 0040.65.79L40.43.708 40.198.67a55.017 55.017 0 00-8.189-.667c-2.744-.027-5.485.201-8.188.68h-.083l-.096.026a5.04 5.04 0 00-1.975 1.038 4.15 4.15 0 00-1.308 2.206c-.462 2.05-.558 4.827-.571 7.54a39.116 39.116 0 00.554 7.377c.113.681.385 1.326.793 1.883a32.898 32.898 0 003.824 4.217 27.138 27.138 0 004.831 3.553 4.63 4.63 0 002.25.65 4.936 4.936 0 002.18-.593c1.95-.985 3.623-2.577 5.102-3.88a27.731 27.731 0 003.283-3.389l-4.046-3.087a23.981 23.981 0 01-2.643 2.686c-1.373 1.26-2.982 2.616-3.863 3.052a23.38 23.38 0 01-3.702-2.781 27.709 27.709 0 01-3.017-3.301 34.59 34.59 0 01-.436-6.375c-.03-1.967.083-3.934.336-5.886a42.455 42.455 0 016.789-.51c1.71.01 3.419.11 5.118.3.685.075 1.247.149 1.64.206h.118c.136 1.038.217 2.083.244 3.13l5.088-.17a26.93 26.93 0 00-.488-4.613 4.042 4.042 0 00-1.404-2.258"
    fill="#2c3e50" />
  <path
    d="M37.883 8.884V8.13l-5.878 5.873v-.632l5.8-5.8v-.039l-.027-.083-.026-.074-.044-.091-.03-.061a1.05 1.05 0 00-.061-.088l-.04-.043-5.572 5.52v-.628l5.11-5.11a7.095 7.095 0 00-.436-.079l-.235-.026-4.439 4.456v-.628l3.89-3.885-.28-.03-.436-.035-3.191 3.192v-.633l2.616-2.616-.72-.039-1.883 1.884V7.82l1.277-1.278h-.74L32 7.08v-.537h-.497c-1.234 0-2.298.083-3.105.157-.353.035-.72.07-1.081.114a5.568 5.568 0 00-.593.122.671.671 0 00-.153.065l-.035.03a.558.558 0 00-.087.075l-.035.044a.872.872 0 00-.06.087l-.053.048-.044.091c0 .026 0 .048-.026.074l-.026.083c0 .03 0 .061-.026.092v.174a.253.253 0 000 .03v.594a.562.562 0 000 .07v7.538a3.654 3.654 0 00.55 1.487 22.917 22.917 0 003.19 3.414l.254.2.057.044c.126.092.248.18.374.258l.17.104.158.087q.139.075.274.131l.087.035a2.241 2.241 0 00.284.092h.087a1.67 1.67 0 00.314.035v-.253l5.904-5.839v-.758l-5.878 5.864v-.619l5.878-5.878v-.758l-5.878 5.877v-.628l5.878-5.877v-.759l-5.878 5.878v-.632l5.878-5.874v-.758l-5.878 5.873v-.641l5.878-5.865v-.758l-5.878 5.877v-.628zm-.118 7.687l-5.32 5.32a2.132 2.132 0 00.266-.083l.088-.035q.135-.057.274-.131l.157-.087.17-.105a8.27 8.27 0 00.375-.257l.057-.044.257-.2.323-.27 1.744-1.745a25.239 25.239 0 001.195-1.434 2.93 2.93 0 00.436-.947"
    fill="#e64c3c" />
</svg>
