<svg xmlns="http://www.w3.org/2000/svg" viewBox="0 0 56.08 78.31">
  <path
    d="M51.78 3.9a13.4 13.4 0 00-3.87-2.09l-.51-.19-.53-.09A126.18 126.18 0 0028.09 0 101.85 101.85 0 009.31 1.56h-.19l-.22.06A11.56 11.56 0 004.37 4a9.52 9.52 0 00-3 5.06C.31 13.76.09 20.13.06 26.35a89.71 89.71 0 001.27 16.92 10.12 10.12 0 001.82 4.32 75.45 75.45 0 008.77 9.67A62.24 62.24 0 0023 65.41a10.62 10.62 0 005.16 1.49 11.32 11.32 0 005-1.36c4.47-2.26 8.31-5.91 11.7-8.9a63.6 63.6 0 007.53-7.77l-9.28-7.08a55 55 0 01-6.06 6.16c-3.15 2.89-6.84 6-8.86 7a53.62 53.62 0 01-8.49-6.38A63.55 63.55 0 0112.78 41a79.33 79.33 0 01-1-14.62 94.25 94.25 0 01.77-13.5 97.37 97.37 0 0115.57-1.17 110.89 110.89 0 0111.74.69c1.57.17 2.86.34 3.76.47h.27a68.52 68.52 0 01.56 7.18l11.67-.39A61.76 61.76 0 0055 9.08a9.27 9.27 0 00-3.22-5.18M1.07 74.76L0 75.84a2.94 2.94 0 001.17.58l2.18-2.18a17.82 17.82 0 00-2.28.53M5.06 74l-2.75 2.71c.44.1.92.19 1.46.28L7 73.72l-2 .24M8.65 73.56L5 77.18l1.55.2 4-4-1.9.16M12.1 73.29l-4.23 4.23 1.6.15 4.53-4.5-1.86.11M15.48 73.1l-4.68 4.67 1.63.11L17.3 73l-1.82.08M18.79 73l-5 5 1.66.09 5.14-5.14H18.8M22.05 72.89l-5.23 5.23 1.68.06 5.32-5.31h-1.77M26.73 72.84h-1.46l-5.37 5.37h1.7l5.4-5.36h-.29M28.46 72.85L23 78.28h1.72l5.43-5.43h-1.72M31.6 72.89l-5.41 5.41h1.74l5.38-5.38h-1.7M34.71 73l-5.33 5.33h1.77L36.39 73h-1.68M37.77 73.09l-5.15 5.15h1.79l5-5-1.66-.08M40.79 73.25l-4.89 4.89 1.82-.08 4.71-4.71-1.63-.11M43.76 73.46L39.23 78l1.85-.11 4.27-4.27-1.6-.15M46.66 73.75l-4 4 1.9-.16 3.68-3.68-1.55-.19M49.47 74.12l-3.34 3.34 2-.23 2.84-2.84c-.44-.09-.93-.18-1.47-.27M49.81 77a22 22 0 002.19-.51l1.3-1.3a4.22 4.22 0 00-1.23-.51z" />
  <path
    d="M41.56 20.37v-.85-.76-.12L28.08 32.11v-1.45l13.3-13.3v-.09l-.06-.19-.06-.17-.1-.21-.07-.14a2.41 2.41 0 00-.14-.2l-.09-.1-12.78 12.66v-1.44L39.8 15.76c-.45-.1-1-.18-1-.18l-.54-.06-10.18 10.22V24.3L37 15.39l-.64-.07-1-.08-7.32 7.32v-1.45l6-6-1.65-.09-4.32 4.32v-1.41L31 15h-1.7l-1.23 1.23V15h-1.14c-2.83 0-5.27.19-7.12.36-.81.08-1.65.16-2.48.26a12.77 12.77 0 00-1.36.28 1.54 1.54 0 00-.35.15l-.08.07a1.28 1.28 0 00-.2.17l-.08.1a2 2 0 00-.14.2l-.12.11-.1.21c0 .06 0 .11-.06.17l-.06.19c0 .07 0 .14-.06.21v.4a.58.58 0 000 .07V19.31a1.29 1.29 0 000 .16v17.29a8.38 8.38 0 001.26 3.41A52.56 52.56 0 0023.3 48l.58.46.13.1c.29.21.57.41.86.59l.39.24.36.2q.32.17.63.3l.2.08a5.14 5.14 0 00.65.21h.2a3.83 3.83 0 00.72.08v-.58l13.54-13.39v-1.74L28.08 48v-1.42L41.56 33.1v-1.74L28.08 44.84V43.4l13.48-13.48v-1.74L28.08 41.66v-1.45l13.48-13.47V25L28.08 38.47V37l13.48-13.45v-1.74L28.08 35.29v-1.44zM41.29 38l-12.2 12.2a4.89 4.89 0 00.61-.19l.2-.08q.31-.13.63-.3l.36-.2.39-.24c.28-.18.57-.38.86-.59l.13-.1.59-.46.74-.62 4-4c1.62-1.81 2.74-3.29 2.74-3.29a6.72 6.72 0 001-2.17" />
</svg>
