<svg xmlns="http://www.w3.org/2000/svg" viewBox="0 0 334.49 78.31">
  <path
    d="M305 48.6a34.26 34.26 0 0029.29-33.89H323a23 23 0 01-23 23h-20.45a23 23 0 0122.25-17.36V9.08a34.26 34.26 0 00-34.25 34.26v34.71h11.27V49h10.58l29.17 29.16h15.93zM256.38 3.9a13.4 13.4 0 00-3.87-2.09l-.51-.19-.53-.09A126.18 126.18 0 00232.69 0a101.85 101.85 0 00-18.78 1.56h-.19l-.22.06A11.56 11.56 0 00209 4a9.52 9.52 0 00-3 5.06c-1.05 4.7-1.28 11.08-1.3 17.3a89.71 89.71 0 001.26 16.92 10.12 10.12 0 001.82 4.32 75.45 75.45 0 008.77 9.67 62.24 62.24 0 0011.07 8.15 10.62 10.62 0 005.16 1.49 11.32 11.32 0 005-1.36c4.47-2.26 8.31-5.91 11.7-8.9a63.6 63.6 0 007.52-7.79l-9.28-7.08a55 55 0 01-6.06 6.16c-3.15 2.89-6.84 6-8.86 7a53.62 53.62 0 01-8.49-6.38 63.55 63.55 0 01-6.93-7.6 79.33 79.33 0 01-1-14.62 94.25 94.25 0 01.77-13.5 97.37 97.37 0 0115.57-1.17 110.89 110.89 0 0111.74.69c1.57.17 2.86.34 3.76.47h.27a68.52 68.52 0 01.56 7.18l11.67-.39a61.76 61.76 0 00-1.07-10.59 9.27 9.27 0 00-3.23-5.18M205.68 74.76l-1.07 1.07a2.94 2.94 0 001.17.58l2.22-2.18a17.82 17.82 0 00-2.28.53M209.66 74l-2.75 2.75c.44.1.92.19 1.46.28l3.27-3.27-2 .24M213.25 73.56l-3.63 3.63 1.55.2 4-4-1.9.16M216.71 73.29l-4.23 4.23 1.6.15 4.49-4.49-1.86.11M220.08 73.1l-4.68 4.68 1.63.11L221.9 73l-1.82.08M223.39 73l-5 5 1.66.09 5.14-5.14h-1.79M226.66 72.89l-5.23 5.23 1.68.06 5.32-5.31h-1.77M231.33 72.84h-1.46l-5.37 5.37h1.7l5.41-5.41h-.29M233.06 72.85l-5.43 5.43h1.72l5.43-5.43h-1.72M236.2 72.89l-5.41 5.41h1.74l5.38-5.38h-1.7M239.31 73L234 78.29h1.77L241 73h-1.69M242.37 73.09l-5.15 5.15h1.79l5-5-1.66-.08M245.39 73.25l-4.89 4.89 1.82-.08 4.68-4.7-1.63-.11M248.36 73.46L243.84 78l1.85-.11 4.31-4.28-1.6-.15M251.27 73.75l-4 4 1.9-.16 3.68-3.68-1.55-.19M254.07 74.12l-3.34 3.34 2-.23 2.84-2.84c-.44-.09-.93-.18-1.47-.27M254.41 77a22 22 0 002.22-.48l1.3-1.3a4.22 4.22 0 00-1.23-.51zM157.44 43.57V78.2h11.27v-29H186v29h11.27V15l.09-5.73h-5.66a34.26 34.26 0 00-34.26 34.26m28.61-5.64h-16.63a23 23 0 0116.63-16.65zM139.37 37.68h-32.68a23 23 0 0122.24-17.34V9.08a34.24 34.24 0 00-34.24 34.23v34.6H106v-29h33.42v29h11.27v-59h-11.32zM81.71 9.13a34.25 34.25 0 00-34.25 34.19h11.27a23 23 0 016.89-16.37v51h11.26V20.87a23.09 23.09 0 014.82-.52v-.06.05h6.13V9.08h-6.11zM34.48 21.39h6.13V9.08h-6.13A34.48 34.48 0 000 43.56v6.16h27.45a22.21 22.21 0 01-21.29 16H0V78h6.15a34.48 34.48 0 0034.48-34.45V37.4H13.19a22.2 22.2 0 0121.29-16" />
  <path
    d="M246.16 20.37v-.85-.76-.12l-13.48 13.47v-1.45L246 17.36v-.09l-.06-.19-.06-.17-.1-.21-.07-.14a2.41 2.41 0 00-.14-.2l-.09-.1-12.8 12.66v-1.44l11.72-11.72c-.45-.1-1-.18-1-.18l-.54-.06-10.18 10.22V24.3l8.91-8.91-.64-.07-1-.08-7.32 7.32v-1.45l6-6-1.63-.06-4.32 4.32v-1.44l2.93-2.93h-1.7l-1.23 1.23V15h-1.15c-2.83 0-5.27.19-7.12.36-.81.08-1.65.16-2.48.26a12.77 12.77 0 00-1.36.28 1.54 1.54 0 00-.35.15l-.08.07a1.28 1.28 0 00-.2.17l-.08.1a2 2 0 00-.14.2l-.07.14-.1.21c0 .06 0 .11-.06.17l-.06.19c0 .07 0 .14-.06.21v.4a.58.58 0 000 .07V19.34a1.29 1.29 0 000 .16v17.26a8.38 8.38 0 001.26 3.41A52.56 52.56 0 00227.9 48l.58.46.13.1c.29.21.57.41.86.59l.39.24.36.2q.32.17.63.3l.2.08a5.14 5.14 0 00.65.21h.2a3.83 3.83 0 00.72.08v-.58L246.1 36.2v-1.65L232.68 48v-1.42l13.48-13.48v-1.74l-13.48 13.48V43.4l13.48-13.48v-1.74l-13.48 13.48v-1.45l13.48-13.48V25l-13.48 13.47V37l13.48-13.48v-1.71l-13.48 13.48v-1.44zM245.89 38l-12.2 12.2a4.89 4.89 0 00.61-.19l.2-.08q.31-.13.63-.3l.36-.2.39-.24c.28-.18.57-.38.86-.59l.13-.1.59-.46.74-.62 4-4c1.62-1.81 2.74-3.29 2.74-3.29a6.72 6.72 0 001-2.17" />
</svg>
