<svg width="2495.832" height="1693.45" xmlns="http://www.w3.org/2000/svg">
  <path
    d="M1385.6 352.543l-14.985 322.697-369.486-91.139-17.059 244.946-276.336 52.883L837.5 1147.657l-379.644.781 76.108 270.626-198.133 69.174 174.744-84.068-81.039-280.183 380.66 1.862L678.68 862.143l281.58-58.953 6.466-259.393 345.36 80.91z"
    fill="#383836" />
  <path
    d="M1223.331 1229.945s-39.106-66.723-107.296-71.448c-68.185-4.725 58.074 77.047 58.074 77.047s46.509 23.053 33.303 34.8c-13.205 11.746-74.762-15.028-74.622 14.525.137 29.554 20.835 35.913 68.856 37.13 48.021 1.218 19.146 18.21 19.146 18.21s-21.273 12.49-6.674 22.7c14.6 10.208 36.266-10.098 50.122-9.138 13.855.96 44.814 6.52 51.432 16.174z"
    fill="#9c9b9b" />
  <path
    d="M1223.331 1229.945s-39.106-66.723-107.296-71.448c-68.185-4.725 58.074 77.047 58.074 77.047s46.509 23.053 33.303 34.8c-13.205 11.746-74.762-15.028-74.622 14.525.137 29.554 20.835 35.913 68.856 37.13 48.021 1.218 19.146 18.21 19.146 18.21s-21.273 12.49-6.674 22.7c14.6 10.208 36.266-10.098 50.122-9.138 13.855.96 44.814 6.52 51.432 16.174z"
    fill="none" stroke="#fff" stroke-width="7.999979999999999" stroke-linecap="round" stroke-linejoin="round"
    stroke-miterlimit="10" />
  <path
    d="M1724.343 530.559s44.097 66.083 84.512 70.266c40.413 4.179 177.416-23.504 296.971-175.026 119.557-151.524 143.524-241.833 199.266-239.595 55.744 2.236 25.534 401.525-48.774 471.498 0 0-11.75 6.348-5.281 12.06 6.466 5.712 26.253-14.933 26.253-14.933s147.927-201.538 197.58-184.298c49.654 17.24-11.578 321.54-160.159 392.907 0 0-10.632.413-8.79 16.74 1.84 16.326 90.669-38.023 90.669-38.023s56.62-50.118 74.703-39.674c18.08 10.442-11.458 125.387-92.029 187.653-80.569 62.263-326.203 213.856-553.341 225.659 0 0-10.347-.733-7.41 6.63 2.937 7.363 19.774 26.586 139.968 24.9 120.192-1.686 147.525-25.417 162.447-.677 14.922 24.741-44.962 70.655-135.068 99.995 0 0-8.26 1.836-6.516 7.733 1.744 5.893 61.636 4.188 98.026 2.155 36.394-2.035 155.137-25.051 148.715 14.29-6.424 39.343-195.253 116.293-270.21 122.66 0 0-14.21 10.633 74.911 36.325 89.12 25.693 120.567 54.832 114.813 73.063-5.936 18.816-147.835 18.662-259.116 2.444-111.28-16.219-416.287-57.63-542.939-198.259-126.65-140.63-226.54-297.541-55.564-524.598l20.652-25.11s.296-9.367-8.02-10.226c-8.314-.861-21.626-.557-20.689-7.184.939-6.627 26.872-20.08 63.438-9.573 0 0 106.039-85.854 121.408-133.684 15.37-47.83 24.019-85.932 24.019-85.932s52.346-51.064 52.452-52.062c.102-.998 183.105-28.124 183.105-28.124"
    fill="#fff" />
  <path
    d="M1724.343 530.559s44.097 66.083 84.512 70.266c40.413 4.179 177.416-23.504 296.971-175.026 119.557-151.524 143.524-241.833 199.266-239.595 55.744 2.236 25.534 401.525-48.774 471.498 0 0-11.75 6.348-5.281 12.06 6.466 5.712 26.253-14.933 26.253-14.933s147.927-201.538 197.58-184.298c49.654 17.24-11.578 321.54-160.159 392.907 0 0-10.632.413-8.79 16.74 1.84 16.326 90.669-38.023 90.669-38.023s56.62-50.118 74.703-39.674c18.08 10.442-11.458 125.387-92.029 187.653-80.569 62.263-326.203 213.856-553.341 225.659 0 0-10.347-.733-7.41 6.63 2.937 7.363 19.774 26.586 139.968 24.9 120.192-1.686 147.525-25.417 162.447-.677 14.922 24.741-44.962 70.655-135.068 99.995 0 0-8.26 1.836-6.516 7.733 1.744 5.893 61.636 4.188 98.026 2.155 36.394-2.035 155.137-25.051 148.715 14.29-6.424 39.343-195.253 116.293-270.21 122.66 0 0-14.21 10.633 74.911 36.325 89.12 25.693 120.567 54.832 114.813 73.063-5.936 18.816-147.835 18.662-259.116 2.444-111.28-16.219-416.287-57.63-542.939-198.259-126.65-140.63-226.54-297.541-55.564-524.598l20.652-25.11s.296-9.367-8.02-10.226c-8.314-.861-21.626-.557-20.689-7.184.939-6.627 26.872-20.08 63.438-9.573 0 0 106.039-85.854 121.408-133.684 15.37-47.83 24.019-85.932 24.019-85.932s52.346-51.064 52.452-52.062c.102-.998 183.105-28.124 183.105-28.124z"
    fill="none" stroke="#fff" stroke-width="7.999979999999999" stroke-linecap="round" stroke-linejoin="round"
    stroke-miterlimit="10" />
  <path d="M1661.743 1450.95s-17.08 64.342-16.77 61.368M1681.186 1501.78s-66.848-23.273-63.72-22.726" fill="none"
    stroke="#9c9b9b" stroke-width="7.999979999999999" stroke-linecap="round" stroke-linejoin="round"
    stroke-miterlimit="10" />
  <path
    d="M2050.014 706.96s-26.616-69.319-79.003-89.362c-52.39-20.044-19.236-67.546 43.32-43.426 62.558 24.122 99.497 81.398 108.426 112.074 8.93 30.676 7.364 50.685 1.395 74.273-5.971 23.587-37.007 58.198-2.451 42.107 34.554-16.093 77.91-25.728 55.457 74.318 0 0-12.352 51.167-48.328 91.822 0 0 17.05-8.827 26.857 13.369 9.807 22.193-24.346 84.217-24.346 84.217s-20.97 46.747-69.833 75.477c-48.86 28.733 40.26-82.066 40.26-82.066s14.538-33.29 6.486-43.202c-8.053-9.909-38.573-2.477-38.573-2.477s-20.51-1.617-8.517-20.044 58.273-51.46 64.656-64.414c6.384-12.956 22.626-43.242 4.784-60.874-17.842-17.631-72.71.898-72.71.898s-33.514 21.746-33.342.585c0 0 10.082-43.84 21.61-72.4 11.527-28.56 17.607-63.44 3.852-90.874"
    fill="#9c9b9b" />
  <path
    d="M2102.672 464.056c-2.026 2.97.2 7.036 3.625 6.583 18.907-2.508 63.11-5.574 92.73 14.621 29.947 20.413 42.758 56.857 48.439 93.467 1.464 9.445 13.724 11.008 17.57 2.277 20.6-46.72 55.715-146.42 49.982-273.295-8.004-177.112-108.325 2.593-111.701 8.692a3.641 3.641 0 01-.2.324zM2302.911 650.856c-2.864.642-4.921-2.726-3.117-5.042 24.212-31.048 109.953-137.869 160.402-160.16 56.48-24.958-17.49 240.324-101.804 329.644-2.85 3.02-7.834-.045-6.486-3.975 11.293-32.936 33.344-109.122 7.194-138.113-22.461-24.902-44.165-25.05-56.189-22.354M2359.028 887.915c-3.728-1.699-3.694-7.55 0-9.484 15.992-8.363 44.216-23.893 57.007-35.65 18.384-16.903 38.452-33.15 44.021-27.752 5.572 5.398-.463 49.133-18.133 79.129-14.882 25.261-22.912 44.252-62.36 82.166-4.773 4.587-11.73-1.266-8.84-7.45 7.713-16.507 14.705-36.27 12.528-50.41-2.668-17.324-14.8-26.253-24.227-30.549M1981.977 1262.794c-1.886.433-2.03 2.827-.213 3.477 7.433 2.66 21.752 9.392 23.725 29.647 1.475 15.172-3.235 24.93-8.004 30.759-1.21 1.478.523 3.457 2.343 2.673 31.29-13.488 118.646-53.255 110.093-73.366-7.707-18.126-100.16.422-127.944 6.81M2066.94 1367.98c25.524-.914 73.449-3.207 96.54-8.1a5.29 5.29 0 01.462-.08c2.765-.367 28.588-3.514 38.855 5.818 10.853 9.864-8.532 25.773-27.808 36.133-25.547 13.73-64.659 31.71-102.688 44.733-6.104 2.088-11.936-3.866-9.292-9.466 4.537-9.616 9.384-21.798 9.423-30.04.048-10.35-4.502-19.821-11.138-27.776-3.728-4.467-.337-11.008 5.646-11.223M2019.806 1538.104c24.264 9.456 32.67 11.877 51.03 18.11.14.047 28.626 11.394 28.766 11.44 2.29.777 22.472 9.51 27.107 20.462 4.903 11.577-15.987 16.188-34.784 16.653-24.913.618-61.95-.73-96.348-5.406-5.52-.751-7.917-7.467-3.828-10.683 7.024-5.523 15.216-12.864 18.23-19.067 3.783-7.788 3.66-16.666 1.358-25.197-1.293-4.79 3.632-8.196 8.47-6.312"
    fill="#1d1d1b" />
  <path
    d="M1567.925 1083.92s-53.939 1.437-68.07 47.041l-52.462 6.676 24.797 7.272-14.933 7.87s8.166 5.551 10.827 5.826c2.661.275-51.57 115.02 58.382 189.597 109.95 74.577 190.33-19.98 190.33-19.98"
    fill="none" stroke="#1d1d1b" stroke-width="7.999979999999999" stroke-linecap="round" stroke-linejoin="round"
    stroke-miterlimit="10" />
  <path
    d="M1497.884 1423.018s-37.607-.45-80.879-37.13c-43.272-36.677-75.853-92.197-47.76-110.283 28.094-18.083 38.6 23.825 58.67 50.301 18.922 24.95 32.964 42.103 46.314 30.036 15.533-14.037-6.879-60.25 5.899-99.27 12.778-39.02 29.64-46.016 46.062-42.3 16.427 3.717 27.575 32.437 14.614 66.731-12.96 34.296-24.763 57.379-11.234 63.1 13.527 5.72 61.335-20.936 75.464-47.042 14.133-26.107 27.62-39.503 45.767-32.918 18.146 6.583 34.241 39.467 4.94 69.238-29.303 29.77-96.608 88.927-157.857 89.538M1469.722 578.337s-26.431-94.689-126.855-116.164c-100.423-21.474-130.292-141.3-70.916-196.46 59.376-55.16 118.842-33.358 118.842-33.358s4.339.614 3.894-2.369c-.447-2.981-8.851-21.459-.074-24.83 8.776-3.373 13.451 6.16 9.634 22.395 0 0-1.423 5.232 15.736-7.42 17.157-12.654 24.349-6.774 18.88-.126-5.466 6.65-23.495 15.546-23.495 15.546s183.546 27.79 315.373 305.061c0 0-7.076 6.768-2.832 16.01 4.242 9.243-5.716 12.29-13.464 7.74-7.747-4.553-14.087-4.883-12.854 2.663 1.23 7.547-7.832 10.847-16.673 2.27-8.839-8.578-8.804-13.791-10.01-5.356-1.21 8.434-1.385 54.72-8.34 57.097-6.955 2.378-34.083-36.947-35.666-35.4-1.587 1.548-6.123 22.681-8.365 27.34-2.243 4.66-2.646-2.8-4.506-1.852-1.858.95-4.652 2.826-5.165 4.544-.512 1.717-10.52 15.762-17.941 5.62-7.42-10.143-13.893-21.328-17.119.92-3.222 22.246-9.652 33.321-20.504 19.073-10.853-14.248-8.709-22.83-15.572-22.153-6.862.676-10.392-8.168-10.082-13.598.31-5.429-21.11-14.003-27.742 5.527-6.633 19.53-14.172 29.187-23.489 26.021 0 0 2.443-32.518-1.565-33.504-4.007-.985-16.827 15.95-20.021 12.766-3.192-3.184-7.924-15.004-3.49-20.579 4.434-5.573 13.54-12.538 13.267-12.322-.275.216-24.363 1.23-23.405-6.414.96-7.646 6.93-1.322 24.52 1.312"
    fill="#9c9b9b" />
  <path
    d="M1469.722 578.337s-26.431-94.689-126.855-116.164c-100.423-21.474-130.292-141.3-70.916-196.46 59.376-55.16 118.842-33.358 118.842-33.358s4.339.614 3.894-2.369c-.447-2.981-8.851-21.459-.074-24.83 8.776-3.373 13.451 6.16 9.634 22.395 0 0-1.423 5.232 15.736-7.42 17.157-12.654 24.349-6.774 18.88-.126-5.466 6.65-23.495 15.546-23.495 15.546s183.546 27.79 315.373 305.061c0 0-7.076 6.768-2.832 16.01 4.242 9.243-5.716 12.29-13.464 7.74-7.747-4.553-14.087-4.883-12.854 2.663 1.23 7.547-7.832 10.847-16.673 2.27-8.839-8.578-8.804-13.791-10.01-5.356-1.21 8.434-1.385 54.72-8.34 57.097-6.955 2.378-34.083-36.947-35.666-35.4-1.587 1.548-6.123 22.681-8.365 27.34-2.243 4.66-2.646-2.8-4.506-1.852-1.858.95-4.652 2.826-5.165 4.544-.512 1.717-10.52 15.762-17.941 5.62-7.42-10.143-13.893-21.328-17.119.92-3.222 22.246-9.652 33.321-20.504 19.073-10.853-14.248-8.709-22.83-15.572-22.153-6.862.676-10.392-8.168-10.082-13.598.31-5.429-21.11-14.003-27.742 5.527-6.633 19.53-14.172 29.187-23.489 26.021 0 0 2.443-32.518-1.565-33.504-4.007-.985-16.827 15.95-20.021 12.766-3.192-3.184-7.924-15.004-3.49-20.579 4.434-5.573 13.54-12.538 13.267-12.322-.275.216-24.363 1.23-23.405-6.414.96-7.646 6.93-1.322 24.52 1.312z"
    fill="none" stroke="#fff" stroke-width="7.999979999999999" stroke-linecap="round" stroke-linejoin="round"
    stroke-miterlimit="10" />
  <path
    d="M1357.761 466.919l-.608 27.8 18.944-25.904s.378-8.534-16.78-8.418c0 0-15.462-30.887-57.226-6.191 0 0-14.181 23.767 13.544 49.454z"
    fill="#fff" />
  <path
    d="M1357.761 466.919l-.608 27.8 18.944-25.904s.378-8.534-16.78-8.418c0 0-15.462-30.887-57.226-6.191 0 0-14.181 23.767 13.544 49.454z"
    fill="none" stroke="#fff" stroke-width="2.66666" stroke-miterlimit="10" />
  <path
    d="M1298.628 437.672s-18.784 4.887 3.584 18.922c0 0 5.003-5.566 10.44-3.266 5.438 2.3 19.16-2.133 20.715-10.392 1.554-8.257-13.743-12.412-17.419-9.15-3.677 3.265-17.32 3.886-17.32 3.886"
    fill="#fff" />
  <path
    d="M1298.628 437.672s-18.784 4.887 3.584 18.922c0 0 5.003-5.566 10.44-3.266 5.438 2.3 19.16-2.133 20.715-10.392 1.554-8.257-13.743-12.412-17.419-9.15-3.677 3.265-17.32 3.886-17.32 3.886z"
    fill="none" stroke="#fff" stroke-width="3.9999899999999995" stroke-linecap="round" stroke-linejoin="round"
    stroke-miterlimit="10" />
  <path
    d="M1415.504 318.531c-1.797 17.37-17.333 29.996-34.704 28.199-17.37-1.798-29.995-17.335-28.199-34.704 1.798-17.37 17.335-29.995 34.707-28.197 17.368 1.796 29.993 17.333 28.196 34.704" />
  <path d="M1390.256 315.92a6.236 6.236 0 11-12.407-1.283 6.237 6.237 0 0112.407 1.284" fill="#fff" />
  <path
    d="M1384.052 315.278l-280.82 277.1 9.687-44.889-38.453 64.604 3.768-36.422c-.155 1.496-51.821 91.46-51.821 91.46L737.544 953.937l8.758-138.274-50.014 176.366-8.914-50.341-22.675 92.458-374.944 368.167s38.057-94.902 37.696-91.409c-.36 3.494-78.679 78.094-78.679 78.094l-3.372-123.394-27.58 95.987-63.158-154.793-8.93 144.813s-93.577-104.485-86.66-273.711c0 0-165.848 329.283 61.37 518.192 227.22 188.909 528.372 27.09 528.372 27.09l-122.52 1.446s127.475-29.844 151.86-57.578c0 0-126.147 29.982-206.137-9.222l154.224-34.91-273.58-13.746 84.533-43.7-118.415-12.25 93.8-48.793-104.192 12.755 395.985-396.078 140.277-56.089-95.955 17.642 61.66-30.603-42.14 4.383 271.47-277.848s132.202-49.528 131.995-47.532c-.206 1.996-87.952 11.747-87.952 11.747l49.459-23.124-31.084 1.49z"
    fill="#fff" />
  <path
    d="M1384.052 315.278l-280.82 277.1 9.687-44.889-38.453 64.604 3.768-36.422c-.155 1.496-51.821 91.46-51.821 91.46L737.544 953.937l8.758-138.274-50.014 176.366-8.914-50.341-22.675 92.458-374.944 368.167s38.057-94.902 37.696-91.409c-.36 3.494-78.679 78.094-78.679 78.094l-3.372-123.394-27.58 95.987-63.158-154.793-8.93 144.813s-93.577-104.485-86.66-273.711c0 0-165.848 329.283 61.37 518.192 227.22 188.909 528.372 27.09 528.372 27.09l-122.52 1.446s127.475-29.844 151.86-57.578c0 0-126.147 29.982-206.137-9.222l154.224-34.91-273.58-13.746 84.533-43.7-118.415-12.25 93.8-48.793-104.192 12.755 395.985-396.078 140.277-56.089-95.955 17.642 61.66-30.603-42.14 4.383 271.47-277.848s132.202-49.528 131.995-47.532c-.206 1.996-87.952 11.747-87.952 11.747l49.459-23.124-31.084 1.49z"
    fill="none" stroke="#fff" stroke-linecap="round" stroke-linejoin="round" stroke-miterlimit="10"
    stroke-width="1.33333" />
  <path
    d="M28.765 1270.913s-83.184 239.285 67.72 349.53c150.905 110.247 363.421 62.906 363.421 62.906l-110.485-26.61 135.613-30.57-207.083-28.377 118.286-41.136-160.203 17.917 64.823-79.047-91.733 24.022 63.78-50.79-71.921 9.26 31.079-64.559-51.963 65.52s-11.69-131.04-13.88-125.878c-2.188 5.162-26.975 135.571-26.975 135.571L118.27 1374.93l-11.74 74.853s-87.739-80.839-77.764-178.87" />
  <path
    d="M38.578 1448.082s-27.68 96.962 28.236 156.026c55.917 59.058 241.613 53.032 241.613 53.032l-123.787-46.453s56.392-13.796 54.398-14.003c-1.996-.205-69.214-6.599-70.33-8.957-1.117-2.359 37.382-52.776 37.611-54.995.23-2.22-69.635 10.181-69.635 10.181l22.284-44.803-48.618 26.377-3.827-65.376s-19.685 48.924-17.69 49.13c1.997.206-39.782-10.285-50.255-60.16M1324.003 329.214l-274.565 39.922 61.887 300.222-208.65 35.042-56.47 234.823-220.14-85.573-16.567 316.506-226.546-40.434-67.025 171.027 78.689-152.797 234.453 43.729 14.366-317.126 218.35 87.203 61.843-239.71 220.47-27.44-54.213-280.985zM1374.028 295.046c.25.027 7.604-2.827 7.604-2.827l-.801 13.448zM1388.46 322.494l6.4 10.353c-.2 0-5.641 3.94-5.641 3.94M1393.083 311.895l7.516-4.805c0 .157 2.62 4.625 2.62 4.625M1374.637 317.598l-7.426 4.937c0-.16-2.703-4.578-2.703-4.578M1966.644 4.95c-13.787 15.489-70.893 64.611-75.54 119.264-4.647 54.655 31.187 192.5 16.987 219.27l-24.799-7.272 21.736 27.127-24.212 6.573 28.893 6.686s-38.482 63.257-60.195 68.408c0 0 15.806 9.702 24.27 5.872 8.467-3.831 41.395-58.92 49.035-54.77 7.64 4.152 15.576 8.672 15.576 8.672l-.264-20.198 12.973 1.341-6.63-17.159 20.175-13.04-17.297-1.79s54.356-63.968 64.254-146.653c9.9-82.688-19.475-230.96-44.962-202.33"
    fill="#fff" />
  <path
    d="M1966.644 4.95c-13.787 15.489-70.893 64.611-75.54 119.264-4.647 54.655 31.187 192.5 16.987 219.27l-24.799-7.272 21.736 27.127-24.212 6.573 28.893 6.686s-38.482 63.257-60.195 68.408c0 0 15.806 9.702 24.27 5.872 8.467-3.831 41.395-58.92 49.035-54.77 7.64 4.152 15.576 8.672 15.576 8.672l-.264-20.198 12.973 1.341-6.63-17.159 20.175-13.04-17.297-1.79s54.356-63.968 64.254-146.653c9.9-82.688-19.475-230.96-44.962-202.33z"
    fill="none" stroke="#fff" stroke-width="2.66666" stroke-linecap="round" stroke-linejoin="round"
    stroke-miterlimit="10" />
  <path
    d="M1159.407 1024.304s-26.873 6.297-31.072-6.745c-4.198-13.04 6.279-33.893 6.279-33.893l-10.812 9.472.344-20.387-10.083 21.9s-13.325-51.553-28.826-79.632c-15.502-28.079-1.91-69.284-14.082-78.36-12.173-9.076-38.367-11.785-41.394 34.548-3.03 46.333 2.76 97.613 69.172 140.537 0 0 3.005 7.493-.364 13.26-3.37 5.77-14.932 7.85-14.932 7.85s22.238 6.84 32.053-2.735c0 0 20.972 11.752 34.745 5.36z"
    fill="#fff" />
  <path
    d="M1159.407 1024.304s-26.873 6.297-31.072-6.745c-4.198-13.04 6.279-33.893 6.279-33.893l-10.812 9.472.344-20.387-10.083 21.9s-13.325-51.553-28.826-79.632c-15.502-28.079-1.91-69.284-14.082-78.36-12.173-9.076-38.367-11.785-41.394 34.548-3.03 46.333 2.76 97.613 69.172 140.537 0 0 3.005 7.493-.364 13.26-3.37 5.77-14.932 7.85-14.932 7.85s22.238 6.84 32.053-2.735c0 0 20.972 11.752 34.745 5.36z"
    fill="none" stroke="#fff" stroke-width="2.66666" stroke-linecap="round" stroke-linejoin="round"
    stroke-miterlimit="10" />
  <path d="M1044.658 863.671c-.085.835-6.41 71.073 40.217 115.775" fill="none" stroke="#1d1d1b"
    stroke-width="7.999979999999999" stroke-linecap="round" stroke-miterlimit="10" />
  <path d="M1930.815 329.527s23.633-59.366 17.013-92.354c-6.62-32.987-18.333-58.264-12.61-82.507" fill="none"
    stroke="#1d1d1b" stroke-width="7.999979999999999" stroke-linecap="round" stroke-linejoin="round"
    stroke-miterlimit="10" />
</svg>
