<svg xmlns="http://www.w3.org/2000/svg" viewBox="0 0 2598.17 3331.14">
  <path
    d="M732.25 2826.09c-12.5 0-18 11.53-19 20.08h36.09c.14-7.86-3.24-20.08-17.13-20.08M808.39 2827.07c-8.43 0-16.29 5.77-18.82 15.18a24.84 24.84 0 00-.7 5v12.21a23.09 23.09 0 00.56 4.49c2.39 8.58 9.54 14.47 18.53 14.47 12.92 0 20.66-10.54 20.66-26.12 0-13.61-7-25.28-20.23-25.28M606.37 2867.38c0 8 5.32 11.8 11.65 11.8a16.91 16.91 0 0016.43-11.38 12.89 12.89 0 00.69-3.94v-11.78c-13.48-.29-28.78 2.1-28.78 15.3M427.21 2803.48c-10.81 0-18.68 13.2-18.68 38 0 23.74 7.31 37.22 18.54 37.22 12.64 0 18.68-14.76 18.68-38.06 0-22.46-5.76-37.21-18.54-37.21M863.63 2867.38c0 8 5.33 11.8 11.66 11.8a16.91 16.91 0 0016.43-11.38 12.8 12.8 0 00.69-3.94v-11.78c-13.48-.29-28.78 2.1-28.78 15.3" />
  <path
    d="M1120.09 2677H335.4a27.63 27.63 0 00-27.74 27.52v264.76a27.64 27.64 0 0027.74 27.53h784.69a27.64 27.64 0 0027.74-27.53v-264.76a27.63 27.63 0 00-27.74-27.52m-693.72 211.3c-17.84 0-29.91-16.7-30.2-46.91 0-30.6 13.21-47.46 31.75-47.46 19.23 0 30.18 17.13 30.18 46.21 0 31-11.52 48.16-31.73 48.16m86.12-1.54l-10-15.31c-2.67-3.93-4.92-7.72-7.3-11.79h-.28c-2.25 4.2-4.64 7.72-7.17 11.79l-9.74 15.31h-13.68l24.16-34.68-23-33.29h13.77l9.69 14.61c2.54 3.79 4.65 7.3 6.88 11.09h.42c2.25-4.07 4.5-7.58 6.74-11.23l9.55-14.47h13.33l-23.16 32.86 23.88 35.11zm55.08-8.43a35 35 0 0015.16-3.37l2.11 9.27c-3.24 1.68-10.39 4.07-19.53 4.07-20.5 0-33.83-14-33.83-34.83s14.32-36.09 36.51-36.09a41.41 41.41 0 0117.12 3.51l-2.8 9.55c-2.95-1.68-7.59-3.22-14.32-3.22-15.58 0-24 11.52-24 25.69 0 15.73 10.11 25.42 23.59 25.42m69.4 8.43l-1-8.56h-.42c-3.79 5.34-11.09 10.11-20.79 10.11-13.76 0-20.78-9.68-20.78-19.52 0-16.43 14.6-25.41 40.86-25.28v-1.4c0-5.62-1.54-15.73-15.44-15.73a33.87 33.87 0 00-17.7 5.05l-2.81-8.14c5.62-3.64 13.76-6 22.32-6 20.79 0 25.84 14.18 25.84 27.79v25.42a96.36 96.36 0 001.12 16.29zm60-58.55h-16.43v58.55h-12.22v-58.56h-9.55v-9.41h9.55v-3.23c0-9.55 2.1-18.25 7.87-23.73a23.62 23.62 0 0116.57-6.32 28.63 28.63 0 0110.53 2l-1.68 9.55a18.54 18.54 0 00-7.87-1.55c-10.53 0-13.19 9.28-13.19 19.67v3.64H697zm63.91 26.79h-47.75c.29 16.73 11 23.61 23.31 23.61 8.85 0 14.18-1.54 18.82-3.52l2.1 8.84c-4.35 2-11.8 4.35-22.6 4.35-20.92 0-33.42-13.9-33.42-34.4s12.07-36.65 31.87-36.65c22.19 0 28.08 19.52 28.08 32a47.26 47.26 0 01-.42 5.74m49.6 33.29c-9.82 0-17.69-3.79-22.74-12.77h-.42l-.56 11.23h-10.67c.28-4.63.57-11.52.57-17.55V2787h12.21v42.7h.29c4.35-7.58 12.22-12.49 23.17-12.49 16.85 0 28.79 14 28.64 34.68 0 24.3-15.3 36.37-30.47 36.37m83.75-1.54l-1-8.56h-.43c-3.79 5.34-11.09 10.11-20.78 10.11-13.76 0-20.78-9.68-20.78-19.52 0-16.43 14.6-25.41 40.87-25.28v-1.4c0-5.62-1.55-15.73-15.45-15.73a33.89 33.89 0 00-17.7 5.05l-2.8-8.14c5.62-3.64 13.76-6 22.32-6 20.78 0 25.84 14.18 25.84 27.79v25.42a96.78 96.78 0 001.12 16.29zm63.92 1.54c-9.82 0-17.69-3.79-22.74-12.77H935l-.56 11.23h-10.68c.28-4.63.57-11.52.57-17.55V2787h12.21v42.7h.29c4.34-7.58 12.21-12.49 23.16-12.49 16.86 0 28.79 14 28.65 34.68 0 24.3-15.3 36.37-30.47 36.37M1058.9 2855h-47.75c.29 16.73 11 23.61 23.31 23.61 8.85 0 14.17-1.54 18.82-3.52l2.1 8.84c-4.35 2-11.8 4.35-22.61 4.35-20.92 0-33.42-13.9-33.42-34.4s12.08-36.65 31.87-36.65c22.18 0 28.09 19.52 28.09 32a46.3 46.3 0 01-.42 5.74" />
  <path
    d="M1030.26 2826.09c-12.5 0-18 11.53-19 20.08h36.09c.14-7.86-3.24-20.08-17.13-20.08M956.06 2827.07c-8.42 0-16.3 5.77-18.82 15.18a24.91 24.91 0 00-.7 5v12.21a23.39 23.39 0 00.56 4.49c2.39 8.58 9.54 14.47 18.53 14.47 12.92 0 20.65-10.53 20.65-26.12 0-13.61-7-25.28-20.23-25.28M674.52 3199.1c0 7.51 5 11.07 10.93 11.07a15.85 15.85 0 0015.41-10.67 12 12 0 00.66-3.69v-11.06c-12.65-.27-27 2-27 14.35M757.68 3161.16c-12 0-19.1 10.54-19.1 24.64 0 12.9 6.32 23.57 18.83 23.57 7.78 0 14.89-5.13 17-13.83a20.13 20.13 0 00.52-5v-11.07a20.31 20.31 0 00-.52-4.87 17 17 0 00-16.72-13.44M536 3199.1c0 7.51 5 11.07 10.93 11.07a15.86 15.86 0 0015.41-10.67 12.08 12.08 0 00.65-3.69v-11.06c-12.64-.27-27 2-27 14.35M899.62 3161.16c-12 0-19.1 10.54-19.1 24.64 0 12.9 6.32 23.57 18.83 23.57 7.78 0 14.89-5.13 17-13.83a20.08 20.08 0 00.52-5v-11.07a20.26 20.26 0 00-.52-4.87 17 17 0 00-16.72-13.44M425 3139.16c-10.13 0-17.52 12.39-17.52 35.7 0 22.26 6.85 34.91 17.39 34.91 11.85 0 17.51-13.84 17.51-35.69 0-21.08-5.4-34.91-17.38-34.91M622.71 3161.29c-7.91 0-15.29 5.4-17.66 14.23a23.44 23.44 0 00-.65 4.74v11.46a22 22 0 00.52 4.21c2.24 8 9 13.57 17.39 13.57 12.12 0 19.37-9.87 19.37-24.49 0-12.78-6.58-23.72-19-23.72" />
  <path
    d="M1120.09 3011.33H335.4a27.63 27.63 0 00-27.74 27.53v264.76a27.63 27.63 0 0027.74 27.53h784.69a27.64 27.64 0 0027.74-27.53v-264.76a27.64 27.64 0 00-27.74-27.53m-695.86 207.39c-16.73 0-28.06-15.67-28.32-44 0-28.72 12.39-44.52 29.77-44.52 18 0 28.31 16.07 28.31 43.34 0 29.11-10.8 45.17-29.76 45.17m80.78-1.44l-9.35-14.37c-2.51-3.69-4.61-7.24-6.85-11.05h-.26c-2.11 3.95-4.35 7.24-6.72 11.05l-9.22 14.37h-12.78l22.67-32.53-21.61-31.22h12.91l9.09 13.69c2.38 3.56 4.35 6.85 6.46 10.4h.39c2.12-3.82 4.22-7.11 6.33-10.53l9-13.57h12.51l-21.73 30.82 22.4 32.93zm59.7 0l-.93-8h-.4a23.73 23.73 0 01-19.49 9.48c-12.9 0-19.49-9.08-19.49-18.31 0-15.41 13.69-23.84 38.33-23.71v-1.31c0-5.28-1.45-14.76-14.49-14.76a31.83 31.83 0 00-16.6 4.74l-2.63-7.64c5.27-3.42 12.9-5.66 20.93-5.66 19.5 0 24.24 13.3 24.24 26.08V3202a90.33 90.33 0 001.05 15.29zm60 1.44c-9.21 0-16.59-3.55-21.33-12H603l-.53 10.54h-10c.26-4.35.54-10.8.54-16.47v-77.06h11.39v40h.27c4.08-7.11 11.46-11.72 21.73-11.72 15.81 0 27 13.17 26.87 32.53 0 22.79-14.35 34.11-28.59 34.11m78.55-1.44l-.92-8h-.39a23.73 23.73 0 01-19.5 9.48c-12.9 0-19.49-9.08-19.49-18.31 0-15.41 13.7-23.84 38.33-23.71v-1.31c0-5.28-1.45-14.76-14.49-14.76a31.83 31.83 0 00-16.6 4.74l-2.63-7.64c5.27-3.42 12.91-5.66 20.94-5.66 19.49 0 24.24 13.3 24.24 26.08V3202a90.86 90.86 0 001 15.29zm73.41 0l-.53-11.07h-.27c-3.55 7.12-11.33 12.51-21.73 12.51-15.42 0-27.27-13-27.27-32.4-.14-21.21 13-34.25 28.59-34.25 9.74 0 16.33 4.61 19.23 9.75h.25v-38.08h11.6v77.06c0 5.67.13 12.12.53 16.47zm61.81 0h-11.2v-74.82H827l-14.89 8-2.24-8.82 18.71-10h9.87zm80.13 0l-.53-11.07h-.27c-3.55 7.12-11.32 12.51-21.73 12.51-15.42 0-27.27-13-27.27-32.4-.14-21.21 13-34.25 28.58-34.25 9.75 0 16.34 4.61 19.23 9.75h.26v-38.08h11.6v77.06c0 5.67.13 12.12.52 16.47zm80.42-29.7h-44.82c.27 15.68 10.28 22.14 21.87 22.14 8.3 0 13.3-1.45 17.66-3.3l2 8.29c-4.09 1.84-11.07 4.08-21.2 4.08-19.63 0-31.35-13-31.35-32.27s11.32-34.38 29.9-34.38c20.81 0 26.34 18.31 26.34 30a44.32 44.32 0 01-.4 5.39m50.08 29.78l-.92-8h-.4a23.74 23.74 0 01-19.5 9.48c-12.91 0-19.49-9.08-19.49-18.31 0-15.41 13.7-23.84 38.33-23.71v-1.31c0-5.28-1.45-14.76-14.49-14.76a31.84 31.84 0 00-16.6 4.74l-2.63-7.64c5.27-3.42 12.91-5.66 20.94-5.66 19.5 0 24.24 13.3 24.24 26.08V3202a91 91 0 001 15.29z" />
  <path
    d="M972.1 3160.36c-11.72 0-16.86 10.81-17.78 18.85h33.85c.13-7.38-3-18.85-16.07-18.85M1020.34 3199.1c0 7.51 5 11.07 10.93 11.07a15.85 15.85 0 0015.41-10.67 12 12 0 00.66-3.69v-11.06c-12.65-.27-27 2-27 14.35M609.57 2511.67H645c.14-7.72-3.18-19.72-16.81-19.72-12.27 0-17.65 11.32-18.61 19.72M552.34 2492.79c-12.55 0-20 11-20 25.78 0 13.5 6.61 24.67 19.7 24.67 8.14 0 15.59-5.37 17.78-14.47a20.91 20.91 0 00.55-5.24v-11.58a21.08 21.08 0 00-.55-5.09 17.82 17.82 0 00-17.49-14.07M417.58 2543.65c12.4 0 18.33-14.48 18.33-37.35 0-22-5.65-36.53-18.2-36.53-10.6 0-18.32 13-18.32 37.35 0 23.3 7.17 36.53 18.19 36.53M765.4 2543.24a17.9 17.9 0 0010.78-3.6 85.85 85.85 0 01-12.44-15.34 266.82 266.82 0 01-12.74-24.2c-3.45 4.6-5.32 11.06-5.32 18.46 0 13.5 6.6 24.67 19.71 24.67M678.67 2532.49c0 7.86 5.23 11.58 11.43 11.58a16.59 16.59 0 0016.13-11.17 12.4 12.4 0 00.68-3.85v-11.58c-13.23-.28-28.24 2.07-28.24 15" />
  <path
    d="M531.38 2571.31l23.7-19.06a28.83 28.83 0 01-6.47.77c-16.12 0-28.53-13.64-28.53-33.9-.14-22.2 13.65-35.83 29.91-35.83 10.2 0 17.09 4.82 20.12 10.19h.27v-39.84h12.13v76.55l15.4-12.38c.56-19.43 12.27-34.52 31.23-34.52a29.46 29.46 0 019.74 1.57l85.58-68.86c-.3-1.51-.62-3.05-.89-4.54l-197.69-68.83h-99.19l69 150.78 5.71-8.65h13.08l-13.79 19.57zM823.48 2662.48l32.74-66.41c-24.91-13.1-49.22-29.34-67.15-44.56h-3.55l-.15-3.21q-2-1.81-3.95-3.59c-4.36 4.94-11.09 8.31-19.47 8.31-16.13 0-28.53-13.64-28.53-33.9-.08-13.57 5.05-23.92 12.76-29.93a375.55 375.55 0 01-20-64.73l-80.1 64.42c8 6.6 10.6 17.71 10.6 25.83a48 48 0 01-.41 5.65h-46.84c.28 16.41 10.76 23.17 22.89 23.17 8.68 0 13.92-1.51 18.47-3.45l2.06 8.68c-4.26 1.93-11.57 4.27-22.18 4.27-17.73 0-29.27-10.18-32.11-25.9l-16 12.87c.07 4.23.21 8.4.5 11.53h-10.88l-.14-3.06-141.79 114zm-132-170.24a33.29 33.29 0 00-17.37 5l-2.75-8c5.51-3.57 13.49-5.92 21.91-5.92 20.4 0 25.36 13.91 25.36 27.28v25a94.9 94.9 0 001.1 16h-11l-1-8.41h-.42c-3.73 5.25-10.88 9.92-20.4 9.92-13.49 0-20.39-9.5-20.39-19.15 0-16.13 14.33-25 40.11-24.83v-1.36c0-5.52-1.51-15.44-15.17-15.44M1701.07 2452.39c-8.48 22.51-11.49 43.09.48 49.64 11.44 6.25 21.28-14.88 29.76-37.39s20.71-35.93 9.21-44.43-31 9.68-39.45 32.18M1711.29 2398.5c-3 .12-11.17-5.9-11.17-5.9 6 24 32.21 17.37 31.28 7.72-.52-5.44-2.42-7.56-8-7.8s-7.88 5.82-12.15 6M1776.67 2449.19s-8.44-5.6-9.36-8.49c-1.3-4.07 3.61-8.34 1.49-13.46s-4.76-6.18-10.05-4.82c-9.39 2.42-6.64 29.3 17.92 26.77M1396.39 2680.09c-10.77-2-16.09-3-26.44-5.07a118.6 118.6 0 0026.42 14.88 124.73 124.73 0 0015.06-.51 107.56 107.56 0 01-15-9.3M1371.79 2538c3.78.54 6.44-1.15 8.08-5.15s1.61-9.5 0-16.64c-9.16-41.05-13.77-82.51-16.16-124.23l-38.71 12.66c12.53 32.37 20.75 68.43 27.82 102.94 4.05 19.79 10.84 29.2 19 30.38M1223.24 2438l-14.57 4.77 8.31 12.35h7c-.46-5.7-.68-11.41-.72-17.12" />
  <path
    d="M1292.56 2474.71c-3.76-9.65-8.55-15.23-14.48-16.31-3.16.32-5.05 2.72-5.7 7.12s-.42 10.07.76 16.9l.31 1.49 3.32 4.38h-2.42c8.49 41.15 19 80.56 38.43 118.25-2.19 7.61-3.87 13.59-5.17 18.68l19 2.85.57-1.92q23 4.66 46 8.89l178.1 26.67c-31.89-47.84-54.81-116.89-63.17-199.09l-.34-.1-18.08-32.52 13.58-49.58-53.75-10-15.84 5.19c.68 15.45 1.55 30.88 2.68 46.42 4 37.49 8.69 74.51 17.63 111.2 4.95 23.29 13.17 51 6.72 74.53-4.44 16.25-16.05 21.36-34.62 18.37-19-3.06-39.76-13.27-60.22-33.77-22.92-23-37.22-53.16-43.83-84.61a212.43 212.43 0 00-9.49-33M1197.81 2555.08l11.9 12.88 17.37 26.14 5.86 19.93 46.09 6.9c-26.8-39.2-39.95-86.05-49.89-132.65h-52.41a425.8 425.8 0 0021.08 66.8M952.79 2282.48c-1.53 26.12 14.81 36.83 24.66 38.66-.12-27.77.79-41.16 4.17-66.71-11-1-27.46 4.53-28.84 28.06M992.62 2256.83a727.474 727.474 0 00-3.73 67.89l24 10.2c1.54-7.63 2.71-16.73 3.34-30.47 1-22.54-3.19-42.23-23.59-47.63M831.16 2263.14a547 547 0 00-4 66.24q0 11.64.5 23l41.34 63.26-36.61-11.9a434.06 434.06 0 0018.48 78.11l305 36.69a492.16 492.16 0 01-19.29-91.46l-101.8-77.32-13.11-5.58-.1-.06-32.61-13.88c0 5.07 0 10.17.09 15.35a29.85 29.85 0 01-7.05-.5c-17.23-3.71-28.78-16.85-35-32.71zm126.78 110.37c29.88 5.82 45.89 8.12 69.36 10.32 1.06 9.48 1.71 14.27 3.24 23.91-23.43-1.54-39.4-3.46-69.24-8.59 2.14 13.94 3.43 21 6.49 35.36-4.78-.66-7.18-1-11.94-1.74-3.07-14.52-4.36-21.68-6.52-35.77l-4.6-.88c-13.11-2.56-23.77.42-19.12 24.22a85.4 85.4 0 005.59 18.26l-10.3 1.63a132.7 132.7 0 01-7.3-24.73c-2.5-13.14-2.57-26.44 1.26-35.21 4.76-10.89 14.93-12.69 27-10.08l4.1.88c-.87-8-1.23-12-1.81-19.81 4.78 1.08 7.19 1.61 12 2.62.58 7.77.94 11.7 1.8 19.62M1266.76 1621a3.92 3.92 0 10-3.92-3.92 3.92 3.92 0 003.92 3.92M1307.42 1648.65a3.92 3.92 0 10-3.92-3.92 3.92 3.92 0 003.92 3.92M1307.42 1614.59a3.92 3.92 0 10-3.92-3.92 3.92 3.92 0 003.92 3.92M1341.39 1597.18a3.92 3.92 0 10-3.92-3.92 3.92 3.92 0 003.92 3.92M1360.81 1621a3.92 3.92 0 10-3.92-3.92 3.92 3.92 0 003.92 3.92M647.29 1846.38l-37.63 10.61 15.92 11.04 21.71-5.52v-16.13zM550.32 1644.73l-45.59-13.53v89.93l29.67-34.73 15.92-41.67zM905.65 1512.52L782.6 1482.6l-31.1 87.09h91.19l62.96-57.17zM2118.31 1857.2l30.92-10.82 4.3-32.54-44.29 7.21 9.07 36.15zM2215.89 1682.51l29.3-23.72-22.19-27.59-7.11 51.31zM1481.09 1299.78l-24.64 14.97-7.72 81 32.36-40.5v-55.47zM1821.81 927.11l-21.71-18.51-28.98.38 7.02 36.27 43.67-18.14zM1696.25 498.56l-24.87-29.24 8.85 45.83 16.02-16.59zM1928.17 775.32a7.88 7.88 0 10-7.88-7.88 7.88 7.88 0 007.88 7.88M2139.39 1471.67a3.92 3.92 0 10-3.92-3.92 3.92 3.92 0 003.92 3.92M2125.38 1478.66a3.92 3.92 0 103.92-3.92 3.92 3.92 0 00-3.92 3.92M2125.38 1466.46a3.92 3.92 0 10-3.92-3.92 3.92 3.92 0 003.92 3.92M1784.89 2416.39a12.76 12.76 0 007.32 2.14c4.65 0 10.22-2 16.64-6a2.55 2.55 0 10-2.71-4.33c-5.76 3.6-13.64 7.21-18.39 4-7.66-5.18-5.93-25.3-4.61-32.61a2.55 2.55 0 00-5-.9c-.54 3-5 29.78 6.78 37.75M1692.28 2352a18.2 18.2 0 006.9 1.32c8.24 0 17.92-5.09 28.87-15.2a2.55 2.55 0 00-3.47-3.75c-12.59 11.63-22.8 16-30.38 12.9-13.91-5.63-15.67-34.36-15.68-34.65a2.51 2.51 0 00-2.69-2.41 2.55 2.55 0 00-2.41 2.69c.07 1.31 2 32.25 18.86 39.09M1315.88 478.75h25.72a2.55 2.55 0 100-5.11h-23.17v-4.32a2.55 2.55 0 00-5.11 0v6.88a2.55 2.55 0 002.55 2.55M1342.48 1240.47a2.55 2.55 0 00-3-4.11c-.37.27-37.66 27.22-80.27 13.61-38.77-12.39-69.85-53.38-92.36-121.85-18.64-56.68-104.39-47.6-105.25-47.51a2.55 2.55 0 00.57 5.07c.82-.1 82.48-8.7 99.82 44 23.07 70.15 55.28 112.25 95.72 125.14a87.61 87.61 0 0026.72 4.14c32.54 0 56.81-17.58 58.08-18.52M1271.14 962.58a2.55 2.55 0 00-2.69 1.28l-7.76 14.14a62.68 62.68 0 00-17.56-3.21 7.83 7.83 0 00-6.89 3c-3.71 4.69-2.18 13.44-1.47 16.57a3.87 3.87 0 00-2.55 1.08c-.17-.15-.32-.31-.5-.45-1.37-1.29-9.28-8.41-15.9-7.29a8.05 8.05 0 00-5.94 4.6 62.7 62.7 0 00-5.63 16.94h-16.15a2.55 2.55 0 00-1.54 4.59c.72.55 17 12.75 29.23 12.75a16.67 16.67 0 002-.12c5.48-.67 11.32-6.78 14.67-13.36 3.61 8.3 9.85 13.59 14 11.81s4.54-10 .93-18.35c-.36-.84-.76-1.64-1.17-2.42a30.51 30.51 0 005.33.5c7.09 0 14.65-2.19 17.72-6.46 7.32-10.17 4.11-32.53 4-33.48a2.55 2.55 0 00-2.07-2.14m-41.38 43.52c-1.78 6.9-8.24 14.76-12.57 15.3-5.86.72-14.36-3.28-20.65-7h9.89a2.55 2.55 0 002.54-2.27 57.28 57.28 0 015.45-17.45 3 3 0 012.24-1.89c3.26-.57 8.88 3.42 11.65 6.06l.27.22a3.82 3.82 0 011.44 2.22 19.64 19.64 0 00.09 3.14 15.22 15.22 0 01-.34 1.72m35.34-10.89c-2.55 3.54-12.55 5.43-19.46 3.67-2.39-.61-5.31-1.88-5.63-4.45a3.3 3.3 0 00-.06-.34c-1-3.7-1.77-10.53.29-13.13a2.9 2.9 0 012.55-1.06h.19a57.74 57.74 0 0117.93 3.62 2.55 2.55 0 003.21-1.13l4.76-8.68c.27 7.33-.3 16.68-3.77 21.5M1258.63 1021a2.55 2.55 0 00-2.55 2.55c0 5.76-3 8.18-5.47 9.21-3.54 1.45-8.22.8-10.43-1.44a2.55 2.55 0 00-3.64 3.58 14.12 14.12 0 0010 3.74 16 16 0 006-1.16c5.49-2.25 8.64-7.33 8.64-13.93a2.55 2.55 0 00-2.55-2.55M2283.67 2031.7c-13.58-12.8-28.23-18.82-43.52-17.92-61.24 3.64-111.06 117.66-111.06 254.17 0 96.56 25.64 179.71 65.31 211.85 11.41 9.24 23.39 13.89 35.75 13.89a51.44 51.44 0 0010.69-1.14c58.07-12.33 103.56-123.53 103.56-253.16 0-91.41-23.84-172.94-60.73-207.7m-132.51 363.14c-10.85-36-17-79.78-17-126.89 0-64.77 11.3-126.51 31.83-173.93a2.57 2.57 0 001.11.18c9.18-.76 18.1 2.77 26.46 10.47 23.64 21.79 38.92 73.44 38.92 131.59 0 81.63-29.62 153.33-66 159.83a29.6 29.6 0 01-15.15-1.23h-.17m88.61 92.72c-14.55 3.09-28.74-.85-42.16-11.72-18.4-14.9-33.67-41.31-44.63-75.18a34.46 34.46 0 008.22 1 35 35 0 006.17-.55c39.39-7 70.24-79.45 70.24-164.86 0-59.51-15.92-112.63-40.56-135.34-9-8.3-18.68-12.23-28.84-11.84 20-43.73 45.5-68.61 72.24-70.2a47.6 47.6 0 012.67-.08c12.88 0 25.33 5.58 37 16.61 35.92 33.85 59.13 113.91 59.13 204 0 125.19-44.64 236.51-99.52 248.16M1991.88 1354.65c27.43 10.13 28.28 45.52 28.64 60.64 0 1.21.05 2.27.09 3.17a2.55 2.55 0 002.55 2.45h.1a2.55 2.55 0 002.45-2.65c0-.87-.06-1.91-.09-3.08-.35-14.76-1.29-54-32-65.3a2.55 2.55 0 10-1.77 4.79M2019.37 1460.42a2.55 2.55 0 00-5-1.17c-5.51 23.45-2.7 43.2 7.92 55.59 9.38 10.94 24.61 16.46 45.36 16.46q4.9 0 10.21-.41a2.55 2.55 0 00-.39-5.09c-24.3 1.89-41.56-2.93-51.29-14.29-12.86-15-9.8-38.46-6.82-51.1M2069.38 1481.22a33.53 33.53 0 10-33.53-33.53 33.57 33.57 0 0033.53 33.53m0-61.95a28.42 28.42 0 11-28.42 28.42 28.45 28.45 0 0128.42-28.42" />
  <path
    d="M2059.83 1450.24h5.17v5.17a2.55 2.55 0 005.11 0v-5.17h5.17a2.55 2.55 0 100-5.11h-5.17V1440a2.55 2.55 0 00-5.11 0v5.17h-5.17a2.55 2.55 0 100 5.11M1841.84 1205.4c-1.66 7.21.16 13.78 4.07 14.68s8.43-4.21 10.1-11.41-.16-13.78-4.07-14.68-8.43 4.21-10.09 11.41" />
  <path
    d="M1832.22 1203.18c-3.65 15.81 2.64 30.8 14 33.43a15.58 15.58 0 003.51.4 17.54 17.54 0 006.59-1.32 2.55 2.55 0 10-1.92-4.73 11.51 11.51 0 01-7 .69c-8.49-2-13.16-14.47-10.2-27.31s12.63-22 21.14-20.08c6 1.4 10.38 8.09 11 17a2.58 2.58 0 002.73 2.36 2.55 2.55 0 002.36-2.73c-.82-11.24-6.7-19.74-15-21.65-11.38-2.63-23.61 8.1-27.26 23.9M1924.08 1199.16a7.06 7.06 0 10-7.06-7.06 7.06 7.06 0 007.06 7.06M1855.59 1177.81a7.06 7.06 0 10-7.06-7.06 7.06 7.06 0 007.06 7.06M1259.07 1182.92h13.49v13.49a2.55 2.55 0 005.11 0v-13.49h13.49a2.55 2.55 0 100-5.11h-13.49v-13.49a2.55 2.55 0 00-5.11 0v13.49h-13.49a2.55 2.55 0 100 5.11M967.55 1126a2.55 2.55 0 00-2.55 2.55v13.49h-13.5a2.55 2.55 0 100 5.11H965v13.49a2.55 2.55 0 105.11 0v-13.49h13.49a2.55 2.55 0 100-5.11h-13.5v-13.49a2.55 2.55 0 00-2.55-2.55M750.93 752.62l91.9 143.63a2.55 2.55 0 002.77 1.1c108.1-26.91 193.61-71.32 235-95.4a2.55 2.55 0 00.85-3.61L783 344.6a44.53 44.53 0 10-74.91 48.16l93.41 144.17a44.41 44.41 0 00-53 49.45 44.5 44.5 0 00-71.25 53L746 746.28a44.91 44.91 0 005 6.34m199.1-141.38a2.52 2.52 0 002.8 1l122.75 186.63C1033.95 823 950.81 865.66 846.14 892l-83.4-130.34a44.49 44.49 0 0064.81-45.22c0 .06.06.13.11.19a44.5 44.5 0 0078.08-27.15l52.19 87.16a2.55 2.55 0 004.38-2.62l-57.72-96.4a2.46 2.46 0 00-.38-.43 2.57 2.57 0 00-.28-.27 2.49 2.49 0 00-.41-.22 2.51 2.51 0 00-.45-.19 4 4 0 00-1 0h-.16a2 2 0 01-.56.18L815 716.19a39.42 39.42 0 01-32.89-71.65l115.49-53c18.9-8.68 38.51-1.3 52.47 19.72M832.18 713.94l68.25-31.33a39.4 39.4 0 01-68.25 31.33M712.35 390a39.42 39.42 0 1166.34-42.61l161.19 245.07c-13.35-10.42-29-12.64-44.37-5.58l-35.43 16.27-30-46.71a44.24 44.24 0 00-21-17.23zm58.93 157.35a39.46 39.46 0 0154.48 11.85l29.63 46.1L783 638.52l-23.59-36.7a39.47 39.47 0 0111.85-54.48m-95.08 59.58a39.42 39.42 0 0171.7-12.92L778 640.93a44.5 44.5 0 0039.13 79.9l5.48-2.52a39.42 39.42 0 01-72.39 25.21l-68.71-106.9a39.16 39.16 0 01-5.36-29.69M1776.18 1751.63c-10.33-.23-17.37 25.35-17.18 80.1-.19 54 6.49 79.62 17.37 79.38S1793 1884.17 1793 1831c0-51.71-5.66-79.13-16.84-79.38" />
  <path
    d="M2119.26 1926.4c-8-.45-16-.68-23.73-.68a343.09 343.09 0 00-56.8 4.52v-197a10.21 10.21 0 00-10.21-10.21h-17.83l-3.13-14c9.24-10.81 13.39-18.59 19.35-29.76 1.31-2.46 2.73-5.12 4.34-8.06 25.62-14 47.27-34.69 64.38-61.44a244.79 244.79 0 0024.52-51.46c.54-1.52 1-2.83 1.27-3.5 3.77-9.36 7.38-14.19 10.36-16.68l.28 2.45a10.21 10.21 0 0010.15 9h25a10.21 10.21 0 009.59-6.71q.44-1.21.93-2.49c.57-1.53 1.17-3.14 1.78-4.87h3.24a10.21 10.21 0 0010.13-8.9 297.12 297.12 0 002.13-31.44v-5h23.14a3.83 3.83 0 100-7.66h-23.41q-.24-4.13-.69-7.78h6.61a3.83 3.83 0 002.11-.63l8.81-5.8 8.24 5.74a3.84 3.84 0 002.19.69h7.84l8.61 6.81a3.83 3.83 0 004.83-.06l8.1-6.75h9.47a3.83 3.83 0 100-7.66h-10.85a3.83 3.83 0 00-2.45.89l-6.78 5.65-7.21-5.71a3.84 3.84 0 00-2.38-.83h-8l-9.38-6.54a3.83 3.83 0 00-4.3-.06l-10 6.6h-6.73c-1.92-8.74-5.09-14.86-9.62-18.62-10.22-8.47-20.17-9.58-26.76-10.31-1.1-.12-2.09-.23-3-.36-1.82-1.52-5.45-6.27-8.16-9.81-3.07-4-6.7-8.77-10.87-13.47 10.37-27 2.78-54-6.22-73 1.35-.63 2.69-1.27 4.13-1.85a2.55 2.55 0 00-1.92-4.74c-1.71.69-3.33 1.43-4.9 2.19a10.36 10.36 0 00-3.33-2.38c1.2-7.44 2.88-16.56 4.56-21.34a3.83 3.83 0 00-7.23-2.53c-1.77 5.05-3.47 14-4.73 21.67a125 125 0 00-10-14.33 2.55 2.55 0 00-3.91 3.28 122.32 122.32 0 0110.17 15 75.65 75.65 0 00-33.19 52.38 93.3 93.3 0 00-29.36 5.4c-4.83-33.2-20.71-51.69-34.07-61.6a79.83 79.83 0 00-29.6-13.66l4-17a3.81 3.81 0 00-.58-3 40.26 40.26 0 004 .23c40.45 0 113.6-49.82 153.49-104.53 12.11-16.61 20.76-32.92 26-48.65l52-54.54a3.83 3.83 0 00-5.54-5.29l-42.42 44.49c3.07-15.84 2.49-31-2-45-.6-1.87-1.27-3.73-1.93-5.58l29.77-32.59a3.83 3.83 0 10-5.65-5.17l-27.17 29.74c-33.07-82.56-120-155.63-136.68-169.13l-.13-.46c-.7-3.35-1.39-6.31-2-8.57a34.59 34.59 0 01-.85-6.2c-.32-4.05-.68-8.64-3.55-12.65a18.29 18.29 0 00-5-4.78 14.05 14.05 0 002.6-8.45c0-7.85-6.38-16.31-20.39-16.31a38.43 38.43 0 00-18.41 5c-5.89 3.29-10.33 8.48-13.3 15.48-3.11-1.86-6.38-3.8-9.17-5.42.16-12.32 1-25.24 1.84-38.84 2.31-36.45 4.69-74.13-4.93-109.31-1.12-4.11-2.43-8.08-3.85-12 6-9.39 9.1-17.57 5.69-20.76-3.59-3.34-8.84-2.39-14.64 1.13-13.24-23.74-33.4-42.44-61-56.57-.58-6.09-1.34-12.32-2.33-18.44l36.09-36.09c-4.12-.3-8.33-.59-12.66-.86l-25.57 25.57c-.67-3.07-1.41-6.07-2.23-9l17.22-17.22c-4.2-.23-8.52-.44-12.89-.64l-7.7 7.7a74.67 74.67 0 00-3.49-7.71l.44-.44h-.7c-5.52-10.26-13-16.9-23-16.9-8.74 0-19.87 4.62-28.9 15.64l-9.07-.08-39.1 39.1a109.35 109.35 0 00-13.53 2.33l41.47-41.47h-13.56l-41.7 41.7c3.85.1 7.76.19 11.7.27-17.86 4.71-28.93 13.12-38.42 20.34-7.51 5.72-13.44 10.24-21.44 12.1a6 6 0 01-1.31.11 57.46 57.46 0 01-9.16-1.31 94.77 94.77 0 00-18.34-2.2 50 50 0 00-32.23 11.35c.15-2.64.45-5.71.71-8.29 1.07-10.79 2.51-25.58-1.5-39.67q3.11.4 6.4.78l30.94-30.94c-5.11.39-10.05.81-14.79 1.25l-24.15 24.15a50.53 50.53 0 00-3.63-7.56l15.46-15.22c-5.5.6-10.65 1.23-15.44 1.9l-5.64 5.64a53.72 53.72 0 00-13.12-10.49 36.33 36.33 0 00-18.35-5.1 37.35 37.35 0 00-14.45 3c-6.33-45-21.16-74.13-44.24-87v-359.4l.08-4.4.7-44.48h-44.49c-147 0-266.11 119.14-266.14 266.15h.27v269h61.35c-.84 23.89-1.7 42.74-2.52 52.43q-6.72 2.66-13 5.66h-1.71c-13.65 0-49.33 2.59-85.84 26.59-31.76 20.87-55.08 51.73-69.53 91.91L846.12 380.17h236.48v225h87.52V147h-87.52v145.66H828.69C848.3 215.36 918 158.14 1001.41 158V70.5c-131.47 0-240.59 95.37-262.07 220.73a77.6 77.6 0 00-60.78 38l-1 1.43c-12.66 15.9-20.12 43-20.46 74.32-.32 29.15 5.69 56.55 15.69 71.51 4.61 6.89 25.49 39.12 35.18 54.09l-17 6.26-.51.2a96.42 96.42 0 00-35.16 28.36l-.1.13-1.32 1.81c-28.64 39.7-41.73 111.91-15.62 156.19l.25.4 176.34 269.95a10.21 10.21 0 0011.11 4.3 992.66 992.66 0 00108.31-34.85c25.06 40.59 70 113.82 112.32 184.64-10.12 18.43-26.53 35.6-43.83 53.69-22.08 23.1-44.92 47-60.12 78-17.58 35.89-21.21 74.73-11.1 118.73 19.3 84 63.94 115.77 93.48 136.77 21.83 15.52 24.91 19.35 22 27.31-3.23 8.74-8.66 13.36-15.69 13.36a17.62 17.62 0 01-12.61-5.57 11.94 11.94 0 01-3.35-8.84 10.35 10.35 0 00.07-1.19 10.21 10.21 0 00-9.73-10.2h-.5a10.22 10.22 0 00-8.83 5.1 10.13 10.13 0 00-1 2.56c-2.57 9.39.11 20 7.59 29.9 10.69 14.17 33.89 29.31 67 29.31 26.49 0 67.79-10 114.16-57.51 3.58-3.67 8.83-11 17.11-22.54 7-9.85 20.2-28.28 28.17-36.67a615.65 615.65 0 0029.78 39.66 10.21 10.21 0 00-4.84 4l-28.2 44.34a163 163 0 00-17 12c-7.14-5.48-13.85-8.16-20.39-8.16a22.29 22.29 0 00-4.83.52 22.79 22.79 0 00-15.27 11c-3 5.23-3.87 11.25-3.79 16.69h-.31c-13.39 0-19.51 7.2-22 11.49-8.3 14.46 0 34.85 5.33 45.08-5.76 14.59-9.12 31.66-9.78 49.81l-72.91 114.64-10.56 5.3-10.44-43.13a5.11 5.11 0 00-9.93 2.4l12 49.38a5.11 5.11 0 007.25 3.36l1.05-.53-28.17 44.3-122.74-1.75 13-32.56-73.82-21.64 26.05 49-1 4.73-591.9-8.45h-.15a10.21 10.21 0 00-7.38 3.15L215.47 1950a10.21 10.21 0 00-2.83 7.06v210.49a10.21 10.21 0 009.51 10.19l26.5 1.83a433.45 433.45 0 00-10.48 95.31v1.91c.37 85.78 25.46 163 69.49 215.83V2635a27.64 27.64 0 0027.74 27.53H418l109.25-87.86-30-65.41-5.54 7.85 23.43 34.45h-13.7l-9.78-15c-2.63-3.86-4.83-7.58-7.17-11.57h-.27c-2.2 4.13-4.55 7.58-7 11.57l-9.64 15h-13.43l23.71-34-22.61-32.67h13.51l9.51 14.33c2.48 3.73 4.55 7.17 6.76 10.89h.41c2.21-4 4.41-7.44 6.63-11l.34-.52-59-128.92-22.31 14.88-31.28-41.76H335.4a27.63 27.63 0 00-27.74 27.52v101.24c-35.34-49.48-56.73-119.1-56.73-196.58a418.85 418.85 0 0112.46-102L511.21 2190l16 18.72 7.24-14.47-1.53-2.75 306.94 21.18q-4.91 22-8 45.22l112.89 48a83.36 83.36 0 01-3.28-24.59c.52-28.71 23.42-52.75 53-45.28 29.4 7.42 33.9 42.06 31.93 67.08-1.21 15.41-2.46 27.62-3.83 35.93l22.79 9.7 61.13 18.81 26.07-15.27a608.59 608.59 0 0112.44-118.56l30.66 2.12a615.89 615.89 0 00-12.75 125.47q0 30.26 2.79 58.66l20.27-10.87 19.71 29.26 17.55-5.75a213 213 0 018.34-56.61c8.89-30.34 22.95-47.33 38.57-44.72 25.81 4.31 39.62 38.49 48.61 58.49 1.49 3.32 2.91 6.71 4.29 10.12l40.4-13.24c-1-18.24-1.53-36.53-1.88-54.86 20.74 1.1 31.12 1.42 50.72 1.42.26 12.41.66 24.74 1.17 37.05l29.87-9.79 43.94-30.07a688.16 688.16 0 0110-72.37l37.21 2.57a720.83 720.83 0 00-12.58 135.15c0 164 54.3 296.86 132.83 335l-30.73-4.6c-23.66-9.44-45.55-27.58-64.65-52.91l-67.87-10.16c13.56 18.18 23.54 26.82 41.43 38.25 10.08 6.93 22.79 12.47 36 16 12.27 1.47 22 2.57 36.31 4.14a96.35 96.35 0 01-13.29-.13l-16.79-2.51c-2.09-.46-4.17-.94-6.24-1.5-5.36-.64-11.19-1.35-18.1-2.2h-.32l-39-5.84a119.3 119.3 0 01-32.4-15.51c-11-1.64-16.55-2.5-27.7-4.28a119.45 119.45 0 0031.24 15.46l-44.73-6.7c-1.16-2.44-1.41-5.92-.86-13.7a145.26 145.26 0 01-25.64 4.81 133.66 133.66 0 0018.1 7.64l-23.31-3.49c-3.32-1.09-6.62-2.3-9.85-3.64-27.05-.75-51.59-10.46-77.57-26.22.29-7.61 1.47-13.64 4.91-25.74l-18.43-2.76a117.53 117.53 0 00-2 15 198.52 198.52 0 01-15.73-17.69l-49.68-7.44c20.59 26 44.45 44.54 70.32 53.77l-385.54-57.72-6.14-1.29c-17-3.8-36.43-11.61-55.74-21.43l-23.54 47.73h51.15l41.25 16.33h182.92l574.3 86h.17a109.1 109.1 0 0014.27.94 114 114 0 0027.63-3.46c41-10.25 79.54-43 111.53-94.6 27.65-44.63 49.09-101 62.48-164.1 45.62 44.15 106.9 52.91 161.58 60.73 6 .86 12 1.72 17.92 2.61a423.49 423.49 0 0063.57 5.19c31.08 0 59.27-4.46 83.79-13.26a179.31 179.31 0 0073.88-49.55c22.43-25 39.7-58 51.33-98 12.61-43.32 19-96.25 19-157.33 0-103.52-23.76-182.3-70.63-234.13-42.24-46.72-104.18-72.67-184.1-77.14m-1700.84 534c18.88 0 29.63 16.81 29.63 45.35 0 30.46-11.3 47.27-31.14 47.27-17.5 0-29.36-16.4-29.64-46 0-30 13-46.59 31.16-46.59M2026 1735.84v204.77q-36.48 8.12-66 25.36v-24.07a2.55 2.55 0 00-2.39-2.55l-76.16-4.83 37.64-9.51 31.77-78.63-73.86 10.82-1.67 7.29-2.15 69.51-25.24-1.6a457.4 457.4 0 0011-101c0-59.66-10.9-115-29.18-158.57v-113c9.63 3 18.65 6 25 8.11 9.3 3.1 17 5.64 23.3 7.56v157.84a2.55 2.55 0 002.55 2.55H2026zm-447 822.22c27.93-116.58 18.93-128.51 16-132.43-9.51-12.59-27-7.47-38.58-4.08q-2.18.64-4.13 1.17-.72-15.07-.72-30.58a627.45 627.45 0 0113.23-129.46l37.57 2.59h.17a2.54 2.54 0 00.81-.13l66.62-22.33c12.55 13.33 24.68 9.89 36.41 6.54 8.49-2.43 17.28-4.93 27-1.6 13.15 4.5 17.27 12.91 21.26 21 3 6.18 6.16 12.57 13.19 16 7.78 3.84 13.43 3.41 18.41 3s9.22-.71 15.34 3.27c12.07 7.86 21.77 29.14 26.61 58.38 10 60.24-1.63 153.55-50.69 216.05-48.07 61.24-100.94 90.53-153 84.75-19.48-22.73-35.64-53.19-47.77-89.17a5 5 0 002.23-3.07m-7.36-13.3c-9.75-33.57-16.19-71.3-18.79-111.67 2-.48 4.15-1.07 6.41-1.74 12.21-3.57 22.7-6 27.56.44 4 5.28 2.2 38.16-15.18 113m65.82 111.38c49.43 0 99-30 144.06-87.43 1.28-1.62 2.51-3.28 3.73-4.94a5 5 0 002.46-.36c10.3-4.3 20.71-5.85 22.46-4.07 3.48 27.7-68.75 89.14-115.36 98.13a5.11 5.11 0 001 10.12h.31l69.49-4.23a5.11 5.11 0 10-.62-10.19l-35.14 2.14c43.83-22.08 94.28-67 90.48-97.23a10.28 10.28 0 00-5.11-7.81c-5.29-3.06-13.73-1.86-20.74 0 23.67-37.59 36.33-82.09 40.59-124.12a5.09 5.09 0 00.48-.44c49.84-65.93 8.57-198.25 6.42-205v-.14c0-.08-.06-.15-.09-.23s-.11-.28-.18-.41 0-.11-.07-.16l-.06-.11-.1-.14a4.8 4.8 0 00-.28-.41c0-.06-.09-.13-.14-.19s-.13-.13-.2-.2-.22-.22-.33-.32l-.19-.18c-.08-.06-.17-.11-.26-.17s-.13-.11-.2-.16l-.17-.08-.2-.12c-.1-.05-.21-.09-.32-.13l-.41-.16-.17-.07c-.12 0-.24 0-.36-.08l-.43-.08H1836.32c-.11 0-.22 0-.33-.05-3.74-.2-36.77-1.49-44.78 13.83a5.07 5.07 0 003.44 7.34 31.65 31.65 0 00-6.12 14.67 5.11 5.11 0 004.33 5.78 5.22 5.22 0 00.73.05 5.1 5.1 0 005-4.38c1.29-9 8-15.16 15.45-19.31a54.63 54.63 0 00-12.35 26.9 5.1 5.1 0 004.33 5.78 5.21 5.21 0 00.73.05 5.1 5.1 0 005-4.38c1.36-9.51 6.19-17.32 11.43-23.28a133.87 133.87 0 00-6.38 25.7 5.1 5.1 0 004.33 5.78 5.21 5.21 0 00.73.05 5.1 5.1 0 005-4.38 125 125 0 018.77-31c8.25 31.43 26.21 115 .81 168.07a284.76 284.76 0 00-3.3-55.69c-5.15-31.1-15.4-53.06-28.86-61.82-7.58-4.94-13.15-4.5-18.53-4.09-4.74.37-9.23.72-15.75-2.5-5.46-2.7-8-7.8-10.86-13.71-4.24-8.64-9-18.44-24.19-23.63-11.27-3.86-21.26-1-30.08 1.52-11 3.15-19.87 5.68-29.62-3.43l186.29-62.44c15.66 48.25 23.95 104.69 23.95 163.47 0 83.6-16.49 165.73-46.43 231.26s-70.18 107.34-113.24 117.6c-27.59 6.57-55.23-.27-80-19.79a149.28 149.28 0 01-16.45-15.24c2.65.17 5.3.28 8 .28m-32.39-397V1993l17.08-43.26 10.24-25.94 299.25 19 23.27 1.48v197.61zm2.46-340.87l-115.8-1.65-85.44-1.22 25.33-53.26 31 14.86a5.11 5.11 0 007.22-3.61l10.24-51.91a5.23 5.23 0 00-3.17-6 5.11 5.11 0 00-6.81 3.8l-9 45.64-25.08-12 151.53-318.57 56 4.26v103.83c-26.87 45.76-44 112.92-44 188.87a469.76 469.76 0 007.92 87m89.66-523c4.48 7.82 9.41 17.57 14 27-1.82 1.19-3.64 2.43-5.46 3.59l-1.43.91q-5.7 3.61-11.39 7l-1.45.86c-1.74 1-3.47 2-5.21 3q-3.59-7.53-7.3-14.79c3.45-3.73 13-14.8 18.26-27.56m-20.7 22.71a458.62 458.62 0 00-27.12-45.29c3.7-3.7 15-14 26.54-14 5.49.07 10.11 2.19 14.29 6.77 15.28 16.75-6.27 44.1-13.7 52.57m302.52-321.44c26.69 20.42 10.42 60.09 4.64 72.07a97.59 97.59 0 00-20.46-19.66c4.64-8.24 18.94-35.45 15.82-52.41m19.93 32.57c3.78 20.94-3.13 42.85-6.8 52.43a96.91 96.91 0 00-5.1-8.3c2.7-5.23 11.81-24.36 11.89-44.12m-40 17a96.09 96.09 0 00-45-14.82 53.17 53.17 0 00-6.7-3.59c4-7.92 18.37-33.81 37.68-40.41a26.73 26.73 0 0117.74 0c1.56.62 3.13 1.28 4.73 2 1.19.56 2.29 1.17 3.41 1.78 10.15 9.67-4.1 41-11.91 55m-56.35-20.48a161.36 161.36 0 00-17.93-6.25c5.19-9.38 24.36-39 58.21-36.76-21.31 7.59-36.22 34.86-40.28 43m-.23 5.5a96 96 0 00-39.12 10.45c-6-5.77-13.22-14.9-12-18.67.48-1.46 2.84-2 4.74-2.23 13.63-1.52 34.29 5.26 46.37 10.45m4.78 5a91.66 91.66 0 11-91.66 91.66 91.76 91.76 0 0191.66-91.66m-60.78 412.83c-43.73-14.26-71.16-20.85-80.3-7.35a7.5 7.5 0 00-.64 1.21l-15.43-1.17c4.4-32.16 11.3-68 24.85-103.87a195.28 195.28 0 0134.93-8.39 198.53 198.53 0 0135.88-2l.26.9.19.66c.58 2 1.18 4.13 1.79 6.25l.15.52c.63 2.17 1.26 4.38 1.92 6.63l.17.59c.65 2.24 1.31 4.51 2 6.83l.25.86 2 6.76.55 1.85 1.83 6.16.5 1.66 2 6.65.48 1.6 2.08 6.9.71 2.36 2 6.6.52 1.71 2.23 7.33 1.12 3.65 1.82 5.93.68 2.21 2.33 7.56 1.06 3.42 2.05 6.63 1.25 4 3.34 10.75.39 1.26a37.26 37.26 0 00-2.53 5.79zm31.92 7.54v3c-3.78-1.2-7.81-2.51-11.85-3.85zm-144.22 23.63c-32.1-2.24-61.95 18.24-85.33 54.12V1539l141 10.71c9.21 1.18 22.36 4.66 35.11 8.49v103.14c-22.62-47.75-54.68-78.75-90.79-81.27m86.54 250.23c0 42.94-5.26 77.93-16 99.34l-60-3.8c-9.5-22.19-14-56.13-14.11-94.12 0-68.71 15-122.65 46.18-121.58 31.7 1.08 43.94 56.73 43.94 120.16m-148.19-69.51l-24.22 21.59-4.94-42.74 33.72-28.83 24.32.8v211.49l-28.4-1.8v-160.49zm52.41-221.12q-7.48-25.23-16-48.39c4.84-17.43 22.47-33.89 47-45.76-11 33-17.07 65.44-21.07 94.9zm135.4-124c3.83-32.66 8.53-69.94 11.75-89.57a104.85 104.85 0 0078.51-3.33 3.83 3.83 0 002.3 6.35l15 2.19c-10.09 35.59-8 64.51 6.47 86a71.13 71.13 0 0027.65 23.92c-10.57 26.2-17.16 38.68-21.2 44.51-27.76-40-69.94-64.54-120.51-70m110-91.84l-16.28-2.37a3.86 3.86 0 00-.72 0 104 104 0 0028-20.18l-4.06 17.2a10.16 10.16 0 00-7 5.39M1861.27 1313c-2.76 12.06-7.31 46.91-10.74 74.85-7.3-28.11-11.62-49.29-10-55.34 6.22-6.41 12.85-12.68 20-18.76a6.67 6.67 0 00.7-.77m-20.78 96.25v.17q.79 2.91 1.63 5.93l.05.19q.83 3 1.71 6.14l.12.44v.12a204.19 204.19 0 00-35.16 2.06 199.19 199.19 0 00-31.82 7.33c11.39-28.53 27.12-57 49.33-83.43q.2 1.42.45 2.93.24 1.53.53 3.15.28 1.62.61 3.34v.07q.32 1.71.69 3.52.37 1.83.78 3.76.41 1.93.86 4v.08q.9 4.07 2 8.57v.09q.53 2.23 1.11 4.58v.06q.58 2.35 1.2 4.81v.17q.61 2.44 1.27 5 .67 2.6 1.39 5.33v.17q.7 2.66 1.44 5.43l.05.2q.74 2.77 1.53 5.66m-82.58 29.72a143.78 143.78 0 00-26.49 15.29c-1.28-2.92-4.82-11-9.39-20.8 2.14-1.42 4.28-2.85 6.42-4.32l2.38-1.63q4.38-3 8.77-6.17l.15-.11q14.75-10.6 29.52-22.59l.37-.3q4.91-4 9.83-8.13a345.76 345.76 0 00-21.56 48.75m-30.66 18.51c-9.88 8.07-17.27 17-21.36 26.42q-6.37-16.71-13.3-32.29l.45-.25c2.18-1.25 4.36-2.5 6.55-3.79 1-.57 1.92-1.17 2.88-1.75q7.61-4.59 15.24-9.55c5.51 11.9 9.44 21 9.53 21.18m-39.29-3.21h.08a709.12 709.12 0 0131.2 85.07l-71.23-5.41a2.47 2.47 0 00-3.64-.28l-58.25-4.42h-.33l-15.89.87a22.83 22.83 0 00-17.28-10.32c-10.33-.75-15.87 8.22-17.83 12.24l-15.56.85a7.53 7.53 0 00-1.08-3 78.6 78.6 0 00-28-26.94c2-2.17 3.88-4.36 5.73-6.41.19-.21.32-.42.49-.64 2 .1 4.13.19 6.27.28h1l5.82.19h1.12c4.66.12 9.5.2 14.47.21h9.33l5.48-.12 2.24-.06q3-.1 6.06-.23l1.56-.07q3.82-.18 7.67-.44l1.5-.11q3.05-.21 6.1-.47l2.53-.23q2.59-.24 5.18-.52l2.67-.3q2.71-.31 5.4-.68l2.21-.29q3.74-.53 7.44-1.15l1.07-.19q3.14-.54 6.24-1.16l2.38-.5q2.45-.52 4.86-1.08l2.51-.61q2.43-.61 4.8-1.27l2.17-.6c2.26-.66 4.49-1.35 6.67-2.09 3.81-1.3 7.62-2.69 11.44-4.13 1.22-.46 2.44-.95 3.65-1.42q4-1.55 7.94-3.2c1.39-.58 2.77-1.16 4.16-1.75 2.68-1.15 5.35-2.35 8-3.57 1.22-.55 2.43-1.08 3.65-1.65q5.38-2.52 10.78-5.23c1.69-.85 3.38-1.74 5.06-2.61 2.05-1.06 4.1-2.13 6.16-3.24s4-2.16 6-3.27m-185.69 79.49l-105.51 5.78a63.34 63.34 0 0135.17-28.35c9.59 8.78 30.68 5.83 37.36 6.1 2.93.12 6-1.17 9-3.26a63 63 0 0124 19.73m33.27 3.29l-100.14 89.54c-20.69-24.81-55.33-44.09-93.68-51.13a165.19 165.19 0 00-61.66 0l16.65-24.6a5 5 0 00.44-.81zm14.61.64a5 5 0 001.11-1.5l30.52-1.67-150.43 316.26-25.28-12.12a215.24 215.24 0 0017.46-21.39c40.08-56 49.25-124.19 23.35-173.69a91.08 91.08 0 00-5.34-8.78zm333.08 16.19c.07-.25.17-.55.27-.85l2.78 8.88-3-.88v-6.9a2.2 2.2 0 000-.24m71.84 151.22l11.14 25.67h-41.64l-4.28-30.39a187.13 187.13 0 0021.87-15.11c4.14 0 8.39-.16 12.7-.44v19.26a2.54 2.54 0 00.21 1m60.57-31.77c-6.45 12.08-10.33 19.37-21.08 31.2a2.55 2.55 0 00-.6 2.27l5.35 24h-27.54l-11.56-27.14v-19.12a176 176 0 0057.69-14.87l-2 3.77m128.83-136.39l-3.1-27 19.64-13.43c-1.85 12.38-5.34 33-8.29 40.43zm20.88 0h-7.23c3.22-9.7 6.43-29.57 7.92-39.54l7.74 9.88c-1.12 4.43-5.22 20.32-8.43 29.67m15.09-14.07h-5.51c1.13-4.06 2.13-7.86 2.87-10.71a2.45 2.45 0 003.73-1c-.32 4.45-.71 8.46-1.08 11.69m-65.28-173.55a2.55 2.55 0 00.94.32h.33a2.5 2.5 0 001.11-.29c7.83 17.44 13.5 40.78 3.9 63.05-7.37-6.77-16.17-12.4-26.89-14.38-1.6-.3-3.18-.54-4.73-.73.27-7.23 2.93-31.14 25.35-48m-125.25-15.45l.66.24 1.24.48 1.43.59 1.38.61 1.63.76.9.44c.78.39 1.58.82 2.39 1.27l.77.44c.87.5 1.75 1 2.64 1.59l.29.19c.87.56 1.74 1.16 2.62 1.78l.52.37q1.4 1 2.81 2.17l.46.38a65.64 65.64 0 015.81 5.46l.38.4q1.41 1.52 2.78 3.19l.3.38a69.88 69.88 0 015.31 7.6l.21.32v.07c6.74 11.28 11.72 26.53 12.52 47.2a2.55 2.55 0 003.93 2c.23-.14 22.75-14.33 52.67-8.8 19 3.52 32 20.46 41.44 32.83 6 7.88 10.37 13.57 15 14.45 1.54.29 3.15.47 4.86.66 6 .66 12.75 1.42 20 7.45a9.26 9.26 0 011.4 1.49v.06a23.9 23.9 0 013.67 8.79v.05q.6 2.49 1 5.46c.08.56.13 1.16.2 1.73s.13 1.08.19 1.64.15 1.38.21 2.09c.09 1 .17 2.12.23 3.23 0 .26 0 .51.06.77q.15 2.69.2 5.61v4.53c0 5.27-.23 10.54-.54 15.39a2.52 2.52 0 00-.4-.8l-14.41-18.39-1.81-18.85c4.08-.8 7.1-3.41 7.1-6.55 0-3.77-4.33-6.82-9.68-6.82s-9.68 3.06-9.68 6.82c0 3.15 3 5.77 7.14 6.56l1.78 18.56-22.42 15.33-6.59 4.51-4.61 3.16a2.55 2.55 0 102.88 4.21l5.66-3.87 1.11 9.63c-11.65.47-20.93 9.39-28.15 27.28-.36.9-.84 2.25-1.46 4-35.31 99.77-104.89 124-159.73 125.91 18.68-16.44 27-30.77 27.49-31.61a2.55 2.55 0 00-4.44-2.53c-.16.28-16.65 28.6-55.19 50.94a2.55 2.55 0 00-1.25 2.56l4.42 31.37h-36.14v-153.65c6.12 1.7 10.68 2.61 13.94 2.61h.43a7.66 7.66 0 007.11-10l-3.84-12.22c-2-6.31-4.09-13-6.29-20.09 5.53-4.51 13.55-8.55 25.27-10.25a2.55 2.55 0 00-.73-5.05c-11.7 1.7-20.09 5.59-26.15 10.1-9.94-31.89-21.46-69.42-31.19-103.39 48.27 6.15 89 31.66 114 73a2.5 2.5 0 00.48.57l.12.09a2.55 2.55 0 00.57.34l.21.08a2.56 2.56 0 00.79.15h.31c10.21-1.26 20.44-18.59 39.09-66.25a2.44 2.44 0 00.08-.45 2.54 2.54 0 00.08-.48 2.45 2.45 0 00-.08-.5 2.48 2.48 0 00-.1-.46 2.51 2.51 0 00-.26-.42 2.47 2.47 0 00-.27-.4 2.51 2.51 0 00-.41-.3 2.46 2.46 0 00-.36-.26l-.13-.05c-.34-.15-.81-.33-1.43-.57-19.09-7.35-31.49-20.44-36.94-38.35 0-.1-.09-.19-.12-.3-.49-1.64-.9-3.33-1.28-5l-.09-.41q-.62-2.94-1-6l-.05-.41q-.39-3.13-.54-6.41v-.3q-.15-3.37-.06-6.89c.31-11.28 2.48-23.74 6.58-37.26a59.18 59.18 0 019 2.51m169.25-251.14l-11.47 12.55a3.83 3.83 0 005.66 5.17l8.65-9.49c5.8 19.36 2.62 40.18-6.11 60.64l-2.69 2.83a3.8 3.8 0 00-.6 4.36c-13.86 28.26-37.62 55.39-62.17 76.49-40.54 34.84-85.69 56-105.82 50.22a96.5 96.5 0 0010.45-97.88c2.85-6.41 16.67-40.12 6.12-69.54-4.86-13.57-14.28-24.1-27.91-31.45a2.42 2.42 0 00-.33-.17c-1.1-.58-2.17-1.19-3.32-1.73h-.13a37.6 37.6 0 00-5-2.17c-51.06-20.19-79.43 25.54-84.89 35.52-8.47-2-17.08-3.22-24.18-2.43-4.93.55-8 2.48-9 5.72-2.32 7.1 7.12 17.76 12.16 22.81a96.6 96.6 0 00-10.36 160.24 311.57 311.57 0 00-27.32 26.95q-25.68 25.78-51.32 47.35l-.42.36q-6.13 5.15-12.25 10l-.78.62q-6 4.78-12 9.33l-1 .79q-5.88 4.45-11.75 8.68l-1.22.88q-5.79 4.15-11.58 8.08l-1.36.92c-.56.38-1.13.73-1.69 1.11-5.13-10.59-10.71-21.53-15.6-29.73 16.37-14.15 33.7-35.59 50.29-62.25a12.65 12.65 0 002.51.29 11.73 11.73 0 003.13-.43c9.91-2.73 14.19-17.63 15.37-22.71 5.12-1.83 20.72-9.17 17.71-29.85 2.74-2.42 9.1-9 9.77-18.24.51-7.08-2.43-14.07-8.65-20.8 31.86-82.64 59.55-196.36 55.93-297.45a117.92 117.92 0 0014.51 14.33c6.92 41.42 28 77 56.68 95.24a84.41 84.41 0 0045.83 13.71 88.82 88.82 0 0024.41-3.5c53.85-15.36 45.51-104 39-143.3 20.69 17.15 104.4 90 132.91 167.91m-414.5 203c-2.18-5.86-6.52-22.45-.53-28.84 3-3.18 10.34 2.29 12.68 4.46a2.55 2.55 0 004.25-2.32c0-.2-3.29-20 5.74-22.41s13.64 10.06 13.82 10.59a2.55 2.55 0 004.82-1.68v-.12a2.52 2.52 0 001.29-1.33c.38-1 .76-2 1.15-2.94 4.08 5 6 10.06 5.65 15-.65 9.25-8.88 15.5-9 15.56a2.55 2.55 0 00-1 2.51c3.85 21-14.45 25.77-15.23 26a2.56 2.56 0 00-1.91 2c-1 5-5 18.33-12 20.25-3.85 1.06-8.51-1.44-13.85-7.42-11.31-12.65-8.47-20-6.73-22.56 2-3 5.58-4.21 7.61-3.46a2.56 2.56 0 003.27-3.29m134.26-361.28a136.3 136.3 0 01-4.15-15.07l13.4-24.86a2.54 2.54 0 00.21-1.91c-.14-.47-3.38-11.27-17.51-17.59.16-5.93.58-11.76 1.23-17.38a100.36 100.36 0 0020.66 2.46 56.13 56.13 0 006.37-.4c-3.23 18.94-5.58 40.3-2.74 62.16 3.54 27.21 33.17 119.86 76.12 136.09a36.87 36.87 0 0013.12 2.48 35.59 35.59 0 0010.41-1.6 42.84 42.84 0 01-10.16 4.38c-23.07 6.58-45.92 3.26-66.09-9.61-26.31-16.78-46-48.94-53.49-86.81 4.74 2.71 9.14 3.69 12.64 1.73 6.39-3.59 6.38-15.37 0-34.07m-5.68-23a190.07 190.07 0 01-2.45-30.82c8.26 4.33 11.4 10.23 12.33 12.47zm21.65-91.33c-5.26-1.15-10.46.32-14.49 2.18 2.64-6.53 5.72-11.82 9.15-15.38 4.18-4.34 8.41-5.78 13-4.41 5.39 1.63 5 11.13 2.72 24.39a18 18 0 00-10.35-6.78m9 14.18q-.63 3.32-1.32 6.82c-.83 4.26-1.7 8.72-2.54 13.34a44.35 44.35 0 01-5.06.47v-29.53c3.57 1.2 6.56 4.17 8.92 8.84m-14-9.42v30a102.64 102.64 0 01-17.13-2.36 147.67 147.67 0 015-22.9c2.39-1.64 7.1-4.39 12.09-4.77m84.85 68.37c-1.12 10.54-.26 22.62.56 34 1 13.49 2 27.44-1.8 30.74a3.06 3.06 0 01-2.29.68 199.74 199.74 0 01-16.2-63.76c-.39-4.5-.61-9.13-.71-13.85 6.7 3.85 17.64 10.5 20.43 12.2m-39-194c-16.89 16.48-33.26 45.54-25.69 51.4 5 3.88 22.23-11 35.5-27.2 10.08 34.07 7.72 72.07 5.47 107.63-1 15.8-1.94 31-1.87 45.37v.07c0 6.44.24 12.74.78 18.84 4.81 55.2 31.67 103.51 50.7 106.7a11.68 11.68 0 001.93.17c4.24 0 7.67-2.52 9.78-7.27a2.55 2.55 0 00-4.66-2.08c-1.93 4.32-4.46 4.44-6.2 4.14-7-1.17-18.21-13.44-28-33.47a7.71 7.71 0 003.37-1.7c5.72-5 4.76-18.21 3.54-35-1.54-21.13-3.45-47.43 10.23-55.09 7.21-4 14.75-4.08 18.19-2.06 1.61.95 1.61 1.92 1.61 2.24 0 1.21-.53 1.67-3.34 2.92s-7.16 3.18-7.16 9a2.54 2.54 0 00.07.6c1.32 5.45 5.72 5.54 8.63 5.6s4.89.22 6.54 2.52c.8 1.12 1 3.6 1.21 6.23a45.27 45.27 0 001.26 8.53c5.92 21.83 18.4 99.52-6.78 137.09-12.06 10.37-24.35 13.31-36.54 8.71-41-15.47-69.42-105.5-72.87-132-3.71-28.53 1.76-56.57 6.15-79.1 4.64-23.78 8-41-3.6-44.47-6.36-1.93-12.63.06-18.11 5.75-4.88 5.06-9.1 13.12-12.42 23.1q-.57 1.73-1.11 3.54-.8 2.69-1.51 5.53v.17c-7.17 28.69-7.62 68.33 3.32 100.31 6.63 19.39 4.6 26.7 2.35 28-1.59.89-5.36.26-11.58-4.39a2.52 2.52 0 00-1.68-1.3 122.66 122.66 0 01-16.36-16.77 2.49 2.49 0 00-1.3-.78c-1.61-31.16-6.26-61-14.84-88.21-.88-2.79-1.79-5.53-2.71-8.24 14.13-11 25-29.8 33.07-52.58a2.53 2.53 0 00.28-.8c15-43.17 19.81-100.32 16.85-145.7 28.41 14.35 46.38 32.95 57.57 53.93m-87.48-126.11c6 0 11.81 7.56 16.31 21.28 3.81 11.61 6.56 27 8.1 44.52l-.07.09c.1 1.16.2 2.32.29 3.5l.07.08c3.34 43.45-.65 98.77-14.36 141.43-56.87-125.38-44.88-176.41-32.5-195.76 7.14-11.17 16.4-15.13 22.15-15.13m-36.44 14.8a80.72 80.72 0 00-5.94 17.14l-9.41 9.41c-3.36-.18-6.62-.29-9.76-.29h-1.16zm-173.69 84.37l.08-.08c16.11-16 31.93-13 44.65-10.57 6 1.16 11.26 2.15 15.77 1.1 10.66-2.49 18.24-8.26 26.27-14.38 16.18-12.32 34.51-26.29 86-19.76-.52 20.33 3.12 47.87 14.81 84.95.17 10.29-9.07 38.28-9.16 38.56a2.55 2.55 0 104.85 1.61c.29-.88 5.42-16.41 8-28.95a698.82 698.82 0 0026.57 66.38c-7.42 20.64-17.33 37.75-30 48.23-20.66-58.26-50.13-95.8-87.72-111.66-42.16-17.79-85.53-4.73-115.07 9.82q-2.39-2.75-4.79-5.4a29.59 29.59 0 00-2.22-9.06c-1.06-2.74-2.08-5.31-3.08-7.79 8.09-21.18 16.48-34.59 24.8-42.9m-34.71-81.55c23.65 13.67 21.13 39.28 19.28 58-1.12 11.35-1.93 19.55 2.78 23.37a8.16 8.16 0 004.49 1.71c-6.59 8-13.14 19.15-19.43 34.55-16.58-39.71-23.93-42-38.69-39.65q.77-14.31.93-27.52v-.16q.29-24.33-1.47-44.86c11.07-9.49 21.87-11.33 32.12-5.41m-35.21 97.54a2.55 2.55 0 002.54-2.36c.31-4.06.57-8.05.81-12 13.48-2.27 19.13-3 40.1 50.91a28.81 28.81 0 011.83 6.44 2.49 2.49 0 000 2.51 1.87 1.87 0 01-.79 1.36c-6.25 3.26-33.41-14.65-43.73-24.23 8.4-.52 14.86-1.22 16.74-1.43a2.55 2.55 0 00-.57-5.07c-15.77 1.78-58.87 4.62-68.87-3.52-5.65-4.6-12.69-22.79-18.69-42 0-.06 0-.12-.06-.18-.91-2.92-1.79-5.85-2.64-8.77 5.32-3.28 27.06-14.1 72.8-7q-.32 20-2 42.6a2.55 2.55 0 002.35 2.74h.19m-2-93.43v.05q1.73 19.58 1.56 42.87c-44.18-6.73-66.65 2.65-74.32 7.05-4.53-16.11-7.88-30.77-8.55-36.3a2.55 2.55 0 00-5.07.61c.11 1 .34 2.3.65 3.92-10 4.19-23.92 5-30.89 5.1l4-13.1c44.41-18.53 68.8-41.94 72.43-69.6 1.66-12.62-1.2-25.1-6.6-36.88 26.18 9.2 41.95 41.94 46.77 96.27m-215 66.25q-5.71.6-11.78 1.51c4.16-19.24 8.46-81.51 9.86-103.06 6.77 9.47 14.39 18.68 22.75 26-1.27 5.62-4.38 14.66-7.69 24.23-6.52 18.91-13.82 40.11-13.14 51.27m138-179.83a2.55 2.55 0 00-3.2 1.68c-.21.67-11.5 37-24.15 77.94-22.1-22.29-43.55-24.61-51.88-24.56a2292.2 2292.2 0 003.49-27.49 99.73 99.73 0 0048.81-69c21.81 17.22 63.81 55.91 58.68 95-3.27 24.92-25.3 46.38-65.4 63.86 16.3-53 35.05-113.32 35.32-114.19a2.56 2.56 0 00-1.68-3.2m-85 58.15a2.53 2.53 0 00.13.38c-2.14 15.86-4.93 35.56-8 54.66-27.35-8.87-49.96-47.42-63.48-70.42-2.08-3.55-3.9-6.65-5.53-9.3a99.31 99.31 0 0010.18 3.49c-.18 4.06-.11 11.59 2.72 12.9 3.9 1.81 16.4-8.2 16.4-8.2s15.2 12.9 19.54 11.82c3.23-.81 3.7-9.62 3.74-14.09a98.68 98.68 0 0028-8.86c-.65 5.24-1.81 14.47-3.34 25.9a2.52 2.52 0 00-.42 1.75m-8.71 60.1c-1.9 11.43-3.89 22.5-5.89 32.21-15.53 1.48-22-8.15-23.54-11.08 1.05-3.11 2.11-6.19 3.14-9.15 3-8.76 5.7-16.54 7.23-22.29a60.54 60.54 0 0018.78 10.26 2.7 2.7 0 00.29 0m-56.24-55c-16.16-3-34.21-2.06-39.76-1.65.48-19.62.83-36 1-44.18a99.06 99.06 0 0018 12c2.27 2.68 5.71 8.53 10 15.89 3.13 5.33 6.73 11.48 10.76 17.9m25.09-27.74a94.36 94.36 0 01-43.11-10.38l-.27-.13a94 94 0 01-21-14.81 2.53 2.53 0 00-.22-.22 94.65 94.65 0 01-17-21.42l29.75 1.14h.1a2.55 2.55 0 002.55-2.55v-41.86h18.29v42.9a2.55 2.55 0 002.45 2.55l66.72 2.65h.1a2.55 2.55 0 002.55-2.55v-54.93h53.27c.1 1.75.16 3.5.16 5.26a94.49 94.49 0 01-94.38 94.38M1404.51 384a2.46 2.46 0 00-1.83-.73L1336 384.4a2.55 2.55 0 00-2.51 2.55v15.35h-18.29v-15a2.55 2.55 0 00-.76-1.82 2.58 2.58 0 00-1.83-.73l-38.71.65a93.46 93.46 0 014.2-11.38h59.42a2.55 2.55 0 002.55-2.44c.45-9.76 3.33-34.47 11.31-46.33.5 12.32 2.15 38.93 7.22 47.51a2.56 2.56 0 002.14 1.25l90.84 2.18a94 94 0 015.25 17.11h-51.5v-7.51a2.55 2.55 0 00-.76-1.82m-15.07 30.63a2.56 2.56 0 00-3.61 0l-42.13 42.45-5.15-.21v-11.1l54.26-57.18 7.36-.12v70.92l-49.55-2 38.83-39.13a2.55 2.55 0 000-3.61m-50.89 23.67v-48.83l47.1-.79zm-41.81-48.16l-25.86 34.95a2.55 2.55 0 104.1 3l28.19-38.09 6.88-.11V405a2.5 2.5 0 00-.53.45l-37.8 48.71-19.38-.75V390.9zm13.31 23v42.53l-32-1.23zm148.51-41.86l-5.3-.13-90.9-2.18c-4.38-9.75-5.88-39.14-6.09-50.12a2.55 2.55 0 00-4.12-2c-13.15 10.2-16.38 42.77-17 52.05h-25.21c.35-5.33 1.82-17.9 8.07-26.32a2.55 2.55 0 00-4.1-3c-7.23 9.75-8.77 23.68-9.09 29.36h-31.61c1.55-44.49 43.45-69.42 85-71.7a3.81 3.81 0 002.07 1 3.86 3.86 0 00.59 0 3.78 3.78 0 002.77-1.26h.8c44.62 0 90.75 25.49 94.24 74.24m-159.41 166.74c5-.38 26.94-1.68 43.8 2.6l1.46 2.2c-.57 9.11-6 93.9-10.63 110.71a254.83 254.83 0 00-39.46 10c1.91-19.19 3.7-79.76 4.84-125.52m64.67 78.7c3.58 4.46 10.55 10.35 22.4 10.35.66 0 1.36 0 2-.08-2.12 9.7-4.24 17.69-6.27 22.81a228.1 228.1 0 00-25.94.84c-.44-7.18 3.33-20.46 7.76-33.93m45.25-85.21c6.87-.11 28.8 1.6 50.84 25-5.22 16.9-10.58 34.33-15.45 50.19l-2.54 8.28c-3.58 11.71-6.79 22.27-9.33 30.7a214.22 214.22 0 00-30.36 6.78c-2.34-1-7.53-1.94-14.89-2.4 7.84-21.74 16.61-80.61 21.71-118.54m38.7 81.82c6.4 0 21.81-.55 33.5-5.13 1.71 7.92 4.54 19.33 8 31.36.63 2.18 1.28 4.38 1.94 6.58a185.25 185.25 0 00-53.07-1.26c2.65-8.81 6-19.66 9.61-31.59m-2.78-447.9v129.3H1415a127.26 127.26 0 00-44-10.17 23.47 23.47 0 0113.34-5.18 3.83 3.83 0 00-.71-7.63c-11.72 1.1-18.82 6.85-22.76 12.7a125.42 125.42 0 00-44.67 9.67 179 179 0 01129-128.68m-173.5 513c.33 0 .69 0 1 .06a2.48 2.48 0 002.65-1.81c5.59-2.61 11.22-4.94 16.84-7l.27-.1a248 248 0 0143.28-11.44h.25a2.51 2.51 0 001.08-.28c5.68-.94 11.16-1.66 16.37-2.19a2.51 2.51 0 00.58.1 2.62 2.62 0 00.57-.06 2.42 2.42 0 00.42-.19c16.51-1.57 30.06-1.22 38.18-.13-41.41 14.34-68.38 36.63-68.83 37a2.55 2.55 0 003.29 3.91c.74-.62 74.63-61.58 165.46-44.69 6.15 19.49 13.49 38 19.92 43.23s22 6.7 37.14 6.7c4.13 0 8.23-.11 12.1-.27 6.56 7.3 35.11 29.24 48.85 29.24a8.45 8.45 0 003.94-.84 6.32 6.32 0 002-1.71 410.27 410.27 0 0136.8 48.79 2.55 2.55 0 104.28-2.78 427 427 0 00-31.31-42.51c28.55-13.85 69.82-25.94 109.67-9.13 38.95 16.43 69 57.42 89.31 121.82 36.53 115.85 1.58 280.31-40.67 389.85a2.46 2.46 0 00-.32.21 2.51 2.51 0 00-.65 2.26c-.47 1.2-.94 2.41-1.41 3.6-3.37-5.32-9.21-10.53-17.28-8.39-9.5 2.52-10.45 14.66-10.09 22.19-4.85-3-10.93-4.83-15-.48-7.23 7.71-3.84 23.23-1.74 30.39a13.48 13.48 0 00-9.1 5.83c-2.42 3.56-6.56 13.5 7.14 28.83a34.52 34.52 0 008.53 7.21c-14.8 23.67-30.14 43.08-44.77 56.67a25.67 25.67 0 00-6.63-20.33c-5.11-5.6-11.15-8.43-18-8.43h-.14c-12.88.07-24.77 10.31-29.47 14.9-6.57-9.36-13.36-18.23-20.4-26.52q-6.19-7.3-12.63-14.05c10-8.85 18.51-30.12 15.71-48.71-1.6-10.59-6.7-18.83-14.66-24 32.81-93 50.06-165.92 56.86-223.14 21.56-26.95 23.51-49.08 23.58-50a2.55 2.55 0 00-5.09-.4c0 .2-1.67 17.92-17.39 40.39 9.47-94.05-10.36-143.5-34.58-169.44-31-33.2-76.27-35.42-105.63-27.24-4.34 1.21-18.61 5.63-19.89 11.71a2.55 2.55 0 105 1.08c.57-1.63 8.4-6.74 24.42-9.76 13.9-2.62 61.83-8.13 95.15 30.79 36.15 42.21 60.7 144.77-27 393.56a37.51 37.51 0 00-4.64-1.71c-17.25-5.13-30.94 3.14-40.17 12.37a30.73 30.73 0 00-.22-13.66c-2-7.66-7.48-13.57-16.21-17.57-28.51-13.06-46.86 15.75-51.31 23.79a232.16 232.16 0 00-68.72-8.38c2-45.19 4.86-75.55 13.21-116.89a2.5 2.5 0 00.28-1.38c2.51-12.3 5.5-25.6 9.11-40.55 44.46-25.76 65.51-61.66 65.78-62.12a2.55 2.55 0 00-4.43-2.54c-.32.56-33 56.11-103.09 77.25-16.46-6.48-35-8.36-48.74-8.71-11.94-14.4-23.35-35.56-32.19-53 8.87-9.64 19.63-24.17 15-44.56-6.47-28.75-42.28-28.44-50.55-28a411 411 0 00-22-38.22c4.24-11.08 6.75-20.22 6.75-20.22a152.42 152.42 0 00-15.89 7.37c-9.45-12.28-19.6-22.37-30.7-28.89-10.28-120.22 46.2-163.81 46.77-164.24a2.55 2.55 0 00-3-4.1c-2.41 1.79-58.32 44.75-49.05 165.53-14-6.59-29.52-7.52-46.94-.32-11-87.48 12-151.79 68.27-191.15a187.1 187.1 0 0124.63-14.48m288.16 599.25c6.73-10.06 22.26-28.11 43.81-21.7a31.58 31.58 0 015.73 2.33 2.52 2.52 0 00.92.59 2.32 2.32 0 00.26 0c9 5.29 12.27 14 13.33 21.05 2.54 16.88-5.32 36.75-14.23 44.3a275.16 275.16 0 00-52.41-42.06c.71-1.13 1.62-2.68 2.59-4.56m-4.63-2.22c-1.08 1.63-1.91 3-2.52 4.08a236.31 236.31 0 00-42.57-19.55 218.5 218.5 0 00-7.9-2.54c4.67-8.3 20.33-31.52 44.17-20.59 7.27 3.33 11.78 8.11 13.4 14.22 2.3 8.65-1.46 18.35-4.57 24.38m-117.06-152.83c-5.55-7.88-13.2-13.75-21.82-18.08a188.49 188.49 0 0028.69-12.37c-2.61 10.94-4.88 21-6.87 30.45m-126.7-56.22a30.53 30.53 0 01-2.16-3.31 21.68 21.68 0 01-2.08-17.61c1.53-5 3-9.17 4.26-12.89 2.53-7.36 4.43-12.87 4.5-17.65.07-4.57-1.54-8.48-5.83-12.7-4.78-10-9.66-20.17-14.69-30.12 10.14-.24 37.87 1.24 43 24.1 4.7 20.89-8.77 34.83-17.69 44.06a53.74 53.74 0 00-6.16 7 24.68 24.68 0 00-3.17 19.08M1251.68 957a3.83 3.83 0 01-3.61 4h-.22a3.83 3.83 0 01-3.82-3.62l-1.67-29.8a184.18 184.18 0 00-28.16 23.17l.31.29-9.21 6.12a191.62 191.62 0 00-46.36 18.74c-1.22-4.36-8.81-33.55 2.91-43.42 6.73-5.67 19.11-4.06 36.8 4.79a2.55 2.55 0 003.69-2.12c0-.28 2-28.11 15.76-33.1 8.48-3.07 20.64 3.38 35.18 18.61-1.15.67-2.34 1.4-3.53 2.13zm-92.15 39.45a529.26 529.26 0 0025.36 58.85 5.43 5.43 0 01-2.2-2.48c-2.52-6.62-16.37-31.31-36.17-60 3.66.79 8.11 1.67 12.92 2.43a2.48 2.48 0 00.08 1.23m56.84-99.14c-13.59 4.92-17.62 25.33-18.73 33.85-18-8.38-31.11-9.23-39.07-2.53-15.17 12.78-4.8 47.87-4.35 49.36a2.46 2.46 0 00.26.54c-5.18 3.07-9.36 5.86-12.35 8q-4.24-6-8.78-12.14c-.47-11.39-.09-63.68 44.41-84.33 31.05-14.41 55.6-1.31 76.85 24.74-15.24-15.25-28.1-21.12-38.24-17.44M1161.87 727c30.88-32.83 70.63-47.64 99.27-48.89a184.48 184.48 0 00-17 10.51c-58.33 40.77-81.94 107.24-70.21 197.57-39.4 19.42-45.18 62.18-45.7 81.29-4.52-5.93-9.21-11.85-14-17.67-19.23-121.7 15.2-188.32 47.64-222.81M683.42 469.39c-14.39-21.54-18-71.49-7.7-106.24a69.64 69.64 0 0010.92 43.49l73.28 113-35.39 13c-6.61-10.22-35.71-55.18-41.11-63.26m-28.88 125.48c9.09-32 40.63-46 40.82-46l27.76-10.21a2.49 2.49 0 002.67-1l38.89-14.3a2.55 2.55 0 001.26-3.78l-75-115.67a65 65 0 01109.16-70.42l311.6 473.41C1095.18 817.55 983.78 887 834.58 921L678.17 681.36c-22.74-32.53-30.69-61.63-23.63-86.5M821.9 981.33L649.26 717.05c-17.12-29-14.84-73.16-2.16-108.62-1.43 22.78 7.57 48.21 26.85 75.78l156.8 240.22zm368.83 548.16c-6.86 9.6-12.78 17.89-15.86 21-58.7 60.17-113.67 61.85-145.54 43.37a59.67 59.67 0 01-11.25-8.38 30.87 30.87 0 006.83 2.4c11.73 2.64 26.84-1.48 34.06-21 6.82-18.43-7.17-28.38-26.54-42.15-28-19.88-70.22-49.92-88.43-129.22-21.1-91.87 26.24-141.4 68-185.1 18.26-19.1 35.57-37.22 46.44-57.57 22.26 37.36 43.54 73.7 60.63 104-1.18 8.63-16.09 25.27-41.24 45.92-89.73 73.67-18.76 174.69-18 175.7a2.55 2.55 0 004.15-3c-.7-1-69-98.1 17.12-168.77 16.39-13.46 35.51-31 41.37-43.87 13.89 24.8 24.66 45.1 30.36 57.9 9.21 41.11 35.46 103.31 75.44 164-7.34 3.72-18.57 18.14-37.5 44.65m-33-210a2.66 2.66 0 00-.16-.48c-29.67-66.78-198-339.18-229.19-389.44v-.09a2.56 2.56 0 00-.63-2.4l-2.71-2.83-1.67-2.69a2.55 2.55 0 00-3.52-.82 2.51 2.51 0 00-1.15 1.85c-31.93 12.09-55.44 20.19-55.68 20.27a2.55 2.55 0 001.37 4.91c20.39-4.44 40.38-9.72 59.51-15.66 2.64 4.25 6.28 10.13 10.75 17.37a980.11 980.11 0 01-108.17 35.37l9.15-58.73c140.92-32.13 248.37-95.67 274.75-112.21L1091 870c-3 2.06-16 10.83-37.26 23a99.6 99.6 0 00-17-8.67c21.3-12.65 31.72-21.53 32.19-21.93a2.55 2.55 0 00-2.95-4.14c-11.93 6.92-26.79 14.55-44.16 22.66a2.52 2.52 0 00-.2.15 2.46 2.46 0 00-.74.67 2.37 2.37 0 00-.25.41 2.46 2.46 0 00-.17.49c0 .08-.07.15-.09.24s0 .15 0 .22a2.88 2.88 0 00.15 1c0 .07 0 .15.05.21a881.9 881.9 0 01.46.62 2.36 2.36 0 00.36.33 2.49 2.49 0 00.9.42 2.2 2.2 0 00.24.08 51.15 51.15 0 015.65 1.15 2.54 2.54 0 001.92.9 2.51 2.51 0 00.75-.13c25.33 7.88 53.57 34.67 78.5 64.65.06.36.1.71.16 1.06a2.55 2.55 0 002.47 2.13c5.65 6.91 11.11 14 16.32 20.95v.66a2.51 2.51 0 002.08 2.22q3.81 5.19 7.42 10.29c-.73.56-1.13.88-1.13.88l2.14.55c21.31 30.3 36.5 57 39 63.61 3.19 8.37 16.6 9.49 36.92 11.2 36.3 3 91.17 7.66 124 58.75a2.55 2.55 0 004.3-2.76c-34.17-53.21-90.55-57.94-127.85-61.07-8.94-.75-17.2-1.45-23.21-2.8-14.08-26.15-25-55.64-27.27-61.94a120.24 120.24 0 0021.74 1.16v-20a3.83 3.83 0 117.66 0v19a21.3 21.3 0 009.27-4c4.79-4 4.85-14.21 3.95-22.59l16.48-10.67c6.75 5 15.55 10.12 21.4 8 9.29-3.32 17.53-18.49 23.38-32.53 13.15 20.61 25.18 45.39 37 70.2l2.44 5.12 2.74 5.75c-.22 3.67-1.8 8.3-4.22 15.31-1.29 3.75-2.75 8-4.31 13-5.91 19.13 11.22 33.58 18.13 36.68a5.76 5.76 0 002.32.58 2.58 2.58 0 002.33-1.3c1.4-2.32-1.13-4.31-2.49-5.37-9.43-7.41-7.29-18.94-3.72-24.47a51.81 51.81 0 015.54-6.27l.22-.23c8.18 16.09 18.43 34.95 29.33 49-7.47.05-12.51.51-13.29.58a2.55 2.55 0 00.49 5.08c.22 0 7.08-.63 17.09-.45a2.51 2.51 0 003.49.18s0-.06.06-.08c23.71.86 61.06 6.45 74.81 31.93-8.42 41.69-11.23 72.28-13.29 118-37.94 1.9-64.21 12.47-68 15.19a2.55 2.55 0 003 4.14c4.89-3.54 65.82-26.57 138.9-5.82 0 0 .07.06.11.08a2.53 2.53 0 001 .24c3.34 1 6.7 2 10.09 3.16 70.75 24.19 129.56 84.16 173.14 175.51-.53.3-1.07.62-1.6.92l-1.42.78q-5.7 3.14-11.39 6.06l-1.32.67q-5.74 2.92-11.47 5.62l-1.16.54q-5.81 2.71-11.61 5.2l-.9.38q-5.93 2.52-11.84 4.8l-.53.2q-6.1 2.33-12.19 4.41c-2.08.71-4.24 1.37-6.42 2l-2.07.57q-2.33.64-4.71 1.22l-2.35.56q-2.47.57-5 1.08l-2 .42q-3.51.68-7.1 1.27l-1.06.16q-3.11.49-6.26.91l-2.44.31q-2.55.32-5.12.6l-2.55.27q-2.79.28-5.59.51l-1.9.17q-3.75.29-7.49.52l-1.47.08q-3 .17-6.07.3l-2.35.09q-2.69.1-5.35.16l-2.19.05q-3.17.06-6.29.09H1520.9q-3.11 0-6.13-.09h-1.55l-5.67-.15h-1.12c-4.59-.15-9-.35-13.09-.57a18.86 18.86 0 00-1.57-1.25s-37-4.38-48.32-4.59c-10.71-.19-15.9 7-16.44 22.2a78.64 78.64 0 00-47.6 42.9 7 7 0 00-.31 1l-65.64 3.59c-2.46-3.52-7.88-9.47-15.95-8.59s-11.65 6.79-13.08 10.18l-3.75.21c-67-76.65-110.75-171-123.09-226.39M921.17 927.63q-3.45 1.06-6.94 2.1l6.64-2.51.14.14.16.26m186.74 14.77c-15.74-18.22-32.65-34.85-49.37-46.32 23.13-13.29 35.95-22.3 36.08-22.4a2.57 2.57 0 00.94-1.25l10.58-30.62c-3.68 28.34-3.73 61.61 1.77 100.6m156.39 609.47l20.16-1.1-18 26.59a5 5 0 00-.69 1.63 151.13 151.13 0 00-25 9.92zm-100.1 114.52a2.55 2.55 0 00-3.48 1c-.61 1.09-1.13 2.26-1.7 3.38-7.41-14.28-9.4-27.79-4.72-33.79 4.41-5.64 14.38-4.17 22-1.94a2.55 2.55 0 003.15-3.22c-1.23-3.85-3.58-15.3.19-21.86a10.09 10.09 0 017-4.91c12.77-2.85 31.63 22.24 37.81 32.15a2.55 2.55 0 004.33-2.7 138 138 0 00-16-20.68c35-30.23 80.39-42.1 128.08-33.34 36.67 6.73 70.77 25.76 90.74 49.56l-41.86 37.43a5.11 5.11 0 106.81 7.61l41.21-36.84a82.94 82.94 0 014.67 7.71c25 47.81 16 113.89-23 168.35a209.36 209.36 0 01-18.16 22l-82.27-39.46a5.11 5.11 0 10-4.42 9.21l79.05 37.91c-38.52 36.49-87.85 53.3-137.61 45.59-35.6-5.51-66-30.74-85.67-71-24.2-49.64-26.31-110.77-5.12-148.65a2.55 2.55 0 00-1-3.47m-18.56 72.05a203.4 203.4 0 0010.25 57.92 5 5 0 00-2.27.53l-66.3 33.25zm-69 108.47l81.54-40.9a5.05 5.05 0 00.93-.6c2 5.2 4.15 10.34 6.59 15.34 20.4 41.85 52.18 68.08 89.48 73.85a160.53 160.53 0 0024.59 1.9c43.39 0 85.18-17.75 118.73-50.18L1427 1860l-26.34 55.39-364.19-5.2zm-799.88 57.5l588.27 8.4-9.32 44 36.91-28.86 5.83-14.63 133.36 1.91 499.06 7.13 96 1.37-26.16 66.23-1372.06-35.37zm925.12 478l-26.53 2.4v-27l26.53 9.47zm-672-196.27L491 2116.07h-15.94v31.48l31.52 37-281.18-19.4v-205.5L1599.9 1995v265zm1195.91 547.43a98.82 98.82 0 01-37.07 2.26l-3.14-.47c-91.88-15.2-158.55-158-158.55-339.62q0-18.42.93-36.66l6.21-65.39q2.35-16.53 5.47-32.75l19.93 1.38a632.68 632.68 0 00-13.21 129.81c0 127.61 36.92 236 96.36 283 19.56 15.44 40.9 23.33 62.69 23.33a93.07 93.07 0 0021.61-2.57c91.74-21.86 163.59-177.28 163.59-353.83 0-59.33-8.38-116.33-24.21-165.09l17.17-5.75c14.35 50.56 21.94 108.54 21.94 167.89 0 94-18.5 186.6-52.11 260.61-33.68 74.18-79 121.73-127.6 133.89M2278.42 2500c-44.83 38.57-108.32 51-194.08 38.06-5.95-.9-12-1.76-18-2.63-60.66-8.67-123.35-17.66-166.69-70.54a717.37 717.37 0 0011-125.75c0-59.91-7.68-118.45-22.2-169.51l69.78-23.39a2.55 2.55 0 001.74-2.42v-171.9q29.79-18 67.28-26.36l.15.07 3-.65.12-.14q40-8.33 88-5.69c163.3 9.13 242.68 106.78 242.68 298.53 0 126.76-27.86 215-82.81 262.26M2368.87 377.52c128.68-18.67 227.52-129.38 227.54-263.24h-87.54a178.77 178.77 0 01-178.52 178.51h-158.91c19.59-77.35 89.37-134.6 172.81-134.74V70.5c-147 0-266 119.09-266.07 266.09v269.68h87.56v-225.9h82.16l226.54 226.52 123.74-.07z" />
  <path
    d="M1613.68 369.7c13.66 17.87 39.07 48.87 68.1 75.09 30.35 27.16 59.84 49 85.95 63.27 10 5.41 23.15 11.52 40.06 11.56 18.08-.25 30-6.4 39-10.59 34.72-17.58 64.55-45.88 90.91-69.15 18.74-17 41.86-38.7 58.51-60.37l-72.08-55c-9 12-30.52 33.19-47.06 47.86-24.47 22.41-53.15 46.7-68.8 54.51-16.71-9.51-41.38-27.45-66-49.59-20.12-18-42-43.83-53.83-59.06-5.73-29.77-8.08-66.9-8-113.55-.17-38.8 2-81 6-104.88 16.24-2.73 60.86-9.1 120.94-9.08a860.57 860.57 0 0191.16 5.35c12.22 1.35 22.25 2.65 29.19 3.67.75.13 1.45.21 2.07.3 2.08 14 3.7 34.76 4.38 55.77l90.67-3c-1.1-29.7-3-58.23-8.33-82.24-3.4-16.46-14.06-31.72-25.08-40.23-11.07-8.8-21.38-13-30.06-16.24l-4-1.47-4.13-.68C1951.83 11.71 1883.92 0 1807.42 0c-86.2 0-143.65 11.72-145.87 12.15l-1.51.31-1.71.48c-11.19 3.2-23.53 8.08-35.15 18.07s-20.26 25.1-23.29 39.31c-8.19 36.55-10 86.07-10.13 134.35 0 49.9 2.29 92.53 9.81 131.44 1.49 7.2 4 20.21 14.1 33.58M1650.4 602.13q6 .6 12.39 1.15l34.91-34.91c-4.94.27-9.73.57-14.42.88zM1723.63 567.17q-7.21.27-14.14.6l-36.33 36.33c4.1.31 8.33.6 12.66.88zM1749.14 566.39c-4.7.11-9.35.24-13.92.38l-38.85 38.85c4.2.24 8.5.45 12.88.66zM1774.3 566q-6.95.08-13.74.2l-40.6 40.6q6.43.26 13.06.48zM1894 605.81q7.37-.39 14.37-.85l33.2-33.19c-4-.39-8.11-.77-12.4-1.13zM1963.77 574.3q-5.69-.77-12-1.48l-31.3 31.3q7.65-.57 14.74-1.21zM1985 577.84c-3.42-.72-7.27-1.41-11.43-2.09l-25.94 25.94c5.44-.58 10.57-1.18 15.34-1.82zM2003.47 584.07c-1.9-1.38-5.12-2.72-9.52-4l-17.82 17.82a168.33 168.33 0 0017.23-3.71zM509.68 209.32v396h87.53V162.1a179.32 179.32 0 0137.47-4.1v-.49l.14.4h47.61V70.5h-47.62l-.14.39v-.39c-147 0-266 119.07-266 266h87.54a178.32 178.32 0 0153.5-127.19M315.63 338.3v-47.82h-213.2a172.47 172.47 0 01165.4-124.34h47.61V70.5h-47.6C119.86 70.52 0 190.39 0 338.33v47.81h213.19A172.49 172.49 0 0147.82 510.51H.21v95.62h47.61c147.92 0 267.78-119.9 267.82-267.82" />
  <path
    d="M1912.08 158.21v-6.63-5.91-1l-104.7 104.72v-11.21l103.34-103.34c-.06-.24-.11-.47-.18-.71-.16-.5-.32-1-.49-1.49s-.31-.9-.47-1.34-.5-1.07-.78-1.61c-.19-.36-.35-.72-.57-1.07a18.56 18.56 0 00-1.09-1.56c-.24-.26-.43-.55-.66-.81s-.26-.21-.38-.32l-98.72 98.72v-11.2l91-91c-3.45-.76-7.5-1.37-7.5-1.37-1.42-.17-2.8-.28-4.21-.44l-79.33 79.33v-11.2l69.19-69.19c-1.65-.16-3.34-.37-5-.52-2.34-.23-4.83-.44-7.4-.65l-56.83 56.83V164l46.4-46.4c-4.07-.26-8.36-.5-12.84-.7l-33.56 33.56v-11.2l22.77-22.77c-4.28-.13-8.68-.23-13.24-.29l-9.53 9.53v-9.61h-6c-1 0-2 .06-3 .06-22 .27-40.91 1.44-55.35 2.83-6.32.58-12.79 1.23-19.29 2a100 100 0 00-10.59 2.16 12 12 0 00-2.75 1.2 5.34 5.34 0 00-.65.53 10 10 0 00-1.58 1.33c-.24.26-.43.55-.65.81a15.67 15.67 0 00-1.11 1.56c-.21.35-.39.71-.57 1.07-.28.54-.53 1.05-.76 1.61s-.33.89-.47 1.34-.35 1-.5 1.49-.28 1.08-.43 1.63c-.08.38-.15.75-.24 1.15-.14.67-.25 1.32-.34 2a4.13 4.13 0 00-.07.57c-.2 1.27-.31 2.48-.37 3.51a2.71 2.71 0 01-.06.37v7.09a8.76 8.76 0 000 1.2v133.88s2.05 16.24 9.79 26.49l-.19-.07s29.31 38.56 58 61.27v-.08l.07.06c1.52 1.24 3 2.43 4.54 3.54.36.27.71.5 1 .75 2.24 1.65 4.45 3.17 6.66 4.57 1 .63 2 1.28 3 1.84s1.86 1.06 2.78 1.56c1.65.88 3.29 1.67 4.91 2.34.51.23 1 .44 1.53.63a40.57 40.57 0 005.08 1.61l1.56.36a29.28 29.28 0 005.6.63h.38v-4.49l104.7-104.7v-13.49L1807.38 373v-11.18l104.7-104.7V243.6l-104.7 104.7v-11.2l104.7-104.7v-13.52l-104.7 104.7v-11.21l104.7-104.7v-13.52l-104.7 104.7v-11.21l104.7-104.7v-13.52l-104.7 104.7v-11.21zM1910 295.14l-94.81 94.81a38.73 38.73 0 004.72-1.51c.51-.19 1-.4 1.53-.62 1.62-.68 3.26-1.47 4.92-2.34.92-.51 1.83-1 2.79-1.56s2-1.22 3-1.84c2.21-1.4 4.4-2.92 6.65-4.57.34-.25.68-.49 1-.75 1.53-1.12 3-2.3 4.55-3.54a.12.12 0 00.09-.06v.08c1.93-1.52 3.85-3.13 5.78-4.78l30.93-30.93c12.56-14.09 21.28-25.56 21.28-25.56l-.17.07c3.81-5.06 6.25-11.57 7.74-16.87" />
</svg>
