<svg viewBox="0 0 200 200" xmlns="http://www.w3.org/2000/svg">
  <path
    d="M197.754 185.736L180.132 168.2c4.276-6.418 6.824-14.298 6.824-22.77 0-19.94-14.109-36.6-32.938-40.614l-.276-.05V70.804a8.403 8.403 0 00-1.954-5.392l.008.017v-.042a7.816 7.816 0 00-.502-.55l-.068-.076-.226-.225L88.628 2.437a7.58 7.58 0 00-.545-.492l-.218-.15a7.866 7.866 0 00-.419-.318l-.21-.15c-.15-.1-.301-.184-.452-.284l-.193-.1q-.285-.167-.629-.309l-.268-.108-.428-.15-.301-.092-.486-.126-.235-.05A6.818 6.818 0 0083.523 0H8.509C3.823.017.033 3.79 0 8.447v170.077c0 4.683 3.806 8.488 8.51 8.506h136.73c8.492 0 16.39-2.538 22.97-6.903l-.15.092 17.621 17.544a8.542 8.542 0 005.776 2.237c4.72 0 8.543-3.806 8.543-8.505 0-2.22-.855-4.24-2.255-5.751l.008.008zm-27.875-40.289c0 13.563-11.05 24.564-24.672 24.564-13.623 0-24.672-11-24.672-24.564 0-13.563 11.05-24.564 24.672-24.564 13.615.017 24.655 11.001 24.672 24.556zM91.11 28.963l33.475 33.336H91.11zm-74.024-12.02h56.948v53.86c0 4.7 3.823 8.506 8.542 8.506h54.098v25.457c-19.097 4.065-33.215 20.724-33.215 40.673a41.219 41.219 0 008.174 24.705l-.084-.108H17.077z" />
</svg>
