<svg viewBox="0 0 32 32" xmlns="http://www.w3.org/2000/svg">
  <path d="M16 22a6 6 0 116-6 6 6 0 01-6 6zm0-10a4 4 0 104 4 4 4 0 00-4-4z" />
  <path
    d="M21 31H11a4 4 0 01-4-4v-2.55a1 1 0 01.63-.92l3.64-1.46a1 1 0 11.73 1.86l-3 1.2V27a2 2 0 002 2h10a2 2 0 002-2v-1.87l-3-1.2a1 1 0 01.74-1.86l3.64 1.46a1 1 0 01.63.92V27A4 4 0 0121 31zM9 11a5 5 0 115-5 5 5 0 01-5 5zm0-8a3 3 0 103 3 3 3 0 00-3-3zM8 19.39H5a4 4 0 01-4-4v-1.75a1 1 0 01.63-.93l3.19-1.25a1 1 0 011.29.54 1 1 0 01-.56 1.3L3 14.32v1.07a2 2 0 002 2h3a1 1 0 010 2zM23 11a5 5 0 115-5 5 5 0 01-5 5zm0-8a3 3 0 103 3 3 3 0 00-3-3zM27 19.39h-3a1 1 0 010-2h3a2 2 0 002-2v-1.07l-2.55-1a1 1 0 01-.56-1.3 1 1 0 011.29-.57l3.19 1.25a1 1 0 01.63.93v1.75a4 4 0 01-4 4.01z" />
</svg>
