<svg viewBox="0 0 256 256" xmlns="http://www.w3.org/2000/svg">
  <path
    d="M68.924 128c-27.074 0-49.231 22.158-49.231 49.23 0 27.074 22.157 49.232 49.23 49.232 27.074 0 49.231-22.158 49.231-49.231S95.997 128 68.924 128zm0 19.692c16.43 0 29.538 13.108 29.538 29.539 0 16.43-13.108 29.538-29.538 29.538-16.431 0-29.539-13.107-29.539-29.538s13.108-29.539 29.539-29.539z" />
  <path
    d="M68.924 206.928c-25.148 0-50.295 11.104-66.954 33.317a9.846 9.846 0 001.969 13.786 9.846 9.846 0 0013.785-1.97c25.757-34.342 76.642-34.342 102.4 0a9.846 9.846 0 0013.784 1.97 9.846 9.846 0 001.97-13.785c-16.66-22.214-41.807-33.318-66.954-33.318zM68.924 0C41.85 0 19.693 22.158 19.693 49.23c0 27.074 22.157 49.232 49.23 49.232 27.074 0 49.231-22.158 49.231-49.231S95.997 0 68.924 0zm0 19.692c16.43 0 29.538 13.108 29.538 29.539 0 16.43-13.108 29.538-29.538 29.538-16.431 0-29.539-13.107-29.539-29.538s13.108-29.539 29.539-29.539z" />
  <path
    d="M68.924 78.928c-25.148 0-50.295 11.104-66.954 33.317a9.846 9.846 0 001.969 13.786 9.846 9.846 0 0013.785-1.97c25.757-34.342 76.642-34.342 102.4 0a9.846 9.846 0 0013.784 1.97 9.846 9.846 0 001.97-13.785c-16.66-22.215-41.807-33.32-66.954-33.32zM187.077 128c-27.073 0-49.23 22.158-49.23 49.23 0 27.074 22.157 49.232 49.23 49.232 27.073 0 49.23-22.158 49.23-49.231S214.15 128 187.078 128zm0 19.692c16.43 0 29.538 13.108 29.538 29.539 0 16.43-13.107 29.538-29.538 29.538-16.43 0-29.538-13.107-29.538-29.538s13.107-29.539 29.538-29.539z" />
  <path
    d="M187.077 206.928c-25.147 0-50.294 11.104-66.954 33.317a9.846 9.846 0 001.97 13.786 9.846 9.846 0 0013.784-1.97c25.758-34.342 76.642-34.342 102.4 0a9.846 9.846 0 0013.785 1.97 9.846 9.846 0 001.969-13.785c-16.66-22.214-41.807-33.318-66.954-33.318zm0-206.928c-27.073 0-49.23 22.158-49.23 49.23 0 27.074 22.157 49.232 49.23 49.232 27.073 0 49.23-22.158 49.23-49.231S214.15 0 187.078 0zm0 19.692c16.43 0 29.538 13.108 29.538 29.539 0 16.43-13.107 29.538-29.538 29.538-16.43 0-29.538-13.107-29.538-29.538s13.107-29.539 29.538-29.539z" />
  <path
    d="M187.077 78.928c-25.147 0-50.294 11.104-66.954 33.317a9.846 9.846 0 001.97 13.786 9.846 9.846 0 0013.784-1.97c25.758-34.342 76.642-34.342 102.4 0a9.846 9.846 0 0013.785 1.97 9.846 9.846 0 001.969-13.785c-16.66-22.215-41.807-33.32-66.954-33.32z" />
</svg>
